<svg width="350" height="350" viewBox="0 0 350 350" fill="none" xmlns="http://www.w3.org/2000/svg">
<path d="M175 350C271.65 350 350 271.65 350 175C350 78.3502 271.65 0 175 0C78.3502 0 0 78.3502 0 175C0 271.65 78.3502 350 175 350Z" fill="#18253F"/>
<path d="M323.167 112.292C315 93.0416 303.333 75.8333 288.75 61.25C273.875 46.375 256.666 35 237.708 26.8333C217.875 18.375 196.875 14.2916 175 14.2916C153.416 14.2916 132.125 18.6666 112.291 26.8333C93.0415 34.7083 75.8332 46.375 61.2498 61.25C46.3748 76.125 34.9998 93.3333 26.8332 112.292C18.3748 132.125 14.2915 153.125 14.2915 175C14.2915 196.875 18.6665 217.875 26.8332 237.708C34.9998 256.958 46.6665 274.167 61.2498 288.75C76.1248 303.625 93.3332 315 112.291 323.167C132.125 331.625 153.125 335.708 175 335.708C196.583 335.708 217.875 331.333 237.708 323.167C256.666 315 273.875 303.333 288.75 288.75C303.625 273.875 315 256.667 323.167 237.708C331.625 217.875 335.708 196.875 335.708 175C335.708 153.125 331.625 132.125 323.167 112.292ZM210 319.375C200.666 303.625 176.166 259.583 176.166 226.917C176.166 151.667 226.625 216.125 226.625 156.042C226.625 141.75 219.625 91.5833 175.875 81.0833C165.083 66.7916 139.708 53.0833 99.4582 58.625C99.4582 58.625 106.166 60.6666 113.75 64.4583C113.75 64.4583 99.1665 66.5 98.5832 76.4166C98.5832 76.4166 127.458 74.9583 143.792 80.2083C106.167 85.1666 86.9165 105 90.4165 140.875C95.3748 191.917 116.958 282.917 124.541 314.708C67.3748 294.292 26.2498 239.458 26.2498 175C26.2498 93.0416 92.7498 26.25 175 26.25C257.25 26.25 323.75 92.75 323.75 175C323.458 245 275.041 303.625 210 319.375Z" fill="white"/>
<path fill-rule="evenodd" clip-rule="evenodd" d="M166.833 199.208C166.833 179.958 193.083 173.833 203 173.833C229.833 173.833 267.75 156.625 277.083 156.917C286.708 157.208 292.833 161 292.833 165.375C292.833 171.792 239.166 196 218.458 193.958C198.625 192.208 193.958 194.25 193.958 202.417C193.958 209.417 208.25 215.833 224 215.833C247.625 215.833 270.666 205.333 277.666 210.292C283.791 214.667 261.625 230.417 236.25 230.417C210.875 230.417 166.833 218.458 166.833 199.208Z" fill="white"/>
<path d="M213.5 117.542C206.5 108.5 193.958 108.208 189.583 118.708C196.291 113.458 204.458 112.292 213.5 117.542Z" fill="#18253F"/>
<path d="M135.625 117.833C126 112 109.958 111.417 110.833 129.792C115.5 118.417 121.917 116.375 135.625 117.833Z" fill="#18253F"/>
<path d="M207.667 134.75C202.417 134.75 198.042 139.125 198.042 144.375C198.042 149.625 202.417 154 207.667 154C212.917 154 217.292 149.625 217.292 144.375C217.292 139.125 212.917 134.75 207.667 134.75ZM211.167 143.792C209.709 143.792 208.25 142.625 208.25 140.875C208.25 139.417 209.417 137.958 211.167 137.958C212.917 137.958 214.084 139.125 214.084 140.875C213.792 142.333 212.625 143.792 211.167 143.792Z" fill="#18253F"/>
<path d="M133 140C126.875 140 121.917 144.958 121.917 151.083C121.917 157.208 126.875 162.167 133 162.167C139.125 162.167 144.084 157.208 144.084 151.083C144.084 144.958 139.125 140 133 140ZM137.084 150.208C135.334 150.208 133.875 148.75 133.875 147C133.875 145.25 135.334 143.792 137.084 143.792C138.834 143.792 140.292 145.25 140.292 147C140.292 148.75 138.834 150.208 137.084 150.208Z" fill="#18253F"/>
<path d="M108.792 92.75C94.7916 102.958 88.3749 118.708 90.4166 140.875C95.3749 191.917 116.958 283.208 124.542 315C127.167 315.875 129.792 316.75 132.417 317.625C127.75 298.375 105.292 204.458 95.3749 132.417C92.7499 113.167 100.333 101.792 108.792 92.75Z" fill="white"/>
<path d="M143.5 80.2083C144.667 80.2083 145.542 79.9167 145.542 79.9167C130.375 72.625 106.459 72.3333 100.042 72.3333C99.4586 73.5 98.8753 74.9583 98.8753 76.4167C98.5836 76.7083 126.875 74.9583 143.5 80.2083Z" fill="white"/>
<path d="M116.083 64.4583C111.417 61.25 107.625 59.2083 105.292 58.0417C103.25 58.3333 101.5 58.3333 99.4585 58.625C99.4585 58.625 106.167 60.6667 113.75 64.4583C113.75 64.4583 113.459 64.4583 113.167 64.4583C115.209 64.4583 116.083 64.4583 116.083 64.4583Z" fill="white"/>
<path d="M233.625 258.417C228.667 257.25 209.417 270.958 202.125 276.208C201.834 274.75 201.542 273.583 201.25 273C200.375 270.083 181.709 271.833 177.334 276.5C165.667 270.958 142.334 260.167 142.042 266.875C141.167 275.625 142.042 312.083 146.709 314.708C150.209 316.75 170.042 305.958 179.959 300.417C179.959 300.417 179.959 300.417 180.25 300.417C186.375 301.875 197.75 300.417 201.834 297.792C202.417 297.5 202.709 296.917 203 296.333C212.042 299.833 231.584 306.833 235.667 305.375C240.917 303.917 239.75 259.875 233.625 258.417Z" fill="#E0E0E0"/>
<path d="M180.25 300.417C174.125 299.25 176.167 293.125 176.167 278.833C174.709 279.708 173.542 280.875 173.542 282.042C173.542 296.333 171.209 302.75 177.625 303.625C183.75 305.083 195.125 303.625 199.792 301C200.667 300.417 200.959 299.542 201.25 298.083C196.875 300.708 186.084 301.875 180.25 300.417Z" fill="white"/>
</svg>
