<svg width="323" height="350" fill="none" xmlns="http://www.w3.org/2000/svg"><path d="M155.242 1.026c-38.572 7.51-69.251 22.05-93.083 44.102-3.882 3.602-10.27 10.174-13.868 14.322-5.255 6.004-13.802 16.571-15.634 19.322-8.024 12.03-16.113 27.924-21.281 41.788-6.28 16.898-9.856 33.098-10.859 49.342-.24 3.908-.152 16.003.153 19.147l.13 1.375h321.791v-4.759c0-31.046-9.834-65.498-27.19-95.212-10.335-17.685-25.162-36.046-37.242-46.067-19.733-16.419-40.273-27.466-66.242-35.61C183.37 6.07 161.216.24 159.69.284c-.414 0-2.399.327-4.448.742zm3.162 11.659v6.964l-1.788.262c-9.965 1.42-24.291 5.415-31.552 8.755-1.024.48-1.918.786-2.006.699-.174-.197-4.339-12.03-4.339-12.336 0-.808 16.681-6.571 23.549-8.143 6.149-1.42 14.566-3.144 15.438-3.144l.698-.022v6.965zm7.849-6.31c5.19.939 15.132 3.493 20.06 5.152 4.645 1.572 15.481 5.502 15.678 5.677.043.043-.96 2.947-2.268 6.419-1.919 5.152-2.442 6.331-2.704 6.222-1.548-.611-17.356-5.851-20.627-6.855-4.143-1.289-9.986-2.817-12.428-3.297-.72-.131-1.483-.306-1.679-.35-.371-.109-.393-.61-.393-6.768V5.938h.938c.523 0 2.071.197 3.423.437zm-48.428 18.252c1.112 3.45 1.941 6.31 1.832 6.397-.087.087-.916.437-1.81.786-6.759 2.576-17.269 8.012-26.885 13.907-1.548.961-2.856 1.681-2.922 1.616-.065-.044-1.657-2.336-3.554-5.087l-3.445-4.978 1.003-.939c3.031-2.794 8.548-6.724 13.017-9.257 2.552-1.44 7.981-4.148 10.597-5.261 3.685-1.572 8.875-3.384 9.812-3.406.24-.022.829 1.506 2.355 6.222zm92.473-4.257c5.429 2.292 14.478 7.117 20.235 10.763 2.289 1.463 6.781 4.716 8.307 6.026l.502.437-3.663 5.567c-3.489 5.305-3.664 5.545-4.1 5.283-6.214-4.017-23.854-14.103-28.345-16.2l-2.05-.96 2.268-6.07c1.242-3.34 2.311-6.2 2.376-6.331.109-.306.611-.131 4.47 1.485zm-45.615 2.947c33.47 7.161 63.233 23.317 87.044 47.224 25.271 25.37 41.232 57.311 46.094 92.156.851 6.135 1.439 13.973 1.439 19.475v3.449H168.281l-.676-1.768c-1.395-3.559-2.093-9.869-1.592-14.475.524-4.804 1.614-8.908 4.187-15.916 4.252-11.55 5.102-15.065 5.08-21.222-.022-4.344-.305-5.982-2.682-16.134-2.638-11.135-2.943-13.122-2.965-18.907 0-4.65.152-6.048 1.112-9.825.872-3.537 1.286-4.454 3.619-7.903 3.467-5.153 5.953-7.423 11.164-10.13 3.772-1.966 5.212-2.424 9.463-3.08 3.598-.545 4.034-.567 6.367-.327 1.374.153 3.293.459 4.252.677 2.442.59 10.488 4.323 11.077 5.13l.436.612-.632.524c-1.592 1.332-3.729 2.73-4.863 3.166-1.875.699-4.121.786-6.345.218-2.333-.59-3.052-.59-3.052-.043 0 .676 1.875 2.161 3.248 2.576 1.876.546 5.997.48 7.981-.153s3.707-1.681 5.015-3.078l1.046-1.114 1.178 1.18c4.775 4.671 7.435 11.44 6.956 17.64-.546 6.659-3.598 13.209-8.526 18.208-2.355 2.402-4.339 3.865-7.195 5.262-2.922 1.441-5.364 2.074-8.068 2.074-2.464 0-4.23-.415-6.367-1.506-4.405-2.205-7.523-5.502-8.613-9.039-.371-1.223-.436-1.899-.349-3.537.109-1.987.131-2.074 1.134-3.58 1.679-2.533 3.38-3.734 5.56-3.908l1.178-.11-1.112 1.07c-1.178 1.135-1.57 2.052-1.134 2.598.458.546 4.208 1.616 6.214 1.769 1.025.087 1.854.174 1.854.196 0 .022-.393.895-.873 1.921-1.133 2.402-1.744 4.825-1.744 6.812 0 1.638.196 2.074.981 2.074 1.178 0 4.579-3.122 6.018-5.545.414-.677.807-1.223.872-1.223.088 0 .502.481.916 1.048 1.679 2.271 5.255 5.065 6.498 5.065.523 0 .654-.131.828-.829.611-2.162.088-5.131-1.351-7.816l-.72-1.332 1.766-.153c1.897-.131 3.772-.611 4.666-1.179 1.178-.742 2.421-1.9 2.421-2.227 0-1.092-3.925-2.904-7.239-3.384-.589-.087-1.047-.175-1.047-.218 0-.022.24-.59.545-1.223.545-1.244 1.287-4.126 1.505-6.004.109-.939.065-1.179-.306-1.506-.37-.35-.523-.35-1.417-.11-1.941.546-4.928 2.686-5.647 4.04l-.393.742-1.068-1.638c-1.875-2.882-4.252-5.109-5.43-5.109-.806 0-.894.284-1.024 3.385-.131 2.576 0 3.427.915 6.571.131.437.109.437-1.46.175-2.072-.371-5.364-.371-7.087 0l-1.374.284V94.23c0-.634-.196-2.009-.436-3.035-.24-1.026-.436-1.9-.436-1.943 0-.044 1.134-.131 2.508-.219 5.909-.349 8.111-2.314 4.6-4.104-.981-.502-4.687-1.485-5.603-1.485-.349 0-.633-.022-.633-.065 0-.044.349-1.092.764-2.358 1.591-4.694 2.027-7.27 1.264-7.554-.654-.262-3.096 1.244-5.08 3.122l-1.897 1.812-1.025-1.594c-1.112-1.768-2.268-2.925-3.598-3.602-.981-.502-1.112-.437-1.548.939-.262.807-.218 2.226.131 5.523l.131 1.157h-2.05c-1.744 0-2.202.088-3.14.546-.61.306-1.373.83-1.7 1.18l-.611.654.436.72c1.003 1.616 2.442 2.49 4.95 3.035.719.153 1.33.284 1.373.328.044.022-.261.873-.676 1.856-1.112 2.685-1.46 4.039-1.46 5.589 0 1.07.087 1.419.348 1.528.916.35 4.579-2.183 5.975-4.105l.567-.785 1.025 1.986c.588 1.18 1.395 2.38 1.984 2.948l.959.939-.937 1.157c-1.614 2.008-2.726 4.956-2.726 7.379 0 3.908 1.853 7.838 5.517 11.659 2.071 2.161 3.205 2.925 5.93 3.973l2.072.808-1.374.742c-.741.393-2.464 1.42-3.816 2.249l-2.464 1.507-2.115-.088c-1.657-.065-2.333-.196-3.096-.611-1.417-.721-2.595-1.747-3.707-3.231-.545-.721-1.199-1.419-1.46-1.55-.415-.197-.502-.11-.894.807-1.091 2.555-1.222 4.738-.393 6.507.894 1.921 2.791 3.056 5.626 3.34l1.221.131-.393.764c-.196.415-.828 1.55-1.395 2.511-1.287 2.227-2.159 4.345-2.922 7.03-.545 1.987-.589 2.423-.589 6.397 0 3.973.044 4.41.633 6.659 1.068 4.17 2.616 7.467 4.84 10.392 1.33 1.747 4.165 4.323 5.713 5.218.741.415 1.352.83 1.352.895 0 .197-2.66 2.468-3.511 2.992-1.046.633-2.9 1.266-4.252 1.44-2.049.284-4.884-.633-6.759-2.161-.872-.72-2.486-3.035-2.486-3.581 0-.131.436-.502.96-.829 1.243-.786 2.703-2.555 2.987-3.668.371-1.332.087-4.694-.567-7.096-.611-2.139-1.505-4.148-1.853-4.148-.48 0-1.374 1.157-2.595 3.319-1.679 2.991-2.137 4.366-2.333 7.052-.175 2.816.109 4.213 1.461 6.921.588 1.179 1.068 2.227 1.068 2.358 0 .109-.262.218-.589.218-1.024 0-2.747.96-3.728 2.074-1.221 1.397-1.832 3.057-1.963 5.393l-.087 1.921h.72c1.199 0 4.797-.611 5.909-.983 1.504-.524 2.834-1.812 3.794-3.667l.828-1.616 1.309.437c1.024.349 1.918.458 3.837.458 2.333 0 2.638-.044 4.274-.699.981-.393 1.962-.917 2.18-1.157.24-.262 1.265-1.244 2.312-2.205l1.918-1.746.807.283c.458.153 2.246.568 3.969.939l3.118.677.61 1.703c.458 1.266.85 1.965 1.548 2.685 1.112 1.136 3.293 2.315 5.102 2.795 1.112.284 6.498 1.223 7.043 1.223.306 0-1.003-3.69-1.679-4.782-.697-1.091-1.657-2.052-2.834-2.86l-.72-.502 1.308-.48c3.685-1.332 8.439-5.022 17.226-13.296l.938-.896-.327.765c-.655 1.593-.785 3.253-.48 5.676.174 1.266.283 2.314.24 2.358-.044.044-.654-.044-1.396-.196-1.875-.372-4.47-.153-5.734.458-.589.262-1.047.633-1.047.786 0 .655 1.199 2.096 2.442 2.904 1.178.808 3.336 1.768 3.947 1.768.152 0-.436.677-1.287 1.485-2.093 2.008-3.052 3.624-3.445 5.764l-.152.829h1.351c1.658 0 3.707-.502 4.95-1.222.523-.306 1.505-1.114 2.224-1.812l1.287-1.267.261 1.114c.284 1.2 1.069 2.903 1.81 3.908.589.808 2.159 1.725 2.791 1.637.654-.087 1.461-1.572 1.635-2.947l.109-1.048h2.333c3.664-.022 6.389-1.092 9.333-3.712 1.243-1.091 3.314-3.711 4.099-5.196l.414-.786 1.984 1.9c1.941 1.855 6.607 5.349 8.439 6.309 3.772 1.943 8.416 2.489 11.97 1.397 2.661-.829 5.604-3.165 6.956-5.567.785-1.332 1.396-3.973 1.243-5.196-.109-.83-.087-.873 1.003-1.572 1.374-.895 1.788-1.31 2.224-2.38.589-1.441.349-4.519-.654-7.881-.327-1.092-.327-1.507-.131-2.926.218-1.397.196-1.725-.087-2.14-.938-1.44-3.14-.327-4.47 2.315-.72 1.397-1.526 4.541-1.526 5.916 0 1.507-.022 1.529-1.985.699-1.918-.808-4.906-.851-6.781-.109-1.788.72-3.314 1.79-3.401 2.38-.066.436.021.502.654.502.414 0 .937.153 1.177.327.218.175.589.328.785.328.218 0 1.308.873 2.421 1.943 2.79 2.598 3.554 2.969 6.475 3.013l2.29.043-.044.983c-.065 2.271-2.137 5.109-4.513 6.222-1.57.743-2.748 1.026-4.819 1.223-1.243.109-1.919.044-3.62-.393-3.99-1.048-6.868-2.751-9.223-5.524a116.88 116.88 0 0 0-2.529-2.816c-.676-.721-1.854-2.402-2.617-3.712-4.143-7.27-6.737-9.846-11.534-11.462-2.53-.851-4.994-1.092-7.85-.742-2.529.284-5.625 1.07-7.37 1.834-.523.218-.937.349-.937.262 0-.088.152-.895.348-1.791.437-2.161.437-6.375-.021-8.602-.698-3.34-2.159-6.244-4.296-8.536-1.221-1.31-1.875-1.812-3.641-2.707-12.167-6.266-21.914-1.856-25.533 11.549-.48 1.856-.807 3.886-1.221 7.838-.458 4.607-1.374 11.266-1.723 12.859-.131.524-.131.503-1.155-.305-2.857-2.271-4.514-4.323-5.844-7.183-3.162-6.878-3.598-13.886-1.156-19.104 2.791-5.96 6.433-9.497 14.544-14.06 2.834-1.594 6.672-3.45 8.787-4.236l.545-.218-.087 1.834c-.131 2.511.218 3.646 1.483 4.912 1.046 1.048 3.096 1.943 4.47 1.943.959 0 2.071-.414 2.071-.785 0-.153-.24-1.027-.545-1.922-.414-1.222-.545-2.074-.545-3.471 0-3.69 1.134-5.808 5.822-10.96 1.526-1.681 3.118-3.45 3.488-3.908.393-.481.742-.83.785-.764.044.043.349 1.069.676 2.27 1.352 4.847 3.642 9.781 6.651 14.257 1.221 1.834 1.286 1.987.937 2.292-1.657 1.507-4.666.896-7.173-1.441l-1.418-1.331-.414.524c-1.265 1.659-1.396 4.672-.262 6.506.851 1.397 2.181 2.358 3.685 2.663 1.09.241 1.614.197 2.726-.131.283-.065.349.197.37 1.791.044 2.27.916 5.021 2.159 6.811 1.548 2.271 4.187 4.214 7.087 5.218 1.439.503 1.831.546 3.99.459 2.9-.131 4.601-.699 6.737-2.227 3.315-2.358 6.28-6.069 5.67-7.052-.327-.546-1.636-.589-4.056-.175-5.473.939-9.354 2.926-10.335 5.262-.393.939-.764.939-2.399-.022-2.529-1.484-4.84-4.628-5.32-7.248-.458-2.424.087-5.895 1.177-7.38.306-.414.393-.393 2.9.808 3.99 1.9 5.866 2.533 9.224 3.122 2.42.437 7.675.415 9.703 0 1.766-.371 4.775-1.768 7.784-3.624 1.155-.699 2.18-1.288 2.289-1.288.48 0 2.093 1.659 2.595 2.663.85 1.703.916 2.904.196 4.498-.719 1.594-1.984 2.86-4.208 4.17-.85.524-1.57.982-1.57 1.048 0 .044.654.393 1.461.764 1.112.524 1.831.721 3.162.786 1.504.087 1.809.044 2.9-.502.675-.328 1.482-.939 1.809-1.354 1.483-1.921 1.265-1.834 1.766-.72.219.546.524 1.572.655 2.314.458 2.467-.524 6.004-2.399 8.733-1.831 2.664-4.186 4.083-6.825 4.105-.85 0-2.049-.131-2.682-.284l-1.133-.284.545-1.092c.305-.589.741-1.833.981-2.75.414-1.66.414-1.682 0-3.363-.262-.982-.981-2.751-1.745-4.192-.719-1.397-1.373-2.947-1.439-3.493-.087-.546-.239-1.004-.327-1.004-.436 0-2.137 1.55-2.9 2.62-1.286 1.856-1.788 3.755-1.766 6.768.022 3.035.458 4.41 1.984 6.113 1.723 1.921 5.233 3.275 8.57 3.275 2.921 0 5.298-.895 7.98-3.035 3.816-3.056 5.277-11.069 3.14-17.269-.48-1.376-.567-1.878-.371-2.009.153-.087.916-.175 1.745-.175 1.46 0 1.482 0 2.463-1.004 1.156-1.135 2.006-2.882 2.203-4.41.152-1.266-.371-3.275-1.003-3.843-.436-.393-.48-.371-1.592.633-1.635 1.463-3.074 2.227-4.797 2.511-2.617.459-4.426-.109-6.062-1.899l-1.09-1.179.741-1.07c1.003-1.463 1.985-3.886 2.464-6.113.589-2.751.545-8.973-.087-11.681-.937-4.017-2.071-6.069-4.862-8.864-2.748-2.729-6.171-4.41-9.638-4.694l-1.592-.13.066-1.31c.109-1.835-.371-2.97-1.832-4.324-.676-.59-1.853-1.44-2.66-1.899-2.42-1.332-3.707-2.227-4.143-2.947l-.436-.677-.567.59c-.327.305-.785.982-1.003 1.506-1.177 2.554.218 7.03 2.835 9.126l.872.698-1.352.786c-1.919 1.07-3.249 2.49-4.165 4.41-.784 1.682-1.548 4.323-1.787 6.245-.131 1.048-.219 1.157-1.265 1.855-.611.393-1.352 1.07-1.636 1.485l-.501.764.589.481c.85.655 2.682 1.528 3.816 1.79.523.131 1.853.24 2.943.24h1.984l-.283 1.135c-.349 1.288-.393 4.236-.109 5.458l.196.808-1.243.24c-3.619.677-6.803 1.834-8.547 3.079-.785.546-.916.48-2.268-1.441-1.94-2.729-3.816-6.55-4.361-8.951-.763-3.232-1.352-8.537-1.853-16.375-.436-6.725-1.156-13.121-1.635-14.322-.109-.306.13-.328 2.136-.24 2.508.109 4.012-.197 5.888-1.223l1.024-.546.72.655c1.177 1.092 2.006 1.572 3.38 1.921 1.548.393 1.918.328 6.41-1.113 2.224-.72 3.511-1.026 4.492-1.048l1.374-.022-.131-.764c-.589-3.144-4.143-5.458-8.984-5.83-1.722-.13-1.809-.152-1.657-.589.109-.262.175-1.397.175-2.532 0-1.834-.066-2.227-.611-3.319-1.134-2.336-4.077-3.646-5.756-2.598-.698.437-.938.895-.502.895.48 0 2.486 2.118 2.9 3.057 1.134 2.532.175 5.895-2.202 7.772-1.657 1.288-2.529 1.681-3.99 1.79-2.987.219-5.975-1.593-12.036-7.27l-2.181-2.03.371-1.048c.196-.568.349-1.725.349-2.598v-1.572l1.134.284c3.772.982 6.388-.852 7.5-5.197.458-1.724.327-3.886-.305-5.087-.414-.807-1.722-2.27-1.831-2.052-.044.044-.349.655-.698 1.354-.763 1.528-2.006 2.641-3.315 2.969-.763.196-1.264.175-2.42-.087-1.962-.459-3.227-1.201-5.691-3.34-1.155-1.005-2.616-2.097-3.205-2.446-2.42-1.397-7.13-2.096-9.703-1.441-4.557 1.157-8.133 4.585-10.379 10-.414 1.004-.829 1.942-.938 2.117-.087.175-1.024.48-2.202.72-6.541 1.332-11.861 4.345-17.356 9.869-3.99 4.017-6.869 8.798-8.787 14.65-1.374 4.148-2.639 10.741-2.639 13.667 0 .83-.022.851-.479.611-.284-.131-1.396-.917-2.464-1.725-9.442-7.073-18.839-10.26-26.863-9.082-1.331.197-3.097.524-3.925.742l-1.483.371 2.508-2.51c1.395-1.376 2.987-3.21 3.554-4.083 1.591-2.402 3.336-6.222 4.6-10.13l1.178-3.58 1.003.02c3.009.023 9.834 5.787 13.497 11.376.959 1.484 1.875 2.685 2.028 2.685.305 0 .523-2.467.588-7.095.044-3.013.044-3.079-.588-4.127-1.636-2.794-6.345-6.593-9.856-7.947-3.292-1.266-5.844-1.681-10.117-1.66-3.402 0-4.056.066-5.953.59-3.685.983-5.168 1.834-7.806 4.498-2.398 2.423-4.731 5.654-5.756 7.969-1.548 3.493-2.29 8.143-1.919 12.03.131 1.2.196 2.227.153 2.248-.371.502-6.018.852-8.046.502-4.71-.785-10.75-3.886-14.086-7.204-2.551-2.555-4.492-6.07-5.233-9.52-.153-.72-.262-2.532-.262-4.038 0-2.337.088-2.97.567-4.476 1.505-4.629 4.623-7.642 8.831-8.515 2.202-.48 2.813-.437 2.965.197.066.283.197.676.262.873.11.306-.109.35-1.657.35-1.09 0-2.464.174-3.554.458-1.984.502-2.704.83-3.293 1.484-.894.983.545 2.598 3.533 3.996 1.003.48 2.136.917 2.55.982.895.153.895.153.35.895-.218.328-.829 1.572-1.33 2.773-1.112 2.62-1.44 4.978-.764 5.655.764.764 2.813-.11 6.018-2.533 1.091-.83 2.006-1.484 2.028-1.44.022.043.262.545.545 1.156 1.2 2.577 4.558 6.463 5.342 6.157.153-.065.458-.764.676-1.55.48-1.79.349-4.716-.327-7.096-.239-.873-.414-1.637-.392-1.68.043-.044.719.021 1.483.13.785.11 2.464.219 3.75.219 5.473 0 6.563-1.245 3.249-3.69-1.701-1.245-2.573-1.703-4.928-2.533-.959-.349-1.788-.655-1.832-.676-.043-.044.131-.328.371-.677 1.352-1.943 2.442-5.262 2.442-7.51 0-1.092-.065-1.289-.458-1.398-1.33-.437-3.706.633-5.603 2.467l-1.091 1.07-.239-.808c-.655-2.227-4.492-6.55-5.822-6.55-.524 0-1.396 2.904-1.723 5.699l-.152 1.244-1.788.087c-2.203.131-3.882.72-5.67 2.009-3.837 2.75-6.345 7.27-6.868 12.445-.109 1.179-.262 2.183-.305 2.227-.022.043-.807-.219-1.701-.59-2.311-.96-5.473-1.288-7.5-.786-1.549.393-3.184 1.18-3.315 1.616-.044.13.567.611 1.395 1.07 1.003.567 2.246 1.615 3.882 3.253 1.352 1.353 2.965 2.729 3.706 3.165 1.2.72 1.418.764 3.337.808l2.05.044.937 1.615c.523.896 1.504 2.337 2.158 3.21.654.895 1.178 1.637 1.156 1.66-.022 0-1.374-.22-2.987-.503-2.704-.48-3.336-.502-8.068-.415-5.909.131-6.214.066-7.959-1.746-2.485-2.555-3.27-5.59-2.05-7.991.546-1.048.524-1.223-.108-1.397-.829-.197-2.573.873-4.1 2.51-3.532 3.777-3.357 7.882.415 10.283l.916.59-1.897 1.506c-2.595 2.053-5.735 5.11-7.021 6.856-2.137 2.882-3.642 6.55-4.558 11.047-.872 4.345-.806 8.624.197 12.532.24.961.327 1.659.218 1.703-.131.044-.938.546-1.788 1.114-6.084 3.995-9.747 11.855-8.896 19.081.61 5.196 2.747 10.283 7.195 16.964 2.835 4.236 2.747 4.083 2.006 4.258-1.33.283-4.971-.502-7.021-1.529-1.308-.655-3.641-2.423-4.077-3.078-.306-.48-.306-.611.152-1.681 1.287-2.969 1.592-5.939.872-8.624-.676-2.489-3.575-8.406-4.077-8.296-1.2.218-2.682 3.755-3.27 7.859-.306 2.074-.306 2.533-.023 4.258.59 3.427 1.963 6.178 4.318 8.558 3.489 3.559 8.242 5.458 13.017 5.218l2.028-.109.72 1.441c.654 1.354.697 1.594.697 3.733 0 2.184-.044 2.358-.785 3.93-.937 1.921-2.158 3.384-3.75 4.432-3.314 2.205-7.588 2.249-10.096.066l-.828-.721.785-.677c.414-.393 1.003-1.222 1.286-1.834.458-1.004.524-1.484.524-3.667 0-2.227-.066-2.664-.59-3.865-.5-1.201-1.482-2.816-2.463-4.104-.458-.59-.829-.328-2.224 1.593-1.636 2.293-2.137 3.908-2.137 7.031 0 2.445.022 2.554.807 4.191 1.264 2.686 3.358 4.52 6.28 5.568 1.722.611 5.08.698 7.042.174 2.987-.786 5.691-2.838 7.021-5.392l.633-1.245 1.155 1.092c1.57 1.485 3.206 2.205 5.364 2.336 1.57.087 1.788.044 3.14-.611 2.508-1.245 3.969-2.991 3.99-4.76v-.698h-2.267c-2.9 0-4.514-.481-6.629-1.965-1.722-1.223-3.03-2.73-3.968-4.563-1.025-2.096-1.025-2.096.152-2.446 1.396-.371 5.255-3.013 6.585-4.475l1.09-1.179.219.764c.305 1.157 1.199 2.576 2.115 3.384 1.94 1.703 4.099 1.987 6.388.851 1.243-.633 2.42-1.768 2.42-2.336 0-.153-.523-.524-1.133-.829-1.963-.983-3.184-2.053-4.296-3.799-.96-1.485-1.09-1.878-1.504-4.149-.24-1.375-.654-4.06-.916-5.96-.48-3.668-1.156-6.571-2.05-8.995-.501-1.266-.523-1.441-.174-1.332 5.08 1.485 9.9 2.031 14.369 1.594l1.788-.153 1.003 1.245c4.36 5.392 9.092 9.366 13.933 11.637 3.336 1.593 5.19 1.986 9.725 2.117 3.554.088 3.968.066 5.887-.436 1.134-.306 2.137-.481 2.224-.393.087.065.414.829.741 1.659 1.331 3.537.807 8.755-1.33 12.99-3.161 6.245-9.942 11.113-17.138 12.314l-.807.153.524-1.31c.697-1.725.959-3.188.959-5.415v-1.834l.676.35c1.112.589 3.903 1.201 5.407 1.201 1.505 0 2.966-.306 3.184-.655.262-.415-1.33-2.97-2.726-4.389-1.024-1.026-1.744-1.55-2.573-1.856l-1.155-.436 1.722-1.223c2.028-1.463 3.773-3.318 4.536-4.781.741-1.507.697-1.9-.262-2.074-2.159-.393-5.756.349-8.635 1.79-.566.284-1.09.524-1.155.524-.066 0-.11-.524-.11-1.157 0-1.376-.828-3.799-1.656-4.913-.698-.938-1.614-1.768-1.963-1.79-.414 0-1.831 1.703-2.267 2.751-.24.524-.458.961-.502.961-.065 0-.632-.24-1.286-.546-1.636-.742-2.813-.873-4.71-.459-2.028.415-3.576 1.31-5.102 2.926-1.33 1.397-2.116 2.773-2.682 4.738-.458 1.55-.35 5.327.218 7.423.567 2.118 2.355 5.545 3.597 6.943 2.988 3.318 8.875 5.829 13.737 5.873 3.445.021 8.221-1.027 11.513-2.555 4.077-1.899 8.351-5.589 10.379-9.017 1.221-2.052 2.333-4.868 2.856-7.248.502-2.249.676-8.406.327-10.982l-.261-1.987.719-.611a97.848 97.848 0 0 1 1.527-1.266l.806-.655.916.764c.523.436 1.614 1.179 2.42 1.659 2.53 1.463 9.42 6.157 11.121 7.554 3.445 2.838 5.931 5.851 6.999 8.559.414 1.048.48 1.615.48 3.864 0 2.467-.044 2.729-.633 3.93-.894 1.834-3.14 3.973-5.32 5.065-3.009 1.506-5.56 1.637-8.177.393-1.373-.655-2.551-1.637-2.136-1.812.915-.371 3.074-2.052 3.684-2.86 1.2-1.594 1.331-2.424 1.243-7.882-.021-2.685-.109-4.912-.152-4.956-.24-.262-2.442.699-3.772 1.638-3.685 2.576-5.582 6.135-5.255 9.781.087.764.065 1.375-.022 1.375s-.632-.153-1.221-.327c-2.137-.655-5.255-.284-7.108.829-2.661 1.594-5.43 5.24-5.452 7.183v.59l.938-.524c1.112-.655 2.9-.721 5.931-.219 4.361.721 6.236.328 8.242-1.681l1.286-1.266.567.415c2.312 1.615 5.582 2.642 8.439 2.642 6.781 0 11.425-4.956 12.232-13.078.676-6.899-4.317-13.667-15.59-21.134-2.551-1.681-2.66-1.791-2.072-1.922 5.582-1.222 9.529-3.34 11.775-6.287 2.093-2.751 3.161-5.917 3.903-11.55l.131-1.048 1.242.633c2.617 1.31 6.062 1.987 7.632 1.463.632-.218.611-.393-.196-2.096-1.33-2.816-3.271-4.759-5.822-5.807-.676-.284-1.134-.524-1.003-.524.545 0 2.791-1.922 3.729-3.166 1.068-1.419 1.657-2.62 1.875-3.821.218-1.179.065-1.266-2.115-1.07-2.464.219-3.947.677-5.103 1.507l-.915.655v-.852c0-2.925-1.003-6.79-1.897-7.401-.567-.349-.567-.349-1.309.502-1.482 1.703-2.464 4.214-2.791 7.14l-.13 1.266-1.025-.524c-1.657-.83-3.096-1.266-4.819-1.419l-1.614-.131-.915-2.183c-.502-1.201-1.178-2.708-1.505-3.363-.523-1.004-.545-1.157-.196-1.026 1.941.786 6.083 1.004 8.242.459 3.162-.808 6.541-3.079 7.435-4.978.676-1.463.742-3.21.109-3.21-.436 0-1.439 1.048-1.831 1.9-.502 1.091-6.149 2.729-9.42 2.729-3.401-.022-5.734-1.048-8.089-3.602l-1.221-1.332.501-.415c.916-.764 3.554-1.9 5.212-2.249 1.242-.262 2.354-.327 4.687-.24 3.38.131 5.408.524 9.769 1.921 2.704.852 2.834.917 4.579 2.446 6.846 6.025 11.665 12.248 13.671 17.684 1.003 2.729 1.178 3.886 1.178 7.248 0 2.817-.088 3.559-.567 5.349-.894 3.275-2.181 6.354-5.451 12.969-3.445 6.921-4.601 9.628-5.691 13.231-1.287 4.279-1.57 6.309-1.57 11.353 0 5.611.501 8.58 2.376 14.125l.764 2.249H22.976l.109-1.266c.065-.677.174-2.424.24-3.864.283-5.699 1.177-14.083 2.18-20.349 9.42-58.489 43.718-102.417 98.251-125.843 6.52-2.795 16.746-6.44 23.854-8.493 3.62-1.048 12.363-3.253 12.93-3.275.284 0 2.159.35 4.143.786zM81.63 44.473c2.05 2.816 3.729 5.218 3.729 5.305 0 .11-.415.524-.916.939-4.71 3.755-12.494 10.785-18.403 16.636l-6.934 6.878-3.816-3.428c-2.093-1.877-4.143-3.712-4.579-4.083l-.763-.676.916-1.245c2.093-2.773 13.104-13.995 17.705-18.034 2.05-1.812 9.049-7.401 9.31-7.423.022 0 1.701 2.315 3.75 5.13zm163.621-2.86c9.681 6.964 20.997 17.532 24.879 23.252.436.633.785 1.266.785 1.419 0 .218-9.158 8.667-9.573 8.82-.087.022-1.133-1.113-2.354-2.51-4.492-5.24-14.762-14.978-21.085-20.021-1.33-1.048-2.442-2.009-2.486-2.096-.065-.197 6.934-10.698 7.152-10.698.065 0 1.264.83 2.682 1.834zm-143.299 12.16c1.461 2.293 2.333 6.026 1.7 7.227-.239.437-.239.437-.741-.043-1.156-1.092-2.268-4.804-2.289-7.62 0-1.376.196-1.31 1.33.437zm108.717-.109c4.426.917 7.064 3.232 8.046 7.074.349 1.332.523 5.327.24 5.59-.066.065-1.679-.503-3.576-1.289-6.345-2.62-9.943-3.668-13.585-3.973-2.463-.197-3.052-.328-3.052-.633 0-.612 1.417-3.035 2.398-4.127 1.112-1.222 3.053-2.401 4.492-2.75 1.33-.306 3.227-.263 5.037.108zm-99.625 2.533c-.458 2.51-2.42 5.043-4.622 5.96l-.851.35.153-.895c.327-2.053 2.137-4.716 4.034-5.939 1.395-.873 1.526-.83 1.286.524zm118.246 3.035c-.502 1.66-2.769 2.99-4.688 2.75-1.112-.152-1.853-.72-2.464-1.92-.698-1.376-.654-1.507.327-1.245 1.984.546 4.797-.262 6.302-1.834l.61-.655.066 1.07c.043.567-.022 1.397-.153 1.834zM99.422 62.157c.611.219 1.374.59 1.723.83l.632.459-.959.414c-1.44.612-2.748.699-4.34.284-1.438-.371-3.27-1.332-3.422-1.812-.262-.764 4.317-.873 6.366-.175zm13.65 2.991c1.832.917 2.529 1.398 2.289 1.638-.087.11-1.308.174-2.703.153-2.9 0-4.274-.393-5.822-1.66l-.85-.72.85-.153c.48-.065 1.722-.109 2.747-.087 1.636.043 2.05.13 3.489.83zm-10.379.59c.196.655-.414 2.729-1.09 3.602-.981 1.267-4.557 4.061-4.84 3.755-.175-.174.479-2.336 1.068-3.514.872-1.725 1.875-2.86 3.161-3.56 1.505-.807 1.527-.807 1.701-.283zm3.663 3.275c.981 2.052 1.112 2.51 1.199 4.082.066 1.114 0 1.835-.13 1.922-.502.306-1.941-1.9-2.573-3.996-.48-1.572-.349-4.78.174-4.453.131.065.72 1.157 1.33 2.445zm-55.732 2.249c1.788 1.593 4.056 3.624 5.015 4.519l1.766 1.616-2.137 2.86c-6.149 8.252-11.578 16.876-15.197 24.059l-2.094 4.148-2.529-1.44a989.853 989.853 0 0 0-6.062-3.363c-1.962-1.048-3.554-1.965-3.554-2.03 0-.262 2.617-5.065 5.124-9.432 4.797-8.362 6.694-11.484 8.308-13.667 2.442-3.275 7.806-10.13 7.958-10.13.066-.022 1.592 1.288 3.402 2.86zm226.396 2.03c5.691 6.79 10.859 14.322 14.98 21.833 2.136 3.908 3.379 6.484 3.183 6.659-.305.284-10.597 6.571-10.641 6.506-.021-.044-.457-.852-.981-1.812-3.816-7.118-12.537-20.326-17.552-26.636l-1.614-2.052 1.352-1.289c.741-.72 2.769-2.62 4.513-4.257l3.162-2.947.523.458c.284.262 1.658 1.856 3.075 3.537zm-143.757-3.21c.392.24-.938 4.018-2.508 7.162-3.052 6.07-6.039 9.453-10.793 12.204l-1.025.59-.348-.83c-.655-1.55-.022-5.83 1.351-9.06 1.745-4.149 5.103-7.926 8.33-9.301 1.766-.764 4.361-1.157 4.993-.764zm-53.53 3.516c1.831.786 3.401 1.943 4.426 3.23.545.7.981 1.376.981 1.507 0 .219-1.351.961-1.787.961-.59 0-3.075-1.79-4.863-3.493-1.068-1.048-2.202-2.03-2.507-2.183-.502-.284-.524-.306-.11-.459.676-.306 2.726-.066 3.86.437zm104.727 4.279c.85 1.79 1.243 3.624 1.025 4.672l-.175.764-.654-.873c-1.526-1.943-2.42-4.454-2.159-6.179l.153-.938.545.502c.284.283.872 1.2 1.265 2.052zm66.743-1.092c1.003.415 2.573 1.66 2.333 1.856-.087.066-1.199.546-2.463 1.026-3.555 1.376-6.128 1.441-7.567.175l-.61-.502.654-.699c1.984-2.096 5.211-2.882 7.653-1.856zm-59.439 1.441c-.61 1.834-1.526 3.231-2.921 4.476-1.069.982-1.112 1.004-1.178.502-.196-1.244.981-3.559 2.508-5.021.915-.874 1.853-1.55 1.962-1.42.044.044-.131.7-.371 1.463zM66.912 83.793c.305.634.981 1.638 1.548 2.25.807.873.916 1.09.632 1.2-1.025.393-3.51-1.048-4.186-2.423-.872-1.747-.763-3.144.349-5.066l.567-.982.283 1.921c.153 1.07.523 2.446.807 3.1zm115.716-.109c.502.284.96.633 1.003.786.153.415-1.635.786-3.14.655-1.46-.153-3.794-.96-3.924-1.397-.153-.437 1.242-.72 3.227-.633 1.504.065 2.093.175 2.834.59zm12.625 2.075c.545.174 1.221.502 1.505.72l.523.415-1.134.24c-2.246.48-4.404.175-6.476-.917l-.632-.328.545-.218c.305-.109.741-.262.981-.327.698-.197 3.62.043 4.688.415zm58.218 1.331c.763.459 2.006 1.42 2.747 2.14 1.069 1.048 1.418 1.572 1.701 2.51.305 1.005.305 1.223.044 1.485-.611.612-3.729-.698-4.928-2.052-1.483-1.703-2.311-4.89-1.265-4.89.175 0 .916.37 1.701.807zm-68.924.72c-.414 1.856-2.115 4.193-3.663 5.022-.393.197-.458.175-.458-.174 0-.874.698-2.642 1.396-3.58.654-.852 2.703-2.49 2.878-2.293.043.022-.044.502-.153 1.026zm4.165 1.53c.479.96 1.09 3.405 1.09 4.387 0 1.223-.284 1.42-.959.634-1.265-1.529-1.701-2.533-1.81-4.345-.066-.96-.066-1.9.022-2.118.13-.327.196-.327.697.153.306.284.742.873.96 1.288zm16.898 2.51c.938 1.9 1.308 3.93.851 4.65-.262.393-.393.437-.742.262-.61-.327-1.722-2.052-2.202-3.362-.436-1.31-.763-3.843-.545-4.41.24-.612 1.766 1.048 2.638 2.86zm8.308-1.18c-.197 1.289-1.221 3.407-2.29 4.739-.872 1.091-1.831 1.79-2.093 1.528-.065-.066-.022-.742.087-1.485.284-1.746 1.308-3.34 3.031-4.694.676-.546 1.287-.982 1.33-.982.044 0 .022.393-.065.895zm-130.675.547c4.34.458 6.694.96 10.728 2.27 8.286 2.664 13.257 3.603 17.989 3.428 1.613-.044 3.118-.175 3.358-.262.349-.153.371-.11.174.24-.131.219-1.264 1.66-2.529 3.188-3.358 4.039-4.187 5.24-5.495 7.925-2.006 4.126-2.747 7.663-3.031 14.169-.218 4.847-1.024 6.943-3.706 9.672-1.112 1.114-1.57 1.398-2.748 1.769-.763.24-2.071.502-2.878.589-.807.088-1.46.24-1.46.328 0 .502 1.547 2.379 2.463 2.991 1.396.939 2.551 1.222 4.317 1.113 2.399-.174 4.623-1.659 5.735-3.82l.501-1.027.611.983c.349.524 1.112 1.987 1.701 3.253.937 1.987 4.339 9.453 4.666 10.196.065.153-.371.502-1.003.808-7.108 3.624-18.926-1.092-25.053-10-.633-.895-1.134-1.725-1.134-1.834 0-.131.458-.567 1.046-.982 1.309-.961 3.663-3.428 4.601-4.803.981-1.463 2.53-4.782 3.01-6.485.282-1.091.392-2.205.392-4.803 0-3.69-.262-4.978-1.658-8.056-.348-.764-.632-1.419-.632-1.463 0-.044.284-.087.61-.087 1.68 0 4.601-2.424 5.081-4.214.567-2.074-.283-4.519-2.224-6.593-1.243-1.31-2.66-2.14-4.448-2.62-1.352-.35-3.03-.437-2.9-.175 2.442 4.891 3.118 8.427 2.028 10.523l-.35.699-1.33-1.201c-2.332-2.118-5.865-3.602-8.547-3.624-.872 0-1.024-.066-.915-.349.261-.699.785-4.083.785-5.153 0-.72-.11-1.091-.306-1.179-.741-.284-5.582 1.769-7.151 3.035-.458.371-.873.611-.894.568-.044-.044-.371-.612-.72-1.267-.676-1.266-2.115-2.51-3.794-3.275-1.483-.676-1.657-.611-2.159.743-.545 1.462-.61 4.606-.152 6.353l.305 1.135-1.832-.131c-2.071-.131-4.775.24-6.127.83-.741.327-.937.524-.937.961 0 1.266 3.161 3.689 6.192 4.737.96.35 1.94.633 2.137.633.305 0 .196.328-.567 1.813-1.243 2.445-1.744 4.126-1.766 5.829v1.419l.916-.022c1.134-.022 2.573-.939 4.797-3.056l1.57-1.507.567 1.376c.414.96 1.177 2.008 2.55 3.515 1.07 1.2 2.094 2.227 2.268 2.292 1.112.437 1.483-.982 1.33-5-.087-1.681-.196-3.275-.261-3.515-.153-.458-.131-.458 1.003-.174.632.174 2.05.305 3.14.305 1.613 0 2.158-.087 3.118-.546.632-.283 1.199-.676 1.264-.873.24-.611-.567-2.249-1.504-3.078-1.221-1.048-3.402-2.249-4.884-2.686l-1.2-.349.48-.437c1.156-1.048 6.345.022 9.114 1.856 1.418.961 2.006 1.681 2.006 2.445 0 .284-.872 1.725-1.962 3.232-2.246 3.144-4.296 6.964-5.08 9.497-.567 1.834-1.243 5.393-1.243 6.55v.698l-1.701-1.681c-5.124-5.043-11.47-7.423-19.842-7.423h-2.377l-.349-.939c-.72-1.877-1.046-3.842-1.177-6.812-.087-2.532-.044-3.427.327-5.152.523-2.533 1.722-5.546 2.834-7.161 2.18-3.21 6.084-6.55 9.682-8.34 4.077-2.03 8.11-2.533 14.63-1.812zm175.679 5.196c0 .044-.458.611-1.003 1.266-.545.633-1.243 1.638-1.548 2.249-.305.589-.589 1.135-.632 1.179-.044.044-.48-.284-.96-.721-.479-.436-1.33-1.004-1.853-1.266-.545-.262-.981-.568-.981-.655 0-.11.588-.48 1.33-.83 1.155-.545 2.529-.873 4.884-1.157.371-.043.676-.109.72-.13.021 0 .043.021.043.065zm6.934 2.008c5.756 2.795 8.417 8.231 7.85 16.069-.175 2.533-1.091 5.502-2.355 7.598-1.439 2.424-1.2 2.314-2.944 1.507-2.115-.961-6.214-2.271-8.329-2.686-.981-.175-2.791-.393-4.034-.48l-2.246-.153 1.221-1.266c.654-.699 1.439-1.703 1.723-2.249l.523-.983 1.57 1.507c1.112 1.048 2.137 1.768 3.598 2.489l2.028 1.026.196-.502c.109-.284.152-1.441.109-2.576-.087-1.965-.48-3.385-1.788-6.354-.131-.284.131-.371 1.373-.567.829-.131 2.094-.503 2.791-.808 1.309-.612 3.14-2.205 3.685-3.231l.306-.59-1.243-.458c-2.006-.743-3.969-1.136-6.062-1.158l-1.962-.043.523-1.529c.414-1.266.48-1.833.393-3.274-.044-.961-.175-1.944-.262-2.162-.175-.371-.109-.415.567-.262.414.066 1.657.59 2.769 1.135zM69.07 98.51c.306.24.83 1.004 1.178 1.703.501 1.048.61 1.528.61 2.991 0 1.201-.109 1.943-.348 2.38l-.371.655-.589-.655c-1.526-1.638-2.376-4.651-1.875-6.594.284-1.026.567-1.113 1.395-.48zm134.752-.197c2.355.48 2.137 1.157-.588 1.987-1.701.524-3.642.459-5.43-.175l-1.068-.349.872-.524c1.766-1.048 3.968-1.375 6.214-.939zm11.753 0c.632.153 1.657.48 2.246.743l1.09.48-1.505.48c-.915.284-2.027.459-2.943.437-1.505 0-3.751-.568-3.881-.983-.066-.196 1.264-.917 2.333-1.266.567-.175 1.461-.13 2.66.11zm44.546 3.865c-.588 1.965-2.202 4.41-2.725 4.082-.327-.196-.262-2.292.131-3.624.414-1.375.981-2.38 2.049-3.559l.763-.851.066 1.354c.043.807-.087 1.855-.284 2.598zm-165.408-1.66c1.308 1.289 1.788 2.249 1.918 3.603.088 1.091.044 1.375-.414 2.03-.48.699-2.246 1.921-2.486 1.703-.043-.065.022-.415.153-.808.501-1.462 0-5.305-1.025-7.75-.152-.415-.13-.415.48.022.37.262.981.807 1.374 1.2zm-16.332-.633c0 .437-.763 2.555-1.265 3.581-.588 1.157-2.42 2.773-3.663 3.253-.523.196-1.025.306-1.112.24-.218-.218.35-2.096.894-2.947 1.112-1.769 2.377-3.122 3.467-3.756 1.243-.72 1.68-.807 1.68-.37zm174.436 1.616c1.09.939 2.115 2.511 2.507 3.864.437 1.463.175 1.66-1.046.808-1.57-1.07-2.9-2.969-3.293-4.716-.087-.371-.196-.829-.283-1.07-.109-.393-.087-.393.589 0 .37.241 1.068.743 1.526 1.114zm-46.16.218c.196.328-.676 3.275-1.352 4.629-.371.72-1.265 1.943-1.962 2.685l-1.287 1.376.218-1.31c.458-2.97 1.178-4.607 2.835-6.376 1.09-1.135 1.352-1.309 1.548-1.004zm4.273 1.201c1.57 1.637 3.053 5.24 2.813 6.768-.087.459-.218.371-1.439-.873-2.028-2.009-3.598-5.611-2.878-6.485.392-.48.523-.414 1.504.59zm-90.837 1.485c3.249 3.493 6.04 9.322 7.392 15.326.436 1.965.501 2.795.479 6.834 0 3.908-.087 4.934-.501 6.877-.916 4.257-2.399 6.921-4.557 8.144l-1.156.633-1.199-.786c-4.187-2.795-7.632-8.69-8.962-15.37-1.243-6.245.502-15.087 3.903-19.672.829-1.135 2.944-3.275 3.249-3.296.087 0 .698.589 1.352 1.31zm-88.264 4.803c1.678.917 3.38 1.79 3.772 1.943.37.175.697.306.697.349 0 .022-.741 1.594-1.657 3.493-3.968 8.319-7.457 17.816-9.812 26.745-.327 1.267-.654 2.358-.72 2.446-.13.153-12.973-3.122-13.213-3.362-.13-.131.829-4.105 1.657-6.834.96-3.079 5.255-15.196 6.563-18.449 1.178-2.925 1.876-4.366 3.925-8.231l1.287-2.423 2.224 1.31c1.22.742 3.598 2.096 5.276 3.013zm267.061-.415c3.14 5.938 6.127 13.1 8.547 20.392 1.832 5.502 3.554 12.03 3.249 12.335-.109.087-2.638 1.004-5.647 2.031a2311.77 2311.77 0 0 1-5.8 1.986c-.262.131-.458-.283-.96-2.096-1.94-7.117-7.173-21.483-10.88-29.845-.567-1.266-.938-2.358-.851-2.445.109-.087 2.421-1.528 5.19-3.21l5.015-3.056.349.589c.196.35 1.003 1.834 1.788 3.319zm-232.523-2.511c.632.328 1.483.917 1.94 1.288l.785.699-.85.284c-1.592.524-4.71-.022-6.302-1.114-1.962-1.331-1.417-2.03 1.418-1.877 1.526.065 2.093.218 3.009.72zm200.47.328c.567.131 1.025.305 1.025.393 0 .349-2.246 1.375-3.707 1.681-1.504.305-2.682.262-4.077-.175-.807-.24-.872-.415-.327-.873 1.461-1.288 4.164-1.681 7.086-1.026zm-13.257 1.812c.414.174.763.415.763.524 0 .436-2.704 1.419-4.164 1.528-1.679.109-3.903-.109-3.903-.415 0-.262 2.42-1.463 3.445-1.703 1.264-.305 3.03-.262 3.859.066zM79.755 109.6c.916.546 1.94 1.266 2.246 1.594l.566.589-1.002.153c-2.334.349-4.776-.459-6.52-2.118l-.916-.895.654-.284c1.2-.568 3.031-.218 4.972.961zm-9.943 2.947c-.61 1.288-2.573 3.537-3.641 4.17l-.72.415.153-.961c.087-.524.349-1.375.567-1.899.457-1.026 2.725-3.428 3.532-3.733.436-.153.501-.11.567.327.043.306-.175 1.048-.458 1.681zm186.406-1.244c.393 1.528-.501 4.257-1.94 5.873l-.763.873-.153-1.026c-.262-1.769.436-4.039 1.744-5.611.698-.83.938-.852 1.112-.109zm-183.005.043c.764.83 1.483 2.882 1.81 5.153.196 1.288.284 2.402.218 2.467-.458.458-2.29-2.773-2.747-4.847-.24-1.091-.11-3.166.196-3.166.11 0 .327.175.523.393zm187.214.808c.632.655 1.33 1.616 1.548 2.14.436 1.004 1.134 3.646.937 3.646-.043 0-.523-.349-1.068-.786-2.18-1.79-4.208-6.201-2.856-6.201.174 0 .828.546 1.439 1.201zm-118.028.219c.502 1.353.327 3.886-.392 5.305-.284.546-.611 1.048-.742 1.07-.436.131-.85-1.31-.85-2.991 0-1.31.131-1.922.632-3.101.327-.829.698-1.441.785-1.375.109.065.349.546.567 1.092zm-50.412 1.702c.523 1.376 1.003 3.799 1.003 5.109 0 2.795-1.068 6.201-2.856 8.908-1.069 1.638-3.25 4.017-4.492 4.891l-.72.48-.261-.611c-.175-.372-.262-1.769-.284-3.668 0-2.882.044-3.166.72-5.131 1.046-3.035 2.66-6.244 4.165-8.209 1.766-2.314 2.07-2.685 2.224-2.707.087 0 .305.414.501.938zm57.498 2.861c-1.024 1.637-3.336 3.362-4.993 3.733l-.719.153.414-.852c.458-.873 1.832-2.27 3.053-3.122.872-.589 2.529-1.113 2.616-.851.044.109-.131.524-.371.939zm-14.739.305c2.049.786 4.448 2.817 4.753 4.017.131.415.065.437-1.047.328-2.136-.218-4.426-1.594-5.8-3.493-.915-1.267-.85-1.529.306-1.354.501.087 1.308.306 1.788.502zm82.53 2.38c0 .109-.218.808-.458 1.594-.545 1.637-.654 4.999-.24 6.419.131.48.196.917.131.982-.262.262-2.137-1.026-2.53-1.747-.654-1.179-.458-3.689.415-5.239.349-.655.981-1.398 1.373-1.682.72-.48 1.309-.633 1.309-.327zm-82.901 2.664 1.177.589-.785.611c-.436.328-1.133.939-1.548 1.376-.523.546-.785.698-.85.48-.087-.284-.567-4.476-.567-5.021 0-.11.305.152.698.567.37.437 1.221 1.07 1.875 1.398zm11.426 1.637c1.351.393 3.466 1.899 4.295 3.013.371.502.676 1.004.676 1.113 0 .328-1.744-.021-3.009-.611-1.461-.677-2.726-1.659-3.293-2.598-.806-1.288-.523-1.485 1.331-.917zm111.769.24c2.9.677 6.127 1.681 7.675 2.358l1.178.524-1.047.611c-5.102 2.991-11.512 3.275-17.443.743-1.984-.852-4.143-2.162-3.903-2.402.349-.349 4.84-1.725 6.628-2.03 2.726-.459 4.296-.415 6.912.196zm-117.744.59c-1.308 2.379-4.404 4.672-6.65 4.934l-1.025.109.632-1.07c1.679-2.904 3.903-4.388 7.37-4.868.087-.022-.065.393-.327.895zm2.638 1.222c1.003 1.943.894 4.738-.218 6.594l-.458.742-.305-.568c-.567-1.091-1.003-3.274-.872-4.301.131-.917 1.068-3.296 1.308-3.296.066 0 .306.371.545.829zm-75.617-.043c1.678.371 4.251 1.637 6.214 3.034 2.093 1.507 6.28 5.59 5.93 5.808-.152.109-1.177.196-2.289.196-2.268 0-5.909-.829-8.656-1.965-2.486-1.026-5.473-3.1-7.501-5.174-1.003-1.026-1.766-1.899-1.723-1.965.066-.044.785-.175 1.614-.284 1.81-.218 4.47-.065 6.41.35zm117.591 1.965c.632.283 1.635.589 2.224.655 1.679.218 1.832.414.785.938-1.199.612-2.616.786-3.598.481-1.417-.481-2.551-2.249-2.551-4.018v-.633l.981 1.026c.546.546 1.505 1.245 2.159 1.551zm-128.145 1.113c5.277 8.034 6.934 11.506 8.024 16.768.61 2.991-.065 6.833-1.875 10.545-1.286 2.685-3.009 4.541-5.255 5.785-2.507 1.354-2.29 1.42-4.165-1.419-4.557-6.964-7.13-14.104-7.13-19.824 0-4.083 1.832-8.58 4.666-11.462 1.2-1.223 3.38-2.729 3.969-2.729.109 0 .916 1.048 1.766 2.336zm173.607.59c1.134.764 2.682 1.222 4.187 1.222.828 0 .85.022.719.59-.065.349-.414.873-.763 1.2-.959.917-2.442.874-3.728-.109-1.069-.808-2.028-2.51-1.81-3.209.065-.24.174-.437.218-.437.022 0 .567.328 1.177.743zm-90.793 2.095c.087.896.392 2.249.675 2.992.284.764.524 1.593.524 1.833 0 .59-3.162 3.887-4.601 4.804-.567.349-1.57.851-2.246 1.069-1.766.634-4.928 1.136-5.865.939l-.785-.174 1.09-1.856c1.265-2.162 3.402-6.353 4.121-8.1l.48-1.223 1.788-.567c.959-.328 2.355-.917 3.074-1.332 1.526-.852 1.505-.873 1.745 1.615zm-33.994-.829c-.196 1.725-.828 3.013-1.918 4.017-1.592 1.441-3.62 2.096-5.124 1.703-.59-.153-.676-.524-.11-.524.764 0 3.14-1.332 4.252-2.38.633-.611 1.548-1.79 2.028-2.62.458-.851.894-1.55.938-1.55.043 0 0 .612-.066 1.354zm180.193.415c-.153.567-.589 1.266-1.091 1.768-.763.764-.915.83-2.049.83-1.548 0-2.486-.393-3.271-1.332l-.632-.742 1.722-.131c1.897-.153 3.772-.786 4.775-1.594.611-.48.655-.502.72-.131.044.218-.044.829-.174 1.332zm-8.744 6.047c.022.743-.109 1.681-.283 2.074-.371.939-1.701 1.922-2.748 2.053l-.85.131.85-.917c1.003-1.048 2.05-2.991 2.42-4.52.218-.829.306-.96.437-.611.087.218.174 1.026.174 1.79zm-58.741-1.222c1.155.24 4.099 1.506 4.317 1.855.065.11-.436.481-1.09.83-1.308.677-4.557 3.624-5.081 4.563l-.305.59-.632-1.048c-1.003-1.616-2.224-2.97-4.012-4.476l-1.636-1.354 1.374-.524c2.42-.895 4.383-1.026 7.065-.436zm-9.202 8.951.545 1.703h-1.352c-1.613 0-4.055.502-5.145 1.048l-.807.393.196-.83c.589-2.663 2.115-5.523 4.056-7.641l1.221-1.31.392 2.467c.196 1.375.611 3.253.894 4.17zm18.774-1.703c.698 1.441 1.199 3.079 1.526 4.978l.153.808-1.243-.546c-1.417-.633-4.426-1.397-5.473-1.397-.85 0-.894-.24-.174-1.179.806-1.07 1.57-2.926 1.853-4.498.153-.786.305-1.572.371-1.746.174-.524 2.115 1.79 2.987 3.58zm-16.31-2.096c1.374 1.223 2.246 2.533 2.595 3.996.414 1.79.414 2.816.022 2.816-.349 0-1.81-1.55-2.508-2.685-.807-1.332-1.504-4.76-.937-4.738.087 0 .457.284.828.611zm10.772.546c0 .961-1.287 3.166-2.464 4.192-1.156 1.026-2.9 2.008-3.14 1.768-.262-.262.654-2.096 1.701-3.427.981-1.245 3.183-3.035 3.706-3.035.109 0 .197.24.197.502zm33.796.568c0 .109-.632.873-1.417 1.703-1.286 1.419-1.526 1.572-3.205 2.117-1.962.655-3.227.634-3.227-.043.022-.808 1.003-2.074 2.071-2.686 1.57-.873 5.778-1.681 5.778-1.091zm10.358 7.445c-.022 2.096-.284 3.034-1.047 3.689-.262.197-.458.131-1.025-.458-1.722-1.725-1.919-4.214-.61-8.34l.479-1.529 1.091 2.271c1.09 2.249 1.112 2.292 1.112 4.367zm-249.117-3.799c3.424.786 6.28 1.506 6.346 1.593.087.066-.088 1.267-.371 2.642-.633 3.166-2.202 13.58-2.486 16.484-.392 4.148-.698 12.881-.567 15.654l.153 2.795H6.252l-.131-.721c-.065-.371-.24-2.576-.349-4.89-.24-4.214-.043-10.458.436-14.694.131-1.026.327-2.751.436-3.821.567-4.868 1.287-8.689 2.53-13.405.85-3.275.872-3.318 1.242-3.187.153.043 3.053.742 6.476 1.55zm21.718 2.925c.916 2.249.937 3.668.087 5.895-.393 1.026-.785 1.943-.872 2.052-.24.262-1.2-1.331-1.592-2.641-.72-2.446-.632-5.611.218-7.773l.349-.829.61.938c.35.524.894 1.572 1.2 2.358zm274.017-.764c1.504 5.764 2.725 12.772 3.423 19.562.458 4.476.85 13.908.698 16.506l-.088 1.375H304.123l-.131-4.869c-.262-9.016-1.744-21.352-3.51-29.19-.284-1.266-.48-2.336-.458-2.358.196-.218 11.796-3.471 11.905-3.34.087.065.392 1.113.698 2.314zm-101.784 1.528c.698.372 1.265.743 1.287.874.065.633-3.86 1.201-5.233.764-1.003-.306-2.486-1.223-2.486-1.528 0-.393 2.05-.874 3.62-.808 1.221.043 1.809.174 2.812.698zm12.145-.131c1.483.197 4.318 1.332 4.318 1.747 0 .524-2.072 1.004-4.383 1.004-2.224 0-2.355-.021-3.968-.829-.916-.459-1.679-.917-1.679-1.005 0-.087.567-.327 1.264-.524 2.203-.633 2.399-.655 4.448-.393zm-20.452 2.227c1.308.874 3.183 1.616 4.928 1.943.785.153 1.46.306 1.504.35.044.043-.131.327-.371.633-.894 1.113-1.395 2.926-1.526 5.283l-.109 2.249 1.243-.436c2.159-.743 3.903-1.813 5.516-3.385l1.57-1.528.262.83c.393 1.157 1.875 3.253 2.922 4.083 1.003.807 2.529 1.528 3.249 1.528.458 0 .523-.131.632-1.245.153-1.484-.131-4.017-.698-6.025l-.392-1.463h1.657c1.875 0 3.903-.459 4.971-1.114.698-.436.72-.436.72-.022 0 .219-.196 1.179-.436 2.14-1.745 6.856-7.501 12.729-14.718 14.999-4.448 1.397-9.049 1.332-13.454-.196-1.526-.546-1.722-.655-1.613-1.048.48-1.703 1.352-6.637 2.093-11.899.48-3.406.872-6.222.872-6.266 0-.175.218-.066 1.178.589zm11.665 1.114c-.523 2.445-2.595 5.218-4.361 5.829l-.654.218.131-.698c.24-1.179 1.395-3.493 2.137-4.279.676-.699 2.464-1.987 2.791-1.987.087 0 .065.415-.044.917zm3.642.873c1.286 1.179 2.703 3.93 2.856 5.567.087.743.044 1.158-.109 1.158-.109 0-.85-.677-1.635-1.529-1.2-1.31-1.461-1.724-1.745-2.882-.436-1.834-.654-3.231-.501-3.231.087 0 .588.415 1.134.917zm-124.33 2.533c.436.851 1.003 3.558 1.003 4.737 0 .546-.152 1.354-.327 1.791-.283.677-.37.742-.676.48-1.22-1.026-1.766-4.367-1.068-6.615.414-1.288.589-1.354 1.068-.393zm196.35 4.803c.632 2.467.61 3.493-.153 4.541-.981 1.354-1.265 1.528-1.592.939-.436-.83-.85-2.642-.85-3.799 0-1.506.545-4.519 1.003-5.393.741-1.484.85-1.441 1.003.306.087.895.349 2.423.589 3.406zm-222.602-4.061c0 .131.436.961.981 1.834.916 1.463 3.14 3.799 3.62 3.799.523 0-.088.393-.785.524-.894.175-2.42-.415-3.25-1.245-.784-.786-1.308-2.751-1.111-4.213.065-.655.24-1.136.349-1.07.109.087.196.24.196.371zm21.063.524c.785.371 1.592 1.485 1.308 1.768-.065.066-.567-.043-1.134-.24-1.22-.415-3.336-.436-5.32-.065-1.33.262-1.417.305-1.352.808.218 1.637 1.919 4.235 3.51 5.283l1.07.721-1.244 1.135c-1.352 1.223-2.55 3.209-3.161 5.283-.197.655-.35 1.223-.35 1.267 0 .043.916.065 2.029.065 2.703 0 4.426-.415 5.996-1.375.72-.437 1.352-.808 1.417-.808.066 0 .218.655.37 1.463.306 1.812 1.2 4.628 1.876 6.004.283.567.523 1.091.523 1.157 0 .24-2.246.109-3.86-.24-2.092-.437-3.575-1.092-5.625-2.511-2.29-1.572-3.86-3.34-4.884-5.502-1.112-2.336-1.395-3.733-1.286-6.419.065-1.899.152-2.336.763-3.58 1.155-2.315 2.616-3.755 4.579-4.476 1.133-.415 3.663-.284 4.775.262zm159.914 1.616c4.623 2.445 7.108 6.79 6.345 11.134a11.287 11.287 0 0 1-6.083 8.144c-1.81.895-1.919.917-4.034.917-1.875 0-2.181-.044-2.464-.415-.589-.808-.393-.895 1.919-.83 3.532.131 5.582-.545 5.015-1.637-.436-.808-2.639-2.685-3.838-3.275-.676-.327-1.221-.677-1.221-.764 0-.087.567-.742 1.287-1.463 1.548-1.55 2.616-3.58 2.791-5.371l.13-1.266-1.417.131c-1.941.175-4.077.939-6.083 2.118l-1.679 1.026-.262-.895c-.72-2.424-2.856-5.175-4.601-5.961-.85-.371-.85-.371-.37-.655.806-.436 3.706-1.375 5.32-1.703.959-.196 2.595-.283 4.448-.261l2.944.043 1.853.983zm-69.229 2.292c.501 1.638.109 3.93-.916 5.305-.632.83-2.137 1.682-2.377 1.332-.065-.131-.196-1.048-.24-2.03-.13-2.096.197-3.515 1.396-5.895l.763-1.528.523.873c.284.458.676 1.332.851 1.943zm-75.662-.895c-1.373 1.812-3.925 3.318-6.04 3.559-1.112.131-1.133.131-.85-.284 1.7-2.227 4.535-3.843 7.065-3.996.348-.021.305.088-.175.721zm-14.87 1.157c1.33.721 3.205 2.445 3.205 2.969 0 .481-.763.481-2.486 0-1.134-.305-1.548-.589-2.813-1.855-.894-.874-1.439-1.572-1.33-1.725.24-.415 2.159-.066 3.424.611zm147.572 3.908c.763 1.332 1.243 4.039.916 5.022l-.218.633-.981-1.005c-1.766-1.833-2.442-4.039-1.854-6.156l.175-.633.676.523c.37.284.959 1.027 1.286 1.616zm45.833-1.528c1.483.349 1.657.458 3.14 1.943.872.873 1.592 1.703 1.592 1.834 0 .437-1.287.895-2.551.895-1.614-.022-2.551-.437-4.841-2.271-1.003-.786-1.94-1.441-2.071-1.441-.327-.021.479-.633 1.286-1.004.872-.393 1.57-.371 3.445.044zm-151.672 3.297c.088.589.175 1.79.175 2.685 0 1.375-.087 1.79-.589 2.62-.807 1.375-2.333 2.794-3.162 2.969-.654.131-.697.109-.85-.677-.262-1.462.065-3.515.829-5.087.741-1.506 2.507-3.537 3.096-3.537.218 0 .37.35.501 1.027zm115.063.655c-.524 1.026-.916 1.462-2.159 2.292-1.723 1.179-3.859 1.878-3.99 1.332-.153-.568.436-1.572 1.417-2.489 1.265-1.179 4.775-2.795 5.277-2.445.043.043-.197.633-.545 1.31zM91.9 167.238c0 .48-1.418 2.074-2.442 2.773-1.614 1.07-4.972 2.074-4.972 1.463 0-.546 1.745-2.489 2.813-3.166 1.308-.808 4.6-1.572 4.6-1.07zm7.871.611c1.287.503 2.508 1.354 3.685 2.598l.981 1.027-1.417-.153c-2.66-.306-4.644-1.31-6.105-3.166-.589-.742-.61-.851-.284-.917.546-.109 2.006.175 3.14.611zm-60.31 3.559c.544 1.594.566 1.856.326 2.838-.261 1.07-1.352 3.079-1.7 3.079-.35 0-1.353-1.856-1.592-3.013-.371-1.769.152-4.17 1.264-5.873l.371-.568.37.895c.219.481.655 1.681.96 2.642zm55.84-.851c.284.895.327 1.659.24 3.056-.153 2.031-.501 3.581-.785 3.384-.109-.043-.392-.873-.654-1.834-.545-2.052-.676-4.803-.262-6.004l.306-.851.392.524c.24.284.567 1.07.763 1.725zm136.235.676c1.679.503 3.074 1.572 2.529 1.944-.371.24-1.875.283-3.118.087-.85-.153-3.445-1.594-3.598-2.009-.196-.589 2.333-.611 4.187-.022zM61.199 175.84c1.221.59 3.03 1.048 4.143 1.048.676 0 .676 0 .262.459-1.003 1.135-2.595 1.331-4.47.567-2.268-.939-3.315-2.096-3.62-4.017l-.13-.764 1.33 1.07c.74.589 1.875 1.331 2.485 1.637zm182.155-1.463c1.068.306 2.922 1.507 2.922 1.856 0 .328-1.723.699-2.464.524-1.941-.415-4.667-2.118-4.034-2.532.458-.284 2.42-.197 3.576.152zm-31.268 1.791c1.461.786 3.162 2.489 3.947 3.951l.61 1.136h-.501c-.654 0-3.881-.895-5.386-1.507-2.289-.917-3.925-2.511-3.576-3.471.414-1.048 3.053-1.114 4.906-.109zm26.754.655c1.33 1.615 1.875 4.213 1.352 6.506l-.153.655-.741-.764c-1.156-1.223-1.853-2.926-1.853-4.585 0-1.55.218-2.62.523-2.62.109 0 .502.371.872.808zm-4.339-.372c0 .503-.872 1.9-1.679 2.642-.937.917-2.682 1.834-3.968 2.14l-.872.196.501-1.026c.676-1.31 2.442-2.947 3.903-3.624 1.199-.568 2.115-.699 2.115-.328zm-56.125.743c.153.939-.196 2.096-.85 2.707-.262.24-1.112.611-1.853.808-.763.196-1.876.546-2.464.786-.589.218-1.112.415-1.156.415-.218 0 .393-1.965.872-2.773.916-1.572 2.748-2.642 4.601-2.664.632-.022.72.066.85.721zm-56.997.153c.458.109 1.091.458 1.418.742l.61.502-.458.633c-.632.852-3.096 2.096-4.186 2.096-.48 0-1.592-.175-2.464-.371-.894-.218-1.832-.415-2.115-.48l-.501-.109.436-.612c1.373-1.921 4.84-3.078 7.26-2.401z" fill="#18253F"/><path d="M166.035 27.465c-1.046.96-1.199 1.398-.763 2.249.458.917 1.81 1.332 2.617.808.632-.415 1.417-1.594 1.417-2.14 0-.393-.894-1.113-1.832-1.484-.501-.175-.676-.11-1.439.567zM151.426 28.317c-.414 1.026-.436 1.244-.196 1.572.392.458 1.548.939 2.333.939.654 0 1.134-.677 1.439-2.075.131-.633.087-.698-.85-1.157-.546-.262-1.265-.48-1.614-.48-.545 0-.676.13-1.112 1.2zM173.689 27.727c-.873.415-1.767 1.463-1.767 2.074 0 .262.109.852.24 1.31.175.655.393.917 1.003 1.18.698.283.872.283 1.723-.044 1.962-.743 2.398-2.315 1.068-3.8-.937-1.025-1.373-1.156-2.267-.72zM144.035 28.71c-.306.502-.458 1.113-.458 1.834 0 1.004.065 1.135.61 1.353 1.199.48 2.53.677 2.704.393.305-.458.872-2.532.785-2.947-.066-.437-1.243-1.048-2.377-1.245-.741-.13-.828-.087-1.264.612zM158.774 29.015c-.371 1.376-.371 1.572.174 2.227.807.94 1.287 1.026 2.159.35.959-.72 1.068-1.048.741-2.096l-.239-.874-.633.612-.61.59-.611-.59c-.719-.699-.85-.72-.981-.219zM161.238 34.32l-1.003 1.092-.959-.982c-1.025-1.026-1.527-1.245-1.527-.611 0 .218-.065.764-.13 1.2-.131.743-.066.895 1.003 2.009.632.677 1.264 1.223 1.417 1.223.153 0 .872-.393 1.592-.874 1.199-.808 1.352-.982 1.461-1.855.196-1.223-.044-2.293-.502-2.293-.196 0-.807.48-1.352 1.092zM126.024 34.692c-.981.153-1.09.415-.48 1.004.632.655 3.009 1.9 3.598 1.9.61 0 1.57-.83 1.57-1.354 0-.24-.175-.72-.371-1.07-.371-.611-.414-.633-2.028-.611-.894.022-1.919.087-2.289.13zM193.443 35.281c-1.788.59-1.897.699-2.049 1.813-.087.742-.044.938.392 1.244.938.655 1.548.458 2.857-.917 2.485-2.598 2.115-3.275-1.2-2.14zM132.805 36.176c-.066.197.087.743.327 1.245.501 1.004.436 1.135-.785 1.528-1.243.415-1.156.94.24 1.747l1.134.633 1.155-.459c1.875-.698 1.832-.654 1.527-2.117-.371-1.66-.785-2.446-1.396-2.555-1.679-.349-2.071-.349-2.202-.022zM186.946 36.198c-.851.262-1.091.48-1.57 1.376-.873 1.594-.807 1.965.632 2.925.676.437 1.461.808 1.723.808.566 0 2.289-1.288 2.289-1.703 0-.153-.436-.48-.981-.72-.545-.24-.981-.524-.981-.633 0-.11.152-.546.348-.961.393-.786.306-1.463-.174-1.42-.153.023-.741.154-1.286.328z" fill="#18253F"/><path d="M137.82 37.093c.109.503.85 2.446 1.308 3.472.066.13-.479.393-1.264.611-1.57.437-2.355.873-2.355 1.332 0 .175.458.633 1.046.982 1.265.83 2.05.764 4.383-.349l1.592-.786-.087-1.004c-.066-.568-.371-1.638-.698-2.358-.523-1.18-.741-1.42-1.723-1.921-.632-.306-1.417-.568-1.744-.568-.545 0-.589.065-.458.59zM182.17 37.137l-1.417.35-.916 2.183c-.501 1.2-.938 2.292-.938 2.445 0 .131.96.72 2.137 1.332 2.093 1.07 2.115 1.07 3.009.786.48-.175 1.221-.59 1.636-.939l.741-.633-1.984-.96-1.984-.983.523-.96c.698-1.29 1.068-2.577.807-2.796-.109-.087-.829-.021-1.614.175z" fill="#18253F"/><path d="M143.358 38.862c0 .218.24 1.222.545 2.249.305 1.004.48 1.855.393 1.877-1.003.35-3.445 1.769-3.445 2.03 0 .416 1.264 1.245 2.354 1.55.807.22 1.025.154 2.857-.676 1.09-.502 2.049-.983 2.137-1.07.109-.087-.197-1.266-.654-2.642l-.851-2.51-1.177-.459c-1.984-.808-2.159-.83-2.159-.35zM156.877 40.194v1.724l1.483 1.31 1.483 1.332.763-.436c.414-.262 1.156-.852 1.679-1.354l.916-.895v-1.703c0-.939-.087-1.703-.197-1.703-.109 0-.784.437-1.526.982-.741.546-1.395.983-1.483.983-.065 0-.675-.437-1.33-.983-1.679-1.375-1.788-1.331-1.788.743zM176.785 38.906c-1.832.37-2.05.61-2.726 2.969-.327 1.2-.61 2.27-.61 2.423 0 .131.937.743 2.093 1.376 2.333 1.266 2.66 1.288 4.513.218 1.2-.677 1.243-.611-1.199-1.943l-1.679-.917.654-1.878c.894-2.685.938-2.62-1.046-2.248z" fill="#18253F"/><path d="M149.028 41.438c0 .24.196 1.048.436 1.834s.436 1.572.436 1.747c0 .174-.523.611-1.155.96-.611.35-1.418.83-1.745 1.07l-.61.415.458.502c.261.284.959.72 1.548.983l1.09.458 2.159-1.157c1.199-.633 2.18-1.245 2.18-1.376 0-.262-1.243-4.475-1.352-4.584-.305-.284-1.984-.983-2.638-1.092-.698-.131-.807-.11-.807.24zM170.069 41.438c-.48.175-.981.437-1.112.59-.131.153-.501 1.244-.85 2.423-.698 2.533-.873 2.205 1.897 3.646 1.33.677 1.897.873 2.376.764.873-.174 2.813-1.026 2.813-1.222 0-.11-.807-.655-1.788-1.201-1.003-.568-1.853-1.07-1.897-1.114-.043-.043.175-.851.502-1.812.305-.96.567-1.9.567-2.096 0-.436-1.309-.414-2.508.022zM155.351 45.346c0 .415.152 1.157.349 1.638.218.524.283.982.174 1.091-.109.11-.785.415-1.504.699-1.047.415-1.33.633-1.374 1.07-.044.284-.24.698-.414.895-.415.458-.24.72.85 1.288l.872.459-.131 1.528c-.152 1.397-.13 1.506.24 1.397.218-.065.676-.175 1.003-.262.415-.087.742-.415 1.069-1.026l.436-.895.654.72.654.72-.153 3.538c-.174 4.846-.937 27.64-1.09 33.098l-.131 4.476 1.461 1.244c1.003.873 1.657 1.266 2.05 1.266h.589l.588-3.777c.327-2.052 1.003-5.218 1.483-7.008l.872-3.253-.48-5.262a697.44 697.44 0 0 1-.981-14.3c-.501-9.017-.501-9.06-.087-9.672.24-.327.698-.786 1.047-1.026l.61-.437.458.96c.458.94 2.311 2.49 2.617 2.184.174-.174-.48-2.707-1.025-3.951-.284-.655-.633-1.048-1.047-1.201-.763-.284-2.856-1.9-3.118-2.402-.152-.262-.087-.699.175-1.397.348-.983.348-1.026-.066-1.332-.392-.306-.48-.284-.828.153l-.393.502-1.199-.655c-1.003-.546-1.221-.59-1.396-.306-.283.459.066 1.769.698 2.664.24.35.131.546-.807 1.463-1.003 1.004-1.133 1.07-1.613.807l-.502-.283.785-.459c1.091-.655 1.374-1.332 1.047-2.576-.305-1.092-1.679-3.144-2.137-3.144-.196 0-.305.262-.305.764zM164.312 46.241c-.24.306-.501.917-.588 1.332-.175.873.152 1.245 1.678 1.943.676.284.851.524 1.069 1.376.349 1.244.48 1.419 1.068 1.222.502-.152.567-.633.306-2.161-.109-.677-.328-.983-1.178-1.594-1.003-.72-1.068-.83-1.068-1.725 0-.807-.066-.96-.415-.96-.239 0-.632.262-.872.567zM145.604 51.416c-1.395.327-1.243.786.698 2.14.894.61 1.635 1.156 1.635 1.222 0 .044-.261.59-.567 1.223a13.772 13.772 0 0 0-.763 1.724c-.218.764-.022.764 1.984.175 1.57-.459 2.181-1.07 2.944-2.882.458-1.157.414-1.375-.458-2.27-1.483-1.485-3.183-1.9-5.473-1.332zM170.265 52.486c-1.984 1.331-1.984 1.375-.959 3.558.872 1.878 1.025 2.03 2.769 2.511 2.246.611 2.289.611 1.941-.393a26.608 26.608 0 0 0-.873-1.965c-.305-.611-.567-1.2-.567-1.288 0-.087.502-.48 1.112-.83 1.003-.59 1.941-1.484 1.941-1.834 0-.087-.61-.262-1.352-.414-.763-.132-1.57-.306-1.831-.394-.306-.087-.96.219-2.181 1.049zM139.979 52.966c-1.461.458-2.333 1.004-2.246 1.397.044.197.829.742 1.744 1.245.938.502 1.767.96 1.832 1.048.087.065-.109.436-.436.83-.785.938-1.287 1.92-1.134 2.292.087.218.502.305 1.417.305 1.221 0 1.352-.043 1.854-.72.763-.983 2.093-3.253 2.093-3.537 0-.24-3.794-3.166-4.077-3.144-.11 0-.567.131-1.047.284zM177.657 54.145c-.982.567-1.854 1.091-1.919 1.179-.066.065.283 1.135.785 2.358 1.046 2.532 1.395 2.816 3.532 2.903 1.09.044 1.134.022 1.069-.502-.022-.305-.458-1.222-.982-2.074l-.915-1.528 1.526-.764c.828-.415 1.548-.917 1.592-1.114.065-.37-1.81-1.506-2.486-1.506-.24 0-1.221.48-2.202 1.048zM133.612 56.044c-.523.306-.938.72-.938.895 0 .175.436.502.982.743 1.09.48 1.177.676.545 1.462-.24.306-.436.787-.436 1.092 0 .502.043.502 1.155.371.611-.087 1.265-.24 1.417-.37.415-.328 1.57-2.38 1.57-2.774 0-.393-1.962-1.724-2.791-1.877-.392-.066-.894.087-1.504.458zM183.805 56.721c-.719.415-1.33.808-1.373.83-.131.152 1.024 2.51 1.461 2.947.37.371.719.459 1.766.459 1.221 0 1.308-.022 1.308-.503 0-.283-.24-.742-.545-1.026-.763-.72-.676-1.004.392-1.353 1.396-.48 1.352-1.048-.109-1.66-.632-.262-1.264-.48-1.395-.48-.109 0-.807.35-1.505.786zM128.684 58.599c-1.09.546-3.074 2.467-2.878 2.772.174.306 2.246.306 3.554 0 1.221-.283 1.788-.873 1.788-1.812 0-.524-.131-.786-.48-.938-.937-.459-1.177-.459-1.984-.022zM189.279 58.577c-.698.546-.742 1.44-.087 2.27.392.503.566.59 1.308.48 1.265-.174 2.791-.873 2.791-1.266 0-.523-.676-1.026-2.072-1.506a38.202 38.202 0 0 0-1.308-.437c-.022 0-.305.197-.632.459zM156.202 122.765c-.022 5.087-.088 11.615-.175 14.497-.065 2.882-.087 5.283-.043 5.349.196.305 2.136-2.314 2.965-4.039 1.744-3.537 2.922-10 2.486-13.558-.458-3.69-1.636-6.834-3.576-9.607-1.766-2.467-1.636-3.056-1.657 7.358zM2.72 201.559v1.747h317.254v-3.494H2.719v1.747zM12.597 207.236c-4.121.742-6.825 3.078-6.825 5.916v1.07H2.719v3.712h3.053v15.064H2.719v2.838h8.286v-2.838h-2.18v-15.064h18.969V226.208l-1.242 1.288c-2.464 2.511-5.953 3.537-8.286 2.446-2.115-.983-2.9-1.965-2.9-3.559 0-1.201.349-1.965 1.243-2.838.697-.655 2.747-1.463 3.728-1.463.763 0 2.878.611 3.293.939.458.393 1.373-.808 1.286-1.66-.152-1.528-4.12-2.576-7.108-1.899-2.05.48-4.623 2.685-5.538 4.738-.35.807-.415 1.31-.35 2.488.197 2.511 1.57 4.258 4.493 5.655 2.224 1.07 3.401 1.223 5.669.786 2.376-.48 2.9-.677 4.47-1.615.697-.415 1.286-.721 1.33-.677.021.043.021.546-.044 1.113l-.087 1.048h-2.355v2.838h9.594v-2.838h-3.925v-15.064h3.925v-3.712H31.348l.11-1.048c.174-2.009-1.2-3.602-3.882-4.497-3.663-1.201-5.516-1.507-9.812-1.572-2.224-.022-4.535.021-5.167.131zm8.874 2.401c1.134.153 2.268.437 2.944.764 1.57.764 3.096 2.249 3.249 3.101l.13.72H18.31c-5.21 0-9.485-.044-9.485-.109 0-.066.219-.568.458-1.092.938-2.008 2.791-2.991 6.193-3.362 2.53-.262 3.925-.262 5.996-.022zM80.518 207.345c-4.034.808-6.498 3.1-6.498 6.091v.786h-3.052v3.712h3.052v15.064h-3.052v2.838h8.504v-2.838h-2.399v-15.064h18.97v8.252l-1.352 1.332c-1.788 1.79-3.598 2.686-5.69 2.817-1.462.087-1.658.043-2.988-.655-1.745-.917-2.399-1.813-2.399-3.21 0-.546.197-1.419.436-1.921.328-.742.655-1.048 1.788-1.638 1.178-.611 1.592-.698 2.9-.698 1.069 0 1.832.153 2.552.48.937.393 1.068.415 1.373.131.37-.393.61-1.201.502-1.747-.131-.698-2.377-1.637-4.23-1.768-2.464-.196-3.816.197-5.582 1.616-2.399 1.899-3.38 3.733-3.162 5.851.24 2.401 1.57 4.061 4.296 5.436 2.18 1.092 3.576 1.354 5.254 1.026.655-.131 1.658-.349 2.246-.458 1.003-.197 2.072-.699 3.467-1.616l.589-.393V232.998h-2.399v2.838h9.594v-2.838h-3.706v-15.064h3.706v-3.712H99.64l.066-1.266c.066-1.157.022-1.354-.654-2.227-.393-.524-1.156-1.179-1.7-1.463-1.287-.633-4.166-1.463-6.738-1.899-2.508-.437-7.98-.437-10.096-.022zm9.332 2.292c3.228.415 5.844 2.031 6.128 3.755l.13.83h-9.42c-10.662 0-9.986.131-8.765-1.79 1.025-1.638 2.682-2.402 6.018-2.773 2.137-.262 4.1-.262 5.91-.022zM115.318 207.323c-4.95.939-7.806 3.013-8.286 6.004l-.152.895h-2.551v3.712h2.616v15.064h-2.616v2.838h9.376v-2.838h-2.617v-15.064h18.534V221.863h-5.953c-6.781 0-7.61.131-8.94 1.42-1.591 1.55-2.115 3.602-1.33 5.261.502 1.07 2.115 2.402 3.424 2.86 4.077 1.376 8.329-1.244 7.958-4.89-.065-.59-.196-1.223-.283-1.441-.153-.349.065-.371 2.485-.371h2.639v8.296h-3.489v2.838h8.94v-2.838h-2.617v-15.064h2.617v-3.712h-1.308c-1.287 0-1.309-.022-1.309-.611-.021-.961-.741-2.271-1.809-3.253-2.224-2.053-5.67-3.101-10.619-3.253-2.115-.044-3.685.021-4.71.218zm9.834 3.275c.959.305 2.137.851 2.616 1.179.807.567 1.854 1.834 1.854 2.249 0 .109-4.187.196-9.289.196h-9.289l.153-.589c.371-1.507 1.984-2.73 4.47-3.385 1.112-.305 2.071-.371 4.579-.327 2.725.065 3.401.153 4.906.677zm-4.535 14.126c.806.218 1.046.393 1.286 1.004.262.611.262.851.044 1.332-.894 1.834-4.754 2.336-5.604.742-.349-.677-.284-1.681.153-2.205.872-1.048 2.224-1.332 4.121-.873zM218.039 207.367c-4.012.851-6.759 2.969-7.305 5.676l-.239 1.179h-2.159v3.712h2.18v15.064h-2.18v2.838h8.286v-2.838h-2.617v-15.064h17.226v1.746h-2.988c-4.949.022-7.173.611-8.83 2.336-2.704 2.795-2.072 6.332 1.613 9.257 1.003.786 1.047.852.589 1.07-.523.284-1.069 1.463-1.069 2.336 0 1.136.458 2.271 1.243 3.144 1.112 1.223 1.766 1.507 3.489 1.507 1.832 0 3.292-.634 4.841-2.075l1.068-1.004 1.112 1.266 1.112 1.267.807-.437c1.308-.699 1.243-1.31-.349-2.991-.741-.764-1.33-1.485-1.33-1.616s.501-.458 1.112-.742c.589-.284 1.483-.939 1.941-1.441 1.439-1.572 1.417-2.642-.066-4.148-1.483-1.463-3.532-1.921-6.083-1.31-2.246.524-3.009 1.441-3.009 3.602v1.07l-.698-.174c-1.81-.415-3.859-1.813-4.579-3.123-.611-1.069-.523-2.357.218-3.034 1.308-1.245 1.483-1.267 8.002-1.267h5.996V217.934h2.617v-3.712h-1.308c-1.265 0-1.309-.022-1.309-.589 0-.983-.828-2.402-2.093-3.537-1.003-.917-1.548-1.201-3.249-1.769-4.077-1.288-8.634-1.659-11.992-.96zm9.572 4.148c2.246.589 3.969 1.397 4.361 2.074l.371.633H214.594l.523-.568c1.09-1.179 4.099-2.27 7.065-2.576 1.373-.131 4.012.087 5.429.437zm5.255 16.964c.48.262.894.655.938.851.109.568-.676 1.201-2.006 1.616-1.156.371-1.221.371-1.658-.022-.763-.699-.479-2.336.502-2.729.763-.306 1.286-.24 2.224.284zm-5.059 5.305c.48.175.458.699-.065 1.55-.523.874-1.243 1.354-2.268 1.528-.632.11-.916.022-1.33-.371-1.025-.96-.937-2.248.175-2.751.676-.305 2.66-.283 3.488.044zM150.772 209.855v1.31h5.8l1.504 1.529 1.505 1.528H139.652v3.712h6.301l.327.589c.807 1.616.524 3.1-.785 4.017-.567.415-.872.459-2.311.371-1.068-.065-2.093-.283-2.813-.589-.61-.284-1.243-.437-1.352-.349-.61.371-.022 3.362 1.2 5.96 1.7 3.733 3.03 4.716 6.301 4.694 2.246 0 4.034-.415 6.498-1.463l1.679-.742v2.576h-1.963v2.838h7.196v-2.838h-1.963v-15.064h6.76v15.064h-2.399v2.838h7.414v-2.838h-1.963v-15.064h1.963v-3.712H164.945l-3.489-2.838-3.489-2.838h-7.195v1.309zm3.925 12.62c0 5.109 0 5.087-1.657 6.069-2.224 1.31-5.015 1.725-7.218 1.07-1.504-.437-2.464-1.135-3.14-2.292-.697-1.157-1.024-2.096-.654-1.856.153.065 1.025.153 1.985.153 1.417 0 1.984-.109 2.987-.59 1.482-.677 2.398-1.463 2.813-2.445.348-.786.392-2.598.109-3.843l-.197-.807h4.972v4.541zM37.388 216.078v1.856h4.23c4.165 0 4.23 0 4.34.48.087.262.087.546.021.611-.065.066-1.46.153-3.096.219-3.314.131-3.86.305-5.015 1.615-1.505 1.725-1.112 4.258.938 5.808.72.524.72.567.327.982-.59.677-.72 1.354-.436 2.511.305 1.288 1.395 2.38 3.248 3.231 2.268 1.048 6.193.655 9.573-.939.894-.415 1.875-.96 2.224-1.2.327-.241.676-.437.741-.437.065 0 .13.48.13 1.091v1.092H52.87v2.838h7.413v-2.838h-2.18v-15.064H63.99v15.064H61.59v2.838h8.068v-2.838h-1.962v-15.064h1.962v-3.712H37.388v1.856zm17.226 6.397v4.541l-.807.786c-2.29 2.205-5.211 3.45-8.068 3.45-1.744 0-1.853-.022-2.594-.721-.698-.633-.785-.808-.633-1.441.197-.873 1.2-1.55 2.312-1.55.436 0 1.242-.066 1.81-.131l1.002-.153v-1.419c0-1.135-.065-1.354-.283-1.179-.807.677-5.037.459-6.694-.349-.981-.481-1.003-1.07-.022-1.725.698-.48.938-.502 4.732-.502h4.012v-4.148H54.614v4.541zM175.411 216.078v1.856h5.953l.894.938c1.33 1.376 2.354 3.625 2.485 5.393.109 1.768-.152 2.707-1.155 3.864-1.025 1.201-2.682 1.9-4.165 1.747-1.57-.153-2.747-.808-3.205-1.768-.72-1.551-.349-2.533 1.264-3.384 1.112-.59 1.33-.961 1.091-1.922-.131-.524-.197-.546-1.134-.415-1.396.197-3.511 1.376-4.23 2.38a4.265 4.265 0 0 0-.633 3.624c.48 1.813 2.988 3.646 5.713 4.192 3.38.677 7.326-1.419 8.809-4.694 1.112-2.423.916-5.916-.48-8.667-.283-.59-.523-1.114-.523-1.179 0-.066 1.134-.109 2.508-.109h2.507v15.064h-1.962v2.838h7.849v-2.838h-2.398v-15.064h6.541v15.064h-2.616v2.838h8.067v-2.838h-1.526v-15.064h1.526v-3.712h-31.18v1.856zM241.697 216.078v1.856h10.684v7.445l-.959.96c-1.112 1.114-2.639 1.943-4.427 2.402-1.177.305-1.286.305-2.202-.131-1.112-.546-2.006-1.812-2.006-2.86 0-.546.218-.895 1.003-1.616 1.287-1.201 2.748-1.725 4.95-1.725h1.679v-.72c0-.917-.851-1.463-2.857-1.79-1.94-.328-3.423-.022-5.255 1.069-3.575 2.162-4.23 5.808-1.569 8.952 2.245 2.663 7.086 2.816 10.618.327l1.025-.742V232.998h-2.616v2.838h8.721v-2.838h-2.638l.065-3.406.066-3.406 1.57-.96c1.679-1.026 4.426-2.053 5.451-2.053 1.984 0 3.554 1.179 3.554 2.664 0 2.511-2.551 4.148-5.735 3.69-1.177-.153-1.286-.131-1.439.262-.523 1.419.676 2.227 3.358 2.205 1.527-.022 1.941-.109 3.38-.786 2.835-1.31 4.077-3.079 3.881-5.567-.131-1.703-.698-2.773-1.962-3.799-2.551-2.009-5.909-2.009-10.139.021-.982.481-1.832.874-1.897.874-.066 0-.131-1.092-.131-2.402v-2.401h18.098v15.064h-2.399v2.838h8.504v-2.838h-2.617v-15.064h2.617v-3.712h-38.376v1.856zM285.305 216.078v1.856h2.617c3.009 0 3.38.131 4.731 1.593 1.57 1.703 1.767 3.625.567 5.131-.915 1.135-2.027 1.616-3.859 1.725-1.788.087-1.984 0-2.9-1.572l-.632-1.092-1.309-.065c-.85-.044-1.439.043-1.7.24-.415.306-.327.502 1.984 4.65l2.398 4.345-.959.065-.938.066v2.816h8.94v-2.838h-3.401l-.393-.83c-.24-.436-.654-1.331-.937-1.986l-.524-1.179 1.439.153c2.137.218 4.078-.415 5.648-1.856.654-.59 1.264-1.288 1.33-1.528.131-.372.349-.415 2.965-.415h2.813v7.641h-2.616v2.838h8.285v-2.838h-2.616v-15.064h2.616v-3.712h-23.549v1.856zm17.88 4.148v2.292h-2.726c-2.485 0-2.725-.043-2.725-.393 0-.938-.72-2.707-1.396-3.427l-.719-.764h7.566v2.292zM313.455 219.309c-.414.131-1.177.655-1.701 1.135-.872.852-.937.983-.937 2.096 0 .983.109 1.31.632 1.943 1.418 1.747 3.969 2.293 5.996 1.332 1.854-.917 2.486-2.511 1.658-4.192-.633-1.266-1.025-1.681-2.006-2.183-.894-.458-2.443-.524-3.642-.131zm2.9 2.576c.306.371.567.743.567.852 0 .48-.523 1.288-.981 1.528-1.614.873-3.053-1.681-1.57-2.729.72-.502 1.374-.393 1.984.349zM313.695 228.195c-2.551.524-3.75 2.533-2.704 4.585.763 1.528 3.336 2.62 5.124 2.183 1.178-.306 2.508-1.354 2.9-2.314.48-1.179.393-1.943-.392-2.817-1.221-1.419-3.031-2.008-4.928-1.637zm2.333 2.314c.545.677.567 1.135.131 1.769-.458.655-1.025.72-2.05.262-.741-.328-.894-.503-.894-1.005 0-.72.175-1.004.763-1.331.764-.437 1.57-.306 2.05.305zM2.72 244.897v1.856h317.254v-3.712H2.719v1.856zM2.72 261.271v3.603h66.939v-7.205H2.719v3.602zM84.704 261.271v3.603h66.504v-7.205H84.704v3.602zM166.907 261.271v3.603h26.885l26.863.022 1.309 1.572c.741.873 5.56 6.637 10.727 12.815 5.168 6.201 9.551 11.397 9.747 11.55.174.153.436.218.545.131.131-.066 5.19-5.982 11.251-13.122l11.033-12.968h54.708v-7.205l-31.442.022h-31.464l-6.651 8.624c-3.663 4.759-6.89 8.929-7.195 9.257l-.545.633-7.305-9.257-7.304-9.279h-61.162v3.602zM2.72 271.314v3.385H21.906V296.75H2.72v6.986h31.399V267.93H2.719v3.384zM37.17 285.833v17.903H69.66v-6.986H48.727V274.699h20.932v-6.769H37.17v17.903zM84.705 271.314v3.385h19.624V296.75h-19.58l-.132 1.79a241.52 241.52 0 0 0-.196 3.493l-.087 1.703H116.321V267.93H84.705v3.384zM119.374 285.833v17.903h31.834v-6.986H130.93V274.699h20.278v-6.769h-31.834v17.903z" fill="#18253F"/><path d="M166.907 271.314v3.385h17.226V296.75h-17.226v6.986h29.654V267.93h-29.654v3.384zM198.96 285.833v17.903H224.471v-6.986h-13.955v-10.043c0-5.524.022-10.043.066-10.043.022 0 7.348 8.492 16.288 18.863 8.94 10.392 16.353 18.885 16.484 18.885.131.022 3.423-3.886 7.304-8.667 10.924-13.427 18.534-22.51 23.331-27.75l1.287-1.397v20.152h-14.173v6.986H287.922V267.93h-21.957l-11.382 13.973c-6.258 7.685-11.447 13.973-11.534 13.951-.088 0-5.408-6.287-11.818-13.951l-11.666-13.973H198.96v17.903zM290.539 285.833v17.903h29.436v-6.986h-17.444v-21.833h17.444v-6.987h-29.436v17.903zM2.72 310.613v3.821h66.939v-7.641H2.719v3.82zM84.704 310.613v3.821h66.504v-7.641H84.704v3.82z" fill="#18253F"/><path d="M166.907 310.613v3.821h57.564v-7.641h-57.564v3.82zM261.103 310.613v3.821h58.872v-7.641h-58.872v3.82zM14.494 329.826v1.856h1.744c.96 0 1.744.065 1.744.131 0 .065-2.31 3.362-5.146 7.314L7.67 346.31h-4.95v3.93h14.173v-3.93h-2.42c-1.33 0-2.377-.088-2.333-.175.043-.109.806-1.179 1.7-2.401l1.636-2.206h12.647l1.264 2.271c.676 1.244 1.243 2.314 1.243 2.38 0 .065-1.025.131-2.29.131H26.05v3.93h12.647v-3.93h-4.034l-5.277-9.126-5.255-9.105-4.819-.065-4.818-.044v1.856zm9.594 5.458 1.744 2.839-2.093.065a120.6 120.6 0 0 1-3.99 0l-1.92-.065 2.072-2.992c1.156-1.659 2.18-2.925 2.268-2.838.087.088.96 1.441 1.919 2.991zM40.66 329.826v1.856h4.796v14.628H40.66v3.93h13.519v-3.93H48.727v-6.55H66.17v6.55H60.72v3.93h13.737v-3.93H69.66v-14.628H74.456v-3.712H60.72v3.712H66.17v5.021H48.727v-5.021H54.178v-3.712H40.659v1.856zM79.253 329.826v1.856H84.704v14.628H79.254v3.93h13.301v-3.93H88.411v-6.157c0-3.537.088-6.07.197-5.96.109.131 2.572 3.799 5.472 8.165l5.277 7.925 5.429-8.143 5.43-8.166v12.336H104.765v3.93h13.736v-3.93H113.704v-14.628H118.501v-3.712l-4.186.044-4.186.065-3.598 5.59c-3.794 5.851-6.956 10.457-7.196 10.457-.065 0-2.529-3.646-5.473-8.078l-5.342-8.056-4.622-.022h-4.645v1.856zM123.298 329.826v1.856H127.441v14.628H123.298v3.93h27.256v-7.423h-3.489V346.31H130.93v-6.55h10.248v-3.057H130.93v-5.021H147.065v4.148h3.489v-7.86h-27.256v1.856zM157.531 329.826v1.856H162.328v14.628H157.531v3.951l11.404-.065 11.382-.066 1.788-.698c2.028-.786 4.012-2.074 4.928-3.231 3.249-4.105 2.638-11.353-1.309-15.349-.894-.917-1.831-1.594-2.834-2.074l-1.483-.699-11.927-.065-11.949-.066v1.878zm23.375 2.576c2.9 1.441 4.273 4.585 3.685 8.45-.436 2.794-1.636 4.257-4.187 5.043-1.177.371-2.049.415-7.958.415h-6.629v-14.65l6.934.066 6.912.065 1.243.611zM196.126 329.826v1.834l2.289.066 2.289.065-4.23 7.205-4.208 7.205-2.224.065-2.202.066V350.24h13.301v-3.93h-2.312c-1.264 0-2.267-.088-2.224-.175.044-.087.611-1.026 1.265-2.074l1.199-1.899h12.254l1.33 2.074 1.33 2.074h-4.775v3.93h11.993v-3.93h-2.988l-5.93-9.17-5.953-9.17h-10.204v1.856zm8.939 3.581c0 .109.938 1.484 2.072 3.056l2.071 2.86h-3.925c-2.158 0-3.924-.065-3.924-.131 0-.065.741-1.441 1.657-3.056 1.482-2.598 2.049-3.362 2.049-2.729zM223.817 329.826v1.856h3.925v14.628h-3.925v3.93h11.186c12.973 0 12.799.021 14.391-1.725 1.242-1.397 1.766-3.013 1.766-5.393 0-1.463-.109-1.965-.589-2.969-.327-.655-.829-1.332-1.134-1.485l-.545-.305.741-.764c2.115-2.162 1.985-5.721-.261-7.991-1.657-1.681-1.156-1.638-14.042-1.638h-11.513v1.856zm22.633 2.293c1.483.916 1.723 2.969.458 4.017l-.676.567h-14.784v-5.021h7.152c6.76 0 7.174.022 7.85.437zm-.087 7.881c1.679 1.31 1.831 4.126.327 5.633l-.676.677h-14.566v-6.768h7.174c6.934 0 7.174.021 7.741.458zM261.103 329.826v1.856h2.289c1.265 0 2.289.065 2.289.153 0 .065-1.897 3.362-4.186 7.292l-4.208 7.183h-4.034v3.93h12.865V346.332l-2.29-.066-2.268-.065 1.309-2.031 1.308-2.008h12.21l1.287 2.008 1.286 2.031-2.267.065-2.29.066V350.24H286.178v-3.93h-1.461l-1.483-.022-5.887-9.148-5.887-9.148h-5.168l-5.189-.022v1.856zm11.011 6.266 2.071 3.122-1.962.066c-1.069.021-2.835.021-3.925 0l-1.941-.066 1.745-3.122c.981-1.703 1.81-3.1 1.853-3.1.044 0 1.025 1.397 2.159 3.1zM290.539 329.826v1.856H295.336v14.628H290.539v3.93h11.316c10.902 0 11.36-.022 12.799-.459 5.124-1.594 7.501-4.759 7.501-10.021-.022-5.065-2.224-9.301-5.778-11.047l-1.308-.634-12.254-.065-12.276-.066v1.878zm23.592 2.38c.567.218 1.439.786 1.919 1.244 1.286 1.267 1.766 2.533 1.897 5 .218 3.886-.676 6.026-2.944 7.139l-1.243.612-7.239.065-7.261.066V331.66l6.934.066c5.975.065 7.043.131 7.937.48z" fill="#18253F"/></svg>