<svg width="274" height="350" viewBox="0 0 274 350" fill="none" xmlns="http://www.w3.org/2000/svg">
<path d="M228.197 146.395C225.494 144.511 222.901 142.472 220.434 140.289C221.262 138.892 222.8 136.691 224.008 134.868C231.558 123.91 245.76 103.175 245.76 73.612C245.822 64.3175 243.974 55.1094 240.33 46.5589C236.686 38.0084 231.324 30.298 224.576 23.9061C209.593 9.82282 185.947 0 151.271 0C118.347 0 81.3045 10.8169 49.3034 29.7288C36.6604 36.952 25.0653 45.8713 14.8407 56.2386C6.5801 65.0436 1.79888 73.3753 1.77521 80.7365C1.77649 82.4545 2.12284 84.1548 2.79372 85.7364C3.46459 87.3181 4.44633 88.7489 5.68067 89.9439C10.4146 94.5594 18.6515 96.6897 29.3501 97.8258C40.0487 98.9619 52.8539 98.9619 66.7478 98.9619H69.1148C90.4173 98.9619 105.66 99.53 115.341 100.95C118.945 101.33 122.471 102.248 125.803 103.672C127.981 104.808 128.667 105.873 128.691 107.081C128.419 108.243 127.759 109.278 126.821 110.016C122.087 114.749 110.063 121.543 99.1276 129.093C93.9134 132.551 89.0533 136.515 84.6182 140.928C80.7601 145.07 78.1092 149.117 78.1092 153.52V153.733C78.2107 156.352 78.9279 158.911 80.2027 161.202C81.4775 163.492 83.274 165.45 85.4467 166.917C98.7252 177.095 126.253 179.769 140.644 182.397C149.52 184.006 154.23 187.131 156.763 190.61C158.89 193.715 159.946 197.43 159.769 201.19C159.93 206.933 158.873 212.644 156.665 217.948C154.458 223.252 151.152 228.028 146.964 231.961C143.113 235.626 138.575 238.492 133.61 240.394C128.645 242.295 123.353 243.194 118.039 243.038H116.501C116.795 240.682 116.945 238.311 116.951 235.937C117.107 229.325 115.808 222.76 113.145 216.707C110.482 210.653 106.521 205.259 101.542 200.906C91.8611 192.504 78.2275 187.77 62.4163 187.77C53.7995 187.599 45.2467 189.282 37.3367 192.704C29.4267 196.126 22.3442 201.208 16.5686 207.605C5.94295 219.63 0.0539854 235.109 0 251.156C0 275.796 11.3613 300.531 33.5159 319.088C55.6705 337.645 88.5947 350 131.697 350C165.72 350.037 198.874 339.262 226.375 319.23C247.985 302.945 273.713 273.287 273.713 224.552C273.713 180.03 243.819 158.017 228.079 146.443L228.197 146.395ZM92.1925 149.544C99.0266 143.504 106.385 138.086 114.181 133.354C120.589 129.466 126.726 125.148 132.549 120.43C137.283 116.288 140.36 112.051 140.383 107.175C140.388 105.292 140.018 103.426 139.295 101.687C138.571 99.9475 137.509 98.3695 136.17 97.0447C131.129 92.0978 122.229 89.7782 111.128 88.5474C98.3922 87.4738 85.6096 87.0551 72.8309 87.2929H69.0438C57.6351 87.2929 48.546 87.1272 41.2795 86.8432C53.0731 81.8213 64.5784 76.1477 75.7422 69.8485C96.3583 58.8186 119.199 46.5815 140.715 41.1375C135.721 46.7471 132.549 53.1616 132.549 58.6765C132.524 60.1247 133.048 61.5286 134.016 62.6057C134.66 63.2455 135.431 63.7428 136.279 64.0649C137.127 64.3871 138.034 64.527 138.94 64.4756C143.426 64.0884 147.834 63.0601 152.029 61.4222C159.408 58.6117 167.193 57.0131 175.083 56.6883C183.71 56.7218 192.119 59.3982 199.178 64.3572C194.405 64.4473 189.763 65.937 185.829 68.6414C184.661 69.4315 183.696 70.4867 183.013 71.7207C182.33 72.9547 181.949 74.3327 181.9 75.7422C181.9 78.9139 184.125 81.2809 186.894 84.4526C191.32 89.4231 197.119 95.9796 197.119 106.512C196.933 114.437 194.386 122.127 189.805 128.596V127.247C189.805 121.898 188.622 115.862 185.687 112.454C184.855 111.47 183.817 110.681 182.648 110.142C181.479 109.602 180.205 109.325 178.917 109.329C174.396 109.329 170.515 112.809 164.716 117.59C159.764 121.882 154.529 125.836 149.046 129.424C121.921 146.49 107.365 153.118 97.0447 153.851C93.2339 154.277 87.5769 154.206 92.1925 149.544ZM117.045 254.21C132.336 254.21 145.07 249.476 154.916 240.505C160.259 235.453 164.491 229.345 167.343 222.568C170.196 215.791 171.606 208.495 171.485 201.143C171.696 194.441 169.352 187.909 164.929 182.87C187.699 188.338 211.344 200.03 224.505 217.759C219.936 216.183 215.136 215.383 210.303 215.392C206.042 215.392 202.681 219.889 202.658 224.86C202.938 228.107 203.688 231.296 204.883 234.327C207.536 241.497 208.999 249.053 209.214 256.695C209.09 266.784 206.111 276.632 200.622 285.098C200.433 276.506 198.113 269.642 195.131 265.974C194.419 264.892 193.452 264.001 192.316 263.38C191.179 262.76 189.907 262.428 188.612 262.414C187.317 262.4 186.039 262.704 184.889 263.3C183.739 263.896 182.753 264.765 182.018 265.831C180.081 268.328 178.393 271.008 176.976 273.832C170.704 285.027 160.952 302.969 129.969 312.224C132.518 308.087 133.976 303.372 134.206 298.519C134.238 297.088 133.988 295.665 133.472 294.329C133.075 293.233 132.352 292.285 131.4 291.612C130.448 290.939 129.312 290.574 128.146 290.566C124.119 290.953 120.149 291.794 116.312 293.075C108.153 295.703 99.6697 297.185 91.1037 297.478C79.6488 297.508 68.5205 293.663 59.5286 286.566C63.0671 286.151 66.4197 284.758 69.2094 282.542C70.1859 281.78 70.9871 280.818 71.5588 279.719C72.1306 278.62 72.4594 277.412 72.5232 276.175C72.5232 272.554 69.6355 270.092 66.3928 267.11C61.6589 262.66 56.0492 257.429 56.0492 248.6C56.0916 245.644 56.6276 242.716 57.6351 239.937C58.6053 242.674 60.0828 245.204 61.9903 247.393C63.1839 248.843 64.6595 250.035 66.3276 250.898C67.9958 251.76 69.8217 252.275 71.6947 252.411C73.0354 252.515 74.3749 252.196 75.5253 251.5C76.6757 250.804 77.5793 249.765 78.1092 248.529C78.8374 246.449 79.1432 244.244 79.0086 242.044C79.0314 240.946 79.2759 239.865 79.7274 238.864C80.1789 237.863 80.8281 236.964 81.6359 236.221C83.2721 234.626 85.4579 233.72 87.7426 233.688C90.1629 233.738 92.5282 234.42 94.604 235.665C96.6799 236.911 98.3942 238.677 99.5773 240.789C102.335 245.461 103.767 250.797 103.719 256.222C103.772 259.36 103.217 262.478 102.086 265.405L100.903 268.246L103.27 266.352C107.484 263.009 110.883 258.752 113.211 253.902C114.607 254.186 115.838 254.21 117.045 254.21ZM16.1189 84.2159C14.533 83.2691 13.4916 82.2513 13.4916 80.7128C13.4916 76.4996 17.4917 69.8012 24.8766 62.44C46.9838 40.238 98.2045 11.8347 151.271 11.8347C178.089 11.8347 199.936 18.4622 214.445 30.7703C220.638 36.0334 225.594 42.5969 228.961 49.9936C232.328 57.3903 234.023 65.4383 233.925 73.5646C233.925 99.601 221.712 117.4 214.256 128.217C210.469 133.685 208.196 136.904 208.149 140.573C208.212 142.027 208.568 143.453 209.194 144.766C209.82 146.08 210.705 147.254 211.794 148.218C214.754 150.978 217.919 153.51 221.262 155.792C236.718 167.225 262.092 185.923 262.115 224.434C262.115 268.269 238.943 294.898 219.51 309.644C194.089 328.215 163.416 338.213 131.933 338.189C52.6408 338.189 11.8347 294.235 11.8347 251.156C11.8481 238.002 16.6238 225.298 25.279 215.392C29.9184 210.103 35.6495 205.883 42.0771 203.023C48.5048 200.162 55.4762 198.73 62.511 198.823C72.7282 198.681 82.7729 201.465 91.4587 206.847C100.358 212.812 107.01 222.516 107.033 238.257V239.629C106.118 237.724 104.965 235.943 103.601 234.327C101.708 231.96 99.2946 230.059 96.5486 228.775C93.8025 227.49 90.7974 226.855 87.7663 226.919C83.6726 226.923 79.7417 228.523 76.8075 231.377C73.8733 234.232 72.1667 238.117 72.0498 242.209C72.1013 243.218 71.9731 244.228 71.6711 245.192C71.6226 245.31 71.559 245.421 71.4817 245.523C70.1408 245.356 68.8562 244.883 67.7274 244.14C66.5987 243.397 65.6561 242.405 64.9726 241.239C62.5769 237.496 61.3796 233.112 61.5405 228.67C61.544 227.548 61.6072 226.426 61.7299 225.309L61.9903 222.777L60.2861 224.67C52.2858 233.57 49.3981 241.618 49.3981 248.529C49.3981 259.867 57.0434 267.962 61.5642 272.199C62.3926 272.956 63.4104 273.903 64.2152 274.731C64.5591 275.084 64.8831 275.455 65.1856 275.844L65.446 276.222C65.446 276.648 64.5466 277.714 62.44 278.589C58.8821 279.86 55.1141 280.438 51.339 280.294C49.5401 280.294 47.5519 280.294 45.3506 280.009L43.3624 279.82L44.6406 281.359C59.789 299.395 76.4996 304.342 90.9853 304.318C100.172 304.062 109.278 302.524 118.039 299.75C120.615 298.809 123.28 298.134 125.992 297.738C126.75 297.738 127.058 297.904 127.2 298.14C127.439 298.556 127.546 299.035 127.507 299.513C127.108 302.981 125.987 306.327 124.217 309.336C122.123 313.404 119.372 317.099 116.075 320.271L114.134 322.023L116.714 321.691C160.929 316.011 175.698 290.377 182.988 277.169C184.008 275.21 185.13 273.306 186.35 271.465C187.344 269.974 188.338 269.264 188.574 269.335C188.811 269.406 189.663 269.713 190.397 270.802C192.575 274.021 194.397 282.092 194.397 290.495C194.418 294.137 194.053 297.771 193.308 301.336L192.764 303.892L194.681 302.093C211.368 286.637 215.984 270.4 215.984 256.861C215.818 248.37 214.284 239.962 211.439 231.961C210.55 229.672 209.923 227.29 209.569 224.86C209.498 224.169 209.647 223.473 209.995 222.871C210.336 222.515 210.786 222.282 211.273 222.209C218.374 222.209 226.706 224.741 236.742 229.523L238.706 230.469L237.854 228.457C224.221 196.456 193.876 182.775 164.313 175.296C149.52 171.556 134.916 169.379 122.584 167.248C115.005 166.139 107.525 164.429 100.216 162.136L97.4471 160.952C114.347 158.822 134.726 146.916 152.81 135.295C158.5 131.551 163.94 127.439 169.094 122.986C171.296 121.164 173.355 119.46 175.083 118.253C176.181 117.308 177.5 116.657 178.917 116.359C179.243 116.368 179.563 116.449 179.853 116.596C180.144 116.743 180.398 116.954 180.598 117.211C182.255 119.01 183.249 123.957 183.225 129.354C183.232 133.628 182.683 137.884 181.592 142.017L181 144.1L182.823 142.916C197.19 133.661 204.125 119.673 204.125 106.536C204.125 93.3996 196.835 85.2337 192.125 79.908C191.415 79.1033 190.563 78.1328 189.9 77.3044C189.483 76.8098 189.111 76.2791 188.787 75.7185C189.046 75.0672 189.501 74.5127 190.089 74.1327C194.338 71.4921 199.295 70.2197 204.291 70.4876C207.478 70.5052 210.654 70.8784 213.759 71.6001L216.126 72.1208L214.705 70.2982C202.208 54.4397 188.006 49.8715 175.343 49.8715C166.605 50.1491 157.968 51.819 149.757 54.8184C146.696 55.9501 143.522 56.7438 140.289 57.1854C140.116 57.2071 139.941 57.2071 139.768 57.1854C140.394 53.3422 142.083 49.7509 144.644 46.8182C148.56 41.8187 153.377 37.596 158.846 34.368L161.071 33.0189L158.467 32.8295C157.331 32.8295 156.1 32.7112 154.988 32.7112C129.567 32.7112 96.737 51.2207 72.5232 63.7181C57.3511 71.5054 25.634 89.9439 16.1189 84.2159Z" fill="#18253F"/>
</svg>
