<svg width="2000" height="2000" fill="none" xmlns="http://www.w3.org/2000/svg"><path d="m1580 1185.36-422.22-3.74 33.5 242.41 400.99 4.2" fill="url(#a)"/><path d="M686.001 1044.99c-1.416 24.2-5.073 48.62-9.438 72.47-1.298 41.49-3.539 82.86-8.612 124.24-.236 2.1-.944 3.85-1.888 5.37-4.011 26.42-10.853 52.13-22.297 75.39-20.881 42.66-59.812 66.5-103.581 76.09 2.714 1.98 4.601 5.14 4.601 9.46 34.685 1.41 158.439 87.89 250.222 242.76 17.814-41.5 41.763-82.4 73.026-110.8 34.33-31.21 78.453-39.62 116.558-8.89 11.208 9 9.32 19.06-2.477 14.96-.59 3.04-1.18 5.97-2.124 9 2.36 6.32.472 13.8-8.022 15.08-21.825 3.51-41.763 10.64-55.92 25.13-3.421 11.92-6.37 24.08-6.724 36.35.118 0 .236 0 .236.12 19.701 9.23 44.358 4.09 65.239 3.74 10.618-.24 192.42-37.99 197.61-28.99 10.38 18-4.6 30.86-14.99 45.11 6.85 16.72 1.54 35.65-7.9 53.53 4.48 18.35-5.78 36.35-24.54 41.61h-.24c-2.94 9-12.15 40.56-25.01 40.79-12.62.35-842.681-18.46-842.681-18.46-12.859 0-8.848-146.57-8.848-177.89 0-39.97-27.842-447.06-9.202-703.717 8.258-112.903 83.407-110.098 157.966-121.669L146.271 523.021l8.495 295.699c-.118 0-.118 0 0 .116l6.606 233.054v.35l3.067 104.84 8.613 302.94 10.145 357.88 1339.943 36.7-837.139-809.61z" fill="url(#b)"/><path d="M1650.67 987.49c-9.91 12.272-19.82 24.66-29.85 36.93-4.01 5.03 3.07 12.04 7.08 7.02 9.91-12.28 19.82-24.67 29.85-36.937 4.13-4.909-2.95-12.039-7.08-7.013z" fill="url(#c)"/><path d="M95.661 1085.55 48 1142.23l59.695 11.69-12.034-68.37z" fill="url(#d)"/><path d="m1168.04 282.138 12.51 68.723 64.65-11.337-16.28-68.723-60.88 11.337z" fill="url(#e)"/><path d="M1141.97 320.24c-19.94-21.272-39.76-42.427-59.7-63.698-4.36-4.675-11.56 2.337-7.07 7.012 19.93 21.272 39.75 42.427 59.69 63.698 4.48 4.675 11.56-2.337 7.08-7.012z" fill="url(#f)"/><path d="M998.866 1327.72c-116.911-40.56-242.907 18.7-285.496 133.47-2.241 6.08 7.551 8.65 9.674 2.69 40.819-109.98 161.624-165.26 273.109-126.58 6.257 2.22 8.847-7.48 2.713-9.58z" fill="url(#g)"/><path d="M964.655 1429.64c-55.33-10.64-110.659 13.32-140.035 61-3.421 5.5 5.309 10.52 8.73 5.03 26.78-43.59 77.981-66.27 128.592-56.45 6.37 1.17 9.084-8.42 2.713-9.58z" fill="url(#h)"/><path d="M1227.62 938.518a8338.15 8338.15 0 0 0-29.97 37.985c-3.89 5.026 3.19 12.156 7.08 7.013a8283.328 8283.328 0 0 0 29.97-37.985c4.01-5.026-3.07-12.155-7.08-7.013z" fill="url(#i)"/><path d="M1257.11 985.036c-11.21 6.194-22.3 12.505-33.5 18.704-5.67 3.15-.59 11.8 5.07 8.64 11.21-6.19 22.3-12.501 33.5-18.695 5.67-3.156.59-11.805-5.07-8.649z" fill="url(#j)"/><path d="M1589.21 1810.54h-.12l-1339.945-36.7c-2.713-.12-4.837-2.22-4.955-4.91l-28.314-998.48a2.848 2.848 0 0 1 0-1.403l-8.494-294.88c-.118-2.805 2.124-5.026 4.837-5.143L1381.46 433.61c2.47 0 4.71 1.754 5.19 4.208l207.63 1366.872c.24 1.52-.24 2.93-1.18 4.09-1.06 1.06-2.48 1.76-3.89 1.76zm-1334.992-46.52 1329.092 36.35-206.1-1356.591-1159.682 35.18 8.376 290.672v.234l28.314 994.155z" fill="#000200"/><path d="M1589.21 1810.54c-1.3 0-2.6-.47-3.54-1.41L686.945 939.921c-2.006-1.87-2.006-5.025-.118-7.012 2.006-1.987 5.191-1.987 7.078-.117l898.725 869.098c2 1.87 2 5.02.12 7.01-.95 1.05-2.24 1.64-3.54 1.64zM432.83 692.142c-1.298 0-2.596-.467-3.54-1.402L208.916 477.673c-2.006-1.87-2.006-5.026-.118-7.013 2.005-1.987 5.191-1.987 7.078-.116l220.375 213.183c2.005 1.87 2.005 5.026.118 7.013-.944.935-2.242 1.402-3.539 1.402zM265.543 1901H110.29c-2.832 0-5.073-2.22-5.073-5.03v-125.52c0-2.81 2.241-5.03 5.073-5.03 2.831 0 5.073 2.22 5.073 5.03v120.5h150.298c2.831 0 5.073 2.22 5.073 5.02-.118 2.81-2.36 5.03-5.191 5.03zM1467.69 443.545c-2.47 0-4.6-1.753-4.95-4.325l-14.28-98.644h-105.7c-2.83 0-5.07-2.22-5.07-5.025s2.24-5.026 5.07-5.026h110.07c2.48 0 4.6 1.87 4.95 4.324l14.87 102.969c.35 2.688-1.53 5.259-4.25 5.61-.23.117-.47.117-.71.117zM795.481 1663.74a5.09 5.09 0 0 1-4.483-2.69c-85.059-160.7-172.241-211.08-243.615-248.95l21.707 191.8c.236 1.75-.59 3.5-2.006 4.56-1.415 1.05-3.303 1.28-4.954.7l-75.032-29.81-50.964 73.17c-.826 1.17-2.006 1.87-3.422 2.1-1.415.24-2.831-.23-3.893-1.05l-182.741-148.43c-2.123-1.76-8.376-10.76-6.606-12.86 1.769-2.1 10.853 3.39 12.977 5.14l178.494 145.05 50.139-72c1.297-1.99 3.775-2.69 6.016-1.75L558 1596.89l-21.825-192.85c-.236-1.87.59-3.62 2.124-4.68a4.889 4.889 0 0 1 5.191-.23c74.087 39.04 166.342 87.66 256.238 257.48a5 5 0 0 1-2.123 6.78c-.472.12-1.298.35-2.124.35z" fill="#000200"/><path d="M528.507 1781.43c-2.596 0-4.837-1.98-5.073-4.55l-13.449-160.71-28.904-40.21c-1.651-2.22-1.061-5.37 1.18-7.01 2.242-1.63 5.427-1.05 7.078 1.17l29.73 41.26c.472.7.826 1.63.944 2.45l13.567 162.11c.236 2.81-1.888 5.14-4.601 5.38-.118.11-.236.11-.472.11zM694.85 1781.43c-2.477 0-4.601-1.87-4.955-4.32l-13.803-101.68a5.003 5.003 0 0 1 4.365-5.61c2.714-.47 5.309 1.52 5.663 4.32l13.803 101.68a5.003 5.003 0 0 1-4.365 5.61h-.708zM265.661 1117.46c-13.685 0-25.954-1.52-36.69-4.56-2.713-.82-4.247-3.51-3.421-6.2.826-2.68 3.539-4.2 6.252-3.39 10.146 2.93 21.943 4.21 35.038 4.21 3.304.12 5.073 2.22 5.073 4.91 0 2.81-2.241 5.03-4.954 5.03h-1.298z" fill="#000200"/><path d="M485.33 1578.19c-.944 0-2.006-.24-2.832-.82l-246.211-162.11c-2.359-1.52-2.949-4.68-1.415-6.9 1.533-2.33 4.719-2.92 6.96-1.4l239.84 158.02 16.399-89.65c.472-2.68 3.185-4.44 5.898-3.97 2.714.47 4.601 3.04 4.012 5.84l-17.697 97.01c-.353 1.64-1.415 3.04-2.949 3.74-.708 0-1.298.24-2.005.24zM227.437 1007.83c-2.123 0-4.247-1.41-4.836-3.63-.826-2.68.707-5.373 3.421-6.191 20.763-5.961 47.543-7.714 79.868-5.026 2.831.234 4.837 2.688 4.601 5.377-.236 2.8-2.714 4.79-5.427 4.56-31.027-2.57-56.627-1.05-76.211 4.56-.472.35-.944.35-1.416.35zM590.678 1127.62h-3.185c-2.831-.11-4.955-2.45-4.837-5.14.118-2.8 2.713-4.67 5.191-4.79 16.28.58 29.493-3.39 36.218-10.64 4.011-4.32 5.545-9.93 4.601-16.47-2.124-15.78-33.977-23.61-46.01-25.37-2.595-.35-4.365-2.57-4.365-5.14l2.478-73.632c.117-2.688 2.359-4.792 5.072-4.792h.118c2.832.117 4.955 2.454 4.837 5.142l-2.359 69.192c12.977 2.45 47.071 10.87 50.139 33.19 1.297 9.47-1.18 18-7.197 24.55-8.14 8.88-22.887 13.9-40.701 13.9zM502.789 982.815l-2.949 15.778c-3.894 20.337-35.746 14.497-31.971-5.961l2.949-15.778c3.893-20.337 35.864-14.493 31.971 5.961zM657.569 998.476l-2.949 15.774c-3.893 20.34-35.746 14.5-31.971-5.84l2.949-15.778c3.894-20.336 35.864-14.492 31.971 5.844zM478.25 900.65c-13.095 2.338-25.836 5.377-38.341 10.285-9.674 3.741-1.888 17.883 7.668 14.143 10.972-4.325 22.769-6.662 34.33-8.766 10.382-1.87 6.607-17.532-3.657-15.662zM663.232 916.779c-8.022-5.727-17.224-10.168-24.774-16.479-7.904-6.662-19.82 4.324-11.798 10.986 8.73 7.363 18.758 12.506 27.96 19.168 8.494 5.961 17.106-7.714 8.612-13.675zM483.441 1199.85c-12.033-2.22-27.96-8.29-28.432-22.67-.235-10.28-16.516-10.87-16.28-.58.59 21.97 19.584 34.71 39.757 38.57 10.382 1.98 15.219-13.33 4.955-15.32z" fill="#000200"/><path d="M454.302 683.843c-118.682-3.856-196.308 23.025-237.245 82.516-.354.35-.708.818-.826 1.285-.826 1.753-.354 3.974.944 5.493 1.062 1.169 2.477 1.637 3.893 1.637l6.371 228.146v.35c14.156-2.81 28.667-2.81 43.296-.82 13.567-2.688 30.909-4.208 39.757-3.857 28.078-72.347 12.033-165.498 71.846-184.899 45.538-14.844 243.615-16.246 292.81 19.518 2.596 14.376 3.776 29.921 3.54 46.634-.472 26.999-.826 52.945-1.18 77.84-3.421 237.144-5.427 380.204-86.947 423.324-69.486 36.7-191.589 25.25-192.886 25.13-1.77-.11-3.422.59-4.483 1.87-1.062 1.29-1.416 3.16-.826 4.68 18.404 53.88 106.176 67.9 109.951 68.49.236 0 .472.11.826.11 2.359 0 4.483-1.63 4.955-3.97l12.033-60.54a5.396 5.396 0 0 0-.826-3.86c26.78-4.09 53.796-11.22 76.093-22.91 86.829-45.93 88.834-191.21 92.256-431.973.354-25.012.708-50.959 1.179-77.84 2.124-126.929-74.559-190.977-234.531-196.354zM263.891 1112.43l-34.566.59 3.068 75.85c15.218-22.56 25.718-47.69 31.498-76.44zM744.753 1787.4c-.59 0-1.298-.12-1.888-.36-2.595-1.05-3.775-3.97-2.831-6.54a4862.71 4862.71 0 0 0 14.746-36.58c43.651-108.82 84.823-211.67 146.878-235.04 22.061-8.3 46.127-6.2 71.256 6.31 2.477 1.28 3.539 4.21 2.241 6.66-1.18 2.46-4.247 3.51-6.724 2.22-22.887-11.34-43.533-13.32-63.234-5.96-57.925 21.86-98.272 122.72-141.097 229.43-4.837 12.16-9.791 24.31-14.746 36.58-.708 2.11-2.596 3.28-4.601 3.28z" fill="#000200"/><path d="M1012.55 1690.39c-1.18 0-2.36 0-3.42-.12-2.83-.23-4.84-2.57-4.72-5.26.24-2.8 2.6-4.79 5.31-4.67 25.84 1.52 119.63-20.92 145.46-35.07 19.47-10.75 23.71-27.46 19.23-35.53-3.54-6.31-12.62-6.54-23.71-.58-41.06 22.32-193.124 32.37-227.573 32.37-10.027 0-14.864-4.91-17.106-9-5.073-9.23-2.241-24.66 7.315-39.15 11.089-16.95 26.78-26.41 41.762-25.25 2.714.24 4.837 2.58 4.601 5.38-.236 2.69-2.595 4.91-5.426 4.56-13.331-.94-25.483 10.05-32.561 20.69-7.197 10.98-10.146 23.14-6.961 28.98.472.94 2.124 3.74 8.259 3.74 32.796 0 183.92-10.05 222.73-31.09 19.82-10.75 32.45-4.32 37.4 4.44 7.43 13.44.71 36-23.12 49.09-26.19 14.49-116.09 36.47-147.47 36.47z" fill="#000200"/><path d="M1007.6 1747.31c-2.13 0-4.13-1.41-4.84-3.51-.82-2.69.59-5.49 3.3-6.31 12.39-3.97 27.37-6.9 43.18-10.17 53.09-10.64 113.26-22.67 103.58-77.02-.47-2.69 1.3-5.26 4.13-5.84 2.72-.47 5.31 1.28 5.9 4.09 11.44 63.93-56.74 77.6-111.48 88.59-15.58 3.15-30.21 6.08-42.12 9.82-.59.23-1.18.35-1.65.35z" fill="#000200"/><path d="M1000.99 1787.4c-2.123 0-4.129-1.41-4.837-3.51-.825-2.57.59-5.49 3.304-6.31 12.383-3.98 27.373-6.9 43.173-10.17 53.09-10.64 113.26-22.67 103.59-77.02-.48-2.69 1.29-5.26 4.12-5.85 2.72-.46 5.31 1.29 5.9 4.09 11.45 63.94-56.74 77.61-111.48 88.48-15.57 3.16-30.2 6.08-42.12 9.82-.59.35-1.06.47-1.65.47z" fill="#000200"/><path d="M1093.48 1796.98c-2.12 0-4.13-1.4-4.83-3.51-.83-2.69.7-5.37 3.3-6.19 1.18-.35 28.55-9 28.55-40.21 0-2.8 2.24-5.02 5.07-5.02s5.07 2.22 5.07 5.02c0 38.69-35.39 49.68-35.74 49.79-.47 0-.94.12-1.42.12zM1197.06 1489.13c-.94-1.29-2.47-1.99-4.01-1.99H979.284c-2.242 0-4.247 1.52-4.837 3.62l-41.409 144.11c-.472 1.52-.118 3.27.944 4.56a4.991 4.991 0 0 0 3.893 1.87h.354l97.091-7.48 124.94-28.17c1.76-.35 3.18-1.63 3.65-3.39l34.1-108.58c.23-1.63 0-3.27-.95-4.55zM944.953 451.843l76.207-2.454c-34.09 16.362-63.938 27.816-73.022 27.232a97.142 97.142 0 0 1-3.185-24.778zM1075.67 624.47c-4.25 0-8.14-.818-11.56-2.454-5.43-2.688-9.2-7.48-10.74-13.791-3.42-13.909 12.86-26.415 20.77-31.557l-16.64-37.985c-1.06-2.572.12-5.493 2.6-6.545 2.59-1.052 5.54.117 6.6 2.571l18.29 41.959c1.06 2.337.12 5.025-2.12 6.311-7.32 4.091-21.83 15.194-19.82 22.908.82 3.506 2.71 5.844 5.42 7.246 4.96 2.455 13.1 1.637 21.71-1.987 2.6-1.168 5.54.117 6.61 2.572 1.06 2.571-.12 5.493-2.6 6.545-6.49 2.805-12.74 4.207-18.52 4.207zM1028.95 541.605l4.01 9.116c5.19 11.805-13.33 19.752-18.52 7.948l-4.01-9.117c-5.19-11.804 13.33-19.752 18.52-7.947zM1143.5 529.683l4.01 9.117c5.19 11.804-13.33 19.752-18.52 7.947l-4.01-9.116c-5.19-11.805 13.33-19.752 18.52-7.948zM1111.77 480.478c8.14-1.636 16.16-2.688 24.54-2.688 6.48 0 5.19 9.935-1.18 9.935-7.32 0-14.63 1.285-21.83 2.688-6.49 1.168-7.9-8.649-1.53-9.935zM987.07 502.1c4.483-4.207 9.792-7.597 13.92-12.155 4.37-4.675 12.51 1.052 8.14 5.844-4.84 5.143-10.617 9.116-15.689 14.025-4.601 4.442-10.972-3.272-6.371-7.714zM1170.28 636.859c6.49-3.974 14.28-11.103 11.21-19.518-2.24-5.961 7.08-10.052 9.2-3.974 4.72 12.856-3.42 24.427-14.15 31.206-5.43 3.506-11.8-4.324-6.26-7.714zM1277.05 473.349c-1.89 0-3.78-1.052-4.6-2.922l-11.44-26.298c-1.07-2.571.11-5.493 2.59-6.545 2.6-1.168 5.55.117 6.61 2.572l11.32 26.18c1.18 2.571 0 5.493-2.48 6.545-.58.351-1.29.468-2 .468z" fill="#000200"/><path d="M1248.5 743.568c-.12-1.753-1.06-3.272-2.48-4.091-1.53-.818-3.3-.935-4.84-.116-.7.35-68.18 34.244-116.2 28.634-55.92-6.428-89.66-88.242-145.697-223.936a7960.947 7960.947 0 0 0-18.522-44.764c-3.421-8.181-6.016-16.129-7.786-23.843-2.006-8.064-2.949-16.012-2.949-23.609 0-2.805-2.242-5.025-5.073-5.025-2.832 0-5.073 2.22-5.073 5.025 0 8.532 1.062 17.298 3.303 25.947 1.888 8.181 4.719 16.713 8.376 25.362 6.489 15.428 12.623 30.388 18.522 44.647C1027.53 686.883 1062.22 770.8 1123.92 777.93c15.1 1.753 31.73 0 47.66-3.39.24.819.83 1.637 1.53 2.221l48.14 40.556c.94.818 2.12 1.169 3.3 1.169.35 0 .59 0 .83-.117 1.53-.233 2.71-1.168 3.54-2.454.82-1.403 21.23-37.518 19.58-72.347zM1381.57 438.636l-115.96 3.507-41.18 1.285-88.24 2.572c10.38 14.843 88.71 54.698 106.76 42.66.36-.117.71-.234 1.07-.351 26.78-13.09 48.13-17.298 61.93-12.389 6.61 2.455 11.45 6.896 14.28 13.441 1.77 3.974 4.01 12.038 0 21.505-4.49 10.636-15.46 19.519-31.74 25.713-.35.117-.71.351-1.06.585-41.41 26.531-23.24 102.267 28.2 124.006 32.91 13.908 67.83 8.532 98.62-7.246l-32.68-215.288z" fill="#000200"/><path d="M1058.21 722.296c-34.69-62.879-65.005-127.746-91.078-194.483-.118-.467-.472-.701-.707-1.052 3.303-3.74-.944-10.519-6.017-7.714-50.965 28.285-76.211 87.658-55.212 142.824 22.769 59.841 89.306 87.892 149.474 67.555 3.07-1.052 5.31-4.091 3.54-7.13zM1263.36 838.005c-15.81 0-30.08-7.13-42.7-21.272-1.89-2.104-1.65-5.26.47-7.013 2.12-1.87 5.31-1.636 7.08.468 13.21 14.843 28.43 20.453 45.42 16.713 46.95-10.519 97.68-88.943 111.95-138.265.83-2.688 3.54-4.208 6.26-3.39 2.71.702 4.24 3.507 3.42 6.195-15.22 52.945-68.07 133.824-119.39 145.278-4.25.818-8.38 1.286-12.51 1.286z" fill="#000200"/><path d="M1420.86 702.193c-.36 0-.83 0-1.18-.116l-30.32-7.247c-1.06-.234-2.12-.935-2.83-1.87l-27.25-35.063c-1.66-2.221-1.3-5.259.94-7.013 2.24-1.636 5.43-1.285 7.08.935l26.07 33.661 28.55 6.896c2.71.701 4.37 3.389 3.66 6.077-.47 2.221-2.48 3.74-4.72 3.74zM1206.62 1375.87c-.59 0-1.06-.11-1.65-.23-20.41-7.01-14.16-27.23-4.01-60.66 5.78-18.82 12.86-42.19 18.52-71.65 10.62-54.58 59.1-143.64 266.15-126.11 2.71.24 4.83 2.69 4.6 5.38-.24 2.69-2.72 4.79-5.43 4.56-147.47-12.51-238.31 29.45-255.41 118.04-5.78 30.04-12.98 53.77-18.88 72.7-10.14 33.08-13.09 44.76-2.36 48.39 2.6.93 4.01 3.74 3.07 6.31-.59 1.99-2.48 3.27-4.6 3.27z" fill="#000200"/><path d="M1181.25 1309.95c-1.29 0-2.59-.46-3.54-1.4-.7-.7-4.24-4.32-4.36-12.62-.24-14.14 9.79-41.26 58.99-90 2-1.98 5.19-1.98 7.07 0 2.01 1.99 2.01 5.15 0 7.02-68.42 67.78-54.85 88.24-54.62 88.35 2.01 1.87 2.01 4.91.12 7.02-.94 1.17-2.24 1.63-3.66 1.63zM1251.8 1413.97c-2 0-4.24-.46-6.72-1.63-25.6-12.04-21.95-76.44 8.85-153.34 1.06-2.58 4.01-3.86 6.48-2.81 2.6 1.05 3.9 3.97 2.84 6.43-30.68 76.55-31.03 132.54-13.92 140.6 2.35 1.17 3.3.47 3.77.23 4.96-3.03 7.79-18.46 8.14-27.93.12-2.8 2.71-5.02 5.19-4.79 2.83.12 4.96 2.45 4.84 5.14-.12 4.79-1.65 29.22-12.98 36.12-1.53 1.17-3.77 1.98-6.49 1.98z" fill="#000200"/><path d="M1286.37 1411.87c-3.19 0-7.2-1.17-11.44-4.91-22.3-19.75-17.94-67.67 12.86-142.47 1.06-2.57 4.01-3.74 6.6-2.69 2.6 1.05 3.78 3.97 2.72 6.55-38.11 92.33-26.08 121.78-15.46 131.13 3.3 2.92 5.07 2.46 5.66 2.22 5.19-1.63 10.5-14.02 12.39-21.85.71-2.69 3.42-4.33 6.14-3.74 2.71.7 4.36 3.39 3.65 6.07-1.06 4.21-6.72 25.25-19.23 29.11-1.06.35-2.47.58-3.89.58z" fill="#000200"/><path d="M1324.47 1403.69c-6.37 0-13.21-4.91-20.88-14.73-6.13-7.95-22.29-39.27 27.96-111.03 1.54-2.22 4.72-2.81 6.96-1.29s2.83 4.68 1.3 6.9c-47.54 67.79-31.85 94.55-28.31 99.23 6.96 8.88 11.68 11.33 13.56 10.75.71-.23 6.96-3.04 8.26-33.08.83-18.81 20.41-56.56 39.41-69.42 19.46-13.21 64.76-7.01 141.56 9.12 2.72.58 4.49 3.27 3.9 5.96-.59 2.68-3.31 4.32-6.02 3.85-70.43-14.72-117.5-21.74-133.78-10.63-15.81 10.75-34.33 45.93-35.04 61.71-1.06 25.83-5.9 39.27-15.22 42.19-1.18.24-2.48.47-3.66.47zM1216.88 1400.77c-1.18 0-2.24-.12-3.18-.35-3.31-.82-9.32-3.74-11.56-14.5-.59-2.68 1.18-5.37 3.89-5.84 2.71-.58 5.43 1.17 5.9 3.86.82 3.85 2.24 6.31 4.01 6.78 2.24.46 6.96-1.52 12.98-8.89 1.77-2.1 4.95-2.45 7.07-.7 2.13 1.75 2.48 4.91.71 7.01-8.02 9.94-14.86 12.63-19.82 12.63zM937.757 913.156c-.354 0-.826 0-1.18-.116-2.713-.585-4.365-3.273-3.775-5.961 15.808-66.971 83.058-142.59 140.978-158.602 2.71-.701 3.54 2.688 6.25 3.506 8.14 2.338-.82 5.377-3.54 6.195-54.97 15.194-118.796 87.19-133.896 151.238a5.022 5.022 0 0 1-4.837 3.74zM1438.91 1453.24c-18.4 0-39.99-2.1-65-7.36-2.72-.58-4.49-3.27-3.9-5.96.59-2.69 3.19-4.32 6.02-3.86 110.42 23.26 150.42-18.81 150.89-19.16a4.954 4.954 0 0 1 7.08-.35c2.12 1.87 2.24 4.9.47 7.01-1.42 1.52-27.61 29.68-95.56 29.68z" fill="#000200"/><path d="m1248.38 1469.72-188.52-576.667c-.71-2.104-2.59-3.389-4.72-3.506l-368.312-2.221c-2.595 0-4.837 1.987-5.073 4.558l-4.011 44.063a5.253 5.253 0 0 0 1.534 4.091l560.842 534.942c.95.94 2.25 1.41 3.54 1.41.95 0 1.89-.24 2.72-.82a5.146 5.146 0 0 0 2-5.85zM1285.31 1516.59c-1.42 0-2.71-.58-3.78-1.64-1.88-2.1-1.65-5.25.36-7.01l197.25-174.14-13.33-29.22-197.84 183.49c-2.01 1.87-5.19 1.76-7.08-.23-1.89-1.99-1.77-5.14.23-7.01l202.92-188.29c1.18-1.05 2.83-1.64 4.48-1.29 1.65.35 2.95 1.41 3.66 2.81l17.7 38.92c.94 1.98.35 4.32-1.3 5.72l-200.09 176.61c-.82.93-2 1.28-3.18 1.28z" fill="#000200"/><path d="M502.527 196.961c.391-1.875 1.368-3.399 2.93-4.57 1.641-1.25 3.477-2.383 5.508-3.399a82.972 82.972 0 0 1 6.562-2.812 66.193 66.193 0 0 0 6.211-2.93c1.953-1.016 3.555-2.188 4.805-3.516 1.25-1.406 1.875-3.086 1.875-5.039 0-2.5-.664-4.57-1.992-6.211-1.25-1.64-2.969-3.046-5.156-4.218-2.11-1.172-4.532-2.149-7.266-2.93a608.272 608.272 0 0 0-8.438-2.344 259.532 259.532 0 0 1-8.32-2.695c-2.734-1.016-5.195-2.266-7.383-3.75-2.109-1.485-3.828-3.281-5.156-5.391-1.25-2.109-1.875-4.726-1.875-7.851 0-2.578.508-5 1.523-7.266a29.319 29.319 0 0 1 4.219-6.562 38.668 38.668 0 0 1 6.094-5.743 43.582 43.582 0 0 1 7.266-4.336c2.578-1.171 5.156-2.07 7.734-2.695 2.578-.703 4.961-1.055 7.148-1.055h1.289c.704.235 1.641.625 2.813 1.172 1.172.547 2.305 1.094 3.398 1.641 1.094.469 2.032.937 2.813 1.406.781.391 1.172.625 1.172.703v2.696c-1.485.156-3.399.468-5.742.937a75.11 75.11 0 0 0-7.383 1.641 66.725 66.725 0 0 0-7.852 2.695c-2.656 1.016-5.039 2.227-7.148 3.633-2.11 1.406-3.828 3.047-5.156 4.922-1.329 1.797-1.993 3.867-1.993 6.211 0 3.359 1.172 6.015 3.516 7.968 2.344 1.875 5.273 3.438 8.789 4.688 3.516 1.25 7.344 2.383 11.484 3.398 4.219.938 8.086 2.11 11.602 3.516 3.516 1.328 6.445 3.125 8.789 5.391 2.344 2.187 3.516 5.156 3.516 8.906 0 2.031-.625 4.18-1.875 6.445-1.172 2.188-2.774 4.375-4.805 6.563-1.953 2.109-4.18 4.14-6.68 6.093a60.498 60.498 0 0 1-7.734 5.157c-2.578 1.406-5.117 2.578-7.617 3.515-2.5.86-4.727 1.289-6.68 1.289a9.21 9.21 0 0 1-1.992-.234 6.685 6.685 0 0 1-1.875-.703c-.469-.391-.86-.938-1.172-1.641-.234-.703-.156-1.601.234-2.695zm95.391-10.078c-2.969 2.031-5.547 3.867-7.734 5.508-2.11 1.562-4.18 2.89-6.211 3.984a26.454 26.454 0 0 1-6.563 2.461c-2.265.547-5.078.82-8.437.82-7.266 0-12.657-1.914-16.172-5.742-3.516-3.906-5.274-9.687-5.274-17.344 0-2.968.391-6.054 1.172-9.258a49.294 49.294 0 0 1 3.399-9.492 55.668 55.668 0 0 1 5.507-9.023c2.11-2.891 4.493-5.43 7.149-7.617 2.656-2.188 5.469-3.907 8.437-5.157a23.796 23.796 0 0 1 9.61-1.992c5.625.547 10.039 1.953 13.242 4.219 3.203 2.188 5.625 5.039 7.266 8.555 1.64 3.437 2.773 7.304 3.398 11.601a168.641 168.641 0 0 1 1.406 13.125c.391 4.531.86 9.063 1.407 13.594.546 4.531 1.679 8.711 3.398 12.539-1.016 2.578-1.992 4.375-2.93 5.391-.859 1.093-1.836 1.289-2.929.586-1.094-.703-2.383-2.422-3.868-5.157-1.406-2.734-3.164-6.601-5.273-11.601zm-40.43-10.078c0 4.453.821 7.734 2.461 9.843 1.719 2.032 4.727 3.047 9.024 3.047 3.203 0 6.25-.547 9.14-1.64 2.969-1.172 5.547-2.735 7.735-4.688 2.187-2.031 3.945-4.453 5.273-7.265 1.328-2.813 1.992-5.938 1.992-9.375 0-1.407.039-3.36.117-5.86a41.138 41.138 0 0 0-.468-7.617c-.391-2.5-1.133-4.648-2.227-6.445-1.094-1.875-2.734-2.813-4.922-2.813-4.062 0-7.812 1.055-11.25 3.164-3.437 2.032-6.406 4.649-8.906 7.852-2.5 3.203-4.453 6.758-5.859 10.664-1.407 3.828-2.11 7.539-2.11 11.133zm60.235-24.024c0-1.953.312-3.476.937-4.57.703-1.094 2.149-1.641 4.336-1.641.234 0 .664.039 1.289.118h1.289a232.788 232.788 0 0 1 1.641 7.968 194.883 194.883 0 0 0 2.109 8.555 154.865 154.865 0 0 0 2.578 8.555c1.016 2.812 2.227 5.351 3.633 7.617 1.406-1.485 2.422-3.242 3.047-5.274a42.79 42.79 0 0 0 1.406-6.093c.313-2.11.586-4.102.821-5.977.312-1.953.898-3.594 1.757-4.922.86-1.406 2.11-2.422 3.75-3.047 1.719-.625 4.063-.625 7.032 0 3.281 0 5.898.625 7.851 1.875a17.536 17.536 0 0 1 5.039 4.571 56.038 56.038 0 0 1 4.219 5.859c1.406 2.031 3.164 3.867 5.273 5.508a428.596 428.596 0 0 1 1.758-3.75 41.643 41.643 0 0 1 2.578-4.805 113.75 113.75 0 0 1 3.399-5.039c1.25-1.719 2.539-3.242 3.867-4.57 1.328-1.407 2.695-2.539 4.102-3.399 1.406-.937 2.773-1.406 4.101-1.406 3.203 0 5.977 1.016 8.32 3.047 2.344 1.953 4.336 4.453 5.977 7.5 1.719 2.969 3.125 6.328 4.219 10.078 1.094 3.672 1.953 7.227 2.578 10.664.625 3.438 1.055 6.602 1.289 9.492.312 2.813.469 4.844.469 6.094 0 1.016-.235 1.797-.703 2.344a4.903 4.903 0 0 1-1.758 1.289 10.45 10.45 0 0 1-2.344.469c-.781.078-1.523.117-2.227.117h-.703a24.232 24.232 0 0 0-1.054-.235 41.566 41.566 0 0 1-1.289-.351l-7.618-35.039c0-.235-.312-.664-.937-1.289-.625-.703-1.094-1.133-1.406-1.289-.235 0-.43-.039-.586-.117h-.352c-.078-.079-.156-.118-.234-.118-1.641 0-3.203.664-4.688 1.992-1.406 1.329-2.734 3.008-3.984 5.04-1.25 2.031-2.422 4.296-3.516 6.796-1.093 2.5-2.07 5-2.929 7.5a371.051 371.051 0 0 0-2.344 6.797c-.625 2.032-1.133 3.594-1.524 4.688-.312.156-.937.312-1.875.469-.937.078-1.562.117-1.875.117-2.187 0-3.867-.742-5.039-2.227-1.172-1.562-2.148-3.476-2.929-5.742a78.202 78.202 0 0 1-1.875-7.383c-.469-2.734-1.094-5.234-1.875-7.5-.703-2.265-1.719-4.14-3.047-5.625-1.25-1.562-3.047-2.344-5.391-2.344-.859 0-1.68.86-2.461 2.579-.781 1.718-1.484 3.906-2.109 6.562a143.776 143.776 0 0 0-1.758 8.438 235.26 235.26 0 0 0-1.406 8.437 197.536 197.536 0 0 0-.703 6.563l-.235 2.695c-.156.234-.468.508-.937.82a32.3 32.3 0 0 0-1.524.82 5.403 5.403 0 0 1-1.523.704c-.469.156-.82.234-1.055.234-2.187 0-4.297-.977-6.328-2.93-2.031-2.031-3.906-4.609-5.625-7.734-1.641-3.203-3.164-6.719-4.57-10.547a140.292 140.292 0 0 1-3.399-11.25c-.937-3.672-1.679-6.992-2.226-9.961-.469-2.969-.703-5.234-.703-6.797zm105.468 16.641c0-4.219.508-8.438 1.524-12.656 1.015-4.219 2.617-8.008 4.805-11.368 2.265-3.359 5.156-6.093 8.671-8.203 3.594-2.109 7.93-3.164 13.008-3.164 2.891 0 5.43.547 7.617 1.641 2.188 1.016 4.024 2.383 5.508 4.101 1.485 1.719 2.578 3.75 3.281 6.094.782 2.266 1.172 4.649 1.172 7.149 0 3.984-.937 7.851-2.812 11.601-1.797 3.75-4.258 7.071-7.383 9.961-3.047 2.813-6.562 4.961-10.547 6.445-3.984 1.407-8.047 1.719-12.187.938.078 2.266.82 4.101 2.226 5.508 1.485 1.328 3.242 2.343 5.274 3.047a28.567 28.567 0 0 0 6.328 1.406c2.187.156 4.14.234 5.859.234 1.797 0 3.477-.156 5.039-.468 1.563-.313 3.125-.665 4.688-1.055 1.562-.391 3.125-.742 4.687-1.055a27.564 27.564 0 0 1 5.156-.469c.704 0 1.407.039 2.11.118a5.875 5.875 0 0 1 1.992.585c.625.235 1.133.665 1.523 1.29.391.546.586 1.25.586 2.109 0 1.484-.546 2.734-1.64 3.75-1.094.937-2.5 1.758-4.219 2.461-1.641.703-3.477 1.25-5.508 1.64-2.031.313-4.023.586-5.976.821a63.812 63.812 0 0 1-5.274.234c-1.562.078-2.734.117-3.515.117-5 0-9.493-.781-13.477-2.343-3.984-1.641-7.344-3.868-10.078-6.68-2.734-2.891-4.844-6.328-6.328-10.313-1.406-4.062-2.11-8.554-2.11-13.476zm12.422-7.617c0 2.734.352 4.726 1.055 5.976.781 1.25 2.617 1.875 5.508 1.875 2.031 0 4.023-.351 5.976-1.054a18.976 18.976 0 0 0 5.274-3.164c1.64-1.329 2.929-2.891 3.867-4.688.937-1.797 1.406-3.75 1.406-5.859 0-1.172-.117-2.383-.351-3.633-.157-1.25-.547-2.383-1.172-3.399-.625-1.093-1.446-1.953-2.461-2.578-.938-.703-2.188-1.054-3.75-1.054-2.344 0-4.492.546-6.445 1.64a15.119 15.119 0 0 0-4.805 4.102c-1.328 1.64-2.344 3.515-3.047 5.625a18.863 18.863 0 0 0-1.055 6.211zm104.414-18.867c0-.235.039-.43.118-.586 0-.157.039-.352.117-.586.312-.391.781-.899 1.406-1.524.625-.625 1.016-.937 1.172-.937h23.555c0-.86-.118-2.227-.352-4.102a295.523 295.523 0 0 1-.703-6.211 69.697 69.697 0 0 1-.117-7.031c.078-2.5.39-4.727.937-6.68.625-2.031 1.563-3.672 2.813-4.922 1.328-1.328 3.164-1.992 5.507-1.992 0 7.891.547 14.219 1.641 18.985 1.094 4.765 2.539 8.437 4.336 11.015 1.875 2.578 3.984 4.258 6.328 5.039a20.35 20.35 0 0 0 7.149 1.055 37.09 37.09 0 0 0 7.265-1.172c2.344-.625 4.414-1.055 6.211-1.289 1.875-.234 3.36-.039 4.453.586 1.094.547 1.641 1.914 1.641 4.102 0 1.64-.391 2.812-1.172 3.515-.703.703-2.109 1.25-4.219 1.641-.625.078-1.679.234-3.164.468-1.406.157-3.008.313-4.804.469a210.4 210.4 0 0 0-5.743.586c-2.031.156-3.945.313-5.742.469-1.797.156-3.437.273-4.922.352h-3.281c0 .39-.039 1.054-.117 1.992-.078.937-.117 1.562-.117 1.875 0 3.437.547 6.797 1.64 10.078a238.237 238.237 0 0 0 3.516 9.609 160.519 160.519 0 0 1 3.633 9.61 30.629 30.629 0 0 1 1.64 9.96c0 .626-.078 1.29-.234 1.993a3.8 3.8 0 0 1-.703 1.757c-.313.469-.82.821-1.524 1.055-.625.313-1.523.274-2.695-.117-2.969-.781-5.195-2.461-6.68-5.039-1.406-2.578-2.461-5.625-3.164-9.141-.703-3.593-1.172-7.382-1.406-11.367-.234-3.984-.625-7.695-1.172-11.133-.469-3.515-1.25-6.484-2.344-8.906-1.093-2.5-2.851-4.023-5.273-4.57l-22.617-5.156c-.313 0-.781-.313-1.406-.938-.625-.703-1.016-1.211-1.172-1.523a1.31 1.31 0 0 1-.117-.586c-.079-.157-.118-.391-.118-.703zm77.93 9.843c0-.703.039-1.406.117-2.109.078-.781.235-1.445.469-1.992.234-.625.586-1.133 1.055-1.524.547-.39 1.289-.586 2.226-.586.781 0 1.641.625 2.578 1.875 1.016 1.172 2.032 2.696 3.047 4.571 1.016 1.796 1.992 3.789 2.93 5.976a87.59 87.59 0 0 1 2.578 6.094c.781 1.797 1.406 3.359 1.875 4.687.469 1.329.742 2.032.82 2.11a584.388 584.388 0 0 1 3.399-8.906c1.25-3.204 2.773-6.172 4.57-8.907 1.875-2.812 4.063-5.156 6.563-7.031 2.578-1.875 5.703-2.812 9.375-2.812 1.875 0 3.632.312 5.273.937 1.719.547 3.203 1.406 4.453 2.578a12.121 12.121 0 0 1 3.164 3.985c.781 1.562 1.172 3.359 1.172 5.39 0 1.719-.703 2.93-2.109 3.633-1.328.703-2.852 1.055-4.571 1.055h-1.171l-5.04-5.039c-.156 0-.273-.039-.351-.118h-.469c-.078-.078-.195-.117-.351-.117-2.735 0-4.883.781-6.446 2.344-1.484 1.484-2.617 3.359-3.398 5.625-.781 2.188-1.289 4.531-1.524 7.031a104.536 104.536 0 0 0-.234 6.68c0 1.562.156 3.164.469 4.805.312 1.562.664 3.125 1.054 4.687a69.13 69.13 0 0 1 1.055 4.688c.313 1.562.469 3.203.469 4.921 0 3.282-1.758 4.922-5.274 4.922-1.953 0-3.984-1.015-6.093-3.046-2.11-2.11-4.219-4.766-6.328-7.969-2.032-3.203-3.985-6.719-5.86-10.547a151.971 151.971 0 0 1-4.922-11.367c-1.406-3.672-2.539-6.993-3.398-9.961-.781-2.969-1.172-5.156-1.172-6.563zm110.273 34.102c-2.97 2.031-5.55 3.867-7.73 5.508-2.11 1.562-4.18 2.89-6.21 3.984a26.535 26.535 0 0 1-6.57 2.461c-2.26.547-5.08.82-8.435.82-7.265 0-12.656-1.914-16.172-5.742-3.515-3.906-5.273-9.687-5.273-17.344 0-2.968.39-6.054 1.172-9.258.781-3.203 1.914-6.367 3.398-9.492a55.744 55.744 0 0 1 5.508-9.023c2.109-2.891 4.492-5.43 7.148-7.617 2.657-2.188 5.474-3.907 8.434-5.157a23.807 23.807 0 0 1 9.61-1.992c5.63.547 10.04 1.953 13.25 4.219 3.2 2.188 5.62 5.039 7.26 8.555 1.64 3.437 2.77 7.304 3.4 11.601.62 4.219 1.09 8.594 1.41 13.125.39 4.531.86 9.063 1.4 13.594.55 4.531 1.68 8.711 3.4 12.539-1.02 2.578-1.99 4.375-2.93 5.391-.86 1.093-1.84 1.289-2.93.586s-2.38-2.422-3.87-5.157c-1.4-2.734-3.16-6.601-5.27-11.601zm-40.429-10.078c0 4.453.82 7.734 2.461 9.843 1.718 2.032 4.726 3.047 9.023 3.047 3.205 0 6.255-.547 9.145-1.64 2.96-1.172 5.54-2.735 7.73-4.688 2.19-2.031 3.95-4.453 5.27-7.265 1.33-2.813 2-5.938 2-9.375 0-1.407.03-3.36.11-5.86.08-2.578-.08-5.117-.47-7.617-.39-2.5-1.13-4.648-2.22-6.445-1.1-1.875-2.74-2.813-4.92-2.813-4.07 0-7.82 1.055-11.25 3.164-3.44 2.032-6.41 4.649-8.91 7.852-2.5 3.203-4.454 6.758-5.86 10.664-1.406 3.828-2.109 7.539-2.109 11.133zm110.509 36.093c-1.64-3.046-3.48-6.836-5.51-11.367-1.95-4.609-3.98-9.375-6.09-14.297-2.11-5-4.34-9.882-6.68-14.648-2.27-4.766-4.57-8.906-6.92-12.422-.93-.703-2.22-1.133-3.86-1.289a37.404 37.404 0 0 0-5.16-.117c-1.8 0-3.59-.039-5.39-.117-1.72-.157-3.24-.586-4.57-1.289-1.25-.704-2.19-1.797-2.81-3.282-.63-1.484-.75-3.632-.36-6.445h19.69c.39-4.375 1.06-8.711 1.99-13.008a78.167 78.167 0 0 1 3.75-12.305c1.65-3.906 3.6-7.539 5.86-10.898 2.27-3.359 5-6.25 8.21-8.672 3.2-2.422 6.87-4.336 11.01-5.742 4.22-1.406 8.99-2.11 14.3-2.11 1.87 0 3.75.47 5.62 1.407 1.88.86 3.56 2.031 5.04 3.516a17.157 17.157 0 0 1 3.52 5.039c.94 1.875 1.41 3.75 1.41 5.625-1.49 0-2.82-.274-3.99-.821a50.425 50.425 0 0 1-3.4-1.992 25.9 25.9 0 0 0-3.51-2.109c-1.25-.703-2.66-1.055-4.22-1.055-4.69 0-9.06.938-13.13 2.812a36.007 36.007 0 0 0-10.54 7.5c-2.97 3.126-5.32 6.758-7.03 10.899-1.72 4.141-2.58 8.516-2.58 13.125v1.758c.08.781.11 1.64.11 2.578v2.695c.08.86.12 1.445.12 1.758 2.89.937 6.13 1.641 9.73 2.109 3.59.469 7.19.782 10.78.938 3.67.078 7.19.039 10.55-.117 3.43-.157 6.48-.352 9.14-.586.23.234.66.664 1.29 1.289.62.625.97 1.094 1.05 1.406 0 .234.04.391.12.469.15.469.23.703.23.703 0 1.641-.86 2.93-2.58 3.867-1.71.938-3.9 1.641-6.56 2.109-2.65.391-5.62.665-8.9.821-3.21.156-6.33.312-9.38.469-2.97.078-5.66.234-8.09.468-2.34.157-3.98.508-4.92 1.055 1.02 4.687 2.81 9.219 5.39 13.594 2.66 4.375 5.35 8.75 8.09 13.125 2.73 4.375 5.16 8.789 7.26 13.242 2.11 4.453 3.17 9.023 3.17 13.711h-2.23a18.01 18.01 0 0 1-3.51-.117 12.222 12.222 0 0 1-3.64-1.055c-1.09-.469-1.72-1.211-1.87-2.227zm82.73 0c-1.64-3.046-3.47-6.836-5.5-11.367-1.96-4.609-3.99-9.375-6.1-14.297-2.11-5-4.33-9.882-6.68-14.648-2.26-4.766-4.57-8.906-6.91-12.422-.94-.703-2.23-1.133-3.87-1.289a37.404 37.404 0 0 0-5.16-.117c-1.79 0-3.59-.039-5.39-.117-1.72-.157-3.24-.586-4.57-1.289-1.25-.704-2.18-1.797-2.81-3.282-.62-1.484-.74-3.632-.35-6.445h19.69c.39-4.375 1.05-8.711 1.99-13.008a78.167 78.167 0 0 1 3.75-12.305c1.64-3.906 3.59-7.539 5.86-10.898 2.26-3.359 5-6.25 8.2-8.672 3.2-2.422 6.88-4.336 11.02-5.742 4.22-1.406 8.98-2.11 14.29-2.11 1.88 0 3.75.47 5.63 1.407 1.87.86 3.55 2.031 5.04 3.516a17.313 17.313 0 0 1 3.51 5.039c.94 1.875 1.41 3.75 1.41 5.625-1.48 0-2.81-.274-3.98-.821a45.907 45.907 0 0 1-3.4-1.992 26.65 26.65 0 0 0-3.52-2.109c-1.25-.703-2.65-1.055-4.22-1.055-4.68 0-9.06.938-13.12 2.812a36.053 36.053 0 0 0-10.55 7.5c-2.97 3.126-5.31 6.758-7.03 10.899-1.72 4.141-2.58 8.516-2.58 13.125v1.758c.08.781.12 1.64.12 2.578v2.695c.08.86.12 1.445.12 1.758 2.89.937 6.13 1.641 9.72 2.109 3.6.469 7.19.782 10.78.938 3.68.078 7.19.039 10.55-.117 3.44-.157 6.48-.352 9.14-.586.24.234.67.664 1.29 1.289.63.625.98 1.094 1.05 1.406 0 .234.04.391.12.469l.24.703c0 1.641-.86 2.93-2.58 3.867-1.72.938-3.91 1.641-6.56 2.109-2.66.391-5.63.665-8.91.821-3.2.156-6.33.312-9.38.469-2.96.078-5.66.234-8.08.468-2.35.157-3.99.508-4.92 1.055 1.01 4.687 2.81 9.219 5.39 13.594 2.65 4.375 5.35 8.75 8.08 13.125 2.74 4.375 5.16 8.789 7.27 13.242 2.11 4.453 3.16 9.023 3.16 13.711h-2.22c-1.1.078-2.27.039-3.52-.117a12.077 12.077 0 0 1-3.63-1.055c-1.1-.469-1.72-1.211-1.88-2.227zm39.96-54.843v-2.227c.08-1.094.12-2.226.12-3.398.08-1.172.12-2.305.12-3.399.08-1.093.12-1.875.12-2.343.85-1.25 1.95-2.266 3.28-3.047a24.47 24.47 0 0 1 4.22-1.875c.23 4.218.89 8.711 1.99 13.476 1.09 4.766 2.26 9.57 3.51 14.414 1.25 4.766 2.35 9.492 3.28 14.18 1.02 4.687 1.53 9.062 1.53 13.125 0 3.516-1.8 5.273-5.39 5.273-2.19 0-4.03-.898-5.51-2.695-1.48-1.797-2.7-4.062-3.63-6.797-.86-2.812-1.57-5.898-2.11-9.258a114.41 114.41 0 0 1-1.17-10.078c-.16-3.281-.28-6.289-.36-9.023v-6.328zm1.64-43.946c1.49.625 2.74 1.641 3.75 3.047 1.02 1.406 1.45 2.696 1.29 3.867-.07 1.094-.93 1.875-2.57 2.344-1.65.391-4.38-.078-8.21-1.406 0-2.109.39-3.945 1.17-5.508.86-1.562 2.39-2.344 4.57-2.344zm18.75 52.618c0-3.282.71-6.719 2.11-10.313 1.49-3.594 3.44-6.836 5.86-9.726 2.43-2.969 5.2-5.43 8.32-7.383 3.21-1.953 6.57-2.93 10.08-2.93 1.8 0 3.6.313 5.39.937 1.8.626 3.4 1.524 4.81 2.696a13.074 13.074 0 0 1 3.51 4.219c.94 1.64 1.41 3.476 1.41 5.507-1.41 0-2.7-.156-3.87-.468a53.305 53.305 0 0 1-3.28-1.055 27.552 27.552 0 0 0-3.28-1.172c-1.02-.312-2.15-.469-3.4-.469-3.2 0-5.82.821-7.85 2.461-1.95 1.563-3.52 3.555-4.69 5.977-1.17 2.422-1.99 5.039-2.46 7.851-.39 2.735-.59 5.313-.59 7.735v2.226c.08 1.094.12 2.266.12 3.516.08 1.172.12 2.305.12 3.398.08 1.094.16 1.836.23 2.227.86 1.875 1.68 3.32 2.46 4.336.86 1.015 1.76 1.797 2.7 2.344.94.468 1.95.781 3.05.937 1.09.078 2.38.117 3.86.117 2.04 0 3.79-.312 5.28-.937a24.846 24.846 0 0 0 4.33-2.227 33.208 33.208 0 0 0 3.75-2.812 32.104 32.104 0 0 1 3.64-2.93 18.1 18.1 0 0 1 4.21-2.227c1.57-.624 3.33-.937 5.28-.937 0 3.828-.7 7.227-2.11 10.195a21.168 21.168 0 0 1-5.74 7.618c-2.43 2.109-5.32 3.75-8.68 4.921-3.28 1.094-6.87 1.641-10.78 1.641-3.67 0-6.99-1.25-9.96-3.75-2.89-2.5-5.39-5.547-7.5-9.141a51.43 51.43 0 0 1-4.68-11.601c-1.1-4.063-1.65-7.656-1.65-10.781zm129.38 30.234c-2.42-7.031-4.73-13.594-6.91-19.688a334.802 334.802 0 0 1-5.63-18.046 177.473 177.473 0 0 1-3.75-18.047c-.94-6.094-1.41-12.618-1.41-19.571v-2.929c.08-1.485.12-3.008.12-4.571v-4.453c.08-1.484.12-2.5.12-3.047.7-1.562 1.91-3.007 3.63-4.336 1.8-1.328 3.6-1.992 5.39-1.992 0 5.781.08 11.953.24 18.516.15 6.484.62 12.969 1.4 19.453.86 6.484 2.19 12.852 3.99 19.102 1.87 6.171 4.49 11.836 7.85 16.992.08-1.875.15-3.946.23-6.211.08-2.266.28-4.531.59-6.797.39-2.266.98-4.453 1.76-6.563a17.106 17.106 0 0 1 3.4-5.625c1.56-1.64 3.55-2.929 5.97-3.867 2.5-.937 5.63-1.367 9.38-1.289 3.36 0 6.36.625 9.02 1.875 2.73 1.25 5 2.969 6.8 5.156 1.87 2.11 3.28 4.61 4.22 7.5 1.01 2.813 1.52 5.821 1.52 9.024 0 4.297-1.06 8.515-3.16 12.656-2.11 4.141-4.93 7.852-8.44 11.133a43.984 43.984 0 0 1-11.6 7.969c-4.3 1.953-8.68 2.929-13.13 2.929-2.26 0-4.45-.39-6.56-1.172-2.11-.859-3.79-2.226-5.04-4.101zm27.77-42.773a61.3 61.3 0 0 0-4.92 3.046c-1.72 1.172-3.32 3.008-4.8 5.508-1.41 2.422-2.62 5.742-3.64 9.961-1.01 4.219-1.64 9.805-1.87 16.758.15 0 .55.039 1.17.117.7.078 1.17.117 1.41.117 2.11 0 4.49-.664 7.15-1.992a44.027 44.027 0 0 0 7.85-4.922c2.57-1.953 4.8-4.101 6.68-6.445 1.87-2.422 3-4.727 3.39-6.914.24-1.328-.03-2.852-.82-4.57-.78-1.719-1.83-3.36-3.16-4.922-1.25-1.641-2.66-3.008-4.22-4.102-1.48-1.094-2.89-1.64-4.22-1.64zm27.31 0v-2.461c.08-1.25.11-2.539.11-3.868v-3.632c.08-1.172.12-1.993.12-2.461.55-.938 1.17-1.836 1.88-2.696.78-.937 1.56-1.562 2.34-1.875.86-.39 1.76-.468 2.7-.234 1.01.234 2.03 1.016 3.04 2.344V141.766c-.08.39-.23 1.328-.47 2.812-.23 1.406-.5 2.969-.82 4.688-.31 1.718-.62 3.32-.93 4.804-.24 1.407-.36 2.305-.36 2.696 0 1.484.16 3.359.47 5.625.32 2.187.75 4.492 1.29 6.914a87.592 87.592 0 0 0 2.23 7.265c.94 2.422 2.03 4.61 3.28 6.563 1.25 1.875 2.62 3.437 4.1 4.687 1.56 1.25 3.36 1.875 5.39 1.875 2.5 0 4.69-.664 6.57-1.992 1.95-1.328 3.63-3.047 5.03-5.156 1.41-2.109 2.54-4.492 3.4-7.149a60.828 60.828 0 0 0 2.23-7.968 74.53 74.53 0 0 0 1.17-7.852c.24-2.5.35-4.687.35-6.562s-.15-3.633-.47-5.274a51.063 51.063 0 0 0-.93-5.039c-.39-1.641-.75-3.242-1.06-4.805-.23-1.64-.35-3.281-.35-4.921 0-1.485.51-2.539 1.52-3.165 1.1-.624 2.31-.937 3.64-.937 1.64 0 2.97.508 3.98 1.523 1.02.938 1.8 2.149 2.34 3.633.63 1.485 1.02 3.203 1.18 5.157.23 1.874.35 3.75.35 5.624 0 1.876-.04 3.672-.12 5.391a85.446 85.446 0 0 0-.12 3.985c0 2.656-.19 5.664-.58 9.023-.39 3.359-1.1 6.836-2.11 10.43a75.983 75.983 0 0 1-3.63 10.429c-1.41 3.438-3.17 6.524-5.28 9.258-2.03 2.656-4.41 4.805-7.15 6.445-2.65 1.641-5.66 2.461-9.02 2.461-3.52 0-6.6-.82-9.26-2.461-2.65-1.718-4.92-3.945-6.79-6.679-1.8-2.813-3.32-5.977-4.57-9.492a75.5 75.5 0 0 1-2.93-10.547c-.63-3.516-1.1-6.914-1.41-10.196-.24-3.359-.35-6.25-.35-8.671zm57.65-11.25c0-.235.04-.43.12-.586 0-.157.04-.352.12-.586.31-.391.78-.899 1.4-1.524.63-.625 1.02-.937 1.18-.937h23.55c0-.86-.12-2.227-.35-4.102-.23-1.875-.47-3.945-.7-6.211-.16-2.265-.2-4.609-.12-7.031.08-2.5.39-4.727.94-6.68.62-2.031 1.56-3.672 2.81-4.922 1.33-1.328 3.16-1.992 5.51-1.992 0 7.891.54 14.219 1.64 18.985 1.09 4.765 2.54 8.437 4.33 11.015 1.88 2.578 3.99 4.258 6.33 5.039 2.35.782 4.73 1.133 7.15 1.055 2.5-.156 4.92-.547 7.27-1.172 2.34-.625 4.41-1.055 6.21-1.289 1.87-.234 3.36-.039 4.45.586 1.09.547 1.64 1.914 1.64 4.102 0 1.64-.39 2.812-1.17 3.515-.7.703-2.11 1.25-4.22 1.641-.63.078-1.68.234-3.16.468-1.41.157-3.01.313-4.81.469-1.8.157-3.71.352-5.74.586-2.03.156-3.95.313-5.74.469-1.8.156-3.44.273-4.93.352h-3.28c0 .39-.04 1.054-.11 1.992-.08.937-.12 1.562-.12 1.875 0 3.437.55 6.797 1.64 10.078 1.09 3.203 2.27 6.406 3.52 9.609a170.66 170.66 0 0 1 3.63 9.61 30.71 30.71 0 0 1 1.64 9.96c0 .626-.08 1.29-.24 1.993-.07.625-.31 1.211-.7 1.757-.31.469-.82.821-1.52 1.055-.63.313-1.53.274-2.7-.117-2.97-.781-5.19-2.461-6.68-5.039-1.4-2.578-2.46-5.625-3.16-9.141-.7-3.593-1.17-7.382-1.41-11.367-.23-3.984-.62-7.695-1.17-11.133-.47-3.515-1.25-6.484-2.34-8.906-1.1-2.5-2.85-4.023-5.28-4.57l-22.61-5.156c-.32 0-.78-.313-1.41-.938-.62-.703-1.02-1.211-1.17-1.523a1.282 1.282 0 0 1-.12-.586c-.08-.157-.12-.391-.12-.703zm129.38 9.843c0-1.953.31-3.476.94-4.57.7-1.094 2.14-1.641 4.33-1.641.24 0 .67.039 1.29.118h1.29c.55 2.421 1.09 5.078 1.64 7.968.63 2.813 1.33 5.664 2.11 8.555.78 2.891 1.64 5.742 2.58 8.555 1.01 2.812 2.23 5.351 3.63 7.617 1.41-1.485 2.42-3.242 3.05-5.274a43.175 43.175 0 0 0 1.4-6.093c.32-2.11.59-4.102.82-5.977.32-1.953.9-3.594 1.76-4.922.86-1.406 2.11-2.422 3.75-3.047 1.72-.625 4.07-.625 7.03 0 3.29 0 5.9.625 7.86 1.875a17.464 17.464 0 0 1 5.03 4.571c1.49 1.796 2.9 3.75 4.22 5.859 1.41 2.031 3.17 3.867 5.28 5.508.47-1.016 1.05-2.266 1.75-3.75a43.605 43.605 0 0 1 2.58-4.805c1.1-1.719 2.23-3.398 3.4-5.039 1.25-1.719 2.54-3.242 3.87-4.57 1.33-1.407 2.69-2.539 4.1-3.399 1.41-.937 2.77-1.406 4.1-1.406 3.2 0 5.98 1.016 8.32 3.047 2.35 1.953 4.34 4.453 5.98 7.5 1.72 2.969 3.12 6.328 4.22 10.078 1.09 3.672 1.95 7.227 2.58 10.664.62 3.438 1.05 6.602 1.28 9.492.32 2.813.47 4.844.47 6.094 0 1.016-.23 1.797-.7 2.344-.47.547-1.05.976-1.76 1.289-.7.234-1.48.39-2.34.469-.78.078-1.53.117-2.23.117h-.7c-.31-.078-.67-.156-1.06-.235-.31-.078-.74-.195-1.29-.351l-7.61-35.039c0-.235-.31-.664-.94-1.289-.62-.703-1.09-1.133-1.41-1.289-.23 0-.43-.039-.58-.117h-.35c-.08-.079-.16-.118-.24-.118-1.64 0-3.2.664-4.69 1.992-1.4 1.329-2.73 3.008-3.98 5.04-1.25 2.031-2.42 4.296-3.52 6.796-1.09 2.5-2.07 5-2.93 7.5-.85 2.422-1.64 4.688-2.34 6.797-.62 2.032-1.13 3.594-1.52 4.688-.31.156-.94.312-1.88.469-.93.078-1.56.117-1.87.117-2.19 0-3.87-.742-5.04-2.227-1.17-1.562-2.15-3.476-2.93-5.742a80.037 80.037 0 0 1-1.88-7.383c-.46-2.734-1.09-5.234-1.87-7.5-.7-2.265-1.72-4.14-3.05-5.625-1.25-1.562-3.04-2.344-5.39-2.344-.86 0-1.68.86-2.46 2.579-.78 1.718-1.48 3.906-2.11 6.562-.62 2.578-1.21 5.391-1.76 8.438-.54 2.968-1.01 5.781-1.4 8.437-.32 2.578-.55 4.766-.71 6.563-.15 1.796-.23 2.695-.23 2.695-.16.234-.47.508-.94.82-.47.235-.97.508-1.52.82-.47.313-.98.547-1.52.704-.47.156-.83.234-1.06.234-2.19 0-4.3-.977-6.33-2.93-2.03-2.031-3.9-4.609-5.62-7.734-1.64-3.203-3.17-6.719-4.57-10.547a140.308 140.308 0 0 1-3.4-11.25c-.94-3.672-1.68-6.992-2.23-9.961-.47-2.969-.7-5.234-.7-6.797zm105.47 25.43c0-4.844 1.13-9.336 3.4-13.477 2.26-4.218 5.23-7.812 8.9-10.781 3.75-3.047 7.93-5.43 12.54-7.148 4.69-1.719 9.42-2.578 14.18-2.578 2.66 0 5 .859 7.03 2.578 2.11 1.718 3.87 3.828 5.28 6.328 1.4 2.422 2.46 5 3.16 7.734.78 2.735 1.17 5.117 1.17 7.149 0 4.375-1.05 8.632-3.16 12.773-2.11 4.063-4.85 7.695-8.21 10.899a43.067 43.067 0 0 1-11.36 7.617c-4.22 1.953-8.44 2.929-12.66 2.929-3.75 0-6.91-.625-9.49-1.875-2.58-1.328-4.65-3.047-6.21-5.156-1.56-2.187-2.74-4.726-3.52-7.617-.7-2.969-1.05-6.094-1.05-9.375zm9.96 1.172c0 2.031.15 3.828.47 5.39.39 1.485 1.01 2.774 1.87 3.868.94 1.093 2.15 1.953 3.64 2.578 1.48.547 3.32.82 5.5.82 2.89 0 5.78-.781 8.67-2.344 2.9-1.64 5.47-3.672 7.74-6.093 2.34-2.5 4.22-5.235 5.62-8.204 1.41-2.968 2.11-5.859 2.11-8.671 0-1.25-.11-2.618-.35-4.102-.23-1.484-.62-2.852-1.17-4.102a8.691 8.691 0 0 0-2.34-3.164c-1.02-.859-2.31-1.289-3.87-1.289-1.41 0-3.09.469-5.04 1.407-1.87.937-3.87 2.148-5.98 3.632a69.33 69.33 0 0 0-6.09 5.039 90.39 90.39 0 0 0-5.39 5.625c-1.64 1.875-2.97 3.672-3.99 5.391-.93 1.719-1.4 3.125-1.4 4.219zm50.27-26.602c0-.703.04-1.406.12-2.109.08-.781.23-1.445.47-1.992.23-.625.58-1.133 1.05-1.524.55-.39 1.29-.586 2.23-.586.78 0 1.64.625 2.58 1.875 1.01 1.172 2.03 2.696 3.04 4.571 1.02 1.796 2 3.789 2.93 5.976a84.398 84.398 0 0 1 2.58 6.094c.78 1.797 1.41 3.359 1.88 4.687.47 1.329.74 2.032.82 2.11 1.01-2.735 2.15-5.703 3.4-8.906 1.25-3.204 2.77-6.172 4.57-8.907 1.87-2.812 4.06-5.156 6.56-7.031 2.58-1.875 5.7-2.812 9.37-2.812 1.88 0 3.64.312 5.28.937 1.72.547 3.2 1.406 4.45 2.578a12.071 12.071 0 0 1 3.16 3.985c.79 1.562 1.18 3.359 1.18 5.39 0 1.719-.71 2.93-2.11 3.633-1.33.703-2.85 1.055-4.57 1.055h-1.18l-5.03-5.039c-.16 0-.28-.039-.36-.118h-.46c-.08-.078-.2-.117-.36-.117-2.73 0-4.88.781-6.44 2.344-1.49 1.484-2.62 3.359-3.4 5.625-.78 2.188-1.29 4.531-1.52 7.031-.16 2.422-.24 4.649-.24 6.68 0 1.562.16 3.164.47 4.805a87.7 87.7 0 0 0 1.06 4.687c.39 1.485.74 3.047 1.05 4.688.31 1.562.47 3.203.47 4.921 0 3.282-1.76 4.922-5.27 4.922-1.96 0-3.99-1.015-6.1-3.046-2.11-2.11-4.22-4.766-6.33-7.969-2.03-3.203-3.98-6.719-5.86-10.547a155.312 155.312 0 0 1-4.92-11.367c-1.4-3.672-2.54-6.993-3.4-9.961-.78-2.969-1.17-5.156-1.17-6.563zm59.88 16.641c0-4.219.51-8.438 1.53-12.656 1.01-4.219 2.62-8.008 4.8-11.368 2.27-3.359 5.16-6.093 8.67-8.203 3.6-2.109 7.93-3.164 13.01-3.164 2.89 0 5.43.547 7.62 1.641 2.19 1.016 4.02 2.383 5.51 4.101 1.48 1.719 2.58 3.75 3.28 6.094.78 2.266 1.17 4.649 1.17 7.149 0 3.984-.94 7.851-2.81 11.601-1.8 3.75-4.26 7.071-7.38 9.961-3.05 2.813-6.57 4.961-10.55 6.445-3.99 1.407-8.05 1.719-12.19.938.08 2.266.82 4.101 2.23 5.508 1.48 1.328 3.24 2.343 5.27 3.047 2.03.703 4.14 1.172 6.33 1.406 2.19.156 4.14.234 5.86.234 1.8 0 3.48-.156 5.04-.468 1.56-.313 3.12-.665 4.69-1.055 1.56-.391 3.12-.742 4.68-1.055 1.64-.312 3.36-.469 5.16-.469.7 0 1.41.039 2.11.118.7.078 1.37.273 1.99.585.63.235 1.13.665 1.52 1.29.39.546.59 1.25.59 2.109 0 1.484-.55 2.734-1.64 3.75-1.09.937-2.5 1.758-4.22 2.461-1.64.703-3.48 1.25-5.51 1.64-2.03.313-4.02.586-5.97.821-1.88.156-3.64.234-5.28.234-1.56.078-2.73.117-3.51.117-5 0-9.5-.781-13.48-2.343-3.98-1.641-7.34-3.868-10.08-6.68-2.73-2.891-4.84-6.328-6.33-10.313-1.4-4.062-2.11-8.554-2.11-13.476zm12.43-7.617c0 2.734.35 4.726 1.05 5.976.78 1.25 2.62 1.875 5.51 1.875 2.03 0 4.02-.351 5.98-1.054a18.955 18.955 0 0 0 5.27-3.164c1.64-1.329 2.93-2.891 3.87-4.688.93-1.797 1.4-3.75 1.4-5.859 0-1.172-.11-2.383-.35-3.633-.16-1.25-.55-2.383-1.17-3.399-.63-1.093-1.45-1.953-2.46-2.578-.94-.703-2.19-1.054-3.75-1.054-2.35 0-4.49.546-6.45 1.64a15.177 15.177 0 0 0-4.8 4.102c-1.33 1.64-2.35 3.515-3.05 5.625a18.936 18.936 0 0 0-1.05 6.211zM1641.62 557.803c-1.47-.326-2.32-1.058-2.57-2.198-.24-1.22-.36-2.36-.36-3.417-.9-1.14-1.02-2.116-.37-2.93.65-.814 1.71-1.424 3.17-1.831 1.55-.489 3.38-.814 5.5-.977 2.11-.163 4.15-.203 6.1-.122 2.03 0 3.83.204 5.37.61 1.63.326 2.73.692 3.3 1.099.81-5.208 1.18-9.562 1.1-13.061 0-3.581-.33-6.552-.98-8.912-.57-2.441-1.42-4.394-2.56-5.859-1.14-1.546-2.4-2.808-3.79-3.784a35.172 35.172 0 0 0-4.27-2.808 48.26 48.26 0 0 1-4.27-2.929c-1.31-1.14-2.49-2.523-3.54-4.151-1.06-1.627-1.87-3.743-2.44-6.347 0-2.198.48-4.11 1.46-5.738.98-1.709 2.2-3.174 3.66-4.394a31.487 31.487 0 0 1 4.89-3.174c1.79-.895 3.41-1.75 4.88-2.564 1.54-.813 2.81-1.587 3.78-2.319.98-.814 1.47-1.709 1.47-2.685v-20.997c0-.651.36-1.139 1.1-1.464.81-.407 1.7-.774 2.68-1.099 1.06-.326 1.99-.529 2.81-.61.89-.082 1.5-.122 1.83-.122 0 3.987.16 8.097.49 12.329.41 4.15 1.38 8.138 2.93 11.963.73 0 2.07.122 4.03.366 2.03.244 4.15.529 6.34.854 2.28.244 4.4.489 6.35.733 2.04.244 3.46.407 4.27.488.17.081.49.244.98.488.57.244 1.1.529 1.59.855.57.325 1.1.61 1.58.854.49.244.82.448.98.611.49 1.464.81 2.889.98 4.272.16 1.302-.45 2.279-1.83 2.93-1.39.651-3.87.773-7.45.366-3.5-.407-8.59-1.668-15.26-3.784-.89 0-1.54.529-1.95 1.587-.41 1.058-.69 2.238-.86 3.54a30.107 30.107 0 0 0-.24 3.662c.08 1.058.12 1.627.12 1.709v1.343c.08.651.12 1.302.12 1.953.09.651.13 1.302.13 1.953.08.569.12 1.017.12 1.343.89.162 2.4.406 4.51.732 2.2.244 4.64.651 7.33 1.221 2.68.569 5.49 1.302 8.42 2.197 2.93.895 5.62 1.994 8.06 3.296 2.52 1.221 4.56 2.726 6.1 4.516 1.55 1.709 2.32 3.703 2.32 5.982 0 4.476-1.02 8.463-3.05 11.963-2.04 3.418-4.64 6.47-7.81 9.155-3.1 2.686-6.51 5.127-10.26 7.324a249.152 249.152 0 0 1-10.5 5.982v3.906c0 1.79.13 3.54.37 5.249.33 1.79.69 3.54 1.1 5.249.41 1.79.73 3.54.98 5.249.32 1.79.48 3.581.48 5.371 0 2.116-.36 3.703-1.09 4.761-.74 1.139-2.24 1.709-4.52 1.709-.98 0-1.71-.082-2.2-.244-.49-.082-.89-.326-1.22-.733-.32-.325-.61-.854-.85-1.587-.17-.732-.45-1.709-.86-2.929-.24-.814-.65-2.198-1.22-4.151l-1.59-6.347c-.57-2.198-1.09-4.273-1.58-6.226-.41-1.953-.65-3.337-.73-4.15l-23.56-5.127zm30.76-39.917c0 4.638.24 9.155.73 13.55a132.57 132.57 0 0 0 2.44 13.183h1.22c1.96 0 4.07-.488 6.35-1.465 2.28-1.058 4.43-2.4 6.47-4.028 2.03-1.709 3.7-3.54 5-5.493 1.39-2.035 2.08-4.029 2.08-5.982 0-2.848-.9-4.923-2.69-6.225-1.71-1.384-3.82-2.32-6.34-2.808-2.45-.569-5.09-.814-7.94-.732h-7.32zm-20.63-17.945c0 2.442.73 4.11 2.19 5.005 1.55.895 3.5 1.343 5.86 1.343v-11.841c-.89 0-1.83.082-2.8.244-.9.163-1.75.489-2.57.977-.73.407-1.38.977-1.95 1.709-.49.651-.73 1.505-.73 2.563zm65.67 57.862c-1.46-.326-2.32-1.058-2.56-2.198a17.06 17.06 0 0 1-.37-3.417c-.89-1.14-1.02-2.116-.36-2.93.65-.814 1.7-1.424 3.17-1.831 1.55-.489 3.38-.814 5.49-.977 2.12-.163 4.15-.203 6.11-.122 2.03 0 3.82.204 5.37.61 1.62.326 2.72.692 3.29 1.099.82-5.208 1.18-9.562 1.1-13.061 0-3.581-.32-6.552-.97-8.912-.57-2.441-1.43-4.394-2.57-5.859-1.14-1.546-2.4-2.808-3.78-3.784a35.277 35.277 0 0 0-4.28-2.808 51.392 51.392 0 0 1-4.27-2.929c-1.3-1.14-2.48-2.523-3.54-4.151-1.06-1.627-1.87-3.743-2.44-6.347 0-2.198.49-4.11 1.47-5.738a15.766 15.766 0 0 1 3.66-4.394 30.934 30.934 0 0 1 4.88-3.174c1.79-.895 3.42-1.75 4.88-2.564 1.55-.813 2.81-1.587 3.79-2.319.97-.814 1.46-1.709 1.46-2.685v-20.997c0-.651.37-1.139 1.1-1.464.82-.407 1.71-.774 2.69-1.099 1.05-.326 1.99-.529 2.8-.61.9-.082 1.51-.122 1.84-.122 0 3.987.16 8.097.48 12.329a43.26 43.26 0 0 0 2.93 11.963c.74 0 2.08.122 4.03.366 2.04.244 4.15.529 6.35.854 2.28.244 4.39.489 6.35.733 2.03.244 3.46.407 4.27.488.16.081.49.244.98.488.57.244 1.09.529 1.58.855.57.325 1.1.61 1.59.854s.81.448.98.611c.48 1.464.81 2.889.97 4.272.17 1.302-.44 2.279-1.83 2.93-1.38.651-3.86.773-7.44.366-3.5-.407-8.59-1.668-15.26-3.784-.9 0-1.55.529-1.96 1.587a15.25 15.25 0 0 0-.85 3.54 30.107 30.107 0 0 0-.24 3.662c.08 1.058.12 1.627.12 1.709v1.343c.08.651.12 1.302.12 1.953.08.651.12 1.302.12 1.953.08.569.12 1.017.12 1.343.9.162 2.4.406 4.52.732 2.2.244 4.64.651 7.32 1.221 2.69.569 5.5 1.302 8.43 2.197 2.93.895 5.61 1.994 8.05 3.296 2.53 1.221 4.56 2.726 6.11 4.516 1.54 1.709 2.32 3.703 2.32 5.982 0 4.476-1.02 8.463-3.06 11.963-2.03 3.418-4.63 6.47-7.81 9.155-3.09 2.686-6.51 5.127-10.25 7.324a249.152 249.152 0 0 1-10.5 5.982v3.906c0 1.79.12 3.54.37 5.249.32 1.79.69 3.54 1.1 5.249.4 1.79.73 3.54.97 5.249.33 1.79.49 3.581.49 5.371 0 2.116-.37 3.703-1.1 4.761-.73 1.139-2.24 1.709-4.52 1.709-.97 0-1.7-.082-2.19-.244-.49-.082-.9-.326-1.22-.733-.33-.325-.61-.854-.86-1.587-.16-.732-.45-1.709-.85-2.929-.25-.814-.65-2.198-1.22-4.151l-1.59-6.347c-.57-2.198-1.1-4.273-1.59-6.226-.4-1.953-.65-3.337-.73-4.15l-23.56-5.127zm30.76-39.917c0 4.638.25 9.155.74 13.55a132.57 132.57 0 0 0 2.44 13.183h1.22c1.95 0 4.07-.488 6.35-1.465a32.09 32.09 0 0 0 6.47-4.028c2.03-1.709 3.7-3.54 5-5.493 1.38-2.035 2.08-4.029 2.08-5.982 0-2.848-.9-4.923-2.69-6.225-1.71-1.384-3.83-2.32-6.35-2.808-2.44-.569-5.08-.814-7.93-.732h-7.33zm-20.63-17.945c0 2.442.74 4.11 2.2 5.005 1.55.895 3.5 1.343 5.86 1.343v-11.841c-.9 0-1.83.082-2.81.244-.89.163-1.75.489-2.56.977-.73.407-1.38.977-1.95 1.709-.49.651-.74 1.505-.74 2.563zm65.68 57.862c-1.47-.326-2.32-1.058-2.57-2.198-.24-1.22-.36-2.36-.36-3.417-.9-1.14-1.02-2.116-.37-2.93.65-.814 1.71-1.424 3.17-1.831 1.55-.489 3.38-.814 5.5-.977 2.11-.163 4.15-.203 6.1-.122 2.04 0 3.83.204 5.37.61 1.63.326 2.73.692 3.3 1.099.81-5.208 1.18-9.562 1.1-13.061 0-3.581-.33-6.552-.98-8.912-.57-2.441-1.42-4.394-2.56-5.859-1.14-1.546-2.4-2.808-3.79-3.784a34.412 34.412 0 0 0-4.27-2.808 49.776 49.776 0 0 1-4.27-2.929c-1.3-1.14-2.48-2.523-3.54-4.151-1.06-1.627-1.87-3.743-2.44-6.347 0-2.198.48-4.11 1.46-5.738.98-1.709 2.2-3.174 3.66-4.394a31.487 31.487 0 0 1 4.89-3.174c1.79-.895 3.41-1.75 4.88-2.564 1.55-.813 2.81-1.587 3.78-2.319.98-.814 1.47-1.709 1.47-2.685v-20.997c0-.651.36-1.139 1.1-1.464.81-.407 1.71-.774 2.68-1.099 1.06-.326 2-.529 2.81-.61.9-.082 1.51-.122 1.83-.122 0 3.987.16 8.097.49 12.329.41 4.15 1.38 8.138 2.93 11.963.73 0 2.07.122 4.03.366 2.03.244 4.15.529 6.35.854 2.27.244 4.39.489 6.34.733 2.04.244 3.46.407 4.28.488.16.081.48.244.97.488.57.244 1.1.529 1.59.855.57.325 1.1.61 1.59.854.48.244.81.448.97.611.49 1.464.82 2.889.98 4.272.16 1.302-.45 2.279-1.83 2.93-1.39.651-3.87.773-7.45.366-3.5-.407-8.58-1.668-15.26-3.784-.89 0-1.54.529-1.95 1.587-.41 1.058-.69 2.238-.86 3.54a30.107 30.107 0 0 0-.24 3.662c.08 1.058.12 1.627.12 1.709v1.343c.08.651.12 1.302.12 1.953.09.651.13 1.302.13 1.953.08.569.12 1.017.12 1.343.89.162 2.4.406 4.52.732 2.19.244 4.63.651 7.32 1.221a99.02 99.02 0 0 1 8.42 2.197c2.93.895 5.62 1.994 8.06 3.296 2.52 1.221 4.56 2.726 6.1 4.516 1.55 1.709 2.32 3.703 2.32 5.982 0 4.476-1.01 8.463-3.05 11.963-2.03 3.418-4.64 6.47-7.81 9.155-3.09 2.686-6.51 5.127-10.26 7.324a255.525 255.525 0 0 1-10.49 5.982v3.906c0 1.79.12 3.54.36 5.249.33 1.79.69 3.54 1.1 5.249.41 1.79.73 3.54.98 5.249.32 1.79.49 3.581.49 5.371 0 2.116-.37 3.703-1.1 4.761-.74 1.139-2.24 1.709-4.52 1.709-.98 0-1.71-.082-2.2-.244-.49-.082-.89-.326-1.22-.733-.32-.325-.61-.854-.85-1.587-.16-.732-.45-1.709-.86-2.929-.24-.814-.65-2.198-1.22-4.151-.49-1.953-1.01-4.069-1.58-6.347-.57-2.198-1.1-4.273-1.59-6.226-.41-1.953-.65-3.337-.73-4.15l-23.56-5.127zm30.76-39.917c0 4.638.24 9.155.73 13.55a132.57 132.57 0 0 0 2.44 13.183h1.22c1.96 0 4.07-.488 6.35-1.465 2.28-1.058 4.44-2.4 6.47-4.028 2.04-1.709 3.7-3.54 5.01-5.493 1.38-2.035 2.07-4.029 2.07-5.982 0-2.848-.89-4.923-2.68-6.225-1.71-1.384-3.83-2.32-6.35-2.808-2.44-.569-5.09-.814-7.94-.732h-7.32zm-20.63-17.945c0 2.442.73 4.11 2.2 5.005 1.54.895 3.5 1.343 5.86 1.343v-11.841c-.9 0-1.84.082-2.81.244-.9.163-1.75.489-2.57.977-.73.407-1.38.977-1.95 1.709-.49.651-.73 1.505-.73 2.563z" fill="#000200" fill-opacity=".8"/><path d="M1777.23 246c34.07 48.16 51.19 106.993-6.32 162.16" stroke="#000200" stroke-opacity=".8" stroke-width="12" stroke-miterlimit="10" stroke-linecap="round" stroke-linejoin="round"/><path d="M1773.86 411.877c-5.54-3.876-13.18-38.378-16.5-48.995M1774.12 412.331c12.93-4.265 41.22-15.528 52-22.842" stroke="#000200" stroke-opacity=".8" stroke-width="12" stroke-miterlimit="10" stroke-linecap="round" stroke-linejoin="round"/><defs><linearGradient id="a" x1="1157.78" y1="1275.98" x2="1549.24" y2="1437.91" gradientUnits="userSpaceOnUse"><stop stop-color="#FF6105"/><stop offset="1" stop-color="#FF2327"/></linearGradient><linearGradient id="b" x1="834.707" y1="523.021" x2="834.707" y2="1854.6" gradientUnits="userSpaceOnUse"><stop stop-color="#0451E5"/><stop offset="1" stop-color="#2072FF"/></linearGradient><linearGradient id="c" x1="1619.63" y1="1003.91" x2="1659.65" y2="1011.71" gradientUnits="userSpaceOnUse"><stop stop-color="#FF6105"/><stop offset="1" stop-color="#FF2327"/></linearGradient><linearGradient id="d" x1="48" y1="1111.71" x2="108.445" y2="1124.1" gradientUnits="userSpaceOnUse"><stop stop-color="#FF6105"/><stop offset="1" stop-color="#FF2327"/></linearGradient><linearGradient id="e" x1="1168.04" y1="301.433" x2="1245.49" y2="318.955" gradientUnits="userSpaceOnUse"><stop stop-color="#FF6105"/><stop offset="1" stop-color="#FF2327"/></linearGradient><linearGradient id="f" x1="1073.78" y1="283.234" x2="1143.8" y2="298.745" gradientUnits="userSpaceOnUse"><stop stop-color="#FF6105"/><stop offset="1" stop-color="#FF2327"/></linearGradient><linearGradient id="g" x1="713.039" y1="1373.23" x2="967.66" y2="1486.8" gradientUnits="userSpaceOnUse"><stop stop-color="#FF6105"/><stop offset="1" stop-color="#FF2327"/></linearGradient><linearGradient id="h" x1="823.84" y1="1454.27" x2="947.874" y2="1513.6" gradientUnits="userSpaceOnUse"><stop stop-color="#FF6105"/><stop offset="1" stop-color="#FF2327"/></linearGradient><linearGradient id="i" x1="1216.2" y1="936.737" x2="1216.2" y2="985.297" gradientUnits="userSpaceOnUse"><stop stop-color="#0451E5"/><stop offset="1" stop-color="#2072FF"/></linearGradient><linearGradient id="j" x1="1242.9" y1="984.354" x2="1242.9" y2="1013.07" gradientUnits="userSpaceOnUse"><stop stop-color="#0451E5"/><stop offset="1" stop-color="#2072FF"/></linearGradient></defs></svg>