<svg width="2000" height="2000" viewBox="0 0 2000 2000" fill="none" xmlns="http://www.w3.org/2000/svg">
<path d="M745.455 1140.12C745.455 1297.54 661.686 1413.12 541.701 1462.43C502.014 1478.67 458.509 1487.68 412.691 1488.63C410.261 1488.75 407.715 1488.75 405.286 1488.75C217.382 1488.75 65 1332.63 65 1140.24C65 1072.31 80.9672 1008.89 111.05 955.196C118.802 941.208 127.596 927.813 137.431 915.366L149.117 901.141L149.58 900.549C208.357 833.454 295.598 791.728 405.286 791.728C593.189 791.373 745.455 947.491 745.455 1140.12Z" fill="url(#paint0_linear_21_244)"/>
<path d="M1390.16 501.659L1338.21 554.765L1109.58 320.291C1118.37 304.525 1128.32 289.471 1139.31 275.364L1152.5 259.243L1153.08 258.65L1390.16 501.659Z" fill="url(#paint1_linear_21_244)"/>
<path d="M381.218 625.297C369.532 612.258 358.425 598.744 348.243 584.4C344.887 579.659 337.019 584.282 340.491 589.024C351.02 604.078 362.59 618.185 374.855 631.817C378.789 636.321 385.152 629.683 381.218 625.297Z" fill="url(#paint2_linear_21_244)"/>
<path d="M462.443 434.209V458.866C462.443 464.793 471.468 464.793 471.468 458.866V434.209C471.468 428.163 462.443 428.163 462.443 434.209Z" fill="url(#paint3_linear_21_244)"/>
<path d="M1456.92 1056.31L1506.56 1040.66L1492.21 1093.18L1456.92 1056.31Z" fill="url(#paint4_linear_21_244)"/>
<path d="M1326.87 666.312L1288.8 696.54L1326.87 729.139L1361.12 696.54L1326.87 666.312Z" fill="url(#paint5_linear_21_244)"/>
<path d="M1380.67 1211.13C1371.88 1202.83 1362.27 1195.6 1354.29 1186.47C1350.36 1181.96 1343.99 1188.6 1347.93 1192.99C1355.91 1202.12 1365.63 1209.35 1374.31 1217.65C1378.59 1221.79 1384.95 1215.16 1380.67 1211.13Z" fill="url(#paint6_linear_21_244)"/>
<path d="M160.803 242.054V307.607L226.638 257.583L160.803 242.054Z" fill="url(#paint7_linear_21_244)"/>
<path d="M1550.18 399.832C1500.54 399.832 1460.16 358.462 1460.16 307.608C1460.16 253.316 1497.18 215.383 1550.18 215.383C1599.81 215.383 1640.19 256.754 1640.19 307.608C1640.19 361.069 1602.36 399.832 1550.18 399.832ZM1550.18 224.629C1502.51 224.629 1469.18 258.769 1469.18 307.608C1469.18 353.364 1505.52 390.586 1550.18 390.586C1597.15 390.586 1631.17 355.735 1631.17 307.608C1631.17 261.851 1594.84 224.629 1550.18 224.629Z" fill="#000200"/>
<path d="M1486.08 919.634C1484.8 919.634 1483.53 919.041 1482.72 918.093C1468.14 901.26 1460.04 879.448 1460.04 856.926C1460.04 802.634 1497.07 764.701 1550.06 764.701C1599.7 764.701 1640.08 806.072 1640.08 856.926C1640.08 867.357 1638.69 877.433 1635.8 886.916C1635.45 888.22 1634.41 889.287 1633.14 889.88C1587.43 908.609 1537.91 918.567 1486.08 919.634C1486.08 919.634 1486.19 919.634 1486.08 919.634ZM1550.18 773.947C1502.51 773.947 1469.18 808.087 1469.18 856.926C1469.18 876.485 1475.89 895.451 1488.16 910.388C1537.33 909.202 1584.31 899.719 1627.93 882.056C1630.13 874.114 1631.17 865.698 1631.17 856.926C1631.17 811.169 1594.84 773.947 1550.18 773.947Z" fill="#000200"/>
<path d="M1576.44 706.023C1527.38 706.023 1483.07 678.285 1460.74 633.476C1459.58 631.224 1460.51 628.379 1462.7 627.194C1464.9 626.008 1467.68 626.956 1468.84 629.209C1489.66 670.817 1530.85 696.659 1576.44 696.659C1646.44 696.659 1697.24 644.619 1697.24 572.902C1697.24 504.622 1643.09 449.145 1576.44 449.145C1505.28 449.145 1455.65 499.999 1455.65 572.902C1455.65 575.51 1453.68 577.525 1451.13 577.525C1448.59 577.525 1446.62 575.51 1446.62 572.902C1446.62 494.546 1499.96 439.899 1576.44 439.899C1648.06 439.899 1706.26 499.525 1706.26 572.902C1706.26 650.072 1651.65 706.023 1576.44 706.023Z" fill="#000200"/>
<path d="M1588.82 259.598C1572.85 283.425 1554.81 308.082 1545.9 335.82C1536.29 324.085 1527.27 311.875 1517.66 300.139C1513.85 295.635 1507.48 302.155 1511.3 306.659C1522.64 320.41 1533.05 334.99 1544.62 348.623C1546.82 351.231 1551.33 349.808 1552.14 346.607C1559.55 316.142 1579.68 289.589 1596.69 264.222C1599.93 259.361 1592.06 254.738 1588.82 259.598Z" fill="#000200"/>
<path d="M1572.04 835.944C1561.4 852.184 1551.91 869.254 1539.88 884.545C1532.7 878.263 1527.38 870.202 1520.32 863.682C1516.04 859.652 1509.68 866.172 1513.96 870.202C1522.52 878.144 1528.89 888.102 1538.26 895.096C1539.76 896.162 1542.54 895.807 1543.7 894.384C1557.47 877.67 1567.99 858.704 1579.8 840.567C1583.04 835.588 1575.28 830.965 1572.04 835.944Z" fill="#000200"/>
<path d="M1567.07 483.166V602.181C1567.07 608.108 1576.09 608.108 1576.09 602.181V483.166C1576.09 477.239 1567.07 477.239 1567.07 483.166Z" fill="#000200"/>
<path d="M1574.94 643.315C1575.86 638.929 1576.67 634.424 1577.25 630.038C1578.06 624.23 1569.27 622.215 1568.46 628.142C1567.88 632.646 1567.07 637.032 1566.14 641.418C1564.87 647.227 1573.66 649.242 1574.94 643.315Z" fill="#000200"/>
<path d="M1369.1 786.868H1190.22C1187.68 786.868 1185.71 784.853 1185.71 782.245C1185.71 779.637 1187.68 777.622 1190.22 777.622H1369.1C1371.64 777.622 1373.61 779.637 1373.61 782.245C1373.61 784.853 1371.64 786.868 1369.1 786.868Z" fill="#000200"/>
<path d="M1369.1 317.209H1248.65C1246.11 317.209 1244.14 315.194 1244.14 312.586C1244.14 309.978 1246.11 307.963 1248.65 307.963H1369.1C1371.64 307.963 1373.61 309.978 1373.61 312.586C1373.61 315.075 1371.64 317.209 1369.1 317.209Z" fill="#000200"/>
<path d="M1385.18 576.102H1097.31C1097.19 576.102 1097.08 576.102 1096.96 576.102C1097.66 579.184 1098.24 582.266 1098.7 585.348H1385.3C1387.84 585.348 1389.81 583.333 1389.81 580.725C1389.69 578.236 1387.61 576.102 1385.18 576.102Z" fill="#000200"/>
<path d="M1477.75 973.214C1424.06 973.214 1371.76 963.494 1322.24 944.171C1286.83 930.658 1252.93 912.047 1221.46 889.05C1106.22 804.412 1037.38 667.26 1037.38 522.166C1037.38 256.516 1218.45 71 1477.75 71C1720.49 71 1918 273.349 1918 522.166C1918 783.549 1732.76 973.214 1477.75 973.214ZM1477.75 80.2462C1223.78 80.2462 1046.4 261.969 1046.4 522.166C1046.4 664.297 1113.86 798.603 1226.78 881.582C1257.56 904.105 1290.77 922.241 1325.48 935.636C1373.96 954.484 1425.22 963.968 1477.75 963.968C1727.67 963.968 1908.97 778.214 1908.97 522.166C1908.97 278.446 1715.52 80.2462 1477.75 80.2462Z" fill="#000200"/>
<path d="M1477.75 919.752C1263.69 919.752 1089.56 741.348 1089.56 522.166C1089.56 445.352 1107.73 372.449 1142.09 311.282C1150.88 295.516 1160.95 280.106 1172.17 265.762L1185.48 249.522C1185.48 249.522 1186.06 248.811 1186.17 248.811C1257.33 167.492 1358.22 124.58 1477.75 124.58C1691.68 124.58 1865.82 302.984 1865.82 522.285C1865.82 692.746 1778.92 830.135 1633.37 889.88C1587.55 908.728 1538.03 918.685 1486.31 919.752C1483.42 919.752 1480.52 919.752 1477.75 919.752ZM1477.75 133.708C1360.77 133.708 1262.31 175.553 1192.88 254.857L1179.23 271.452C1168.35 285.44 1158.52 300.376 1149.96 315.787C1116.4 375.65 1098.58 447.011 1098.58 522.166C1098.58 736.251 1268.67 910.506 1477.75 910.506C1480.52 910.506 1483.3 910.506 1485.96 910.387C1536.64 909.439 1585.12 899.6 1629.9 881.226C1771.87 822.904 1856.68 688.716 1856.68 522.166C1856.68 307.963 1686.71 133.708 1477.75 133.708Z" fill="#000200"/>
<path d="M930.465 1608C929.656 1608 928.846 1607.76 928.151 1607.29L858.498 1563.55C856.415 1562.24 855.721 1559.52 856.878 1557.38L926.994 1427.94C928.151 1425.68 930.928 1424.85 933.127 1426.16C935.325 1427.34 936.135 1430.19 934.862 1432.44L866.828 1557.98L928.846 1596.98L1013.77 1453.78C1015.05 1451.64 1017.82 1450.93 1020.02 1452.24C1022.1 1453.54 1022.8 1456.39 1021.52 1458.64L934.284 1605.87C933.705 1606.93 932.664 1607.64 931.507 1608C931.275 1608 930.813 1608 930.465 1608Z" fill="#000200"/>
<path d="M1101.94 1318.76C1101.13 1318.76 1100.32 1318.52 1099.63 1318.05C1097.54 1316.74 1096.85 1313.9 1098.12 1311.65L1320.04 937.414C1321.31 935.281 1324.09 934.57 1326.29 935.873C1328.37 937.177 1329.07 940.022 1327.79 942.275L1105.87 1316.51C1104.95 1317.93 1103.44 1318.76 1101.94 1318.76Z" fill="#000200"/>
<path d="M1022.68 1263.99C1021.99 1263.99 1021.18 1263.76 1020.48 1263.4C1018.29 1262.22 1017.48 1259.37 1018.75 1257.12L1220.19 883.004C1221.35 880.752 1224.12 879.922 1226.32 881.226C1228.52 882.412 1229.33 885.257 1228.06 887.509L1026.62 1261.62C1025.81 1263.16 1024.19 1263.99 1022.68 1263.99Z" fill="#000200"/>
<path d="M1101.94 1318.76C1101.13 1318.76 1100.32 1318.52 1099.63 1318.05C1097.54 1316.75 1096.85 1313.9 1098.12 1311.65L1263 1033.43C1233.15 1017.79 1203.18 1002.61 1173.79 988.269L1036.8 1242.54C1035.64 1244.79 1032.86 1245.62 1030.67 1244.32C1028.47 1243.13 1027.66 1240.29 1028.93 1238.03L1168.01 979.971C1169.16 977.837 1171.71 977.007 1173.91 978.074C1206.07 993.603 1238.93 1010.2 1271.56 1027.51C1272.72 1028.1 1273.53 1029.17 1273.88 1030.35C1274.22 1031.54 1273.99 1032.96 1273.41 1034.03L1105.87 1316.51C1104.95 1317.93 1103.44 1318.76 1101.94 1318.76Z" fill="#000200"/>
<path d="M951.755 1572.2C950.945 1572.2 950.251 1571.96 949.556 1571.61L877.357 1528.93C875.274 1527.63 874.464 1524.9 875.621 1522.65L927.11 1427.94C928.267 1425.68 931.044 1424.85 933.242 1426.16C935.44 1427.34 936.25 1430.19 934.978 1432.44L885.688 1523.24L950.135 1561.29L1013.89 1453.78C1015.16 1451.64 1017.94 1450.93 1020.14 1452.24C1022.22 1453.54 1022.91 1456.39 1021.64 1458.64L955.573 1570.07C954.763 1571.37 953.259 1572.2 951.755 1572.2Z" fill="#000200"/>
<path d="M1374.65 552.513C1373.5 552.513 1372.34 552.038 1371.41 551.209L1142.78 316.735C1141.39 315.313 1141.05 312.942 1142.09 311.164C1150.88 295.398 1160.95 279.987 1172.17 265.644L1185.48 249.404C1186.29 248.456 1187.79 247.507 1189.06 247.389C1190.34 247.389 1191.84 247.507 1192.77 248.456L1429.96 491.464C1430.77 492.294 1431.23 493.479 1431.23 494.783C1431.23 495.969 1430.77 497.154 1429.96 498.102L1378.01 551.209C1376.97 552.038 1375.81 552.513 1374.65 552.513ZM1151.58 312.705L1374.65 541.251L1420.24 494.665L1189.76 258.65L1179.23 271.571C1169.05 284.492 1159.79 298.361 1151.58 312.705Z" fill="#000200"/>
<path d="M1451.13 573.02L1423.94 498.813L1378.7 545.163L1451.13 573.02Z" fill="#000200"/>
<path d="M1451.13 577.643C1450.56 577.643 1450.09 577.525 1449.51 577.406L1377.08 549.549C1375.7 548.956 1374.54 547.771 1374.31 546.23C1374.08 544.689 1374.42 543.148 1375.58 541.963L1420.82 495.613C1421.86 494.546 1423.48 494.072 1424.99 494.309C1426.49 494.665 1427.76 495.732 1428.22 497.154L1455.42 571.361C1455.99 573.02 1455.65 574.917 1454.37 576.221C1453.45 577.169 1452.29 577.643 1451.13 577.643ZM1386.8 543.385L1443.38 565.078L1422.21 507.111L1386.8 543.385Z" fill="#000200"/>
<path d="M1014.35 1460.77C991.095 1460.77 959.161 1451.17 916.235 1421.42C869.143 1388.82 853.06 1389.88 785.373 1394.15C744.993 1396.76 689.686 1400.2 600.71 1398.66C310.177 1393.32 164.506 1311.41 155.596 1148.18C145.414 960.886 290.854 864.275 401.236 807.849C510.229 752.135 703.918 748.105 705.769 748.105C708.43 748.105 710.282 750.12 710.397 752.61C710.397 755.217 708.43 757.233 706 757.351C704.034 757.351 512.428 761.382 405.286 816.147C297.218 871.387 154.786 965.864 164.621 1147.71C173.183 1305.13 315.962 1384.19 600.825 1389.41C689.57 1391.07 744.646 1387.51 784.795 1384.91C851.556 1380.64 871.689 1379.33 921.326 1413.71C1001.16 1468.95 1038.77 1451.53 1054.04 1436.23C1055.77 1434.46 1058.67 1434.46 1060.4 1436.35C1062.14 1438.13 1062.14 1441.09 1060.29 1442.87C1051.84 1451.41 1037.26 1460.77 1014.35 1460.77Z" fill="#000200"/>
<path d="M1041.89 1215.87C1041.08 1215.87 1040.27 1215.63 1039.46 1215.16C1009.72 1195.95 871.11 1192.75 737.125 1189.79C631.603 1187.42 522.609 1184.93 461.402 1174.61C407.947 1165.61 379.137 1138.93 384.343 1103.13C390.244 1062.24 443.237 1019.09 500.163 1026.91C502.477 1027.27 504.097 1029.17 504.097 1031.54C504.097 1034.03 503.171 1092.11 454.575 1135.02C452.724 1136.68 449.832 1136.44 448.212 1134.55C446.592 1132.65 446.823 1129.69 448.675 1128.03C486.973 1094.13 493.683 1049.32 494.841 1035.57C444.278 1031.06 398.575 1068.64 393.368 1104.44C388.971 1134.9 414.311 1157.19 463.022 1165.37C523.535 1175.56 632.297 1178.05 737.472 1180.42C878.862 1183.62 1012.5 1186.59 1044.43 1207.21C1046.52 1208.64 1047.21 1211.48 1045.82 1213.61C1044.78 1215.16 1043.39 1215.87 1041.89 1215.87Z" fill="#000200"/>
<path d="M395.567 1082.86C393.716 1082.86 392.096 1081.68 391.401 1079.9C373.467 1032.01 285.185 967.524 204.539 979.852C202.11 980.208 199.796 978.429 199.449 975.94C199.101 973.451 200.837 971.08 203.267 970.724C289.351 957.566 380.525 1024.78 399.848 1076.58C400.774 1078.95 399.616 1081.68 397.302 1082.51C396.608 1082.75 396.03 1082.86 395.567 1082.86Z" fill="#000200"/>
<path d="M1102.86 1305.48C1099.86 1312.48 1095.46 1313.07 1093.72 1313.19C1073.01 1315.56 1031.13 1271.58 1021.18 1246.69C1020.25 1244.32 1017.59 1243.25 1015.28 1244.2C1012.96 1245.15 1011.92 1247.87 1012.85 1250.24C1022.8 1275.14 1064.8 1322.55 1092.22 1322.55C1093.03 1322.55 1093.96 1322.55 1094.77 1322.44C1101.82 1321.61 1110.85 1316.98 1113.86 1299.68C1110.15 1301.33 1106.45 1303.23 1102.86 1305.48Z" fill="#000200"/>
<path d="M1089.1 1364.28C1071.39 1364.28 1049.64 1358.35 1024.19 1341.88C1022.1 1340.57 1021.41 1337.61 1022.8 1335.47C1024.07 1333.34 1026.85 1332.63 1029.05 1334.05C1099.05 1379.1 1129.82 1339.27 1133.18 1334.53C1142.55 1321.13 1138.27 1292.56 1124.73 1277.98C1123 1276.09 1123.11 1273.24 1124.85 1271.46C1126.7 1269.68 1129.48 1269.8 1131.21 1271.58C1147.87 1289.6 1152.39 1322.79 1140.47 1339.86C1132.25 1351.6 1115.01 1364.28 1089.1 1364.28Z" fill="#000200"/>
<path d="M1075.91 1404.58C1056.47 1404.58 1031.48 1393.56 998.269 1377.56C995.955 1376.49 995.029 1373.76 996.07 1371.39C997.112 1369.14 999.773 1368.07 1002.09 1369.14C1047.67 1391.07 1076.6 1403.28 1094.3 1389.29C1111.54 1375.54 1109.58 1361.2 1109.46 1360.6C1109.11 1358.12 1110.73 1355.74 1113.16 1355.27C1115.59 1354.8 1117.91 1356.57 1118.37 1359.06C1118.49 1359.89 1121.49 1379.33 1099.86 1396.64C1092.91 1402.09 1085.05 1404.58 1075.91 1404.58Z" fill="#000200"/>
<path d="M1051.61 1441.33C1032.17 1441.33 1007.18 1430.31 973.971 1414.3C971.657 1413.24 970.731 1410.51 971.773 1408.14C972.814 1405.89 975.475 1404.82 977.789 1405.89C1023.38 1427.82 1052.3 1440.03 1070.01 1426.04C1087.25 1412.29 1085.28 1397.95 1085.16 1397.35C1084.82 1394.86 1086.44 1392.49 1088.87 1392.02C1091.29 1391.54 1093.61 1393.2 1094.07 1395.81C1094.19 1396.64 1097.2 1416.08 1075.56 1433.39C1068.62 1438.96 1060.75 1441.33 1051.61 1441.33Z" fill="#000200"/>
<path d="M447.749 1171.65C447.633 1171.65 447.402 1171.65 447.286 1171.65C444.856 1171.41 443.005 1169.04 443.236 1166.55L457.584 1033.31C457.815 1030.82 460.013 1028.93 462.559 1029.17C464.989 1029.4 466.84 1031.77 466.609 1034.26L452.261 1167.5C451.914 1169.87 450.063 1171.65 447.749 1171.65Z" fill="#000200"/>
<path d="M502.362 1030.59L461.981 1033.67L455.965 1125.89L487.436 1086.89L502.362 1030.59Z" fill="#000200"/>
<path d="M824.482 875.892C818.234 875.892 811.292 875.299 803.771 873.995C758.299 866.172 713.29 824.919 697.786 791.017C690.381 774.895 689.571 760.789 695.472 750.357C696.744 748.105 699.521 747.394 701.604 748.698C703.802 750.002 704.497 752.847 703.224 754.98C697.786 764.701 701.72 777.74 706.001 786.986C720.58 818.755 762.696 857.4 805.391 864.749C828.763 868.779 844.846 866.29 853.176 857.281C860.466 849.457 862.317 836.181 858.73 817.807C858.267 815.318 859.772 812.828 862.201 812.354C864.631 811.88 867.061 813.421 867.524 815.91C871.805 837.485 869.144 853.606 859.656 863.682C852.019 871.862 840.217 875.892 824.482 875.892Z" fill="#000200"/>
<path d="M1017.13 1206.98C1014.58 1206.98 1012.62 1204.96 1012.62 1202.35C1012.62 950.454 976.516 851.235 874.118 797.062C871.92 795.877 870.994 793.15 872.151 790.78C873.308 788.527 875.97 787.579 878.284 788.764C984.384 844.834 1021.64 946.068 1021.64 1202.23C1021.64 1204.96 1019.56 1206.98 1017.13 1206.98Z" fill="#000200"/>
<path d="M948.285 1197.85C948.169 1197.85 948.053 1197.85 947.938 1197.85C945.508 1197.61 943.541 1195.48 943.772 1192.87L953.376 1057.85C953.607 1055.24 955.806 1053.35 958.235 1053.58C960.665 1053.82 962.632 1055.96 962.401 1058.56L952.797 1193.58C952.566 1195.95 950.599 1197.85 948.285 1197.85Z" fill="#000200"/>
<path d="M976.517 1160.75C968.765 1160.75 960.087 1160.03 950.136 1158.02C947.707 1157.55 946.087 1155.06 946.55 1152.57C947.012 1150.08 949.442 1148.42 951.872 1148.89C993.525 1157.07 1013.54 1142.73 1013.77 1142.61C1015.74 1141.07 1018.63 1141.54 1020.02 1143.68C1021.53 1145.69 1021.06 1148.65 1019.1 1150.08C1018.4 1150.55 1004.63 1160.75 976.517 1160.75Z" fill="#000200"/>
<path d="M953.145 561.877C951.293 561.877 949.558 560.692 948.864 558.795C948.054 556.425 949.326 553.698 951.64 552.868C960.55 549.668 967.608 544.096 969.575 538.762C970.5 536.273 970.269 533.902 968.996 531.412C965.525 524.893 949.211 526.434 941.921 528.212C939.492 528.805 937.062 527.264 936.483 524.774C935.905 522.285 937.409 519.795 939.839 519.203C942.847 518.491 969.227 512.564 976.98 526.908C979.525 531.768 979.988 536.984 978.137 541.963C975.128 550.023 966.451 557.373 954.764 561.522C954.186 561.877 953.607 561.877 953.145 561.877Z" fill="#000200"/>
<path d="M880.02 492.531L883.028 501.184C886.846 512.446 903.971 506.282 900.037 495.02L897.028 486.367C893.094 475.105 876.086 481.27 880.02 492.531Z" fill="#000200"/>
<path d="M878.515 435.394C874.003 438.713 870.069 442.862 865.325 445.707C860.349 448.789 864.052 457.206 869.027 454.124C874.465 450.805 878.978 446.3 884.185 442.507C889.044 439.069 883.259 431.957 878.515 435.394Z" fill="#000200"/>
<path d="M859.425 757.351C857.111 757.351 855.144 755.573 854.912 753.202C854.681 750.713 856.416 748.342 858.846 748.105C859.54 747.986 928.037 739.807 955.922 706.497C978.6 679.351 976.749 642.129 948.864 558.795C948.054 556.424 949.327 553.698 951.641 552.868C954.071 552.038 956.616 553.342 957.426 555.713C982.765 631.224 991.096 678.521 962.864 712.424C932.665 748.579 862.896 756.877 859.888 757.232C859.772 757.351 859.54 757.351 859.425 757.351Z" fill="#000200"/>
<path d="M884.302 747.394L867.756 794.099C848.086 786.631 838.136 764.464 834.78 744.549C851.095 747.157 867.756 748.105 884.302 747.394Z" fill="#000200"/>
<path d="M859.424 757.351C822.746 757.351 790.812 676.388 765.126 611.427C755.175 586.178 743.952 557.728 738.861 553.579C714.216 561.166 697.786 571.598 691.885 583.452C688.992 589.26 688.645 595.306 690.728 601.47C692.001 605.263 695.472 612.139 704.034 616.05C713.522 620.436 726.133 619.607 740.712 613.68C741.869 613.205 743.142 613.205 744.183 613.798C745.34 614.272 746.15 615.221 746.613 616.406C758.646 649.005 760.035 674.017 750.778 688.716C745.687 696.895 737.241 701.637 727.175 702.348C694.778 704.363 678.116 683.5 646.529 600.759L622.463 530.82C604.876 479.61 611.586 408.604 743.72 360.832C827.606 330.486 882.681 349.808 907.557 418.206C913.458 434.446 918.781 448.789 923.64 462.303C931.392 483.403 938.335 502.133 945.393 522.403C946.203 524.774 945.045 527.5 942.616 528.33C940.302 529.16 937.64 527.975 936.831 525.485C929.773 505.333 922.946 486.604 915.194 465.622C910.219 452.227 904.896 437.884 898.995 421.525C875.97 357.869 826.102 340.917 746.613 369.604C677.538 394.616 601.405 442.27 630.793 527.856L654.86 597.677C686.794 681.248 700.794 694.88 726.596 693.339C731.687 692.983 738.629 691.087 743.258 683.974C750.431 672.594 749.274 651.494 739.787 624.23C720.927 630.868 708.084 628.26 700.447 624.704C691.885 620.674 685.406 613.561 682.397 604.789C680.315 598.862 678.926 589.616 684.017 579.54C691.191 565.078 709.356 553.342 737.82 544.689C747.654 543.266 754.712 559.981 773.804 608.227C795.787 664.059 829.11 748.342 859.772 748.461C862.317 748.461 864.284 750.476 864.284 753.084C863.937 755.217 861.854 757.351 859.424 757.351Z" fill="#000200"/>
<path d="M853.524 850.524C853.061 850.524 852.598 850.405 852.019 850.287C849.705 849.457 848.433 846.849 849.243 844.478L880.02 751.305C880.83 748.935 883.375 747.631 885.689 748.46C888.003 749.29 889.276 751.898 888.466 754.269L857.689 847.442C857.11 849.22 855.375 850.524 853.524 850.524Z" fill="#000200"/>
<path d="M823.787 599.218C804.233 599.218 793.125 559.151 779.009 508.416C774.15 490.871 769.059 472.853 763.621 456.376C760.265 446.419 760.497 437.647 764.315 430.179C772.414 414.176 794.745 407.656 818.233 400.78C840.911 394.142 864.399 387.267 870.3 371.975C871.226 369.604 873.887 368.419 876.201 369.367C878.515 370.316 879.672 373.042 878.746 375.413C871.226 394.853 845.539 402.44 820.779 409.671C800.068 415.717 778.778 421.999 772.414 434.446C769.753 439.662 769.753 445.826 772.299 453.413C777.852 470.127 782.943 488.264 787.803 505.926C798.795 545.4 811.175 589.972 823.903 589.972H824.018C830.961 589.734 845.655 582.622 861.159 574.917C892.746 559.388 932.086 539.947 955.458 553.224C957.656 554.409 958.466 557.254 957.194 559.507C956.037 561.759 953.26 562.589 951.061 561.285C931.739 550.26 893.209 569.345 865.093 583.215C847.275 591.987 833.275 598.981 824.365 599.218C824.018 599.218 823.903 599.218 823.787 599.218Z" fill="#000200"/>
<path d="M699.29 782.008C698.943 782.008 698.48 782.008 698.133 781.889C695.703 781.178 694.315 778.688 695.009 776.199L716.183 696.54C716.877 694.05 719.307 692.628 721.736 693.339C724.166 694.05 725.555 696.54 724.86 699.029L703.687 778.688C703.108 780.585 701.257 782.008 699.29 782.008Z" fill="#000200"/>
<path d="M924.566 595.898C921.558 594.002 918.434 592.342 915.194 590.801C909.987 588.312 906.863 596.965 912.185 599.455C914.731 600.64 917.161 602.063 919.475 603.485C924.334 606.567 929.541 599.099 924.566 595.898Z" fill="#000200"/>
<path d="M1395.95 1650.81C1491.95 1609.87 1575.82 1532.4 1554.13 1377.28" stroke="#000200" stroke-opacity="0.8" stroke-width="15" stroke-miterlimit="10" stroke-linecap="round" stroke-linejoin="round"/>
<path d="M1561.97 1374.47C1550.43 1374.63 1504.52 1422.76 1489.07 1436.48" stroke="#000200" stroke-opacity="0.8" stroke-width="15" stroke-miterlimit="10" stroke-linecap="round" stroke-linejoin="round"/>
<path d="M1562.79 1374.02C1576.05 1395.52 1603.04 1445.74 1610.21 1469.84" stroke="#000200" stroke-opacity="0.8" stroke-width="15" stroke-miterlimit="10" stroke-linecap="round" stroke-linejoin="round"/>
<path d="M1569.5 1291.81C1581.38 1174.31 1629.6 1041.31 1629.6 1041.31" stroke="#000200" stroke-opacity="0.8" stroke-width="15" stroke-miterlimit="10" stroke-linecap="round" stroke-linejoin="round"/>
<path d="M1641.5 994.196C1631.7 993.56 1592.9 1034.18 1579.01 1047.33" stroke="#000200" stroke-opacity="0.8" stroke-width="15" stroke-miterlimit="10" stroke-linecap="round" stroke-linejoin="round"/>
<path d="M1641.29 993.657C1652.57 1011.37 1673.17 1052.64 1679.83 1074.83" stroke="#000200" stroke-opacity="0.8" stroke-width="15" stroke-miterlimit="10" stroke-linecap="round" stroke-linejoin="round"/>
<path d="M600 1744.27C603.047 1742.7 605.898 1741.57 608.555 1740.87C611.289 1740.09 613.984 1739.58 616.641 1739.34C619.375 1739.03 622.109 1738.88 624.844 1738.88C627.656 1738.88 630.703 1738.88 633.984 1738.88C634.609 1738.88 635.664 1738.91 637.148 1738.99C638.711 1738.99 640.352 1738.99 642.07 1738.99C643.867 1738.99 645.508 1738.99 646.992 1738.99C648.477 1738.99 649.531 1738.99 650.156 1738.99C651.016 1739.3 651.68 1739.85 652.148 1740.63C652.617 1741.41 652.969 1742.23 653.203 1743.09C653.438 1743.95 653.594 1744.85 653.672 1745.79C653.75 1746.65 653.789 1747.31 653.789 1747.78H615.117V1772.98H657.07C657.07 1775.63 656.25 1777.74 654.609 1779.3C652.969 1780.79 650.898 1781.96 648.398 1782.82C645.977 1783.68 643.242 1784.27 640.195 1784.58C637.148 1784.81 634.258 1784.93 631.523 1784.93C628.789 1784.85 626.367 1784.73 624.258 1784.58C622.148 1784.42 620.742 1784.34 620.039 1784.34V1786.8C620.039 1790.09 620.82 1793.21 622.383 1796.18C623.945 1799.07 625.664 1801.88 627.539 1804.62C629.492 1807.35 631.25 1810.05 632.812 1812.7C634.453 1815.36 635.273 1818.05 635.273 1820.79C635.273 1822.51 634.922 1824.03 634.219 1825.36C633.516 1826.61 632.227 1827.23 630.352 1827.23C628.398 1827.23 626.445 1826.22 624.492 1824.19C622.617 1822.16 620.781 1819.46 618.984 1816.1C617.188 1812.66 615.469 1808.76 613.828 1804.38C612.266 1799.93 610.742 1795.32 609.258 1790.55C607.852 1785.71 606.562 1780.95 605.391 1776.26C604.297 1771.49 603.359 1767.08 602.578 1763.02C601.797 1758.88 601.172 1755.24 600.703 1752.12C600.234 1748.99 600 1746.73 600 1745.32V1744.27ZM662.578 1803.21C662.578 1798.37 663.711 1793.88 665.977 1789.73C668.242 1785.52 671.211 1781.92 674.883 1778.95C678.633 1775.91 682.812 1773.52 687.422 1771.8C692.109 1770.09 696.836 1769.23 701.602 1769.23C704.258 1769.23 706.602 1770.09 708.633 1771.8C710.742 1773.52 712.5 1775.63 713.906 1778.13C715.312 1780.55 716.367 1783.13 717.07 1785.87C717.852 1788.6 718.242 1790.98 718.242 1793.02C718.242 1797.39 717.188 1801.65 715.078 1805.79C712.969 1809.85 710.234 1813.48 706.875 1816.69C703.516 1819.81 699.727 1822.35 695.508 1824.3C691.289 1826.26 687.07 1827.23 682.852 1827.23C679.102 1827.23 675.938 1826.61 673.359 1825.36C670.781 1824.03 668.711 1822.31 667.148 1820.2C665.586 1818.02 664.414 1815.48 663.633 1812.59C662.93 1809.62 662.578 1806.49 662.578 1803.21ZM672.539 1804.38C672.539 1806.41 672.695 1808.21 673.008 1809.77C673.398 1811.26 674.023 1812.55 674.883 1813.64C675.82 1814.73 677.031 1815.59 678.516 1816.22C680 1816.77 681.836 1817.04 684.023 1817.04C686.914 1817.04 689.805 1816.26 692.695 1814.7C695.586 1813.05 698.164 1811.02 700.43 1808.6C702.773 1806.1 704.648 1803.37 706.055 1800.4C707.461 1797.43 708.164 1794.54 708.164 1791.73C708.164 1790.48 708.047 1789.11 707.812 1787.62C707.578 1786.14 707.188 1784.77 706.641 1783.52C706.094 1782.27 705.312 1781.22 704.297 1780.36C703.281 1779.5 701.992 1779.07 700.43 1779.07C699.023 1779.07 697.344 1779.54 695.391 1780.48C693.516 1781.41 691.523 1782.62 689.414 1784.11C687.383 1785.59 685.352 1787.27 683.32 1789.15C681.367 1791.02 679.57 1792.9 677.93 1794.77C676.289 1796.65 674.961 1798.45 673.945 1800.16C673.008 1801.88 672.539 1803.29 672.539 1804.38ZM722.812 1779.19C722.812 1778.72 722.812 1777.9 722.812 1776.73C722.891 1775.48 722.93 1774.19 722.93 1772.86C722.93 1771.53 722.93 1770.32 722.93 1769.23C723.008 1768.05 723.047 1767.23 723.047 1766.77C723.594 1765.83 724.219 1764.93 724.922 1764.07C725.703 1763.13 726.484 1762.51 727.266 1762.2C728.125 1761.8 729.023 1761.73 729.961 1761.96C730.977 1762.2 731.992 1762.98 733.008 1764.3V1765.24V1766.77C732.93 1767.16 732.773 1768.09 732.539 1769.58C732.305 1770.98 732.031 1772.55 731.719 1774.27C731.406 1775.98 731.094 1777.59 730.781 1779.07C730.547 1780.48 730.43 1781.38 730.43 1781.77C730.43 1783.25 730.586 1785.12 730.898 1787.39C731.211 1789.58 731.641 1791.88 732.188 1794.3C732.812 1796.73 733.555 1799.15 734.414 1801.57C735.352 1803.99 736.445 1806.18 737.695 1808.13C738.945 1810.01 740.312 1811.57 741.797 1812.82C743.359 1814.07 745.156 1814.7 747.188 1814.7C749.688 1814.7 751.875 1814.03 753.75 1812.7C755.703 1811.38 757.383 1809.66 758.789 1807.55C760.195 1805.44 761.328 1803.05 762.188 1800.4C763.125 1797.74 763.867 1795.09 764.414 1792.43C764.961 1789.7 765.352 1787.08 765.586 1784.58C765.82 1782.08 765.938 1779.89 765.938 1778.02C765.938 1776.14 765.781 1774.38 765.469 1772.74C765.234 1771.02 764.922 1769.34 764.531 1767.7C764.141 1766.06 763.789 1764.46 763.477 1762.9C763.242 1761.26 763.125 1759.62 763.125 1757.98C763.125 1756.49 763.633 1755.44 764.648 1754.81C765.742 1754.19 766.953 1753.88 768.281 1753.88C769.922 1753.88 771.25 1754.38 772.266 1755.4C773.281 1756.34 774.062 1757.55 774.609 1759.03C775.234 1760.52 775.625 1762.23 775.781 1764.19C776.016 1766.06 776.133 1767.94 776.133 1769.81C776.133 1771.69 776.094 1773.48 776.016 1775.2C775.938 1776.84 775.898 1778.17 775.898 1779.19C775.898 1781.84 775.703 1784.85 775.312 1788.21C774.922 1791.57 774.219 1795.05 773.203 1798.64C772.266 1802.16 771.055 1805.63 769.57 1809.07C768.164 1812.51 766.406 1815.59 764.297 1818.33C762.266 1820.98 759.883 1823.13 757.148 1824.77C754.492 1826.41 751.484 1827.23 748.125 1827.23C744.609 1827.23 741.523 1826.41 738.867 1824.77C736.211 1823.05 733.945 1820.83 732.07 1818.09C730.273 1815.28 728.75 1812.12 727.5 1808.6C726.25 1805.09 725.273 1801.57 724.57 1798.05C723.945 1794.54 723.477 1791.14 723.164 1787.86C722.93 1784.5 722.812 1781.61 722.812 1779.19ZM783.047 1787.51C783.047 1785.48 783.555 1784.03 784.57 1783.17C785.586 1782.23 787.227 1781.77 789.492 1781.77H790.664C790.898 1783.02 791.172 1784.46 791.484 1786.1C791.797 1787.74 792.266 1789.42 792.891 1791.14C793.516 1792.86 794.258 1794.46 795.117 1795.95C795.977 1797.35 797.031 1798.48 798.281 1799.34C798.359 1796.61 799.023 1793.99 800.273 1791.49C801.602 1788.91 803.203 1786.65 805.078 1784.7C807.031 1782.66 809.141 1780.98 811.406 1779.66C813.75 1778.25 816.055 1777.31 818.32 1776.84H820.898C824.648 1776.84 827.852 1777.7 830.508 1779.42C833.164 1781.06 835.352 1783.25 837.07 1785.98C838.867 1788.64 840.234 1791.69 841.172 1795.12C842.109 1798.56 842.812 1802.08 843.281 1805.67C843.828 1809.19 844.141 1812.62 844.219 1815.98C844.375 1819.27 844.453 1822.08 844.453 1824.42H835.898C835.43 1819.73 834.844 1815.24 834.141 1810.95C833.906 1809.23 833.594 1807.43 833.203 1805.55C832.812 1803.6 832.383 1801.8 831.914 1800.16C831.445 1798.45 830.938 1796.88 830.391 1795.48C829.844 1793.99 829.219 1792.74 828.516 1791.73C828.203 1791.41 827.773 1790.98 827.227 1790.44C826.758 1789.89 826.25 1789.34 825.703 1788.8C825.156 1788.25 824.648 1787.78 824.18 1787.39C823.711 1787 823.438 1786.8 823.359 1786.8C821.016 1786.18 818.984 1786.65 817.266 1788.21C815.547 1789.7 814.023 1791.73 812.695 1794.3C811.367 1796.88 810.273 1799.81 809.414 1803.09C808.633 1806.38 807.969 1809.54 807.422 1812.59C806.875 1815.55 806.484 1818.17 806.25 1820.44C806.016 1822.62 805.859 1823.95 805.781 1824.42C803.828 1825.83 801.992 1826.26 800.273 1825.71C798.555 1825.09 796.914 1823.84 795.352 1821.96C793.867 1820.09 792.5 1817.74 791.25 1814.93C790.078 1812.12 788.984 1809.15 787.969 1806.02C786.953 1802.82 786.016 1799.62 785.156 1796.41C784.375 1793.21 783.672 1790.24 783.047 1787.51ZM848.32 1813.17C848.32 1808.64 849.453 1804.62 851.719 1801.1C853.984 1797.59 856.797 1794.54 860.156 1791.96C863.516 1789.3 867.148 1787.08 871.055 1785.28C874.961 1783.41 878.594 1781.88 881.953 1780.71C885.312 1779.46 888.125 1778.48 890.391 1777.78C892.656 1777 893.789 1776.38 893.789 1775.91C893.789 1773.17 893.633 1770.52 893.32 1767.94C893.086 1765.28 892.812 1762.62 892.5 1759.97C892.188 1757.31 891.875 1754.7 891.562 1752.12C891.328 1749.46 891.211 1746.84 891.211 1744.27V1736.65C894.414 1735.48 896.68 1735.59 898.008 1737C899.414 1738.41 899.648 1740.83 898.711 1744.27C899.023 1745.98 899.453 1748.68 900 1752.35C900.547 1756.02 901.133 1760.16 901.758 1764.77C902.461 1769.38 903.164 1774.23 903.867 1779.3C904.648 1784.38 905.352 1789.27 905.977 1793.95C906.68 1798.56 907.266 1802.7 907.734 1806.38C908.203 1809.97 908.555 1812.66 908.789 1814.46C908.867 1814.85 908.945 1815.63 909.023 1816.8C909.102 1817.9 909.141 1819.11 909.141 1820.44C909.219 1821.69 909.258 1822.86 909.258 1823.95C909.336 1825.05 909.375 1825.83 909.375 1826.3C906.406 1826.3 904.375 1826.18 903.281 1825.95C902.266 1825.71 901.602 1825.24 901.289 1824.54C901.055 1823.84 900.938 1822.82 900.938 1821.49C900.938 1820.16 900.547 1818.33 899.766 1815.98C896.875 1818.25 894.141 1820.12 891.562 1821.61C888.984 1823.09 886.406 1824.3 883.828 1825.24C881.25 1826.1 878.633 1826.69 875.977 1827C873.398 1827.39 870.625 1827.59 867.656 1827.59C865.156 1827.59 862.734 1827.39 860.391 1827C858.125 1826.53 856.094 1825.75 854.297 1824.66C852.5 1823.56 851.055 1822.08 849.961 1820.2C848.867 1818.33 848.32 1815.98 848.32 1813.17ZM858.516 1810.71C858.516 1811.96 858.789 1812.98 859.336 1813.76C859.883 1814.54 860.586 1815.2 861.445 1815.75C862.305 1816.3 863.203 1816.69 864.141 1816.92C865.156 1817.08 866.133 1817.16 867.07 1817.16C869.805 1817.16 872.734 1816.65 875.859 1815.63C879.062 1814.54 881.992 1813.05 884.648 1811.18C887.383 1809.23 889.609 1806.92 891.328 1804.27C893.125 1801.61 894.023 1798.72 894.023 1795.59C894.023 1793.17 893.594 1791.49 892.734 1790.55C891.875 1789.62 890.234 1789.15 887.812 1789.15C885.312 1789.15 882.383 1789.73 879.023 1790.91C875.742 1792.08 872.539 1793.64 869.414 1795.59C866.367 1797.55 863.789 1799.85 861.68 1802.51C859.57 1805.09 858.516 1807.82 858.516 1810.71ZM967.734 1767.94C967.734 1767.7 967.773 1767.51 967.852 1767.35C967.852 1767.2 967.891 1767 967.969 1766.77C968.281 1766.38 968.75 1765.87 969.375 1765.24C970 1764.62 970.391 1764.3 970.547 1764.3H994.102C994.102 1763.45 993.984 1762.08 993.75 1760.2C993.516 1758.33 993.281 1756.26 993.047 1753.99C992.891 1751.73 992.852 1749.38 992.93 1746.96C993.008 1744.46 993.32 1742.23 993.867 1740.28C994.492 1738.25 995.43 1736.61 996.68 1735.36C998.008 1734.03 999.844 1733.37 1002.19 1733.37C1002.19 1741.26 1002.73 1747.59 1003.83 1752.35C1004.92 1757.12 1006.37 1760.79 1008.16 1763.37C1010.04 1765.95 1012.15 1767.62 1014.49 1768.41C1016.84 1769.19 1019.22 1769.54 1021.64 1769.46C1024.14 1769.3 1026.56 1768.91 1028.91 1768.29C1031.25 1767.66 1033.32 1767.23 1035.12 1767C1036.99 1766.77 1038.48 1766.96 1039.57 1767.59C1040.66 1768.13 1041.21 1769.5 1041.21 1771.69C1041.21 1773.33 1040.82 1774.5 1040.04 1775.2C1039.34 1775.91 1037.93 1776.45 1035.82 1776.84C1035.2 1776.92 1034.14 1777.08 1032.66 1777.31C1031.25 1777.47 1029.65 1777.62 1027.85 1777.78C1026.05 1777.94 1024.14 1778.13 1022.11 1778.37C1020.08 1778.52 1018.16 1778.68 1016.37 1778.84C1014.57 1778.99 1012.93 1779.11 1011.45 1779.19C1009.96 1779.19 1008.87 1779.19 1008.16 1779.19C1008.16 1779.58 1008.12 1780.24 1008.05 1781.18C1007.97 1782.12 1007.93 1782.74 1007.93 1783.05C1007.93 1786.49 1008.48 1789.85 1009.57 1793.13C1010.66 1796.34 1011.84 1799.54 1013.09 1802.74C1014.41 1805.95 1015.62 1809.15 1016.72 1812.35C1017.81 1815.55 1018.36 1818.88 1018.36 1822.31C1018.36 1822.94 1018.28 1823.6 1018.12 1824.3C1018.05 1824.93 1017.81 1825.52 1017.42 1826.06C1017.11 1826.53 1016.6 1826.88 1015.9 1827.12C1015.27 1827.43 1014.38 1827.39 1013.2 1827C1010.23 1826.22 1008.01 1824.54 1006.52 1821.96C1005.12 1819.38 1004.06 1816.34 1003.36 1812.82C1002.66 1809.23 1002.19 1805.44 1001.95 1801.45C1001.72 1797.47 1001.33 1793.76 1000.78 1790.32C1000.31 1786.8 999.531 1783.84 998.438 1781.41C997.344 1778.91 995.586 1777.39 993.164 1776.84L970.547 1771.69C970.234 1771.69 969.766 1771.38 969.141 1770.75C968.516 1770.05 968.125 1769.54 967.969 1769.23C967.891 1769.07 967.852 1768.88 967.852 1768.64C967.773 1768.48 967.734 1768.25 967.734 1767.94ZM1049.06 1750.83C1049.06 1749.97 1049.14 1748.91 1049.3 1747.66C1049.53 1746.34 1049.88 1745.09 1050.35 1743.91C1050.9 1742.74 1051.56 1741.77 1052.34 1740.98C1053.12 1740.12 1054.14 1739.7 1055.39 1739.7C1055.47 1739.7 1055.66 1739.73 1055.98 1739.81C1056.29 1739.89 1056.48 1739.93 1056.56 1739.93C1057.89 1744.77 1058.67 1749.58 1058.91 1754.34C1059.14 1759.11 1059.06 1763.76 1058.67 1768.29C1058.28 1772.74 1057.7 1777.08 1056.91 1781.3C1056.13 1785.44 1055.47 1789.27 1054.92 1792.78C1054.45 1796.3 1054.14 1799.46 1053.98 1802.27C1053.91 1805.09 1054.34 1807.47 1055.27 1809.42C1055.12 1808.17 1055 1806.69 1054.92 1804.97C1054.92 1803.17 1055.08 1801.34 1055.39 1799.46C1055.78 1797.59 1056.37 1795.71 1057.15 1793.84C1058.01 1791.96 1059.22 1790.28 1060.78 1788.8C1062.34 1787.31 1064.34 1786.14 1066.76 1785.28C1069.26 1784.42 1072.34 1783.99 1076.02 1783.99C1079.84 1783.99 1083.12 1784.66 1085.86 1785.98C1088.67 1787.31 1090.98 1789.15 1092.77 1791.49C1094.57 1793.76 1095.9 1796.45 1096.76 1799.58C1097.7 1802.62 1098.16 1805.91 1098.16 1809.42C1098.16 1811.06 1098.12 1812.94 1098.05 1815.05C1098.05 1817.08 1097.77 1818.99 1097.23 1820.79C1096.76 1822.51 1095.86 1823.99 1094.53 1825.24C1093.28 1826.41 1091.41 1827 1088.91 1827C1088.91 1825.75 1088.98 1824.07 1089.14 1821.96C1089.3 1819.77 1089.38 1817.47 1089.38 1815.05C1089.45 1812.62 1089.38 1810.16 1089.14 1807.66C1088.98 1805.16 1088.48 1802.94 1087.62 1800.98C1086.76 1798.95 1085.55 1797.31 1083.98 1796.06C1082.5 1794.73 1080.43 1794.07 1077.77 1794.07C1076.84 1794.07 1075.66 1794.15 1074.26 1794.3C1072.93 1794.38 1071.56 1794.73 1070.16 1795.36C1068.75 1795.98 1067.38 1796.96 1066.05 1798.29C1064.73 1799.54 1063.67 1801.3 1062.89 1803.56C1062.11 1805.75 1061.64 1808.56 1061.48 1812C1061.41 1815.36 1061.84 1819.5 1062.77 1824.42C1062.23 1825.83 1061.52 1826.65 1060.66 1826.88C1059.88 1827.12 1058.87 1827.23 1057.62 1827.23C1055.12 1827.23 1053.05 1826.38 1051.41 1824.66C1049.84 1822.86 1048.63 1820.48 1047.77 1817.51C1046.91 1814.54 1046.33 1811.1 1046.02 1807.2C1045.78 1803.29 1045.7 1799.23 1045.78 1795.01C1045.86 1790.71 1046.05 1786.38 1046.37 1782C1046.76 1777.55 1047.11 1773.37 1047.42 1769.46C1047.81 1765.48 1048.16 1761.88 1048.48 1758.68C1048.87 1755.4 1049.06 1752.78 1049.06 1750.83ZM1102.85 1794.42C1102.85 1790.2 1103.36 1785.98 1104.38 1781.77C1105.39 1777.55 1106.99 1773.76 1109.18 1770.4C1111.45 1767.04 1114.34 1764.3 1117.85 1762.2C1121.45 1760.09 1125.78 1759.03 1130.86 1759.03C1133.75 1759.03 1136.29 1759.58 1138.48 1760.67C1140.66 1761.69 1142.5 1763.05 1143.98 1764.77C1145.47 1766.49 1146.56 1768.52 1147.27 1770.87C1148.05 1773.13 1148.44 1775.52 1148.44 1778.02C1148.44 1782 1147.5 1785.87 1145.62 1789.62C1143.83 1793.37 1141.37 1796.69 1138.24 1799.58C1135.2 1802.39 1131.68 1804.54 1127.7 1806.02C1123.71 1807.43 1119.65 1807.74 1115.51 1806.96C1115.59 1809.23 1116.33 1811.06 1117.73 1812.47C1119.22 1813.8 1120.98 1814.81 1123.01 1815.52C1125.04 1816.22 1127.15 1816.69 1129.34 1816.92C1131.52 1817.08 1133.48 1817.16 1135.2 1817.16C1136.99 1817.16 1138.67 1817 1140.23 1816.69C1141.8 1816.38 1143.36 1816.02 1144.92 1815.63C1146.48 1815.24 1148.05 1814.89 1149.61 1814.58C1151.25 1814.27 1152.97 1814.11 1154.77 1814.11C1155.47 1814.11 1156.17 1814.15 1156.88 1814.23C1157.58 1814.3 1158.24 1814.5 1158.87 1814.81C1159.49 1815.05 1160 1815.48 1160.39 1816.1C1160.78 1816.65 1160.98 1817.35 1160.98 1818.21C1160.98 1819.7 1160.43 1820.95 1159.34 1821.96C1158.24 1822.9 1156.84 1823.72 1155.12 1824.42C1153.48 1825.12 1151.64 1825.67 1149.61 1826.06C1147.58 1826.38 1145.59 1826.65 1143.63 1826.88C1141.76 1827.04 1140 1827.12 1138.36 1827.12C1136.8 1827.2 1135.62 1827.23 1134.84 1827.23C1129.84 1827.23 1125.35 1826.45 1121.37 1824.89C1117.38 1823.25 1114.02 1821.02 1111.29 1818.21C1108.55 1815.32 1106.45 1811.88 1104.96 1807.9C1103.55 1803.84 1102.85 1799.34 1102.85 1794.42ZM1115.27 1786.8C1115.27 1789.54 1115.62 1791.53 1116.33 1792.78C1117.11 1794.03 1118.95 1794.66 1121.84 1794.66C1123.87 1794.66 1125.86 1794.3 1127.81 1793.6C1129.77 1792.82 1131.52 1791.77 1133.09 1790.44C1134.73 1789.11 1136.02 1787.55 1136.95 1785.75C1137.89 1783.95 1138.36 1782 1138.36 1779.89C1138.36 1778.72 1138.24 1777.51 1138.01 1776.26C1137.85 1775.01 1137.46 1773.88 1136.84 1772.86C1136.21 1771.77 1135.39 1770.91 1134.38 1770.28C1133.44 1769.58 1132.19 1769.23 1130.62 1769.23C1128.28 1769.23 1126.13 1769.77 1124.18 1770.87C1122.3 1771.88 1120.7 1773.25 1119.38 1774.97C1118.05 1776.61 1117.03 1778.48 1116.33 1780.59C1115.62 1782.62 1115.27 1784.7 1115.27 1786.8ZM1222.27 1783.76C1222.27 1776.18 1224.02 1770.55 1227.54 1766.88C1231.05 1763.21 1236.45 1761.38 1243.71 1761.38C1246.68 1761.38 1249.73 1761.65 1252.85 1762.2C1256.05 1762.74 1258.98 1763.72 1261.64 1765.12C1264.3 1766.45 1266.45 1768.33 1268.09 1770.75C1269.8 1773.17 1270.66 1776.3 1270.66 1780.12C1270.66 1784.34 1269.73 1788.33 1267.85 1792.08C1266.05 1795.75 1263.75 1799.23 1260.94 1802.51C1258.2 1805.71 1255.16 1808.72 1251.8 1811.53C1248.52 1814.27 1245.43 1816.88 1242.54 1819.38C1242.38 1819.7 1242.23 1820.36 1242.07 1821.38C1241.99 1822.31 1241.95 1822.94 1241.95 1823.25C1241.95 1825.83 1242.7 1828.41 1244.18 1830.98C1245.74 1833.64 1247.42 1836.3 1249.22 1838.95C1251.02 1841.69 1252.66 1844.5 1254.14 1847.39C1255.62 1850.28 1256.37 1853.29 1256.37 1856.41C1256.37 1858.29 1255.98 1859.38 1255.2 1859.7C1254.41 1860.09 1252.77 1860.28 1250.27 1860.28C1248.71 1859.66 1247.15 1858.17 1245.59 1855.83C1244.1 1853.56 1242.58 1850.75 1241.02 1847.39C1239.53 1844.03 1238.05 1840.24 1236.56 1836.02C1235.16 1831.88 1233.79 1827.66 1232.46 1823.37C1231.21 1818.99 1230 1814.7 1228.83 1810.48C1227.73 1806.18 1226.76 1802.23 1225.9 1798.64C1225.04 1795.05 1224.26 1791.96 1223.55 1789.38C1222.93 1786.73 1222.5 1784.85 1222.27 1783.76ZM1232.23 1784.81C1232.23 1785.98 1232.3 1787.7 1232.46 1789.97C1232.62 1792.16 1232.93 1794.34 1233.4 1796.53C1233.95 1798.72 1234.73 1800.63 1235.74 1802.27C1236.76 1803.84 1238.16 1804.62 1239.96 1804.62C1242.38 1804.62 1244.8 1803.8 1247.23 1802.16C1249.73 1800.52 1251.91 1798.45 1253.79 1795.95C1255.74 1793.45 1257.3 1790.79 1258.48 1787.98C1259.73 1785.09 1260.35 1782.47 1260.35 1780.12C1260.35 1778.17 1259.88 1776.65 1258.95 1775.55C1258.01 1774.38 1256.8 1773.48 1255.31 1772.86C1253.91 1772.16 1252.38 1771.73 1250.74 1771.57C1249.1 1771.34 1247.54 1771.22 1246.05 1771.22C1241.6 1771.22 1238.16 1772.43 1235.74 1774.85C1233.4 1777.2 1232.23 1780.52 1232.23 1784.81ZM1277.58 1777.78C1277.58 1777.08 1277.62 1776.38 1277.7 1775.67C1277.77 1774.89 1277.93 1774.23 1278.16 1773.68C1278.4 1773.05 1278.75 1772.55 1279.22 1772.16C1279.77 1771.77 1280.51 1771.57 1281.45 1771.57C1282.23 1771.57 1283.09 1772.2 1284.02 1773.45C1285.04 1774.62 1286.05 1776.14 1287.07 1778.02C1288.09 1779.81 1289.06 1781.8 1290 1783.99C1291.02 1786.18 1291.88 1788.21 1292.58 1790.09C1293.36 1791.88 1293.98 1793.45 1294.45 1794.77C1294.92 1796.1 1295.2 1796.8 1295.27 1796.88C1296.29 1794.15 1297.42 1791.18 1298.67 1787.98C1299.92 1784.77 1301.45 1781.8 1303.24 1779.07C1305.12 1776.26 1307.3 1773.91 1309.8 1772.04C1312.38 1770.16 1315.51 1769.23 1319.18 1769.23C1321.05 1769.23 1322.81 1769.54 1324.45 1770.16C1326.17 1770.71 1327.66 1771.57 1328.91 1772.74C1330.23 1773.84 1331.29 1775.16 1332.07 1776.73C1332.85 1778.29 1333.24 1780.09 1333.24 1782.12C1333.24 1783.84 1332.54 1785.05 1331.13 1785.75C1329.8 1786.45 1328.28 1786.8 1326.56 1786.8H1325.39L1320.35 1781.77C1320.2 1781.77 1320.08 1781.73 1320 1781.65C1319.84 1781.65 1319.69 1781.65 1319.53 1781.65C1319.45 1781.57 1319.34 1781.53 1319.18 1781.53C1316.45 1781.53 1314.3 1782.31 1312.73 1783.88C1311.25 1785.36 1310.12 1787.23 1309.34 1789.5C1308.55 1791.69 1308.05 1794.03 1307.81 1796.53C1307.66 1798.95 1307.58 1801.18 1307.58 1803.21C1307.58 1804.77 1307.73 1806.38 1308.05 1808.02C1308.36 1809.58 1308.71 1811.14 1309.1 1812.7C1309.49 1814.19 1309.84 1815.75 1310.16 1817.39C1310.47 1818.95 1310.62 1820.59 1310.62 1822.31C1310.62 1825.59 1308.87 1827.23 1305.35 1827.23C1303.4 1827.23 1301.37 1826.22 1299.26 1824.19C1297.15 1822.08 1295.04 1819.42 1292.93 1816.22C1290.9 1813.02 1288.95 1809.5 1287.07 1805.67C1285.2 1801.77 1283.55 1797.98 1282.15 1794.3C1280.74 1790.63 1279.61 1787.31 1278.75 1784.34C1277.97 1781.38 1277.58 1779.19 1277.58 1777.78ZM1337.46 1803.21C1337.46 1798.37 1338.59 1793.88 1340.86 1789.73C1343.12 1785.52 1346.09 1781.92 1349.77 1778.95C1353.52 1775.91 1357.7 1773.52 1362.3 1771.8C1366.99 1770.09 1371.72 1769.23 1376.48 1769.23C1379.14 1769.23 1381.48 1770.09 1383.52 1771.8C1385.62 1773.52 1387.38 1775.63 1388.79 1778.13C1390.2 1780.55 1391.25 1783.13 1391.95 1785.87C1392.73 1788.6 1393.12 1790.98 1393.12 1793.02C1393.12 1797.39 1392.07 1801.65 1389.96 1805.79C1387.85 1809.85 1385.12 1813.48 1381.76 1816.69C1378.4 1819.81 1374.61 1822.35 1370.39 1824.3C1366.17 1826.26 1361.95 1827.23 1357.73 1827.23C1353.98 1827.23 1350.82 1826.61 1348.24 1825.36C1345.66 1824.03 1343.59 1822.31 1342.03 1820.2C1340.47 1818.02 1339.3 1815.48 1338.52 1812.59C1337.81 1809.62 1337.46 1806.49 1337.46 1803.21ZM1347.42 1804.38C1347.42 1806.41 1347.58 1808.21 1347.89 1809.77C1348.28 1811.26 1348.91 1812.55 1349.77 1813.64C1350.7 1814.73 1351.91 1815.59 1353.4 1816.22C1354.88 1816.77 1356.72 1817.04 1358.91 1817.04C1361.8 1817.04 1364.69 1816.26 1367.58 1814.7C1370.47 1813.05 1373.05 1811.02 1375.31 1808.6C1377.66 1806.1 1379.53 1803.37 1380.94 1800.4C1382.34 1797.43 1383.05 1794.54 1383.05 1791.73C1383.05 1790.48 1382.93 1789.11 1382.7 1787.62C1382.46 1786.14 1382.07 1784.77 1381.52 1783.52C1380.98 1782.27 1380.2 1781.22 1379.18 1780.36C1378.16 1779.5 1376.88 1779.07 1375.31 1779.07C1373.91 1779.07 1372.23 1779.54 1370.27 1780.48C1368.4 1781.41 1366.41 1782.62 1364.3 1784.11C1362.27 1785.59 1360.23 1787.27 1358.2 1789.15C1356.25 1791.02 1354.45 1792.9 1352.81 1794.77C1351.17 1796.65 1349.84 1798.45 1348.83 1800.16C1347.89 1801.88 1347.42 1803.29 1347.42 1804.38ZM1415.39 1821.96C1412.97 1814.93 1410.66 1808.37 1408.48 1802.27C1406.37 1796.1 1404.49 1790.09 1402.85 1784.23C1401.29 1778.29 1400.04 1772.27 1399.1 1766.18C1398.16 1760.09 1397.7 1753.56 1397.7 1746.61C1397.7 1746.06 1397.7 1745.09 1397.7 1743.68C1397.77 1742.2 1397.81 1740.67 1397.81 1739.11C1397.81 1737.55 1397.81 1736.06 1397.81 1734.66C1397.89 1733.17 1397.93 1732.16 1397.93 1731.61C1398.63 1730.05 1399.84 1728.6 1401.56 1727.27C1403.36 1725.95 1405.16 1725.28 1406.95 1725.28C1406.95 1731.06 1407.03 1737.23 1407.19 1743.8C1407.34 1750.28 1407.81 1756.77 1408.59 1763.25C1409.45 1769.73 1410.78 1776.1 1412.58 1782.35C1414.45 1788.52 1417.07 1794.19 1420.43 1799.34C1420.51 1797.47 1420.59 1795.4 1420.66 1793.13C1420.74 1790.87 1420.94 1788.6 1421.25 1786.34C1421.64 1784.07 1422.23 1781.88 1423.01 1779.77C1423.79 1777.66 1424.92 1775.79 1426.41 1774.15C1427.97 1772.51 1429.96 1771.22 1432.38 1770.28C1434.88 1769.34 1438.01 1768.91 1441.76 1768.99C1445.12 1768.99 1448.12 1769.62 1450.78 1770.87C1453.52 1772.12 1455.78 1773.84 1457.58 1776.02C1459.45 1778.13 1460.86 1780.63 1461.8 1783.52C1462.81 1786.34 1463.32 1789.34 1463.32 1792.55C1463.32 1796.84 1462.27 1801.06 1460.16 1805.2C1458.05 1809.34 1455.23 1813.05 1451.72 1816.34C1448.28 1819.62 1444.41 1822.27 1440.12 1824.3C1435.82 1826.26 1431.45 1827.23 1426.99 1827.23C1424.73 1827.23 1422.54 1826.84 1420.43 1826.06C1418.32 1825.2 1416.64 1823.84 1415.39 1821.96ZM1443.16 1779.19C1441.6 1780.05 1439.96 1781.06 1438.24 1782.23C1436.52 1783.41 1434.92 1785.24 1433.44 1787.74C1432.03 1790.16 1430.82 1793.48 1429.8 1797.7C1428.79 1801.92 1428.16 1807.51 1427.93 1814.46C1428.09 1814.46 1428.48 1814.5 1429.1 1814.58C1429.8 1814.66 1430.27 1814.7 1430.51 1814.7C1432.62 1814.7 1435 1814.03 1437.66 1812.7C1440.39 1811.38 1443.01 1809.73 1445.51 1807.78C1448.09 1805.83 1450.31 1803.68 1452.19 1801.34C1454.06 1798.91 1455.2 1796.61 1455.59 1794.42C1455.82 1793.09 1455.55 1791.57 1454.77 1789.85C1453.98 1788.13 1452.93 1786.49 1451.6 1784.93C1450.35 1783.29 1448.95 1781.92 1447.38 1780.83C1445.9 1779.73 1444.49 1779.19 1443.16 1779.19ZM1473.28 1760.67C1473.28 1758.41 1473.12 1756.22 1472.81 1754.11C1472.5 1751.92 1472.42 1750.01 1472.58 1748.37C1472.73 1746.65 1473.32 1745.28 1474.34 1744.27C1475.43 1743.25 1477.38 1742.74 1480.2 1742.74C1481.05 1744.54 1481.88 1747.27 1482.66 1750.95C1483.52 1754.62 1484.34 1758.84 1485.12 1763.6C1485.9 1768.37 1486.64 1773.56 1487.34 1779.19C1488.05 1784.73 1488.67 1790.32 1489.22 1795.95C1489.84 1801.57 1490.35 1807.12 1490.74 1812.59C1491.21 1817.98 1491.56 1822.9 1491.8 1827.35C1489.22 1829.07 1487.15 1829.19 1485.59 1827.7C1484.02 1826.22 1482.73 1823.72 1481.72 1820.2C1480.7 1816.61 1479.92 1812.27 1479.38 1807.2C1478.83 1802.04 1478.28 1796.73 1477.73 1791.26C1477.27 1785.71 1476.68 1780.28 1475.98 1774.97C1475.27 1769.58 1474.38 1764.81 1473.28 1760.67ZM1497.89 1794.42C1497.89 1790.2 1498.4 1785.98 1499.41 1781.77C1500.43 1777.55 1502.03 1773.76 1504.22 1770.4C1506.48 1767.04 1509.38 1764.3 1512.89 1762.2C1516.48 1760.09 1520.82 1759.03 1525.9 1759.03C1528.79 1759.03 1531.33 1759.58 1533.52 1760.67C1535.7 1761.69 1537.54 1763.05 1539.02 1764.77C1540.51 1766.49 1541.6 1768.52 1542.3 1770.87C1543.09 1773.13 1543.48 1775.52 1543.48 1778.02C1543.48 1782 1542.54 1785.87 1540.66 1789.62C1538.87 1793.37 1536.41 1796.69 1533.28 1799.58C1530.23 1802.39 1526.72 1804.54 1522.73 1806.02C1518.75 1807.43 1514.69 1807.74 1510.55 1806.96C1510.62 1809.23 1511.37 1811.06 1512.77 1812.47C1514.26 1813.8 1516.02 1814.81 1518.05 1815.52C1520.08 1816.22 1522.19 1816.69 1524.38 1816.92C1526.56 1817.08 1528.52 1817.16 1530.23 1817.16C1532.03 1817.16 1533.71 1817 1535.27 1816.69C1536.84 1816.38 1538.4 1816.02 1539.96 1815.63C1541.52 1815.24 1543.09 1814.89 1544.65 1814.58C1546.29 1814.27 1548.01 1814.11 1549.8 1814.11C1550.51 1814.11 1551.21 1814.15 1551.91 1814.23C1552.62 1814.3 1553.28 1814.5 1553.91 1814.81C1554.53 1815.05 1555.04 1815.48 1555.43 1816.1C1555.82 1816.65 1556.02 1817.35 1556.02 1818.21C1556.02 1819.7 1555.47 1820.95 1554.38 1821.96C1553.28 1822.9 1551.88 1823.72 1550.16 1824.42C1548.52 1825.12 1546.68 1825.67 1544.65 1826.06C1542.62 1826.38 1540.62 1826.65 1538.67 1826.88C1536.8 1827.04 1535.04 1827.12 1533.4 1827.12C1531.84 1827.2 1530.66 1827.23 1529.88 1827.23C1524.88 1827.23 1520.39 1826.45 1516.41 1824.89C1512.42 1823.25 1509.06 1821.02 1506.33 1818.21C1503.59 1815.32 1501.48 1811.88 1500 1807.9C1498.59 1803.84 1497.89 1799.34 1497.89 1794.42ZM1510.31 1786.8C1510.31 1789.54 1510.66 1791.53 1511.37 1792.78C1512.15 1794.03 1513.98 1794.66 1516.88 1794.66C1518.91 1794.66 1520.9 1794.3 1522.85 1793.6C1524.8 1792.82 1526.56 1791.77 1528.12 1790.44C1529.77 1789.11 1531.05 1787.55 1531.99 1785.75C1532.93 1783.95 1533.4 1782 1533.4 1779.89C1533.4 1778.72 1533.28 1777.51 1533.05 1776.26C1532.89 1775.01 1532.5 1773.88 1531.88 1772.86C1531.25 1771.77 1530.43 1770.91 1529.41 1770.28C1528.48 1769.58 1527.23 1769.23 1525.66 1769.23C1523.32 1769.23 1521.17 1769.77 1519.22 1770.87C1517.34 1771.88 1515.74 1773.25 1514.41 1774.97C1513.09 1776.61 1512.07 1778.48 1511.37 1780.59C1510.66 1782.62 1510.31 1784.7 1510.31 1786.8ZM1560.7 1777.78C1560.7 1775.83 1561.02 1774.3 1561.64 1773.21C1562.34 1772.12 1563.79 1771.57 1565.98 1771.57C1566.21 1771.57 1566.64 1771.61 1567.27 1771.69C1567.97 1771.69 1568.4 1771.69 1568.55 1771.69C1569.1 1774.11 1569.65 1776.77 1570.2 1779.66C1570.82 1782.47 1571.52 1785.32 1572.3 1788.21C1573.09 1791.1 1573.95 1793.95 1574.88 1796.77C1575.9 1799.58 1577.11 1802.12 1578.52 1804.38C1579.92 1802.9 1580.94 1801.14 1581.56 1799.11C1582.19 1797.08 1582.66 1795.05 1582.97 1793.02C1583.28 1790.91 1583.55 1788.91 1583.79 1787.04C1584.1 1785.09 1584.69 1783.45 1585.55 1782.12C1586.41 1780.71 1587.66 1779.7 1589.3 1779.07C1591.02 1778.45 1593.36 1778.45 1596.33 1779.07C1599.61 1779.07 1602.23 1779.7 1604.18 1780.95C1606.13 1782.12 1607.81 1783.64 1609.22 1785.52C1610.7 1787.31 1612.11 1789.27 1613.44 1791.38C1614.84 1793.41 1616.6 1795.24 1618.71 1796.88C1619.18 1795.87 1619.77 1794.62 1620.47 1793.13C1621.17 1791.57 1622.03 1789.97 1623.05 1788.33C1624.14 1786.61 1625.27 1784.93 1626.45 1783.29C1627.7 1781.57 1628.98 1780.05 1630.31 1778.72C1631.64 1777.31 1633.01 1776.18 1634.41 1775.32C1635.82 1774.38 1637.19 1773.91 1638.52 1773.91C1641.72 1773.91 1644.49 1774.93 1646.84 1776.96C1649.18 1778.91 1651.17 1781.41 1652.81 1784.46C1654.53 1787.43 1655.94 1790.79 1657.03 1794.54C1658.12 1798.21 1658.98 1801.77 1659.61 1805.2C1660.23 1808.64 1660.66 1811.8 1660.9 1814.7C1661.21 1817.51 1661.37 1819.54 1661.37 1820.79C1661.37 1821.8 1661.13 1822.59 1660.66 1823.13C1660.2 1823.68 1659.61 1824.11 1658.91 1824.42C1658.2 1824.66 1657.42 1824.81 1656.56 1824.89C1655.78 1824.97 1655.04 1825.01 1654.34 1825.01C1654.18 1825.01 1653.95 1825.01 1653.63 1825.01C1653.32 1824.93 1652.97 1824.85 1652.58 1824.77C1652.27 1824.7 1651.84 1824.58 1651.29 1824.42L1643.67 1789.38C1643.67 1789.15 1643.36 1788.72 1642.73 1788.09C1642.11 1787.39 1641.64 1786.96 1641.33 1786.8C1641.09 1786.8 1640.9 1786.77 1640.74 1786.69C1640.59 1786.69 1640.47 1786.69 1640.39 1786.69C1640.31 1786.61 1640.23 1786.57 1640.16 1786.57C1638.52 1786.57 1636.95 1787.23 1635.47 1788.56C1634.06 1789.89 1632.73 1791.57 1631.48 1793.6C1630.23 1795.63 1629.06 1797.9 1627.97 1800.4C1626.88 1802.9 1625.9 1805.4 1625.04 1807.9C1624.18 1810.32 1623.4 1812.59 1622.7 1814.7C1622.07 1816.73 1621.56 1818.29 1621.17 1819.38C1620.86 1819.54 1620.23 1819.7 1619.3 1819.85C1618.36 1819.93 1617.73 1819.97 1617.42 1819.97C1615.23 1819.97 1613.55 1819.23 1612.38 1817.74C1611.21 1816.18 1610.23 1814.27 1609.45 1812C1608.75 1809.73 1608.12 1807.27 1607.58 1804.62C1607.11 1801.88 1606.48 1799.38 1605.7 1797.12C1605 1794.85 1603.98 1792.98 1602.66 1791.49C1601.41 1789.93 1599.61 1789.15 1597.27 1789.15C1596.41 1789.15 1595.59 1790.01 1594.8 1791.73C1594.02 1793.45 1593.32 1795.63 1592.7 1798.29C1592.07 1800.87 1591.48 1803.68 1590.94 1806.73C1590.39 1809.7 1589.92 1812.51 1589.53 1815.16C1589.22 1817.74 1588.98 1819.93 1588.83 1821.73C1588.67 1823.52 1588.59 1824.42 1588.59 1824.42C1588.44 1824.66 1588.12 1824.93 1587.66 1825.24C1587.19 1825.48 1586.68 1825.75 1586.13 1826.06C1585.66 1826.38 1585.16 1826.61 1584.61 1826.77C1584.14 1826.92 1583.79 1827 1583.55 1827C1581.37 1827 1579.26 1826.02 1577.23 1824.07C1575.2 1822.04 1573.32 1819.46 1571.6 1816.34C1569.96 1813.13 1568.44 1809.62 1567.03 1805.79C1565.7 1801.96 1564.57 1798.21 1563.63 1794.54C1562.7 1790.87 1561.95 1787.55 1561.41 1784.58C1560.94 1781.61 1560.7 1779.34 1560.7 1777.78ZM1675.67 1816.38C1676.73 1816.38 1677.74 1816.71 1678.72 1817.36C1679.78 1818.01 1680.43 1818.82 1680.67 1819.8C1681 1820.69 1680.76 1821.71 1679.94 1822.85C1679.13 1823.99 1677.38 1825.05 1674.69 1826.02C1672.5 1825.7 1670.91 1825.17 1669.93 1824.44C1669.04 1823.62 1668.51 1822.81 1668.34 1822C1668.26 1821.1 1668.47 1820.25 1668.96 1819.43C1669.52 1818.54 1670.18 1817.8 1670.91 1817.23C1671.72 1816.58 1672.58 1816.18 1673.47 1816.01C1674.37 1815.77 1675.1 1815.89 1675.67 1816.38ZM1666.51 1735.33C1668.71 1733.29 1670.42 1732.84 1671.64 1733.98C1672.86 1735.12 1673.76 1737.28 1674.33 1740.45C1674.98 1743.63 1675.34 1747.45 1675.42 1751.93C1675.51 1756.32 1675.55 1760.84 1675.55 1765.48C1675.63 1770.12 1675.71 1774.51 1675.79 1778.66C1675.95 1782.81 1676.32 1786.11 1676.89 1788.55C1676.89 1789.77 1676.81 1790.83 1676.65 1791.72C1676.48 1792.62 1676.2 1793.35 1675.79 1793.92C1675.38 1794.49 1674.73 1794.94 1673.84 1795.26C1672.94 1795.51 1671.76 1795.63 1670.3 1795.63C1670.05 1795.63 1669.81 1795.51 1669.57 1795.26C1669.32 1795.02 1669.08 1794.33 1668.83 1793.19C1668.59 1791.97 1668.34 1790.13 1668.1 1787.69C1667.86 1785.17 1667.61 1781.67 1667.37 1777.2C1667.21 1772.72 1667 1767.1 1666.76 1760.35C1666.6 1753.6 1666.51 1745.25 1666.51 1735.33ZM1693.98 1816.38C1695.04 1816.38 1696.05 1816.71 1697.03 1817.36C1698.09 1818.01 1698.74 1818.82 1698.98 1819.8C1699.31 1820.69 1699.07 1821.71 1698.25 1822.85C1697.44 1823.99 1695.69 1825.05 1693 1826.02C1690.81 1825.7 1689.22 1825.17 1688.24 1824.44C1687.35 1823.62 1686.82 1822.81 1686.66 1822C1686.57 1821.1 1686.78 1820.25 1687.27 1819.43C1687.84 1818.54 1688.49 1817.8 1689.22 1817.23C1690.03 1816.58 1690.89 1816.18 1691.78 1816.01C1692.68 1815.77 1693.41 1815.89 1693.98 1816.38ZM1684.82 1735.33C1687.02 1733.29 1688.73 1732.84 1689.95 1733.98C1691.17 1735.12 1692.07 1737.28 1692.64 1740.45C1693.29 1743.63 1693.65 1747.45 1693.74 1751.93C1693.82 1756.32 1693.86 1760.84 1693.86 1765.48C1693.94 1770.12 1694.02 1774.51 1694.1 1778.66C1694.26 1782.81 1694.63 1786.11 1695.2 1788.55C1695.2 1789.77 1695.12 1790.83 1694.96 1791.72C1694.79 1792.62 1694.51 1793.35 1694.1 1793.92C1693.69 1794.49 1693.04 1794.94 1692.15 1795.26C1691.25 1795.51 1690.07 1795.63 1688.61 1795.63C1688.36 1795.63 1688.12 1795.51 1687.88 1795.26C1687.63 1795.02 1687.39 1794.33 1687.14 1793.19C1686.9 1791.97 1686.66 1790.13 1686.41 1787.69C1686.17 1785.17 1685.92 1781.67 1685.68 1777.2C1685.52 1772.72 1685.31 1767.1 1685.07 1760.35C1684.91 1753.6 1684.82 1745.25 1684.82 1735.33Z" fill="#000200" fill-opacity="0.8"/>
<defs>
<linearGradient id="paint0_linear_21_244" x1="405.228" y1="791.728" x2="405.228" y2="1488.75" gradientUnits="userSpaceOnUse">
<stop stop-color="#0451E5"/>
<stop offset="1" stop-color="#2072FF"/>
</linearGradient>
<linearGradient id="paint1_linear_21_244" x1="1109.58" y1="371.947" x2="1391.66" y2="434.701" gradientUnits="userSpaceOnUse">
<stop stop-color="#FF6105"/>
<stop offset="1" stop-color="#FF2327"/>
</linearGradient>
<linearGradient id="paint2_linear_21_244" x1="339.625" y1="601.89" x2="383.119" y2="610.481" gradientUnits="userSpaceOnUse">
<stop stop-color="#FF6105"/>
<stop offset="1" stop-color="#FF2327"/>
</linearGradient>
<linearGradient id="paint3_linear_21_244" x1="462.443" y1="442.544" x2="471.928" y2="443.142" gradientUnits="userSpaceOnUse">
<stop stop-color="#FF6105"/>
<stop offset="1" stop-color="#FF2327"/>
</linearGradient>
<linearGradient id="paint4_linear_21_244" x1="1481.74" y1="1040.66" x2="1481.74" y2="1093.18" gradientUnits="userSpaceOnUse">
<stop stop-color="#0451E5"/>
<stop offset="1" stop-color="#2072FF"/>
</linearGradient>
<linearGradient id="paint5_linear_21_244" x1="1324.96" y1="666.312" x2="1324.96" y2="729.139" gradientUnits="userSpaceOnUse">
<stop stop-color="#0451E5"/>
<stop offset="1" stop-color="#2072FF"/>
</linearGradient>
<linearGradient id="paint6_linear_21_244" x1="1364.39" y1="1184.97" x2="1364.39" y2="1218.96" gradientUnits="userSpaceOnUse">
<stop stop-color="#0451E5"/>
<stop offset="1" stop-color="#2072FF"/>
</linearGradient>
<linearGradient id="paint7_linear_21_244" x1="193.721" y1="242.054" x2="193.721" y2="307.607" gradientUnits="userSpaceOnUse">
<stop stop-color="#0451E5"/>
<stop offset="1" stop-color="#2072FF"/>
</linearGradient>
</defs>
</svg>
