<svg width="2000" height="2000" viewBox="0 0 2000 2000" fill="none" xmlns="http://www.w3.org/2000/svg">
<g clip-path="url(#clip0_21_503)">
<path d="M672.948 332.943L91 659.425L371.578 1063.12L869.087 782.991L672.948 332.943ZM501.067 796.083L388.789 608.663H571.182L501.067 796.083Z" fill="url(#paint0_linear_21_503)"/>
<path d="M1491.12 867.818V1144.87C1491.12 1144.87 1886.98 1119.36 1886.98 1127.51C1886.98 1135.66 1908 881.577 1908 881.577L1491.12 867.818Z" fill="url(#paint1_linear_21_503)"/>
<path d="M965.424 178.519H999.269V300.215L965.424 297.81" fill="url(#paint2_linear_21_503)"/>
<path d="M968.082 351.511H992.917V416.434H972.818" fill="url(#paint3_linear_21_503)"/>
<path d="M1597.16 672.383H1552.69L1586.65 723.145L1597.16 672.383Z" fill="url(#paint4_linear_21_503)"/>
<path d="M151.297 1048.02L167.815 1095.98L207.32 1074.74L196.577 1035.2L151.297 1048.02Z" fill="url(#paint5_linear_21_503)"/>
<path d="M219.566 960.66C199.813 959.324 180.176 957.854 160.424 956.518C153.955 956.118 153.955 967.74 160.424 968.14C180.176 969.476 199.813 970.946 219.566 972.281C226.034 972.816 226.034 961.194 219.566 960.66Z" fill="url(#paint6_linear_21_503)"/>
<path d="M1104.04 309.031C1099.07 313.306 1094.22 317.581 1089.25 321.855C1084.05 326.264 1089.14 336.416 1094.33 331.874C1099.3 327.6 1104.15 323.325 1109.12 319.05C1114.32 314.642 1109.24 304.489 1104.04 309.031Z" fill="url(#paint7_linear_21_503)"/>
<path d="M1364.17 1328.42L1688.64 1176.8L1517.8 1564.33L1130.49 1843.12L1364.17 1328.42Z" fill="#000200"/>
<path d="M1130.49 1849C1129.22 1849 1128.07 1848.47 1127.03 1847.4C1125.41 1845.66 1124.95 1842.72 1125.99 1840.45L1359.67 1325.75C1360.24 1324.54 1361.17 1323.61 1362.21 1323.08L1686.68 1171.46C1688.64 1170.52 1690.84 1171.19 1692.34 1172.93C1693.73 1174.66 1694.07 1177.33 1693.15 1179.47L1522.31 1567C1521.85 1567.94 1521.27 1568.74 1520.46 1569.27L1133.15 1848.06C1132.34 1848.73 1131.42 1849 1130.49 1849ZM1367.75 1333.09L1143.54 1826.82L1513.88 1560.32L1678.02 1188.15L1367.75 1333.09Z" fill="#000200"/>
<path d="M1130.49 1849C1129.68 1849 1128.76 1848.73 1127.95 1848.2L855.69 1667.46C854.073 1666.39 853.148 1664.39 853.148 1662.25C853.148 1660.11 854.304 1658.11 855.921 1657.17L1010.13 1566.07C1012.67 1564.6 1015.67 1565.8 1016.94 1568.6C1018.21 1571.54 1017.18 1575.02 1014.75 1576.49L868.858 1662.65L1133.03 1838.05C1135.46 1839.65 1136.27 1843.26 1134.88 1846.06C1133.96 1847.93 1132.22 1849 1130.49 1849Z" fill="#000200"/>
<path d="M1033 1701.92C1032.42 1701.92 1031.73 1701.79 1031.15 1701.52L975.822 1677.08C973.974 1676.27 972.703 1674.27 972.588 1672.13C972.472 1669.86 973.396 1667.73 975.129 1666.66L1022.6 1635.13C1024.11 1634.06 1025.95 1634.06 1027.57 1635.13L1075.05 1665.19C1076.66 1666.26 1077.7 1668.13 1077.7 1670.26C1077.7 1672.4 1076.78 1674.4 1075.16 1675.34L1035.43 1701.39C1034.73 1701.66 1033.92 1701.92 1033 1701.92ZM989.452 1670.53L1032.65 1689.63L1062.46 1670.13L1025.38 1646.62L989.452 1670.53Z" fill="#000200"/>
<path d="M1201.42 1455.86C1199.45 1455.86 1197.72 1454.66 1196.8 1452.39C1195.64 1449.45 1196.8 1445.97 1199.34 1444.64L1234.22 1426.2C1236.76 1424.87 1239.77 1426.2 1240.92 1429.14C1242.08 1432.08 1240.92 1435.55 1238.38 1436.89L1203.5 1455.32C1202.8 1455.73 1202.11 1455.86 1201.42 1455.86Z" fill="#000200"/>
<path d="M1460.05 1240.12C1459.35 1240.12 1458.66 1239.99 1457.97 1239.59C1456.12 1238.65 1454.96 1236.51 1454.96 1234.24V906.023C1454.96 904.42 1455.54 902.951 1456.46 901.882C1457.39 900.814 1458.66 900.279 1460.16 900.279L1877.04 914.039C1878.43 914.039 1879.82 914.84 1880.74 916.042C1881.66 917.245 1882.13 918.848 1882.01 920.451C1882.01 920.451 1876.93 982.033 1871.73 1043.48C1869.19 1074.21 1866.53 1105.07 1864.57 1128.04C1862.83 1147.81 1861.91 1158.63 1860.99 1164.64C1861.1 1165.04 1861.1 1165.31 1861.1 1165.71H1860.87C1859.72 1171.99 1858.56 1171.86 1855.9 1171.72C1854.86 1171.72 1853.82 1171.19 1853.02 1170.39C1834.53 1166.51 1643.48 1175.46 1516.18 1182.68L1463.74 1238.65C1462.59 1239.59 1461.32 1240.12 1460.05 1240.12ZM1465.13 911.901V1220.88L1510.41 1172.53C1511.33 1171.59 1512.37 1171.06 1513.64 1170.92C1708.4 1159.84 1821.83 1155.96 1851.63 1159.17C1854.4 1129.64 1866.18 988.98 1871.5 925.26L1465.13 911.901Z" fill="#000200"/>
<path d="M1785.79 1047.22H1540.67C1537.9 1047.22 1535.59 1044.55 1535.59 1041.34C1535.59 1038.14 1537.9 1035.47 1540.67 1035.47H1785.79C1788.56 1035.47 1790.87 1038.14 1790.87 1041.34C1790.87 1044.55 1788.56 1047.22 1785.79 1047.22Z" fill="#000200"/>
<path d="M387.404 1009.15C385.902 1009.15 384.4 1008.35 383.476 1007.01L102.783 603.186C101.859 601.85 101.512 599.98 101.743 598.243C102.09 596.507 103.129 595.037 104.515 594.236L686.464 267.887C689.005 266.552 691.893 267.62 693.163 270.559L889.302 720.607C889.88 721.943 889.995 723.68 889.533 725.149C889.071 726.619 888.147 727.821 886.992 728.489L389.598 1008.62C388.905 1009.02 388.097 1009.15 387.404 1009.15ZM114.68 601.583L388.79 996.06L877.982 720.474L686.464 280.845L114.68 601.583Z" fill="#000200"/>
<path d="M523.016 780.053C521.399 780.053 519.782 779.117 518.858 777.514L406.58 590.095C405.541 588.358 405.425 585.953 406.234 584.083C407.158 582.213 408.775 581.011 410.739 581.011H593.132C594.864 581.011 596.366 581.946 597.406 583.682C598.33 585.285 598.445 587.423 597.868 589.159L527.637 776.579C526.944 778.583 525.326 779.919 523.478 780.053C523.363 780.053 523.132 780.053 523.016 780.053ZM420.442 592.633L521.976 762.286L585.508 592.633H420.442Z" fill="#000200"/>
<path d="M977.783 552.156H807.75C804.978 552.156 802.667 549.484 802.667 546.278C802.667 543.072 804.978 540.4 807.75 540.4H972.354L953.641 162.622H598.558L608.03 320.787C608.261 323.993 606.066 326.798 603.294 327.065C600.522 327.199 598.096 324.928 597.865 321.588L588.047 157.279C587.931 155.675 588.393 154.072 589.433 152.87C590.357 151.668 591.743 151 593.129 151H958.493C961.15 151 963.344 153.405 963.575 156.477L982.75 546.011C982.866 547.614 982.288 549.217 981.364 550.419C980.44 551.488 979.169 552.156 977.783 552.156Z" fill="#000200"/>
<path d="M881.561 233.021H678.954C676.181 233.021 673.871 230.35 673.871 227.144C673.871 223.938 676.181 221.266 678.954 221.266H881.561C884.334 221.266 886.644 223.938 886.644 227.144C886.644 230.35 884.449 233.021 881.561 233.021Z" fill="#000200"/>
<path d="M881.561 306.092H730.934C728.162 306.092 725.852 303.421 725.852 300.215C725.852 297.009 728.162 294.337 730.934 294.337H881.677C884.449 294.337 886.76 297.009 886.76 300.215C886.644 303.421 884.449 306.092 881.561 306.092Z" fill="#000200"/>
<path d="M615.656 1287.01C611.382 1287.01 607.339 1284.47 603.527 1279.39C599.715 1274.32 595.788 1264.97 599.368 1248.8C609.302 1204.19 670.524 1135.39 745.722 1104.26C811.679 1077.01 896.118 1093.31 1013.13 1116.02C1107.27 1134.32 1224.52 1157.03 1366.02 1161.84C1368.79 1161.97 1370.99 1164.64 1370.87 1167.85C1370.76 1171.06 1368.21 1173.59 1365.67 1173.46C1223.36 1168.52 1105.89 1145.81 1011.4 1127.37C896.003 1104.93 812.603 1088.77 749.072 1115.08C670.293 1147.68 617.273 1215.27 609.187 1251.47C607.801 1257.62 606.992 1266.03 611.151 1271.38C612.19 1272.85 614.269 1275.25 615.887 1274.99C619.583 1274.72 625.359 1264.57 630.557 1255.48C642.223 1235.04 658.048 1207.12 687.735 1208.19C690.507 1208.33 692.702 1211 692.586 1214.2C692.471 1217.41 689.814 1219.95 687.388 1219.81C663.477 1219.01 649.847 1242.79 638.873 1261.89C631.25 1275.25 625.128 1285.94 616.464 1286.61C616.233 1287.01 615.887 1287.01 615.656 1287.01Z" fill="#000200"/>
<path d="M637.371 1344.98C632.058 1344.98 627.206 1342.98 623.394 1338.97C617.85 1333.09 615.655 1324.14 617.619 1314.53C621.199 1296.76 650.424 1243.59 696.167 1201.11C698.361 1199.11 701.48 1199.51 703.213 1202.05C704.945 1204.59 704.599 1208.19 702.404 1210.2C656.084 1253.34 629.978 1304.24 627.322 1317.2C626.282 1322.67 627.206 1327.35 630.094 1330.42C632.982 1333.5 637.487 1334.3 642.107 1332.43C644.764 1331.36 647.652 1333.09 648.46 1336.17C649.384 1339.24 647.883 1342.58 645.226 1343.51C642.685 1344.45 639.912 1344.98 637.371 1344.98Z" fill="#000200"/>
<path d="M661.515 1370.1C657.703 1370.1 654.238 1369.16 651.235 1367.29C647.538 1365.02 641.416 1359.01 641.416 1344.85C641.416 1316.93 692.934 1254.15 727.588 1218.88C729.667 1216.74 732.901 1217.01 734.75 1219.41C736.598 1221.82 736.367 1225.56 734.287 1227.7C688.66 1274.18 651.581 1326.82 651.581 1344.85C651.581 1350.99 653.083 1355.14 656.202 1357.14C660.706 1359.95 668.446 1358.34 675.492 1353.27C677.802 1351.53 680.921 1352.33 682.423 1355C683.924 1357.67 683.231 1361.28 680.921 1363.02C674.452 1367.69 667.637 1370.1 661.515 1370.1Z" fill="#000200"/>
<path d="M690.624 1382.65C687.39 1382.65 682.885 1381.45 678.957 1375.71C674.683 1369.43 673.182 1361.95 674.221 1353.4C679.419 1312.39 746.416 1256.82 754.04 1250.67C756.35 1248.8 759.469 1249.47 761.086 1252.14C762.703 1254.81 762.126 1258.42 759.816 1260.29C735.327 1280.19 687.852 1325.75 684.155 1355.14C683.462 1360.48 684.386 1364.89 686.812 1368.49C688.314 1370.77 689.584 1371.03 690.508 1371.03C698.248 1371.03 711.532 1351.93 718.578 1341.64C722.159 1336.43 725.046 1332.43 727.241 1329.89C752.885 1302.37 788.578 1299.03 820.459 1298.9C823.231 1298.9 825.542 1301.57 825.542 1304.77C825.542 1307.98 823.231 1310.65 820.459 1310.65C819.766 1310.79 819.189 1310.65 818.495 1310.65C787.885 1310.65 756.697 1314.26 734.172 1338.44C732.439 1340.31 729.551 1344.45 726.433 1348.86C716.152 1363.95 703.215 1382.65 690.624 1382.65Z" fill="#000200"/>
<path d="M892.307 1095.71C886.762 1091.71 881.679 1101.86 887.224 1105.73C948.214 1149.68 966.35 1238.12 929.27 1309.45C925.921 1315.86 934.699 1321.74 937.934 1315.33C977.785 1238.65 957.917 1143 892.307 1095.71Z" fill="#000200"/>
<path d="M950.986 1110.81C950.178 1110.94 949.369 1111.21 948.445 1111.21C944.864 1111.34 941.514 1112.01 938.049 1112.68C989.452 1167.05 997.537 1252.68 956.877 1318.67C953.065 1324.81 961.844 1330.69 965.541 1324.55C1007.12 1256.95 1000.43 1168.79 950.986 1110.81Z" fill="#000200"/>
<path d="M1304.8 1444.64C1248.31 1444.64 1186.05 1430.48 1123.45 1396.28C1120.9 1394.94 1119.87 1391.47 1121.02 1388.53C1122.18 1385.59 1125.18 1384.39 1127.72 1385.73C1264.49 1460.4 1399.17 1437.16 1471.95 1381.19C1514.68 1348.32 1537.32 1303.71 1535.48 1255.62C1534.55 1231.97 1525.89 1206.59 1509.83 1180.27C1508.22 1177.6 1508.79 1173.99 1510.99 1172.12C1513.3 1170.25 1516.42 1170.92 1518.03 1173.46C1535.36 1201.65 1544.6 1229.03 1545.53 1255.08C1547.49 1307.45 1523.35 1355.67 1477.61 1390.94C1435.91 1423 1374.92 1444.64 1304.8 1444.64Z" fill="#000200"/>
<path d="M1463.4 1106.4C1365.33 1008.88 1211.23 932.606 1153.36 914.706C1153.48 918.714 1153.36 922.721 1153.25 926.729C1212.16 945.698 1361.4 1020.37 1456.93 1115.35C1457.85 1116.29 1459.01 1116.82 1460.16 1116.82C1461.55 1116.82 1462.94 1116.15 1463.97 1114.82C1465.71 1112.14 1465.48 1108.54 1463.4 1106.4Z" fill="#000200"/>
<path d="M1092.14 1110.27L1053.1 1129.78L1139.5 1144.87C1122.52 1135.39 1106.35 1124.43 1092.14 1110.27Z" fill="#000200"/>
<path d="M1138.58 1674.14C1128.87 1674.14 1118.82 1663.98 1103.23 1648.22C1089.25 1634.06 1069.96 1614.56 1042.47 1593.59C984.715 1549.64 855.111 1534.54 686.926 1552.04C583.196 1562.86 396.529 1565 311.166 1456.79C272.238 1407.5 259.185 1340.71 272.238 1258.29C305.044 1051.1 681.843 919.515 697.899 914.038C700.556 913.103 703.328 914.84 704.137 917.912C704.945 920.985 703.444 924.191 700.787 925.126C567.14 970.946 307.585 1100.12 282.172 1260.29C269.697 1338.97 282.057 1402.43 318.674 1448.78C401.149 1553.11 584.236 1550.84 686.001 1540.29C856.381 1522.52 988.411 1538.28 1048.02 1583.7C1076.2 1605.07 1095.72 1624.84 1109.93 1639.41C1123.79 1653.43 1133.73 1663.58 1139.73 1662.38C1141.58 1661.98 1143.08 1658.91 1143.66 1654.5C1145.62 1638.2 1134.42 1598.53 1077.36 1565C1074.81 1563.53 1073.89 1560.06 1075.16 1557.12C1076.43 1554.18 1079.43 1553.11 1081.98 1554.58C1143.89 1591.18 1156.13 1635.66 1153.59 1656.24C1152.44 1665.99 1147.93 1672.53 1141.58 1673.87C1140.66 1674 1139.62 1674.14 1138.58 1674.14Z" fill="#000200"/>
<path d="M1167.45 1673.87C1157.98 1673.87 1147.35 1664.25 1143.77 1651.96C1142.85 1648.89 1144.35 1645.55 1146.89 1644.61C1149.55 1643.55 1152.44 1645.28 1153.25 1648.22C1155.79 1656.77 1163.53 1662.92 1168.26 1662.11C1171.96 1661.45 1172.42 1654.9 1172.42 1651.16C1172.42 1608.68 1150.59 1571.54 1107.39 1540.82C1104.96 1539.08 1104.27 1535.48 1105.77 1532.8C1107.27 1530 1110.39 1529.2 1112.7 1530.93C1158.33 1563.53 1182.47 1605.21 1182.47 1651.29C1182.47 1669.46 1173.58 1673.07 1169.76 1673.74C1169.07 1673.87 1168.26 1673.87 1167.45 1673.87Z" fill="#000200"/>
<path d="M1204.88 1655.97C1193.56 1655.97 1182.35 1641.41 1178.66 1621.91C1173.58 1594.65 1149.66 1575.02 1149.43 1574.88C1147.12 1573.01 1133.84 1557.25 1135.46 1554.58C1137.07 1551.91 1152.9 1563.53 1155.21 1565.27C1156.36 1566.2 1182.59 1587.57 1188.48 1619.37C1191.48 1635.8 1200.03 1644.21 1204.99 1644.21C1208.23 1644.08 1210.77 1639.14 1211.69 1630.99C1214.7 1604.27 1198.29 1540.82 1146.55 1515.3C1144.7 1514.37 1143.43 1512.23 1143.43 1509.83C1143.43 1507.42 1144.81 1505.29 1146.66 1504.48C1147.12 1504.22 1195.64 1483.78 1227.98 1543.09C1252.24 1587.44 1259.52 1595.32 1260.79 1596.52C1262.52 1597.46 1263.79 1599.46 1263.79 1601.73C1263.79 1604.94 1261.6 1607.61 1258.82 1607.75C1256.28 1607.75 1251.43 1608.01 1219.32 1549.24C1201.3 1516.24 1178.2 1511.56 1163.87 1512.37C1207.19 1542.02 1225.44 1598.8 1221.63 1632.46C1219.32 1652.9 1209.5 1655.57 1205.34 1655.7C1205.23 1655.84 1205.11 1655.97 1204.88 1655.97Z" fill="#000200"/>
<path d="M1265.29 1552.04C1263.33 1552.04 1261.48 1550.7 1260.67 1548.57C1233.99 1480.57 1177.74 1423.8 1093.3 1379.72C1002.27 1332.16 908.015 1308.38 820.689 1310.52C817.454 1310.52 815.606 1307.98 815.49 1304.77C815.375 1301.57 817.685 1298.9 820.457 1298.76C909.286 1296.36 1005.05 1320.8 1097.45 1369.03C1184.09 1414.31 1242.08 1473.09 1269.8 1543.62C1270.95 1546.56 1269.8 1550.04 1267.26 1551.37C1266.68 1551.91 1265.99 1552.04 1265.29 1552.04Z" fill="#000200"/>
<path d="M1009.78 1333.5C1007.7 1332.43 1005.62 1331.36 1003.55 1330.42C912.522 1342.45 865.047 1458.53 915.294 1547.37C918.182 1548.3 921.185 1548.97 924.073 1549.64C925.575 1547.9 926.152 1545.23 924.651 1542.69C877.06 1460.8 920.261 1351.93 1005.39 1341.78C1009.44 1341.38 1010.82 1336.7 1009.78 1333.5Z" fill="#000200"/>
<path d="M961.729 1319.74C876.25 1335.37 828.775 1452.79 875.326 1540.95C878.676 1547.37 887.455 1541.49 883.989 1535.08C839.633 1450.78 888.263 1335.63 973.742 1329.89C976.399 1329.76 978.016 1327.62 978.478 1325.21C972.818 1323.48 967.273 1321.87 961.729 1319.74Z" fill="#000200"/>
<path d="M494.945 1281.4C492.635 1281.4 490.671 1279.66 490.094 1276.99C489.401 1273.92 491.018 1270.71 493.79 1269.91C524.054 1261.23 604.45 1269.37 607.8 1269.78C610.572 1270.04 612.652 1272.85 612.421 1276.05C612.19 1279.26 609.764 1281.66 606.992 1281.4C606.183 1281.26 524.863 1272.98 496.331 1281.26C495.754 1281.26 495.292 1281.4 494.945 1281.4Z" fill="#000200"/>
<path d="M881.332 850.853C925.342 843.639 956.53 686.81 956.53 686.81C982.29 714.329 1132.34 735.702 1153.36 723.145C1153.36 653.681 1106.81 599.579 1004.47 599.579C883.412 599.579 842.982 657.956 842.982 751.332C842.982 844.708 842.982 844.708 842.982 844.708L844.022 846.712C861.58 844.307 863.544 850.986 881.332 850.853Z" fill="#000200"/>
<path d="M1071.81 947.835C1069.04 947.835 1066.73 945.164 1066.73 941.958C1066.73 938.752 1069.04 936.08 1071.81 936.08C1081.28 936.08 1089.02 933.141 1092.6 928.198C1094.68 925.393 1095.38 922.054 1094.68 917.912C1093.3 908.695 1075.62 903.485 1067.19 902.417C1064.65 902.149 1062.69 899.611 1062.69 896.672V843.238C1062.69 840.032 1065 837.361 1067.77 837.361C1070.54 837.361 1072.85 840.032 1072.85 843.238V891.596C1082.21 893.466 1102.31 899.478 1104.62 915.909C1105.66 923.389 1104.15 930.202 1100.23 935.679C1094.68 943.561 1084.63 947.835 1071.81 947.835Z" fill="#000200"/>
<path d="M1107.39 832.017V843.639C1107.39 858.6 1127.6 858.734 1127.6 843.639V832.017C1127.6 817.056 1107.39 817.056 1107.39 832.017Z" fill="#000200"/>
<path d="M972.355 832.017V843.639C972.355 858.6 992.57 858.734 992.57 843.639V832.017C992.57 817.056 972.355 817.056 972.355 832.017Z" fill="#000200"/>
<path d="M982.751 777.114C974.666 779.117 966.811 781.655 959.187 785.529C953.18 788.468 958.378 798.621 964.27 795.548C971.085 792.209 978.246 790.205 985.408 788.335C991.877 786.732 989.105 775.511 982.751 777.114Z" fill="#000200"/>
<path d="M1128.64 774.976C1122.98 772.171 1116.74 770.568 1111.32 767.228C1105.66 763.755 1099.88 773.507 1105.65 776.846C1112.01 780.587 1118.82 782.724 1125.29 785.93C1131.3 788.869 1134.65 777.915 1128.64 774.976Z" fill="#000200"/>
<path d="M1008.74 976.556C1001.23 975.22 991.185 971.213 990.608 960.793C990.261 953.312 980.096 953.312 980.558 960.793C981.367 976.69 993.496 985.506 1006.09 987.777C1012.44 988.846 1015.21 977.625 1008.74 976.556Z" fill="#000200"/>
<path d="M1030.69 1129.91C1028.15 1129.91 1025.84 1127.64 1025.61 1124.57C1025.37 1121.36 1027.45 1118.56 1030.23 1118.29C1060.95 1115.35 1086.13 1107.87 1103 1096.65C1151.86 1064.05 1150.13 960.659 1147.24 789.403C1146.89 771.236 1146.66 752.4 1146.31 732.763C1145.16 647.135 1098.72 605.457 1004.58 605.457C896.347 605.457 848.064 650.475 848.064 751.465V844.841C848.064 848.047 845.753 850.719 842.981 850.719C840.209 850.719 837.898 848.047 837.898 844.841V751.465C837.898 643.929 890.803 593.835 1004.47 593.835C1103.92 593.835 1155.09 640.59 1156.36 732.63C1156.6 752.267 1156.94 771.102 1157.29 789.27C1160.29 964.8 1162.02 1070.87 1108.08 1106.93C1089.71 1119.22 1063.84 1126.97 1031.15 1130.18C1030.92 1129.91 1030.8 1129.91 1030.69 1129.91Z" fill="#000200"/>
<path d="M881.909 839.231C848.757 837.361 825.424 843.506 812.602 857.666C803.592 867.551 801.744 879.173 801.744 887.054C801.744 898.943 805.903 910.165 813.526 918.58C820.342 926.195 833.163 934.878 856.035 934.878H856.497C860.193 950.24 869.665 1004.61 826.695 1027.05C830.738 1029.19 834.896 1030.93 839.17 1032.66C886.068 999.667 865.276 927.798 865.045 927.13C864.352 924.725 862.503 922.989 860.078 923.256C842.635 924.057 829.005 919.515 820.573 910.298C813.064 901.882 811.909 892.264 811.909 887.188C811.909 878.906 814.566 871.959 819.648 866.215C830.276 854.46 851.645 849.25 881.563 850.986C884.104 851.12 886.761 848.715 886.876 845.509C886.761 842.17 884.682 839.364 881.909 839.231Z" fill="#000200"/>
<path d="M892.19 644.731C834.319 641.124 787.999 686.409 779.682 751.331C716.959 729.424 654.467 762.419 610.688 815.586C579.846 853.123 550.968 918.313 590.242 958.789C588.625 962.529 591.282 968.541 596.018 967.472C667.982 949.839 757.734 934.076 804.286 1017.3C827.85 1059.51 860.309 1019.57 864.814 981.766C865.16 978.693 865.276 975.754 865.276 972.815C865.969 971.88 866.547 970.812 866.662 969.342C867.586 957.453 867.933 943.56 859.731 934.744C855.457 930.202 850.144 928.064 844.946 928.732C841.943 926.461 838.708 924.324 835.589 922.32C834.203 922.053 832.817 921.652 831.431 921.118C821.035 917.244 812.487 908.294 809.253 896.004C802.091 869.421 821.728 848.581 843.56 849.116C846.447 846.845 849.104 844.574 851.183 842.303C893.461 794.079 892.421 720.073 889.302 656.352C890.342 656.352 891.266 656.352 892.306 656.352C898.659 656.753 898.659 645.131 892.19 644.731Z" fill="#000200"/>
<path d="M1261.94 973.751C1262.4 973.484 1262.75 973.083 1263.1 972.682C1264.14 972.282 1265.06 971.614 1265.75 970.278C1285.97 931.404 1296.59 881.444 1276.84 839.364C1261.59 806.77 1231.56 787.8 1200.26 791.808C1199.91 748.259 1192.98 693.757 1143.54 672.383C1143.43 671.715 1147.35 683.203 1143.54 685.474C1144.35 686.142 1145.27 686.81 1146.2 687.612C1156.48 764.69 1158.1 842.437 1151.28 920.183C1150.7 927.263 1221.97 943.427 1252.01 969.61C1255.47 970.812 1258.71 972.281 1261.94 973.751Z" fill="#000200"/>
<path d="M862.156 1101.06C866.083 1101.19 869.895 1101.19 873.823 1101.32C874.631 1098.65 873.707 1095.71 871.512 1094.38C848.526 1079.28 848.064 1027.45 848.064 1026.92C848.064 1023.71 845.753 1021.04 842.981 1021.04C840.209 1021.04 837.898 1023.71 837.898 1026.92C837.898 1029.19 838.36 1079.95 862.156 1101.06Z" fill="#000200"/>
<path d="M916.448 1082.22L906.398 1102.53L957.917 1109.34C943.94 1100.52 930.078 1091.57 916.448 1082.22Z" fill="#000200"/>
<path d="M957.917 1115.08C957.686 1115.08 957.57 1115.08 957.339 1115.08L905.821 1108.27C904.088 1108 902.702 1106.8 901.894 1105.06C901.085 1103.33 901.2 1101.19 902.009 1099.59L912.059 1079.28C912.752 1077.95 913.907 1076.88 915.177 1076.48C916.448 1076.08 917.834 1076.34 918.989 1077.15C932.389 1086.36 946.135 1095.18 960.227 1104.13C962.306 1105.47 963.346 1108.4 962.653 1111.08C961.96 1113.48 959.996 1115.08 957.917 1115.08ZM914.484 1097.72L933.082 1100.12C928.115 1096.92 923.148 1093.58 918.181 1090.24L914.484 1097.72Z" fill="#000200"/>
<path d="M979.863 884.516C972.817 884.516 965.655 882.646 958.955 878.772C941.397 868.619 931.232 848.047 931.232 822.265C931.232 819.059 933.427 816.387 936.199 816.387C938.741 816.521 941.282 818.926 941.282 822.132C941.397 843.372 949.483 860.203 963.46 868.218C975.358 875.031 989.45 873.963 999.153 865.547C1010.36 855.929 1014.52 838.295 1011.05 815.987C1010.59 812.781 1012.44 809.842 1015.09 809.174C1017.87 808.639 1020.41 810.777 1020.99 813.849C1026.65 850.184 1013.48 867.684 1005.16 874.898C998.114 881.31 989.104 884.516 979.863 884.516Z" fill="#000200"/>
<path d="M1123.1 877.837C1116.86 877.837 1110.62 876.1 1104.85 872.761C1088.56 863.142 1079.09 842.17 1079.09 815.052C1079.09 811.846 1081.4 809.174 1084.17 809.174C1086.94 809.174 1089.25 811.846 1089.25 815.052C1089.25 837.628 1096.65 854.86 1109.47 862.341C1119.52 868.219 1131.3 867.15 1140.31 859.669C1151.4 850.318 1156.02 832.819 1153.13 811.712C1152.67 808.506 1154.52 805.567 1157.29 805.033C1160.06 804.499 1162.6 806.636 1163.06 809.842C1166.65 835.49 1160.52 857.131 1146.2 869.02C1139.39 874.898 1131.3 877.837 1123.1 877.837Z" fill="#000200"/>
<path d="M1017.41 843.772C1015.67 843.772 1013.94 842.704 1013.02 840.7C1011.63 837.895 1012.55 834.288 1014.98 832.818C1016.48 831.883 1053.1 809.174 1086.37 827.475C1088.91 828.811 1089.95 832.284 1088.79 835.223C1087.64 838.162 1084.63 839.364 1082.09 838.028C1053.45 822.265 1020.29 842.971 1019.95 843.105C1019.14 843.505 1018.21 843.772 1017.41 843.772Z" fill="#000200"/>
<path d="M855.305 1705.38L973.049 1806.58C975.196 1808.42 975.448 1811.57 973.62 1813.69L891.803 1908.89C889.975 1911.02 886.827 1911.24 884.68 1909.4C882.533 1907.55 882.28 1904.41 884.109 1902.28L962.65 1810.89L848.664 1712.93C846.517 1711.08 846.264 1707.94 848.093 1705.81C850.01 1703.76 853.158 1703.54 855.305 1705.38Z" fill="#000200"/>
<path d="M1143.04 217.266C1146.09 215.703 1148.94 214.57 1151.59 213.867C1154.33 213.086 1157.02 212.578 1159.68 212.344C1162.41 212.031 1165.15 211.875 1167.88 211.875C1170.7 211.875 1173.74 211.875 1177.02 211.875C1177.65 211.875 1178.7 211.914 1180.19 211.992C1181.75 211.992 1183.39 211.992 1185.11 211.992C1186.91 211.992 1188.55 211.992 1190.03 211.992C1191.52 211.992 1192.57 211.992 1193.2 211.992C1194.05 212.305 1194.72 212.852 1195.19 213.633C1195.66 214.414 1196.01 215.234 1196.24 216.094C1196.48 216.953 1196.63 217.852 1196.71 218.789C1196.79 219.648 1196.83 220.312 1196.83 220.781H1158.16V245.977H1200.11C1200.11 248.633 1199.29 250.742 1197.65 252.305C1196.01 253.789 1193.94 254.961 1191.44 255.82C1189.02 256.68 1186.28 257.266 1183.23 257.578C1180.19 257.812 1177.3 257.93 1174.56 257.93C1171.83 257.852 1169.41 257.734 1167.3 257.578C1165.19 257.422 1163.78 257.344 1163.08 257.344V259.805C1163.08 263.086 1163.86 266.211 1165.42 269.18C1166.98 272.07 1168.7 274.883 1170.58 277.617C1172.53 280.352 1174.29 283.047 1175.85 285.703C1177.49 288.359 1178.31 291.055 1178.31 293.789C1178.31 295.508 1177.96 297.031 1177.26 298.359C1176.55 299.609 1175.27 300.234 1173.39 300.234C1171.44 300.234 1169.48 299.219 1167.53 297.188C1165.66 295.156 1163.82 292.461 1162.02 289.102C1160.23 285.664 1158.51 281.758 1156.87 277.383C1155.3 272.93 1153.78 268.32 1152.3 263.555C1150.89 258.711 1149.6 253.945 1148.43 249.258C1147.34 244.492 1146.4 240.078 1145.62 236.016C1144.84 231.875 1144.21 228.242 1143.74 225.117C1143.27 221.992 1143.04 219.727 1143.04 218.32V217.266ZM1210.54 256.055C1210.54 255.586 1210.54 254.844 1210.54 253.828C1210.62 252.734 1210.66 251.602 1210.66 250.43C1210.73 249.258 1210.77 248.125 1210.77 247.031C1210.85 245.938 1210.89 245.156 1210.89 244.688C1211.75 243.438 1212.84 242.422 1214.17 241.641C1215.58 240.859 1216.98 240.234 1218.39 239.766C1218.62 243.984 1219.29 248.477 1220.38 253.242C1221.48 258.008 1222.65 262.812 1223.9 267.656C1225.15 272.422 1226.24 277.148 1227.18 281.836C1228.2 286.523 1228.7 290.898 1228.7 294.961C1228.7 298.477 1226.91 300.234 1223.31 300.234C1221.12 300.234 1219.29 299.336 1217.8 297.539C1216.32 295.742 1215.11 293.477 1214.17 290.742C1213.31 287.93 1212.61 284.844 1212.06 281.484C1211.52 278.047 1211.12 274.688 1210.89 271.406C1210.73 268.125 1210.62 265.117 1210.54 262.383C1210.54 259.648 1210.54 257.539 1210.54 256.055ZM1212.18 212.109C1213.66 212.734 1214.91 213.75 1215.93 215.156C1216.95 216.562 1217.38 217.852 1217.22 219.023C1217.14 220.117 1216.28 220.898 1214.64 221.367C1213 221.758 1210.27 221.289 1206.44 219.961C1206.44 217.852 1206.83 216.016 1207.61 214.453C1208.47 212.891 1209.99 212.109 1212.18 212.109ZM1233.27 260.508C1233.27 258.477 1233.78 257.031 1234.8 256.172C1235.81 255.234 1237.45 254.766 1239.72 254.766H1240.89C1241.12 256.016 1241.4 257.461 1241.71 259.102C1242.02 260.742 1242.49 262.422 1243.12 264.141C1243.74 265.859 1244.48 267.461 1245.34 268.945C1246.2 270.352 1247.26 271.484 1248.51 272.344C1248.59 269.609 1249.25 266.992 1250.5 264.492C1251.83 261.914 1253.43 259.648 1255.3 257.695C1257.26 255.664 1259.37 253.984 1261.63 252.656C1263.98 251.25 1266.28 250.312 1268.55 249.844H1271.12C1274.88 249.844 1278.08 250.703 1280.73 252.422C1283.39 254.062 1285.58 256.25 1287.3 258.984C1289.09 261.641 1290.46 264.688 1291.4 268.125C1292.34 271.562 1293.04 275.078 1293.51 278.672C1294.05 282.188 1294.37 285.625 1294.45 288.984C1294.6 292.266 1294.68 295.078 1294.68 297.422H1286.12C1285.66 292.734 1285.07 288.242 1284.37 283.945C1284.13 282.227 1283.82 280.43 1283.43 278.555C1283.04 276.602 1282.61 274.805 1282.14 273.164C1281.67 271.445 1281.16 269.883 1280.62 268.477C1280.07 266.992 1279.45 265.742 1278.74 264.727C1278.43 264.414 1278 263.984 1277.45 263.438C1276.98 262.891 1276.48 262.344 1275.93 261.797C1275.38 261.25 1274.88 260.781 1274.41 260.391C1273.94 260 1273.66 259.805 1273.59 259.805C1271.24 259.18 1269.21 259.648 1267.49 261.211C1265.77 262.695 1264.25 264.727 1262.92 267.305C1261.59 269.883 1260.5 272.812 1259.64 276.094C1258.86 279.375 1258.2 282.539 1257.65 285.586C1257.1 288.555 1256.71 291.172 1256.48 293.438C1256.24 295.625 1256.09 296.953 1256.01 297.422C1254.05 298.828 1252.22 299.258 1250.5 298.711C1248.78 298.086 1247.14 296.836 1245.58 294.961C1244.09 293.086 1242.73 290.742 1241.48 287.93C1240.3 285.117 1239.21 282.148 1238.2 279.023C1237.18 275.82 1236.24 272.617 1235.38 269.414C1234.6 266.211 1233.9 263.242 1233.27 260.508ZM1351.52 284.883C1348.55 286.914 1345.97 288.75 1343.78 290.391C1341.67 291.953 1339.6 293.281 1337.57 294.375C1335.54 295.469 1333.35 296.289 1331.01 296.836C1328.74 297.383 1325.93 297.656 1322.57 297.656C1315.3 297.656 1309.91 295.742 1306.4 291.914C1302.88 288.008 1301.12 282.227 1301.12 274.57C1301.12 271.602 1301.52 268.516 1302.3 265.312C1303.08 262.109 1304.21 258.945 1305.7 255.82C1307.26 252.617 1309.09 249.609 1311.2 246.797C1313.31 243.906 1315.7 241.367 1318.35 239.18C1321.01 236.992 1323.82 235.273 1326.79 234.023C1329.84 232.695 1333.04 232.031 1336.4 232.031C1342.02 232.578 1346.44 233.984 1349.64 236.25C1352.84 238.438 1355.27 241.289 1356.91 244.805C1358.55 248.242 1359.68 252.109 1360.3 256.406C1360.93 260.625 1361.4 265 1361.71 269.531C1362.1 274.062 1362.57 278.594 1363.12 283.125C1363.66 287.656 1364.8 291.836 1366.52 295.664C1365.5 298.242 1364.52 300.039 1363.59 301.055C1362.73 302.148 1361.75 302.344 1360.66 301.641C1359.56 300.938 1358.27 299.219 1356.79 296.484C1355.38 293.75 1353.62 289.883 1351.52 284.883ZM1311.09 274.805C1311.09 279.258 1311.91 282.539 1313.55 284.648C1315.27 286.68 1318.27 287.695 1322.57 287.695C1325.77 287.695 1328.82 287.148 1331.71 286.055C1334.68 284.883 1337.26 283.32 1339.45 281.367C1341.63 279.336 1343.39 276.914 1344.72 274.102C1346.05 271.289 1346.71 268.164 1346.71 264.727C1346.71 263.32 1346.75 261.367 1346.83 258.867C1346.91 256.289 1346.75 253.75 1346.36 251.25C1345.97 248.75 1345.23 246.602 1344.13 244.805C1343.04 242.93 1341.4 241.992 1339.21 241.992C1335.15 241.992 1331.4 243.047 1327.96 245.156C1324.52 247.188 1321.55 249.805 1319.05 253.008C1316.55 256.211 1314.6 259.766 1313.2 263.672C1311.79 267.5 1311.09 271.211 1311.09 274.805ZM1376.71 233.672C1376.71 231.406 1376.55 229.219 1376.24 227.109C1375.93 224.922 1375.85 223.008 1376.01 221.367C1376.16 219.648 1376.75 218.281 1377.77 217.266C1378.86 216.25 1380.81 215.742 1383.62 215.742C1384.48 217.539 1385.3 220.273 1386.09 223.945C1386.95 227.617 1387.77 231.836 1388.55 236.602C1389.33 241.367 1390.07 246.562 1390.77 252.188C1391.48 257.734 1392.1 263.32 1392.65 268.945C1393.27 274.57 1393.78 280.117 1394.17 285.586C1394.64 290.977 1394.99 295.898 1395.23 300.352C1392.65 302.07 1390.58 302.188 1389.02 300.703C1387.45 299.219 1386.16 296.719 1385.15 293.203C1384.13 289.609 1383.35 285.273 1382.8 280.195C1382.26 275.039 1381.71 269.727 1381.16 264.258C1380.7 258.711 1380.11 253.281 1379.41 247.969C1378.7 242.578 1377.8 237.812 1376.71 233.672ZM1404.13 233.672C1404.13 231.406 1403.98 229.219 1403.66 227.109C1403.35 224.922 1403.27 223.008 1403.43 221.367C1403.59 219.648 1404.17 218.281 1405.19 217.266C1406.28 216.25 1408.23 215.742 1411.05 215.742C1411.91 217.539 1412.73 220.273 1413.51 223.945C1414.37 227.617 1415.19 231.836 1415.97 236.602C1416.75 241.367 1417.49 246.562 1418.2 252.188C1418.9 257.734 1419.52 263.32 1420.07 268.945C1420.7 274.57 1421.2 280.117 1421.59 285.586C1422.06 290.977 1422.41 295.898 1422.65 300.352C1420.07 302.07 1418 302.188 1416.44 300.703C1414.88 299.219 1413.59 296.719 1412.57 293.203C1411.55 289.609 1410.77 285.273 1410.23 280.195C1409.68 275.039 1409.13 269.727 1408.59 264.258C1408.12 258.711 1407.53 253.281 1406.83 247.969C1406.12 242.578 1405.23 237.812 1404.13 233.672ZM1426.75 239.414C1426.75 238.711 1426.75 238.008 1426.75 237.305C1426.83 236.523 1426.98 235.82 1427.22 235.195C1427.53 234.492 1427.92 233.984 1428.39 233.672C1428.94 233.281 1429.72 233.086 1430.73 233.086C1430.81 233.086 1430.89 233.086 1430.97 233.086C1431.12 233.086 1431.28 233.086 1431.44 233.086C1431.67 233.164 1431.87 233.203 1432.02 233.203C1433.51 235.234 1434.8 237.852 1435.89 241.055C1436.98 244.18 1438.04 247.539 1439.05 251.133C1440.07 254.648 1441.16 258.242 1442.34 261.914C1443.51 265.508 1445.03 268.75 1446.91 271.641C1448.78 274.531 1451.09 276.836 1453.82 278.555C1456.55 280.273 1459.95 281.016 1464.02 280.781C1465.81 280.781 1466.98 279.805 1467.53 277.852C1468.08 275.898 1468.35 273.398 1468.35 270.352C1468.43 267.305 1468.35 263.945 1468.12 260.273C1467.96 256.602 1467.96 253.125 1468.12 249.844C1468.35 246.484 1468.94 243.555 1469.88 241.055C1470.89 238.555 1472.61 236.875 1475.03 236.016C1476.05 238.047 1476.87 241.25 1477.49 245.625C1478.2 249.922 1478.7 254.922 1479.02 260.625C1479.33 266.25 1479.48 272.383 1479.48 279.023C1479.48 285.586 1479.33 292.148 1479.02 298.711C1478.7 305.195 1478.23 311.445 1477.61 317.461C1476.98 323.477 1476.28 328.75 1475.5 333.281C1474.72 337.812 1473.78 341.367 1472.69 343.945C1471.67 346.602 1470.58 347.734 1469.41 347.344C1467.77 345.781 1466.48 343.75 1465.54 341.25C1464.68 338.75 1464.05 335.977 1463.66 332.93C1463.35 329.883 1463.23 326.641 1463.31 323.203C1463.39 319.844 1463.51 316.445 1463.66 313.008C1463.9 309.57 1464.13 306.211 1464.37 302.93C1464.68 299.648 1464.84 296.641 1464.84 293.906C1462.02 294.141 1459.13 293.711 1456.16 292.617C1453.27 291.523 1450.42 289.844 1447.61 287.578C1444.8 285.234 1442.1 282.422 1439.52 279.141C1437.02 275.859 1434.8 272.148 1432.84 268.008C1430.97 263.867 1429.48 259.414 1428.39 254.648C1427.3 249.805 1426.75 244.727 1426.75 239.414ZM1563.04 294.727C1564.29 293.867 1565.77 292.773 1567.49 291.445C1569.29 290.039 1571.09 288.555 1572.88 286.992C1574.68 285.43 1576.36 283.789 1577.92 282.07C1579.48 280.352 1580.7 278.711 1581.55 277.148C1582.49 275.508 1582.96 273.984 1582.96 272.578C1582.96 271.172 1582.26 270 1580.85 269.062C1578.35 269.062 1575.62 269.18 1572.65 269.414C1569.68 269.57 1566.71 269.648 1563.74 269.648C1560.77 269.57 1557.88 269.297 1555.07 268.828C1552.34 268.359 1549.88 267.5 1547.69 266.25C1545.5 265 1543.74 263.242 1542.41 260.977C1541.16 258.633 1540.54 255.664 1540.54 252.07C1540.54 247.852 1541.32 244.062 1542.88 240.703C1544.52 237.266 1546.67 234.258 1549.33 231.68C1551.98 229.023 1554.95 226.719 1558.23 224.766C1561.59 222.734 1564.95 221.016 1568.31 219.609C1570.34 220.156 1572.22 221.133 1573.94 222.539C1575.66 223.945 1577.14 225.508 1578.39 227.227C1577.84 228.945 1576.75 230.273 1575.11 231.211C1573.55 232.148 1571.71 232.969 1569.6 233.672C1567.57 234.375 1565.42 235.117 1563.16 235.898C1560.89 236.68 1558.82 237.734 1556.95 239.062C1555.15 240.312 1553.62 241.992 1552.38 244.102C1551.12 246.133 1550.5 248.828 1550.5 252.188C1550.5 254.688 1551.12 256.523 1552.38 257.695C1553.62 258.867 1555.27 259.688 1557.3 260.156C1559.33 260.547 1561.63 260.703 1564.21 260.625C1566.79 260.469 1569.41 260.273 1572.06 260.039C1574.8 259.805 1577.45 259.688 1580.03 259.688C1582.61 259.609 1584.91 259.922 1586.95 260.625C1588.98 261.25 1590.58 262.305 1591.75 263.789C1593 265.273 1593.62 267.461 1593.62 270.352C1593.62 271.602 1593.2 273.203 1592.34 275.156C1591.55 277.109 1590.46 279.219 1589.05 281.484C1587.73 283.672 1586.12 285.859 1584.25 288.047C1582.45 290.234 1580.54 292.227 1578.51 294.023C1576.55 295.742 1574.56 297.188 1572.53 298.359C1570.58 299.453 1568.74 300 1567.02 300C1565.38 300 1564.29 299.414 1563.74 298.242C1563.27 297.07 1563.04 295.898 1563.04 294.727ZM1598.31 276.211C1598.31 271.367 1599.45 266.875 1601.71 262.734C1603.98 258.516 1606.95 254.922 1610.62 251.953C1614.37 248.906 1618.55 246.523 1623.16 244.805C1627.84 243.086 1632.57 242.227 1637.34 242.227C1639.99 242.227 1642.34 243.086 1644.37 244.805C1646.48 246.523 1648.23 248.633 1649.64 251.133C1651.05 253.555 1652.1 256.133 1652.8 258.867C1653.59 261.602 1653.98 263.984 1653.98 266.016C1653.98 270.391 1652.92 274.648 1650.81 278.789C1648.7 282.852 1645.97 286.484 1642.61 289.688C1639.25 292.812 1635.46 295.352 1631.24 297.305C1627.02 299.258 1622.8 300.234 1618.59 300.234C1614.84 300.234 1611.67 299.609 1609.09 298.359C1606.52 297.031 1604.45 295.312 1602.88 293.203C1601.32 291.016 1600.15 288.477 1599.37 285.586C1598.66 282.617 1598.31 279.492 1598.31 276.211ZM1608.27 277.383C1608.27 279.414 1608.43 281.211 1608.74 282.773C1609.13 284.258 1609.76 285.547 1610.62 286.641C1611.55 287.734 1612.77 288.594 1614.25 289.219C1615.73 289.766 1617.57 290.039 1619.76 290.039C1622.65 290.039 1625.54 289.258 1628.43 287.695C1631.32 286.055 1633.9 284.023 1636.16 281.602C1638.51 279.102 1640.38 276.367 1641.79 273.398C1643.2 270.43 1643.9 267.539 1643.9 264.727C1643.9 263.477 1643.78 262.109 1643.55 260.625C1643.31 259.141 1642.92 257.773 1642.38 256.523C1641.83 255.273 1641.05 254.219 1640.03 253.359C1639.02 252.5 1637.73 252.07 1636.16 252.07C1634.76 252.07 1633.08 252.539 1631.12 253.477C1629.25 254.414 1627.26 255.625 1625.15 257.109C1623.12 258.594 1621.09 260.273 1619.05 262.148C1617.1 264.023 1615.3 265.898 1613.66 267.773C1612.02 269.648 1610.7 271.445 1609.68 273.164C1608.74 274.883 1608.27 276.289 1608.27 277.383ZM1655.97 250.781C1655.97 248.828 1656.28 247.305 1656.91 246.211C1657.61 245.117 1659.05 244.57 1661.24 244.57C1661.48 244.57 1661.91 244.609 1662.53 244.688C1663.23 244.688 1663.66 244.688 1663.82 244.688C1664.37 247.109 1664.91 249.766 1665.46 252.656C1666.09 255.469 1666.79 258.32 1667.57 261.211C1668.35 264.102 1669.21 266.953 1670.15 269.766C1671.16 272.578 1672.38 275.117 1673.78 277.383C1675.19 275.898 1676.2 274.141 1676.83 272.109C1677.45 270.078 1677.92 268.047 1678.23 266.016C1678.55 263.906 1678.82 261.914 1679.05 260.039C1679.37 258.086 1679.95 256.445 1680.81 255.117C1681.67 253.711 1682.92 252.695 1684.56 252.07C1686.28 251.445 1688.62 251.445 1691.59 252.07C1694.88 252.07 1697.49 252.695 1699.45 253.945C1701.4 255.117 1703.08 256.641 1704.48 258.516C1705.97 260.312 1707.38 262.266 1708.7 264.375C1710.11 266.406 1711.87 268.242 1713.98 269.883C1714.45 268.867 1715.03 267.617 1715.73 266.133C1716.44 264.57 1717.3 262.969 1718.31 261.328C1719.41 259.609 1720.54 257.93 1721.71 256.289C1722.96 254.57 1724.25 253.047 1725.58 251.719C1726.91 250.312 1728.27 249.18 1729.68 248.32C1731.09 247.383 1732.45 246.914 1733.78 246.914C1736.98 246.914 1739.76 247.93 1742.1 249.961C1744.45 251.914 1746.44 254.414 1748.08 257.461C1749.8 260.43 1751.2 263.789 1752.3 267.539C1753.39 271.211 1754.25 274.766 1754.88 278.203C1755.5 281.641 1755.93 284.805 1756.16 287.695C1756.48 290.508 1756.63 292.539 1756.63 293.789C1756.63 294.805 1756.4 295.586 1755.93 296.133C1755.46 296.68 1754.88 297.109 1754.17 297.422C1753.47 297.656 1752.69 297.812 1751.83 297.891C1751.05 297.969 1750.3 298.008 1749.6 298.008C1749.45 298.008 1749.21 298.008 1748.9 298.008C1748.59 297.93 1748.23 297.852 1747.84 297.773C1747.53 297.695 1747.1 297.578 1746.55 297.422L1738.94 262.383C1738.94 262.148 1738.62 261.719 1738 261.094C1737.38 260.391 1736.91 259.961 1736.59 259.805C1736.36 259.805 1736.16 259.766 1736.01 259.688C1735.85 259.688 1735.73 259.688 1735.66 259.688C1735.58 259.609 1735.5 259.57 1735.42 259.57C1733.78 259.57 1732.22 260.234 1730.73 261.562C1729.33 262.891 1728 264.57 1726.75 266.602C1725.5 268.633 1724.33 270.898 1723.23 273.398C1722.14 275.898 1721.16 278.398 1720.3 280.898C1719.45 283.32 1718.66 285.586 1717.96 287.695C1717.34 289.727 1716.83 291.289 1716.44 292.383C1716.12 292.539 1715.5 292.695 1714.56 292.852C1713.62 292.93 1713 292.969 1712.69 292.969C1710.5 292.969 1708.82 292.227 1707.65 290.742C1706.48 289.18 1705.5 287.266 1704.72 285C1704.02 282.734 1703.39 280.273 1702.84 277.617C1702.38 274.883 1701.75 272.383 1700.97 270.117C1700.27 267.852 1699.25 265.977 1697.92 264.492C1696.67 262.93 1694.88 262.148 1692.53 262.148C1691.67 262.148 1690.85 263.008 1690.07 264.727C1689.29 266.445 1688.59 268.633 1687.96 271.289C1687.34 273.867 1686.75 276.68 1686.2 279.727C1685.66 282.695 1685.19 285.508 1684.8 288.164C1684.48 290.742 1684.25 292.93 1684.09 294.727C1683.94 296.523 1683.86 297.422 1683.86 297.422C1683.7 297.656 1683.39 297.93 1682.92 298.242C1682.45 298.477 1681.95 298.75 1681.4 299.062C1680.93 299.375 1680.42 299.609 1679.88 299.766C1679.41 299.922 1679.05 300 1678.82 300C1676.63 300 1674.52 299.023 1672.49 297.07C1670.46 295.039 1668.59 292.461 1666.87 289.336C1665.23 286.133 1663.7 282.617 1662.3 278.789C1660.97 274.961 1659.84 271.211 1658.9 267.539C1657.96 263.867 1657.22 260.547 1656.67 257.578C1656.2 254.609 1655.97 252.344 1655.97 250.781ZM1761.44 267.422C1761.44 263.203 1761.95 258.984 1762.96 254.766C1763.98 250.547 1765.58 246.758 1767.77 243.398C1770.03 240.039 1772.92 237.305 1776.44 235.195C1780.03 233.086 1784.37 232.031 1789.45 232.031C1792.34 232.031 1794.88 232.578 1797.06 233.672C1799.25 234.688 1801.09 236.055 1802.57 237.773C1804.05 239.492 1805.15 241.523 1805.85 243.867C1806.63 246.133 1807.02 248.516 1807.02 251.016C1807.02 255 1806.09 258.867 1804.21 262.617C1802.41 266.367 1799.95 269.688 1796.83 272.578C1793.78 275.391 1790.27 277.539 1786.28 279.023C1782.3 280.43 1778.23 280.742 1774.09 279.961C1774.17 282.227 1774.91 284.062 1776.32 285.469C1777.8 286.797 1779.56 287.812 1781.59 288.516C1783.62 289.219 1785.73 289.688 1787.92 289.922C1790.11 290.078 1792.06 290.156 1793.78 290.156C1795.58 290.156 1797.26 290 1798.82 289.688C1800.38 289.375 1801.95 289.023 1803.51 288.633C1805.07 288.242 1806.63 287.891 1808.2 287.578C1809.84 287.266 1811.55 287.109 1813.35 287.109C1814.05 287.109 1814.76 287.148 1815.46 287.227C1816.16 287.305 1816.83 287.5 1817.45 287.812C1818.08 288.047 1818.59 288.477 1818.98 289.102C1819.37 289.648 1819.56 290.352 1819.56 291.211C1819.56 292.695 1819.02 293.945 1817.92 294.961C1816.83 295.898 1815.42 296.719 1813.7 297.422C1812.06 298.125 1810.23 298.672 1808.2 299.062C1806.16 299.375 1804.17 299.648 1802.22 299.883C1800.34 300.039 1798.59 300.117 1796.95 300.117C1795.38 300.195 1794.21 300.234 1793.43 300.234C1788.43 300.234 1783.94 299.453 1779.95 297.891C1775.97 296.25 1772.61 294.023 1769.88 291.211C1767.14 288.32 1765.03 284.883 1763.55 280.898C1762.14 276.836 1761.44 272.344 1761.44 267.422ZM1773.86 259.805C1773.86 262.539 1774.21 264.531 1774.91 265.781C1775.7 267.031 1777.53 267.656 1780.42 267.656C1782.45 267.656 1784.45 267.305 1786.4 266.602C1788.35 265.82 1790.11 264.766 1791.67 263.438C1793.31 262.109 1794.6 260.547 1795.54 258.75C1796.48 256.953 1796.95 255 1796.95 252.891C1796.95 251.719 1796.83 250.508 1796.59 249.258C1796.44 248.008 1796.05 246.875 1795.42 245.859C1794.8 244.766 1793.98 243.906 1792.96 243.281C1792.02 242.578 1790.77 242.227 1789.21 242.227C1786.87 242.227 1784.72 242.773 1782.77 243.867C1780.89 244.883 1779.29 246.25 1777.96 247.969C1776.63 249.609 1775.62 251.484 1774.91 253.594C1774.21 255.625 1773.86 257.695 1773.86 259.805ZM1826.83 276.211C1826.83 271.367 1827.96 266.875 1830.23 262.734C1832.49 258.516 1835.46 254.922 1839.13 251.953C1842.88 248.906 1847.06 246.523 1851.67 244.805C1856.36 243.086 1861.09 242.227 1865.85 242.227C1868.51 242.227 1870.85 243.086 1872.88 244.805C1874.99 246.523 1876.75 248.633 1878.16 251.133C1879.56 253.555 1880.62 256.133 1881.32 258.867C1882.1 261.602 1882.49 263.984 1882.49 266.016C1882.49 270.391 1881.44 274.648 1879.33 278.789C1877.22 282.852 1874.48 286.484 1871.12 289.688C1867.77 292.812 1863.98 295.352 1859.76 297.305C1855.54 299.258 1851.32 300.234 1847.1 300.234C1843.35 300.234 1840.19 299.609 1837.61 298.359C1835.03 297.031 1832.96 295.312 1831.4 293.203C1829.84 291.016 1828.66 288.477 1827.88 285.586C1827.18 282.617 1826.83 279.492 1826.83 276.211ZM1836.79 277.383C1836.79 279.414 1836.95 281.211 1837.26 282.773C1837.65 284.258 1838.27 285.547 1839.13 286.641C1840.07 287.734 1841.28 288.594 1842.77 289.219C1844.25 289.766 1846.09 290.039 1848.27 290.039C1851.16 290.039 1854.05 289.258 1856.95 287.695C1859.84 286.055 1862.41 284.023 1864.68 281.602C1867.02 279.102 1868.9 276.367 1870.3 273.398C1871.71 270.43 1872.41 267.539 1872.41 264.727C1872.41 263.477 1872.3 262.109 1872.06 260.625C1871.83 259.141 1871.44 257.773 1870.89 256.523C1870.34 255.273 1869.56 254.219 1868.55 253.359C1867.53 252.5 1866.24 252.07 1864.68 252.07C1863.27 252.07 1861.59 252.539 1859.64 253.477C1857.77 254.414 1855.77 255.625 1853.66 257.109C1851.63 258.594 1849.6 260.273 1847.57 262.148C1845.62 264.023 1843.82 265.898 1842.18 267.773C1840.54 269.648 1839.21 271.445 1838.2 273.164C1837.26 274.883 1836.79 276.289 1836.79 277.383ZM1887.06 260.508C1887.06 258.477 1887.57 257.031 1888.59 256.172C1889.6 255.234 1891.24 254.766 1893.51 254.766H1894.68C1894.91 256.016 1895.19 257.461 1895.5 259.102C1895.81 260.742 1896.28 262.422 1896.91 264.141C1897.53 265.859 1898.27 267.461 1899.13 268.945C1899.99 270.352 1901.05 271.484 1902.3 272.344C1902.38 269.609 1903.04 266.992 1904.29 264.492C1905.62 261.914 1907.22 259.648 1909.09 257.695C1911.05 255.664 1913.16 253.984 1915.42 252.656C1917.77 251.25 1920.07 250.312 1922.34 249.844H1924.91C1928.66 249.844 1931.87 250.703 1934.52 252.422C1937.18 254.062 1939.37 256.25 1941.09 258.984C1942.88 261.641 1944.25 264.688 1945.19 268.125C1946.12 271.562 1946.83 275.078 1947.3 278.672C1947.84 282.188 1948.16 285.625 1948.23 288.984C1948.39 292.266 1948.47 295.078 1948.47 297.422H1939.91C1939.45 292.734 1938.86 288.242 1938.16 283.945C1937.92 282.227 1937.61 280.43 1937.22 278.555C1936.83 276.602 1936.4 274.805 1935.93 273.164C1935.46 271.445 1934.95 269.883 1934.41 268.477C1933.86 266.992 1933.23 265.742 1932.53 264.727C1932.22 264.414 1931.79 263.984 1931.24 263.438C1930.77 262.891 1930.27 262.344 1929.72 261.797C1929.17 261.25 1928.66 260.781 1928.2 260.391C1927.73 260 1927.45 259.805 1927.38 259.805C1925.03 259.18 1923 259.648 1921.28 261.211C1919.56 262.695 1918.04 264.727 1916.71 267.305C1915.38 269.883 1914.29 272.812 1913.43 276.094C1912.65 279.375 1911.98 282.539 1911.44 285.586C1910.89 288.555 1910.5 291.172 1910.27 293.438C1910.03 295.625 1909.88 296.953 1909.8 297.422C1907.84 298.828 1906.01 299.258 1904.29 298.711C1902.57 298.086 1900.93 296.836 1899.37 294.961C1897.88 293.086 1896.52 290.742 1895.27 287.93C1894.09 285.117 1893 282.148 1891.98 279.023C1890.97 275.82 1890.03 272.617 1889.17 269.414C1888.39 266.211 1887.69 263.242 1887.06 260.508ZM1954.91 267.422C1954.91 263.203 1955.42 258.984 1956.44 254.766C1957.45 250.547 1959.05 246.758 1961.24 243.398C1963.51 240.039 1966.4 237.305 1969.91 235.195C1973.51 233.086 1977.84 232.031 1982.92 232.031C1985.81 232.031 1988.35 232.578 1990.54 233.672C1992.73 234.688 1994.56 236.055 1996.05 237.773C1997.53 239.492 1998.62 241.523 1999.33 243.867C2000.11 246.133 2000.5 248.516 2000.5 251.016C2000.5 255 1999.56 258.867 1997.69 262.617C1995.89 266.367 1993.43 269.688 1990.3 272.578C1987.26 275.391 1983.74 277.539 1979.76 279.023C1975.77 280.43 1971.71 280.742 1967.57 279.961C1967.65 282.227 1968.39 284.062 1969.8 285.469C1971.28 286.797 1973.04 287.812 1975.07 288.516C1977.1 289.219 1979.21 289.688 1981.4 289.922C1983.59 290.078 1985.54 290.156 1987.26 290.156C1989.05 290.156 1990.73 290 1992.3 289.688C1993.86 289.375 1995.42 289.023 1996.98 288.633C1998.55 288.242 2000.11 287.891 2001.67 287.578C2003.31 287.266 2005.03 287.109 2006.83 287.109C2007.53 287.109 2008.23 287.148 2008.94 287.227C2009.64 287.305 2010.3 287.5 2010.93 287.812C2011.55 288.047 2012.06 288.477 2012.45 289.102C2012.84 289.648 2013.04 290.352 2013.04 291.211C2013.04 292.695 2012.49 293.945 2011.4 294.961C2010.3 295.898 2008.9 296.719 2007.18 297.422C2005.54 298.125 2003.7 298.672 2001.67 299.062C1999.64 299.375 1997.65 299.648 1995.7 299.883C1993.82 300.039 1992.06 300.117 1990.42 300.117C1988.86 300.195 1987.69 300.234 1986.91 300.234C1981.91 300.234 1977.41 299.453 1973.43 297.891C1969.45 296.25 1966.09 294.023 1963.35 291.211C1960.62 288.32 1958.51 284.883 1957.02 280.898C1955.62 276.836 1954.91 272.344 1954.91 267.422ZM1967.34 259.805C1967.34 262.539 1967.69 264.531 1968.39 265.781C1969.17 267.031 1971.01 267.656 1973.9 267.656C1975.93 267.656 1977.92 267.305 1979.88 266.602C1981.83 265.82 1983.59 264.766 1985.15 263.438C1986.79 262.109 1988.08 260.547 1989.02 258.75C1989.95 256.953 1990.42 255 1990.42 252.891C1990.42 251.719 1990.3 250.508 1990.07 249.258C1989.91 248.008 1989.52 246.875 1988.9 245.859C1988.27 244.766 1987.45 243.906 1986.44 243.281C1985.5 242.578 1984.25 242.227 1982.69 242.227C1980.34 242.227 1978.2 242.773 1976.24 243.867C1974.37 244.883 1972.77 246.25 1971.44 247.969C1970.11 249.609 1969.09 251.484 1968.39 253.594C1967.69 255.625 1967.34 257.695 1967.34 259.805ZM1294.33 488.938C1294.33 488.703 1294.37 488.508 1294.45 488.352C1294.45 488.195 1294.49 488 1294.56 487.766C1294.88 487.375 1295.35 486.867 1295.97 486.242C1296.6 485.617 1296.99 485.305 1297.14 485.305H1320.7C1320.7 484.445 1320.58 483.078 1320.35 481.203C1320.11 479.328 1319.88 477.258 1319.64 474.992C1319.49 472.727 1319.45 470.383 1319.53 467.961C1319.6 465.461 1319.92 463.234 1320.46 461.281C1321.09 459.25 1322.03 457.609 1323.28 456.359C1324.6 455.031 1326.44 454.367 1328.78 454.367C1328.78 462.258 1329.33 468.586 1330.42 473.352C1331.52 478.117 1332.96 481.789 1334.76 484.367C1336.64 486.945 1338.74 488.625 1341.09 489.406C1343.43 490.188 1345.81 490.539 1348.24 490.461C1350.74 490.305 1353.16 489.914 1355.5 489.289C1357.85 488.664 1359.92 488.234 1361.71 488C1363.59 487.766 1365.07 487.961 1366.17 488.586C1367.26 489.133 1367.81 490.5 1367.81 492.688C1367.81 494.328 1367.42 495.5 1366.64 496.203C1365.93 496.906 1364.53 497.453 1362.42 497.844C1361.79 497.922 1360.74 498.078 1359.25 498.312C1357.85 498.469 1356.24 498.625 1354.45 498.781C1352.65 498.938 1350.74 499.133 1348.71 499.367C1346.67 499.523 1344.76 499.68 1342.96 499.836C1341.17 499.992 1339.53 500.109 1338.04 500.188C1336.56 500.188 1335.46 500.188 1334.76 500.188C1334.76 500.578 1334.72 501.242 1334.64 502.18C1334.56 503.117 1334.53 503.742 1334.53 504.055C1334.53 507.492 1335.07 510.852 1336.17 514.133C1337.26 517.336 1338.43 520.539 1339.68 523.742C1341.01 526.945 1342.22 530.148 1343.31 533.352C1344.41 536.555 1344.96 539.875 1344.96 543.312C1344.96 543.938 1344.88 544.602 1344.72 545.305C1344.64 545.93 1344.41 546.516 1344.02 547.062C1343.71 547.531 1343.2 547.883 1342.49 548.117C1341.87 548.43 1340.97 548.391 1339.8 548C1336.83 547.219 1334.6 545.539 1333.12 542.961C1331.71 540.383 1330.66 537.336 1329.96 533.82C1329.25 530.227 1328.78 526.438 1328.55 522.453C1328.31 518.469 1327.92 514.758 1327.38 511.32C1326.91 507.805 1326.13 504.836 1325.03 502.414C1323.94 499.914 1322.18 498.391 1319.76 497.844L1297.14 492.688C1296.83 492.688 1296.36 492.375 1295.74 491.75C1295.11 491.047 1294.72 490.539 1294.56 490.227C1294.49 490.07 1294.45 489.875 1294.45 489.641C1294.37 489.484 1294.33 489.25 1294.33 488.938ZM1372.26 524.211C1372.26 519.367 1373.39 514.875 1375.66 510.734C1377.92 506.516 1380.89 502.922 1384.56 499.953C1388.31 496.906 1392.49 494.523 1397.1 492.805C1401.79 491.086 1406.52 490.227 1411.28 490.227C1413.94 490.227 1416.28 491.086 1418.31 492.805C1420.42 494.523 1422.18 496.633 1423.59 499.133C1424.99 501.555 1426.05 504.133 1426.75 506.867C1427.53 509.602 1427.92 511.984 1427.92 514.016C1427.92 518.391 1426.87 522.648 1424.76 526.789C1422.65 530.852 1419.92 534.484 1416.56 537.688C1413.2 540.812 1409.41 543.352 1405.19 545.305C1400.97 547.258 1396.75 548.234 1392.53 548.234C1388.78 548.234 1385.62 547.609 1383.04 546.359C1380.46 545.031 1378.39 543.312 1376.83 541.203C1375.27 539.016 1374.1 536.477 1373.31 533.586C1372.61 530.617 1372.26 527.492 1372.26 524.211ZM1382.22 525.383C1382.22 527.414 1382.38 529.211 1382.69 530.773C1383.08 532.258 1383.71 533.547 1384.56 534.641C1385.5 535.734 1386.71 536.594 1388.2 537.219C1389.68 537.766 1391.52 538.039 1393.71 538.039C1396.6 538.039 1399.49 537.258 1402.38 535.695C1405.27 534.055 1407.85 532.023 1410.11 529.602C1412.46 527.102 1414.33 524.367 1415.74 521.398C1417.14 518.43 1417.85 515.539 1417.85 512.727C1417.85 511.477 1417.73 510.109 1417.49 508.625C1417.26 507.141 1416.87 505.773 1416.32 504.523C1415.78 503.273 1414.99 502.219 1413.98 501.359C1412.96 500.5 1411.67 500.07 1410.11 500.07C1408.71 500.07 1407.03 500.539 1405.07 501.477C1403.2 502.414 1401.21 503.625 1399.1 505.109C1397.06 506.594 1395.03 508.273 1393 510.148C1391.05 512.023 1389.25 513.898 1387.61 515.773C1385.97 517.648 1384.64 519.445 1383.63 521.164C1382.69 522.883 1382.22 524.289 1382.22 525.383ZM1489.92 471.828C1489.92 470.969 1489.99 469.914 1490.15 468.664C1490.39 467.336 1490.74 466.086 1491.21 464.914C1491.75 463.742 1492.42 462.766 1493.2 461.984C1493.98 461.125 1494.99 460.695 1496.24 460.695C1496.32 460.695 1496.52 460.734 1496.83 460.812C1497.14 460.891 1497.34 460.93 1497.42 460.93C1498.74 465.773 1499.53 470.578 1499.76 475.344C1499.99 480.109 1499.92 484.758 1499.53 489.289C1499.14 493.742 1498.55 498.078 1497.77 502.297C1496.99 506.438 1496.32 510.266 1495.78 513.781C1495.31 517.297 1494.99 520.461 1494.84 523.273C1494.76 526.086 1495.19 528.469 1496.13 530.422C1495.97 529.172 1495.85 527.688 1495.78 525.969C1495.78 524.172 1495.93 522.336 1496.24 520.461C1496.64 518.586 1497.22 516.711 1498 514.836C1498.86 512.961 1500.07 511.281 1501.64 509.797C1503.2 508.312 1505.19 507.141 1507.61 506.281C1510.11 505.422 1513.2 504.992 1516.87 504.992C1520.7 504.992 1523.98 505.656 1526.71 506.984C1529.53 508.312 1531.83 510.148 1533.63 512.492C1535.42 514.758 1536.75 517.453 1537.61 520.578C1538.55 523.625 1539.02 526.906 1539.02 530.422C1539.02 532.062 1538.98 533.938 1538.9 536.047C1538.9 538.078 1538.63 539.992 1538.08 541.789C1537.61 543.508 1536.71 544.992 1535.39 546.242C1534.14 547.414 1532.26 548 1529.76 548C1529.76 546.75 1529.84 545.07 1529.99 542.961C1530.15 540.773 1530.23 538.469 1530.23 536.047C1530.31 533.625 1530.23 531.164 1529.99 528.664C1529.84 526.164 1529.33 523.938 1528.47 521.984C1527.61 519.953 1526.4 518.312 1524.84 517.062C1523.35 515.734 1521.28 515.07 1518.63 515.07C1517.69 515.07 1516.52 515.148 1515.11 515.305C1513.78 515.383 1512.42 515.734 1511.01 516.359C1509.6 516.984 1508.24 517.961 1506.91 519.289C1505.58 520.539 1504.53 522.297 1503.74 524.562C1502.96 526.75 1502.49 529.562 1502.34 533C1502.26 536.359 1502.69 540.5 1503.63 545.422C1503.08 546.828 1502.38 547.648 1501.52 547.883C1500.74 548.117 1499.72 548.234 1498.47 548.234C1495.97 548.234 1493.9 547.375 1492.26 545.656C1490.7 543.859 1489.49 541.477 1488.63 538.508C1487.77 535.539 1487.18 532.102 1486.87 528.195C1486.64 524.289 1486.56 520.227 1486.64 516.008C1486.71 511.711 1486.91 507.375 1487.22 503C1487.61 498.547 1487.96 494.367 1488.28 490.461C1488.67 486.477 1489.02 482.883 1489.33 479.68C1489.72 476.398 1489.92 473.781 1489.92 471.828ZM1543.71 515.422C1543.71 511.203 1544.21 506.984 1545.23 502.766C1546.24 498.547 1547.85 494.758 1550.03 491.398C1552.3 488.039 1555.19 485.305 1558.71 483.195C1562.3 481.086 1566.64 480.031 1571.71 480.031C1574.6 480.031 1577.14 480.578 1579.33 481.672C1581.52 482.688 1583.35 484.055 1584.84 485.773C1586.32 487.492 1587.42 489.523 1588.12 491.867C1588.9 494.133 1589.29 496.516 1589.29 499.016C1589.29 503 1588.35 506.867 1586.48 510.617C1584.68 514.367 1582.22 517.688 1579.1 520.578C1576.05 523.391 1572.53 525.539 1568.55 527.023C1564.56 528.43 1560.5 528.742 1556.36 527.961C1556.44 530.227 1557.18 532.062 1558.59 533.469C1560.07 534.797 1561.83 535.812 1563.86 536.516C1565.89 537.219 1568 537.688 1570.19 537.922C1572.38 538.078 1574.33 538.156 1576.05 538.156C1577.85 538.156 1579.53 538 1581.09 537.688C1582.65 537.375 1584.21 537.023 1585.78 536.633C1587.34 536.242 1588.9 535.891 1590.46 535.578C1592.1 535.266 1593.82 535.109 1595.62 535.109C1596.32 535.109 1597.03 535.148 1597.73 535.227C1598.43 535.305 1599.1 535.5 1599.72 535.812C1600.35 536.047 1600.85 536.477 1601.24 537.102C1601.64 537.648 1601.83 538.352 1601.83 539.211C1601.83 540.695 1601.28 541.945 1600.19 542.961C1599.1 543.898 1597.69 544.719 1595.97 545.422C1594.33 546.125 1592.49 546.672 1590.46 547.062C1588.43 547.375 1586.44 547.648 1584.49 547.883C1582.61 548.039 1580.85 548.117 1579.21 548.117C1577.65 548.195 1576.48 548.234 1575.7 548.234C1570.7 548.234 1566.21 547.453 1562.22 545.891C1558.24 544.25 1554.88 542.023 1552.14 539.211C1549.41 536.32 1547.3 532.883 1545.81 528.898C1544.41 524.836 1543.71 520.344 1543.71 515.422ZM1556.13 507.805C1556.13 510.539 1556.48 512.531 1557.18 513.781C1557.96 515.031 1559.8 515.656 1562.69 515.656C1564.72 515.656 1566.71 515.305 1568.67 514.602C1570.62 513.82 1572.38 512.766 1573.94 511.438C1575.58 510.109 1576.87 508.547 1577.81 506.75C1578.74 504.953 1579.21 503 1579.21 500.891C1579.21 499.719 1579.1 498.508 1578.86 497.258C1578.71 496.008 1578.31 494.875 1577.69 493.859C1577.06 492.766 1576.24 491.906 1575.23 491.281C1574.29 490.578 1573.04 490.227 1571.48 490.227C1569.14 490.227 1566.99 490.773 1565.03 491.867C1563.16 492.883 1561.56 494.25 1560.23 495.969C1558.9 497.609 1557.89 499.484 1557.18 501.594C1556.48 503.625 1556.13 505.695 1556.13 507.805ZM1611.91 481.672C1611.91 479.406 1611.75 477.219 1611.44 475.109C1611.13 472.922 1611.05 471.008 1611.21 469.367C1611.36 467.648 1611.95 466.281 1612.96 465.266C1614.06 464.25 1616.01 463.742 1618.82 463.742C1619.68 465.539 1620.5 468.273 1621.28 471.945C1622.14 475.617 1622.96 479.836 1623.74 484.602C1624.53 489.367 1625.27 494.562 1625.97 500.188C1626.67 505.734 1627.3 511.32 1627.85 516.945C1628.47 522.57 1628.98 528.117 1629.37 533.586C1629.84 538.977 1630.19 543.898 1630.42 548.352C1627.85 550.07 1625.78 550.188 1624.21 548.703C1622.65 547.219 1621.36 544.719 1620.35 541.203C1619.33 537.609 1618.55 533.273 1618 528.195C1617.46 523.039 1616.91 517.727 1616.36 512.258C1615.89 506.711 1615.31 501.281 1614.6 495.969C1613.9 490.578 1613 485.812 1611.91 481.672ZM1636.52 504.758C1636.52 497.18 1638.28 491.555 1641.79 487.883C1645.31 484.211 1650.7 482.375 1657.96 482.375C1660.93 482.375 1663.98 482.648 1667.1 483.195C1670.31 483.742 1673.24 484.719 1675.89 486.125C1678.55 487.453 1680.7 489.328 1682.34 491.75C1684.06 494.172 1684.92 497.297 1684.92 501.125C1684.92 505.344 1683.98 509.328 1682.1 513.078C1680.31 516.75 1678 520.227 1675.19 523.508C1672.46 526.711 1669.41 529.719 1666.05 532.531C1662.77 535.266 1659.68 537.883 1656.79 540.383C1656.64 540.695 1656.48 541.359 1656.32 542.375C1656.24 543.312 1656.21 543.938 1656.21 544.25C1656.21 546.828 1656.95 549.406 1658.43 551.984C1659.99 554.641 1661.67 557.297 1663.47 559.953C1665.27 562.688 1666.91 565.5 1668.39 568.391C1669.88 571.281 1670.62 574.289 1670.62 577.414C1670.62 579.289 1670.23 580.383 1669.45 580.695C1668.67 581.086 1667.03 581.281 1664.53 581.281C1662.96 580.656 1661.4 579.172 1659.84 576.828C1658.35 574.562 1656.83 571.75 1655.27 568.391C1653.78 565.031 1652.3 561.242 1650.81 557.023C1649.41 552.883 1648.04 548.664 1646.71 544.367C1645.46 539.992 1644.25 535.695 1643.08 531.477C1641.99 527.18 1641.01 523.234 1640.15 519.641C1639.29 516.047 1638.51 512.961 1637.81 510.383C1637.18 507.727 1636.75 505.852 1636.52 504.758ZM1646.48 505.812C1646.48 506.984 1646.56 508.703 1646.71 510.969C1646.87 513.156 1647.18 515.344 1647.65 517.531C1648.2 519.719 1648.98 521.633 1649.99 523.273C1651.01 524.836 1652.42 525.617 1654.21 525.617C1656.64 525.617 1659.06 524.797 1661.48 523.156C1663.98 521.516 1666.17 519.445 1668.04 516.945C1669.99 514.445 1671.56 511.789 1672.73 508.977C1673.98 506.086 1674.6 503.469 1674.6 501.125C1674.6 499.172 1674.14 497.648 1673.2 496.555C1672.26 495.383 1671.05 494.484 1669.56 493.859C1668.16 493.156 1666.64 492.727 1664.99 492.57C1663.35 492.336 1661.79 492.219 1660.31 492.219C1655.85 492.219 1652.42 493.43 1649.99 495.852C1647.65 498.195 1646.48 501.516 1646.48 505.812ZM1745.95 516.628C1745.95 513.942 1746.77 511.257 1748.39 508.571C1750.02 505.886 1752.18 503.282 1754.86 500.759C1757.55 498.155 1760.6 495.754 1764.02 493.557C1767.44 491.278 1770.89 489.284 1774.39 487.575C1777.97 485.866 1781.43 484.523 1784.77 483.547C1788.19 482.57 1791.16 482.082 1793.68 482.082C1793.68 484.442 1793.07 486.599 1791.85 488.552C1790.71 490.505 1789.16 492.336 1787.21 494.045C1785.26 495.754 1783.06 497.422 1780.62 499.05C1778.26 500.596 1775.9 502.142 1773.54 503.688C1771.26 505.235 1769.06 506.862 1766.95 508.571C1764.83 510.28 1763.12 512.111 1761.82 514.064C1761.74 514.309 1761.66 514.471 1761.58 514.553C1761.58 514.797 1761.58 515.041 1761.58 515.285C1761.58 515.529 1761.58 515.773 1761.58 516.018C1761.66 516.262 1761.74 516.465 1761.82 516.628C1761.98 516.709 1762.35 517.116 1762.92 517.849C1763.57 518.581 1764.06 519.029 1764.38 519.191C1764.79 519.517 1765.73 520.127 1767.19 521.022C1768.74 521.918 1770.49 523.016 1772.44 524.318C1774.48 525.62 1776.59 526.963 1778.79 528.347C1781.07 529.73 1783.18 531.073 1785.14 532.375C1787.09 533.677 1788.8 534.816 1790.26 535.793C1791.73 536.688 1792.75 537.299 1793.31 537.624C1793.48 537.705 1793.88 538.112 1794.54 538.845C1795.27 539.496 1795.67 539.903 1795.76 540.065C1795.76 540.31 1795.8 540.554 1795.88 540.798C1795.88 540.879 1795.88 541.001 1795.88 541.164C1795.96 541.327 1796 541.449 1796 541.53C1796 541.612 1795.96 541.734 1795.88 541.896C1795.88 541.978 1795.88 542.059 1795.88 542.141C1795.8 542.385 1795.76 542.588 1795.76 542.751C1795.59 543.076 1795.23 543.565 1794.66 544.216C1794.09 544.867 1793.52 545.477 1792.95 546.047C1792.46 546.535 1791.97 546.983 1791.48 547.39C1791 547.797 1790.67 548 1790.51 548C1789.21 548 1787.17 547.512 1784.4 546.535C1781.72 545.477 1778.71 544.094 1775.37 542.385C1772.12 540.676 1768.74 538.723 1765.24 536.525C1761.82 534.328 1758.65 532.049 1755.72 529.689C1752.87 527.329 1750.51 525.01 1748.64 522.731C1746.85 520.453 1745.95 518.418 1745.95 516.628ZM1832.13 542.751C1832.13 542.507 1832.17 542.059 1832.26 541.408C1832.42 540.676 1832.5 540.228 1832.5 540.065C1834.53 538.682 1836.77 536.892 1839.21 534.694C1841.65 532.416 1843.93 529.974 1846.05 527.37C1848.17 524.685 1849.91 521.877 1851.3 518.947C1852.76 516.018 1853.5 513.088 1853.5 510.158C1853.5 509.995 1853.45 509.833 1853.37 509.67C1853.37 509.507 1853.37 509.344 1853.37 509.182C1853.37 509.1 1853.37 508.978 1853.37 508.815C1853.05 508.49 1852.52 507.961 1851.79 507.229C1851.05 506.415 1850.28 505.601 1849.47 504.787C1848.65 503.973 1847.84 503.2 1847.03 502.468C1846.29 501.735 1845.81 501.206 1845.56 500.881C1845.4 500.881 1845.19 500.84 1844.95 500.759C1844.79 500.759 1844.63 500.759 1844.46 500.759C1844.38 500.677 1844.26 500.637 1844.1 500.637C1842.55 500.637 1840.76 501.288 1838.73 502.59C1836.69 503.811 1834.7 505.235 1832.74 506.862C1830.79 508.409 1829.04 509.914 1827.49 511.379C1826.03 512.762 1825.05 513.658 1824.56 514.064C1824.4 514.146 1824.2 514.187 1823.95 514.187C1823.79 514.268 1823.55 514.309 1823.22 514.309C1822.9 514.309 1822.69 514.268 1822.61 514.187C1822.37 514.187 1822.16 514.146 1822 514.064C1821.68 513.902 1821.15 513.495 1820.41 512.844C1819.76 512.111 1819.4 511.582 1819.32 511.257V510.158V508.815C1819.97 506.781 1820.86 504.217 1822 501.125C1823.14 498.033 1824.28 494.818 1825.42 491.481C1826.56 488.063 1827.54 484.686 1828.35 481.35C1829.24 477.932 1829.69 474.88 1829.69 472.194C1829.69 470.241 1829.61 468.329 1829.45 466.457C1829.28 464.504 1828.88 462.754 1828.23 461.208C1827.58 459.662 1826.64 458.441 1825.42 457.546C1824.2 456.651 1822.53 456.203 1820.41 456.203C1817.57 456.203 1815.04 457.017 1812.85 458.645C1810.73 460.191 1808.9 462.185 1807.35 464.626C1805.89 466.986 1804.83 469.549 1804.18 472.316C1803.53 475.002 1803.37 477.525 1803.69 479.885H1798.44C1798.36 479.885 1798.2 479.478 1797.95 478.664C1797.71 477.85 1797.42 476.914 1797.1 475.856C1796.85 474.717 1796.61 473.578 1796.37 472.438C1796.12 471.218 1795.92 470.241 1795.76 469.509V466.945C1795.76 464.097 1796.57 461.411 1798.2 458.889C1799.83 456.285 1801.86 454.006 1804.3 452.053C1806.74 450.1 1809.35 448.553 1812.11 447.414C1814.96 446.275 1817.61 445.705 1820.05 445.705C1823.79 445.705 1826.88 446.356 1829.33 447.658C1831.85 448.96 1833.88 450.71 1835.43 452.907C1837.06 455.104 1838.24 457.627 1838.97 460.476C1839.78 463.324 1840.31 466.294 1840.56 469.387C1840.8 472.479 1840.84 475.653 1840.68 478.908C1840.52 482.082 1840.35 485.052 1840.19 487.819C1843.53 488.389 1846.62 489.203 1849.47 490.261C1852.4 491.319 1854.92 492.743 1857.04 494.533C1859.23 496.242 1860.94 498.399 1862.16 501.003C1863.46 503.526 1864.12 506.618 1864.12 510.28C1864.12 512.315 1863.75 514.634 1863.02 517.238C1862.28 519.842 1861.23 522.569 1859.84 525.417C1858.54 528.184 1856.99 530.91 1855.2 533.596C1853.5 536.281 1851.62 538.723 1849.59 540.92C1847.55 543.036 1845.4 544.745 1843.12 546.047C1840.84 547.349 1838.56 548 1836.28 548C1834.74 548 1833.64 547.471 1832.99 546.413C1832.42 545.274 1832.13 544.053 1832.13 542.751Z" fill="#000200" fill-opacity="0.8"/>
</g>
<defs>
<linearGradient id="paint0_linear_21_503" x1="480.044" y1="332.943" x2="480.044" y2="1063.12" gradientUnits="userSpaceOnUse">
<stop stop-color="#0451E5"/>
<stop offset="1" stop-color="#2072FF"/>
</linearGradient>
<linearGradient id="paint1_linear_21_503" x1="1491.12" y1="973.822" x2="1882.17" y2="1111.97" gradientUnits="userSpaceOnUse">
<stop stop-color="#FF6105"/>
<stop offset="1" stop-color="#FF2327"/>
</linearGradient>
<linearGradient id="paint2_linear_21_503" x1="965.424" y1="225.081" x2="1000.98" y2="227.403" gradientUnits="userSpaceOnUse">
<stop stop-color="#FF6105"/>
<stop offset="1" stop-color="#FF2327"/>
</linearGradient>
<linearGradient id="paint3_linear_21_503" x1="968.082" y1="376.351" x2="994.076" y2="378.686" gradientUnits="userSpaceOnUse">
<stop stop-color="#FF6105"/>
<stop offset="1" stop-color="#FF2327"/>
</linearGradient>
<linearGradient id="paint4_linear_21_503" x1="1552.69" y1="691.805" x2="1597.7" y2="701.065" gradientUnits="userSpaceOnUse">
<stop stop-color="#FF6105"/>
<stop offset="1" stop-color="#FF2327"/>
</linearGradient>
<linearGradient id="paint5_linear_21_503" x1="151.297" y1="1058.46" x2="207.764" y2="1070.67" gradientUnits="userSpaceOnUse">
<stop stop-color="#FF6105"/>
<stop offset="1" stop-color="#FF2327"/>
</linearGradient>
<linearGradient id="paint6_linear_21_503" x1="155.572" y1="962.55" x2="191.046" y2="998.86" gradientUnits="userSpaceOnUse">
<stop stop-color="#FF6105"/>
<stop offset="1" stop-color="#FF2327"/>
</linearGradient>
<linearGradient id="paint7_linear_21_503" x1="1087.07" y1="317.503" x2="1111.39" y2="323.004" gradientUnits="userSpaceOnUse">
<stop stop-color="#FF6105"/>
<stop offset="1" stop-color="#FF2327"/>
</linearGradient>
<clipPath id="clip0_21_503">
<rect width="2000" height="2000" fill="white"/>
</clipPath>
</defs>
</svg>
