<svg width="2000" height="2000" viewBox="0 0 2000 2000" fill="none" xmlns="http://www.w3.org/2000/svg">
<path d="M1395.79 202.07C1395.79 273.894 1354.49 326.675 1295.55 349.168C1276.04 356.58 1254.51 360.67 1232.04 361.053C1230.83 361.053 1229.62 361.053 1228.41 361.053C1135.84 361.053 1060.89 289.869 1060.89 201.942C1060.89 170.887 1068.7 142.004 1083.63 117.467C1087.4 111.077 1091.84 104.942 1096.55 99.3191L1102.33 92.8013L1102.6 92.5457C1131.53 62.0015 1174.45 42.8315 1228.54 42.8315C1320.85 42.9593 1395.79 114.272 1395.79 202.07Z" fill="url(#paint0_linear_4_65)"/>
<path d="M645.661 1377.57V1417.19L771.737 1413.23V1377.57H645.661Z" fill="url(#paint1_linear_4_65)"/>
<path d="M1273.89 805.286L1213.61 776.787C1207.42 773.847 1202.04 782.665 1208.23 785.605L1268.51 814.104C1274.7 817.044 1280.08 808.225 1273.89 805.286Z" fill="url(#paint2_linear_4_65)"/>
<path d="M1260.7 886.311L1208.23 892.19C1201.5 892.957 1201.36 903.181 1208.23 902.414L1260.7 896.535C1267.43 895.768 1267.56 885.545 1260.7 886.311Z" fill="url(#paint3_linear_4_65)"/>
<path d="M279.274 886.311V929.763L329.597 894.618L279.274 886.311Z" fill="url(#paint4_linear_4_65)"/>
<path d="M219.802 823.05C215.765 833.018 211.728 842.987 207.692 852.827C205.27 858.962 215.63 861.646 218.052 855.511C222.089 845.543 226.126 835.574 230.162 825.734C232.584 819.599 222.224 817.043 219.802 823.05Z" fill="url(#paint5_linear_4_65)"/>
<path d="M1280.62 857.045L1287.75 1083.12L1290.03 1086.19C1295.42 1080.31 1301.07 1074.82 1306.72 1069.32C1307.39 1067.15 1308.74 1064.85 1310.76 1062.8C1327.44 1045.68 1343.05 1027.4 1364.17 1014.75C1380.45 1005.04 1395.52 1024.97 1387.18 1037.63C1386.37 1040.44 1385.03 1043.12 1382.88 1045.42C1375.88 1052.96 1370.36 1062.29 1364.31 1070.85C1364.17 1073.54 1363.1 1076.35 1360.68 1078.78C1348.43 1091.05 1338.07 1104.59 1327.84 1118.4C1328.52 1118.27 1329.06 1118.01 1329.73 1117.88C1350.72 1115.58 1369.56 1125.17 1380.86 1141.53C1395.79 1143.19 1405.21 1154.44 1410.06 1167.09C1418.4 1177.82 1425.13 1189.45 1430.64 1201.59L1576.09 1200.7V871.23L1280.62 857.045Z" fill="url(#paint6_linear_4_65)"/>
<path d="M1487.83 892.829L1396.06 889.506C1394.58 889.378 1392.83 890.145 1391.76 891.295C1390.68 892.445 1390.28 893.979 1390.55 895.512L1407.9 992.896L1385.57 1015.13C1388.12 1018.07 1389.6 1022.03 1388.93 1026.64L1417.46 998.136C1418.67 996.986 1419.21 995.324 1418.8 993.791L1402.12 900.113L1482.18 903.053V1017.18L1435.22 1109.83L1360.14 1071.62C1357.58 1074.18 1355.16 1076.86 1352.6 1079.42L1435.08 1121.33C1435.89 1121.72 1436.7 1121.97 1437.64 1121.97C1438.18 1121.97 1438.72 1121.85 1439.25 1121.72C1440.6 1121.33 1441.81 1120.31 1442.48 1119.03L1492.4 1020.5C1492.81 1019.86 1492.94 1019.1 1492.94 1018.33V898.196C1493.07 895.257 1490.79 892.956 1487.83 892.829Z" fill="#000200"/>
<path d="M1437.77 1116.73L1504.11 1090.79V897.941H1487.69V1018.07L1437.77 1116.73Z" fill="#000200"/>
<path d="M1437.77 1121.72C1436.29 1121.72 1434.95 1121.21 1433.87 1120.06C1432.39 1118.52 1431.99 1116.22 1432.93 1114.31L1482.31 1016.79V897.813C1482.31 895.001 1484.73 892.701 1487.69 892.701H1504.11C1507.07 892.701 1509.49 895.001 1509.49 897.813V1090.66C1509.49 1092.71 1508.15 1094.62 1506.13 1095.39L1439.66 1121.33C1439.12 1121.72 1438.45 1121.72 1437.77 1121.72ZM1493.08 903.053V1018.07C1493.08 1018.84 1492.94 1019.61 1492.54 1020.25L1448.67 1106.77L1498.73 1087.21V903.053H1493.08Z" fill="#000200"/>
<path d="M1414.9 1172.2C1411.94 1172.2 1409.52 1169.9 1409.52 1167.09C1409.52 1164.28 1411.94 1161.98 1414.9 1161.98L1606.23 1160.83V841.198L1321.39 827.395L1328.25 1047.98C1328.38 1050.79 1325.96 1053.09 1323 1053.22C1320.31 1053.35 1317.62 1051.04 1317.48 1048.23L1310.35 822.155C1310.35 820.75 1310.89 819.344 1311.97 818.321C1313.04 817.299 1314.52 816.788 1316 816.916L1611.62 831.229C1614.44 831.357 1616.73 833.657 1616.73 836.341V1165.94C1616.73 1168.75 1614.31 1171.05 1611.35 1171.05L1414.9 1172.2Z" fill="#000200"/>
<path d="M1414.9 1172.2C1411.94 1172.2 1409.52 1169.9 1409.52 1167.09C1409.52 1164.28 1411.94 1161.98 1414.9 1161.98L1606.23 1160.83V841.198L1321.39 827.395L1328.25 1047.98C1328.38 1050.79 1325.96 1053.09 1323 1053.22C1320.31 1053.35 1317.62 1051.04 1317.48 1048.23L1310.35 822.155C1310.35 820.75 1310.89 819.344 1311.97 818.321C1313.04 817.299 1314.52 816.788 1316 816.916L1611.62 831.229C1614.44 831.357 1616.73 833.657 1616.73 836.341V1165.94C1616.73 1168.75 1614.31 1171.05 1611.35 1171.05L1414.9 1172.2Z" fill="#000200"/>
<path d="M1274.02 350.446C1178.62 350.446 1101.12 276.833 1101.12 186.223C1101.12 154.529 1109.2 124.496 1124.53 99.1912C1128.44 92.6734 1133.01 86.2834 1137.99 80.4046L1143.78 73.759C1175.93 39.7642 1220.74 22 1274.02 22C1369.29 22 1446.92 95.6127 1446.92 186.223C1446.92 256.641 1408.17 313.384 1343.32 338.049C1323 345.845 1300.93 349.935 1277.92 350.318C1276.58 350.446 1275.37 350.446 1274.02 350.446ZM1274.02 32.224C1223.97 32.224 1181.85 48.838 1152.12 80.149L1146.2 86.7946C1141.62 92.29 1137.45 98.1688 1133.82 104.175C1119.42 127.946 1111.89 156.318 1111.89 186.095C1111.89 270.954 1184.68 340.094 1274.02 340.094C1275.23 340.094 1276.31 340.094 1277.52 340.094C1299.32 339.711 1320.04 335.749 1339.28 328.464C1399.96 305.332 1436.16 252.168 1436.16 186.095C1436.16 101.364 1363.5 32.224 1274.02 32.224Z" fill="#000200"/>
<path d="M1170.28 316.068C1169.07 316.068 1167.86 315.684 1166.92 314.918C1125.21 283.479 1101.26 236.576 1101.26 186.223C1101.26 154.529 1109.33 124.496 1124.67 99.1913C1126.42 96.1241 1128.44 93.1847 1130.45 90.3731C1131.26 89.0951 1132.74 88.3283 1134.22 88.2005C1135.7 88.0727 1137.32 88.4561 1138.53 89.4785C1152.79 101.747 1158.17 117.594 1163.29 132.93C1168.13 147.372 1173.24 162.197 1185.62 174.593C1197.19 186.095 1214.15 188.14 1232.18 190.313C1256.93 193.252 1285.19 196.703 1292.86 230.442C1296.76 247.695 1295.01 261.497 1287.34 272.744C1273.08 293.575 1242.13 299.709 1212.13 305.716C1198.13 308.528 1184.95 311.084 1174.32 315.045L1172.44 315.812C1171.63 315.94 1170.96 316.068 1170.28 316.068ZM1135.7 101.364C1135.03 102.386 1134.49 103.281 1133.95 104.303C1119.56 128.074 1112.02 156.446 1112.02 186.223C1112.02 232.487 1133.55 275.555 1171.22 305.077C1182.53 300.987 1195.85 298.304 1209.84 295.62C1237.69 290.124 1266.35 284.373 1278.19 267.12C1284.25 258.302 1285.59 247.056 1282.23 232.614C1276.18 205.904 1255.19 203.476 1230.83 200.537C1211.72 198.236 1192.08 195.936 1177.82 181.75C1163.69 167.692 1158.31 151.717 1153.06 136.253C1148.62 123.345 1144.58 111.204 1135.7 101.364Z" fill="#000200"/>
<path d="M1431.72 248.334C1430.91 248.334 1430.1 248.206 1429.43 247.823C1421.76 244.372 1414.9 240.027 1408.98 234.915C1393.51 221.496 1384.22 203.987 1375.21 186.99C1364.58 166.925 1354.62 148.011 1335.24 135.742C1311.29 120.534 1283.98 121.556 1255.05 122.706L1249.4 122.962C1246.98 123.09 1244.42 123.218 1241.86 123.345C1223.7 124.24 1201.09 125.518 1190.33 112.61C1183.74 104.559 1182.93 92.9291 1187.91 77.0819C1193.29 60.0845 1209.98 43.2149 1238.9 25.5785C1239.58 25.1951 1240.25 24.9395 1240.92 24.8117C1252.36 23.0225 1263.12 22.1279 1273.89 22.1279C1369.15 22.1279 1446.79 95.7407 1446.79 186.351C1446.79 206.927 1443.42 226.608 1436.7 245.011C1436.16 246.417 1435.08 247.439 1433.74 248.078C1433.2 248.206 1432.53 248.334 1431.72 248.334ZM1276.98 111.843C1299.18 111.843 1321.25 114.399 1341.43 127.179C1363.1 140.982 1374.26 162.069 1385.03 182.389C1393.91 199.259 1402.39 215.234 1416.38 227.375C1420.01 230.57 1424.18 233.381 1428.76 235.809C1433.74 220.09 1436.29 203.476 1436.29 186.223C1436.29 101.236 1363.63 32.2241 1274.16 32.2241C1264.33 32.2241 1254.51 32.9909 1244.02 34.5245C1218.32 50.3717 1202.98 65.5799 1198.54 79.7657C1194.64 92.0345 1194.91 100.98 1199.08 106.092C1206.34 114.783 1225.85 113.76 1241.6 112.994C1244.29 112.866 1246.84 112.738 1249.26 112.61L1254.92 112.355C1262.18 112.099 1269.58 111.843 1276.98 111.843Z" fill="#000200"/>
<path d="M1750.74 1072.39C1750.61 1072.39 1750.61 1072.39 1750.47 1072.39L1616.33 1069.83C1613.37 1069.7 1611.08 1067.28 1611.21 1064.46C1611.35 1061.65 1613.63 1059.35 1616.86 1059.61L1745.23 1061.91L1737.02 553.775L1289.09 542.146C1286.27 542.018 1283.98 539.973 1283.85 537.289L1272.27 345.462C1272.14 342.65 1274.43 340.222 1277.39 340.094C1280.35 339.966 1282.9 342.139 1283.04 344.95L1294.34 532.049L1742.4 543.679C1745.23 543.807 1747.65 545.98 1747.65 548.663L1755.99 1067.15C1755.99 1068.55 1755.45 1069.96 1754.38 1070.85C1753.44 1071.88 1752.09 1072.39 1750.74 1072.39Z" fill="#000200"/>
<path d="M1518.37 1162.61C1515.55 1162.74 1512.72 1162.74 1509.89 1163C1509.22 1163.89 1508.82 1165.04 1508.82 1166.32L1525.91 1458.47C1526.04 1461.15 1528.46 1463.33 1531.29 1463.33C1531.42 1463.33 1531.42 1463.33 1531.56 1463.33C1534.52 1463.2 1536.8 1460.77 1536.67 1457.96L1519.58 1165.81C1519.58 1164.53 1519.04 1163.38 1518.37 1162.61Z" fill="#000200"/>
<path d="M1612.69 621.637C1611.21 621.637 1609.73 620.998 1608.66 619.976L1483.66 486.553C1481.64 484.38 1481.91 481.185 1484.06 479.396C1486.21 477.479 1489.71 477.734 1491.6 479.779L1616.59 613.202C1618.61 615.375 1618.34 618.57 1616.19 620.359C1615.25 621.254 1614.04 621.637 1612.69 621.637Z" fill="url(#paint7_linear_4_65)"/>
<path d="M1489.71 620.359C1488.5 620.359 1487.42 619.976 1486.35 619.337C1484.06 617.548 1483.52 614.353 1485.41 612.18L1593.86 479.907C1595.74 477.734 1599.1 477.223 1601.39 479.012C1603.68 480.802 1604.22 483.997 1602.33 486.169L1493.88 618.442C1492.81 619.72 1491.33 620.359 1489.71 620.359Z" fill="url(#paint8_linear_4_65)"/>
<path d="M1700.56 1892.1C1689.52 1892.1 1680.91 1883.92 1680.91 1873.82C1680.91 1870.37 1681.85 1867.18 1683.47 1864.36C1683.87 1863.6 1684.41 1862.96 1684.95 1862.19C1685.08 1862.06 1685.75 1861.3 1685.89 1861.17C1689.25 1857.59 1694.37 1855.55 1700.15 1855.55C1710.78 1855.55 1719.39 1863.72 1719.39 1873.82C1719.39 1881.49 1714.95 1888.01 1707.82 1890.69C1705.4 1891.59 1702.98 1891.97 1700.56 1892.1ZM1700.15 1865.77C1697.46 1865.77 1695.31 1866.54 1693.83 1868.2C1693.29 1868.84 1693.15 1869.09 1692.89 1869.35C1692.08 1870.63 1691.67 1872.16 1691.67 1873.82C1691.67 1878.29 1695.44 1881.87 1700.15 1881.87C1701.5 1881.87 1702.71 1881.62 1703.65 1881.23C1706.74 1880.08 1708.49 1877.4 1708.49 1873.82C1708.49 1869.48 1704.73 1865.77 1700.15 1865.77Z" fill="#000200"/>
<path d="M1751.15 1892.1C1740.11 1892.1 1731.5 1883.92 1731.5 1873.82C1731.5 1870.37 1732.44 1867.05 1734.06 1864.36C1734.46 1863.6 1735 1862.96 1735.54 1862.19C1735.67 1862.06 1736.21 1861.42 1736.35 1861.3C1739.71 1857.72 1744.82 1855.67 1750.61 1855.67C1761.24 1855.67 1769.85 1863.85 1769.85 1873.95C1769.85 1881.62 1765.41 1888.13 1758.28 1890.82C1755.99 1891.59 1753.57 1891.97 1751.15 1892.1ZM1750.74 1865.77C1748.05 1865.77 1745.9 1866.54 1744.42 1868.2L1743.48 1869.35C1742.67 1870.63 1742.27 1872.16 1742.27 1873.82C1742.27 1878.29 1746.03 1881.87 1750.74 1881.87C1752.09 1881.87 1753.3 1881.62 1754.24 1881.23C1757.34 1880.08 1759.09 1877.4 1759.09 1873.82C1759.22 1869.48 1755.32 1865.77 1750.74 1865.77Z" fill="#000200"/>
<path d="M1882.34 1942.71H1359.33C1357.85 1942.71 1356.37 1942.07 1355.43 1941.04C1354.35 1940.02 1353.95 1938.62 1353.95 1937.21L1382.47 1462.43C1382.61 1459.75 1385.03 1457.58 1387.85 1457.58H1865.38C1868.34 1457.58 1870.63 1459.75 1870.76 1462.56L1887.72 1937.34C1887.72 1938.74 1887.18 1940.02 1886.24 1941.04C1885.3 1942.19 1883.82 1942.71 1882.34 1942.71ZM1365.12 1932.48H1876.95L1860.4 1467.93H1393.24L1365.12 1932.48Z" fill="#000200"/>
<path d="M1710.92 1516.88L1422.43 1514.06C1421.22 1514.06 1419.61 1514.58 1418.53 1515.6C1417.46 1516.62 1416.92 1517.9 1416.92 1519.18V1734.39C1416.92 1735.8 1417.46 1737.08 1418.53 1737.97C1419.47 1738.86 1420.95 1739.5 1422.3 1739.5L1710.78 1736.69C1713.74 1736.69 1716.16 1734.39 1716.16 1731.58V1521.99C1716.16 1519.18 1713.88 1516.88 1710.92 1516.88Z" fill="url(#paint9_linear_4_65)"/>
<path d="M1812.5 1942.7C1809.54 1942.7 1807.12 1940.4 1807.12 1937.59V1462.82C1807.12 1460 1809.54 1457.7 1812.5 1457.7C1815.46 1457.7 1817.89 1460 1817.89 1462.82V1937.59C1817.89 1940.4 1815.46 1942.7 1812.5 1942.7Z" fill="#000200"/>
<path d="M1878.03 1819.76H1366.73C1363.77 1819.76 1361.35 1817.46 1361.35 1814.65C1361.35 1811.84 1363.77 1809.54 1366.73 1809.54H1878.03C1880.99 1809.54 1883.41 1811.84 1883.41 1814.65C1883.41 1817.59 1880.99 1819.76 1878.03 1819.76Z" fill="#000200"/>
<path d="M1550.12 1850.43C1549.18 1848.9 1547.43 1848.01 1545.55 1848.01H1422.3C1419.34 1848.01 1416.92 1850.31 1416.92 1853.12V1883.28C1416.92 1886.09 1419.34 1888.39 1422.3 1888.39H1530.61C1532.63 1888.39 1534.65 1887.24 1535.46 1885.45L1550.39 1855.29C1551.34 1853.76 1551.2 1851.84 1550.12 1850.43Z" fill="#000200"/>
<path d="M819.503 707.902C553.223 710.33 483.121 755.571 484.736 893.595C486.081 1006.31 519.45 1064.72 832.151 1064.72C1070.31 1064.72 1078.79 1004.78 1069.64 854.744C1063.31 751.226 1041.52 705.985 819.503 707.902Z" fill="url(#paint10_linear_4_65)"/>
<path d="M588.072 974.365C585.247 974.365 582.825 972.192 582.69 969.509L578.25 887.844C575.828 844.265 589.956 809.503 620.23 784.327C651.716 758.128 699.886 743.175 763.664 740.108C835.515 736.657 884.896 752.888 910.595 788.8C911.941 790.717 913.017 792.889 913.69 795.445C914.094 796.723 913.825 798.129 913.017 799.279C912.21 800.429 910.999 801.324 909.653 801.58C889.874 805.925 864.04 806.819 843.319 807.586C833.497 807.97 825.02 808.225 819.099 808.736C799.993 810.653 780.617 811.164 761.914 811.548C743.75 811.931 724.912 812.443 706.613 814.232C681.452 816.788 664.095 824.584 653.465 838.003C632.744 864.201 641.355 909.698 649.025 949.7C649.966 954.428 650.774 959.029 651.581 963.63C652.119 966.441 650.101 968.997 647.141 969.509C644.181 970.02 641.49 968.103 640.951 965.291C640.144 960.69 639.202 956.09 638.395 951.361C630.456 909.187 621.307 861.518 644.854 831.74C657.367 815.893 677.146 806.819 705.537 804.008C724.24 802.091 743.212 801.707 761.645 801.196C780.079 800.813 799.186 800.302 817.888 798.385C824.078 797.746 832.824 797.49 842.781 797.107C860.676 796.468 882.608 795.829 900.369 792.761C876.553 761.195 830.671 746.881 764.067 750.204C702.846 753.143 656.829 767.201 627.227 791.867C599.644 814.871 586.727 846.948 588.879 887.205L593.32 968.87C593.454 971.681 591.167 974.109 588.207 974.237C588.207 974.365 588.207 974.365 588.072 974.365Z" fill="#000200"/>
<path d="M569.908 1023.18C567.889 1023.18 565.871 1022.03 564.929 1020.12C563.045 1016.03 561.969 1011.55 561.7 1006.95C561.162 997.113 564.929 987.656 572.464 980.116C586.189 966.441 610.946 959.412 646.334 959.412C649.294 959.412 651.716 961.713 651.716 964.524C651.716 967.336 649.294 969.636 646.334 969.636C606.102 969.636 588.207 979.093 580.268 987.145C573.272 994.174 572.195 1001.46 572.464 1006.44C572.599 1009.89 573.406 1013.09 574.886 1016.16C576.097 1018.71 574.752 1021.78 572.061 1022.93C571.388 1023.06 570.58 1023.18 569.908 1023.18Z" fill="#000200"/>
<path d="M839.282 1011.94C836.322 1011.94 833.9 1009.64 833.9 1006.83C833.9 1004.01 836.322 1001.71 839.282 1001.71C849.374 1001.71 857.581 999.158 861.484 994.813C863.636 992.385 864.309 989.445 863.771 985.867C862.425 977.815 843.453 973.343 834.573 972.32C831.882 972.065 829.729 969.892 829.729 967.208V920.433C829.729 917.622 832.151 915.321 835.111 915.321C838.071 915.321 840.493 917.622 840.493 920.433V962.863C850.45 964.524 871.844 969.764 874.401 984.205C875.612 990.851 873.997 996.73 869.691 1001.46C863.636 1008.23 852.872 1011.94 839.282 1011.94Z" fill="#000200"/>
<path d="M885.434 938.581L884.358 948.677C882.878 961.713 904.272 963.885 905.752 950.849L906.828 940.753C908.308 927.718 886.915 925.545 885.434 938.581Z" fill="#000200"/>
<path d="M740.521 941.903L739.444 952C737.964 965.035 759.358 967.208 760.838 954.172L761.915 944.076C763.395 931.04 742.001 928.868 740.521 941.903Z" fill="#000200"/>
<path d="M764.067 894.618C755.321 895.512 746.71 896.918 738.233 899.346C731.64 901.263 736.08 910.593 742.674 908.676C750.209 906.503 758.013 905.481 765.817 904.714C772.813 903.947 771.064 893.979 764.067 894.618Z" fill="#000200"/>
<path d="M919.476 898.451C913.959 895.001 907.77 892.573 902.522 888.739C897.14 884.777 889.471 892.062 894.987 896.023C901.042 900.369 907.77 903.436 914.094 907.27C920.014 910.976 925.262 902.03 919.476 898.451Z" fill="#000200"/>
<path d="M937.775 1047.21C934.815 1047.21 932.393 1044.91 932.393 1042.1C932.124 1002.61 928.491 955.195 924.454 900.241C923.378 885.416 922.167 869.952 921.091 854.105C915.843 779.342 864.578 745.347 764.337 750.332C695.849 753.654 646.603 770.652 617.943 800.94C596.953 823.05 587.265 852.188 589.283 887.333C589.418 890.145 587.131 892.573 584.17 892.701C580.941 892.828 578.654 890.656 578.519 887.844C576.366 849.76 586.996 818.193 610.005 794.039C640.683 761.706 692.485 743.558 763.933 740.108C869.826 734.996 926.338 772.952 931.989 853.338C933.066 869.313 934.277 884.649 935.353 899.474C939.524 954.556 943.023 1002.1 943.426 1041.97C943.157 1044.91 940.735 1047.21 937.775 1047.21Z" fill="#000200"/>
<path d="M1138.53 1287.99C1136.91 1287.99 1135.3 1287.22 1134.22 1285.94C1116.73 1263.32 1117.13 1253.99 1119.96 1181.02C1121.84 1132.07 1124.8 1058.2 1124.8 933.213C1124.8 799.535 1102.2 716.209 1053.63 670.968C1001.82 622.659 926.204 620.231 816.947 622.276C619.558 625.216 503.304 635.951 454.327 684.642C414.365 724.516 414.499 790.205 418.536 902.797C422.169 1009.51 411.001 1086.7 384.36 1138.72C383.014 1141.27 379.919 1142.29 377.228 1141.02C374.537 1139.74 373.461 1136.67 374.806 1134.24C400.237 1084.4 411.405 1006.7 407.906 903.053C403.87 787.649 403.735 720.299 446.792 677.358C498.595 625.727 612.023 614.736 816.947 611.797C912.345 610.135 1002.36 608.474 1061.29 663.428C1112.02 710.714 1135.7 796.34 1135.7 932.958C1135.7 1058.07 1132.88 1132.2 1130.86 1181.15C1128.03 1254.37 1128.17 1260.38 1142.97 1279.68C1144.72 1281.98 1144.18 1285.17 1141.76 1286.84C1140.82 1287.73 1139.74 1287.99 1138.53 1287.99Z" fill="#000200"/>
<path d="M1001.82 790.588L969.664 818.065C964.551 822.411 972.086 829.695 977.334 825.35C988.098 816.148 998.727 807.075 1009.49 797.873C1014.6 793.4 1006.94 786.115 1001.82 790.588Z" fill="url(#paint11_linear_4_65)"/>
<path d="M594.935 1654.64C595.069 1654.52 595.069 1654.39 595.069 1654.26C595.069 1654.13 595.204 1654 595.204 1653.88C595.338 1653.62 595.338 1653.37 595.473 1653.24C595.473 1653.11 595.473 1652.98 595.607 1652.85C595.607 1652.73 595.607 1652.73 595.607 1652.6C599.778 1615.66 601.124 1580.39 599.913 1546.91C599.778 1544.86 599.778 1542.95 599.644 1540.9C599.509 1539.24 599.509 1537.58 599.375 1535.92C593.32 1420 557.26 1325.43 508.417 1253.48C473.568 1202.23 432.26 1162.61 390.683 1135.26C385.167 1131.56 378.035 1130.41 369.962 1131.94C359.871 1133.86 348.568 1139.87 337.4 1149.32C326.098 1158.78 314.796 1171.43 304.435 1186.64C283.848 1216.93 266.087 1243.13 277.255 1269.33C277.39 1269.58 277.524 1269.97 277.794 1270.22C277.794 1270.22 277.794 1270.22 277.794 1270.35C278.735 1271.63 280.215 1272.52 281.83 1272.52C282.234 1272.52 282.503 1272.52 282.907 1272.39C283.31 1272.39 283.848 1272.27 284.252 1272.14C284.387 1272.14 284.521 1272.01 284.656 1271.88C284.79 1271.88 284.79 1271.76 284.925 1271.76C285.059 1271.63 285.194 1271.63 285.329 1271.5C285.598 1271.37 285.732 1271.12 286.001 1270.99C286.405 1270.73 286.674 1270.35 286.943 1269.97C289.903 1264.98 292.863 1260.25 295.958 1255.78C310.624 1234.31 323.811 1217.18 332.826 1205.94C339.553 1204.79 347.492 1207.09 356.641 1212.97C415.71 1250.54 498.191 1414.38 515.952 1569.27L516.894 1577.71C516.894 1578.22 517.028 1578.6 517.298 1579.11L517.836 1580.26C518.509 1581.67 519.047 1583.08 519.585 1584.1C520.392 1586.02 521.334 1587.8 522.276 1589.59C524.698 1594.32 527.658 1599.05 531.426 1604.16C532.367 1605.44 533.309 1606.72 534.386 1608.38C538.288 1613.49 542.055 1617.97 546.092 1622.18C547.841 1624.1 549.725 1626.14 551.743 1628.06C553.761 1629.98 555.645 1631.77 557.663 1633.68C561.835 1637.52 566.275 1641.35 571.657 1645.44L577.712 1649.92C580.403 1651.83 583.363 1654 586.592 1656.05C586.861 1656.31 587.534 1656.56 587.803 1656.82C587.938 1656.82 588.072 1656.94 588.207 1656.94C588.341 1656.94 588.476 1657.07 588.745 1657.07C589.014 1657.07 589.149 1657.2 589.418 1657.2C589.552 1657.2 589.552 1657.2 589.687 1657.2C589.822 1657.2 589.956 1657.2 590.091 1657.2H590.225C590.494 1657.2 590.898 1657.2 591.167 1657.07C591.302 1657.07 591.302 1657.07 591.436 1657.07C591.705 1657.07 591.84 1656.94 592.109 1656.94C592.243 1656.94 592.243 1656.94 592.378 1656.82C592.513 1656.69 592.782 1656.69 592.916 1656.56C593.051 1656.56 593.051 1656.43 593.185 1656.43C593.454 1656.3 593.589 1656.18 593.724 1656.05C593.858 1655.92 593.858 1655.92 593.993 1655.79C594.127 1655.67 594.262 1655.54 594.396 1655.41C594.531 1655.28 594.531 1655.15 594.665 1655.03C594.665 1654.9 594.8 1654.77 594.935 1654.64Z" fill="#000200"/>
<path d="M344.801 1819.76C344.667 1819.76 344.667 1819.76 344.532 1819.76L214.689 1813.63C166.249 1811.33 127.498 1773.5 126.287 1727.49L112.025 1156.22C110.948 1111.62 145.125 1073.15 191.545 1066.76L406.426 1036.99C409.386 1036.6 412.077 1038.52 412.481 1041.33C412.885 1044.14 410.866 1046.7 407.906 1047.08L193.026 1076.86C151.987 1082.61 121.713 1116.61 122.789 1155.97L137.052 1727.23C138.128 1767.87 172.439 1801.36 215.227 1803.4L345.07 1809.54C348.03 1809.67 350.318 1812.09 350.183 1814.9C350.049 1817.72 347.627 1819.76 344.801 1819.76Z" fill="#000200"/>
<path d="M192.218 1369.65C189.258 1369.65 186.836 1367.35 186.836 1364.54V1072C186.836 1069.19 189.258 1066.89 192.218 1066.89C195.178 1066.89 197.6 1069.19 197.6 1072V1364.54C197.6 1367.35 195.178 1369.65 192.218 1369.65Z" fill="#000200"/>
<path d="M1130.19 1137.82C1128.57 1136.67 1126.42 1136.42 1124.53 1137.18C1122.65 1137.95 1121.44 1139.74 1121.44 1141.65C1121.31 1143.96 1119.42 1198.14 1121.44 1229.45C1123.59 1261.28 1133.15 1283.9 1133.55 1284.79C1134.36 1286.71 1136.38 1287.99 1138.53 1287.99C1138.66 1287.99 1138.66 1287.99 1138.8 1287.99C1141.08 1287.86 1142.97 1286.45 1143.64 1284.41L1168.26 1211.82C1168.94 1210.41 1182.8 1177.06 1130.19 1137.82Z" fill="#000200"/>
<path d="M784.789 1979C764.068 1979 742.943 1978.11 721.549 1976.19C635.57 1968.52 559.009 1950.37 493.886 1922.13C492.406 1921.36 490.522 1919.7 490.253 1918.17C489.984 1916.63 489.58 1914.72 490.657 1913.44C549.86 1848.52 628.708 1818.99 707.152 1832.16C778.061 1844.17 829.73 1888.39 865.117 1967.37C865.79 1968.9 865.655 1970.57 864.848 1971.84C864.041 1973.25 862.561 1974.14 860.811 1974.4C836.188 1977.47 810.892 1979 784.789 1979ZM503.439 1915.1C566.41 1941.55 640.01 1958.68 722.491 1966.09C767.566 1970.05 811.161 1969.8 852.2 1965.33C818.562 1893.76 770.392 1853.5 705.134 1842.38C632.744 1830.11 559.548 1856.57 503.439 1915.1Z" fill="#000200"/>
<path d="M784.789 1979C764.068 1979 742.943 1978.11 721.549 1976.19C635.57 1968.52 559.009 1950.37 493.886 1922.13L494.693 1916.89L492.405 1921.49C371.577 1868.84 286.405 1779.12 246.308 1662.31C195.044 1513.17 226.664 1351.76 277.659 1264.98C280.754 1259.74 283.849 1254.89 286.943 1250.16C302.417 1227.41 316.276 1209.64 325.291 1198.27C327.04 1195.97 330.404 1195.59 332.826 1197.25C335.248 1198.91 335.651 1202.1 333.902 1204.4C324.887 1215.65 311.297 1233.29 295.958 1255.65C292.864 1260.13 289.903 1264.85 286.943 1269.84C237.024 1354.83 206.077 1512.79 256.4 1658.99C295.555 1772.99 378.708 1860.53 496.846 1912.03L496.038 1917.27L498.326 1912.67C562.373 1940.4 637.857 1958.3 722.625 1965.84C770.257 1970.05 816.274 1969.54 859.466 1964.18C872.248 1962.64 885.703 1960.47 900.639 1957.53C1336.05 1869.86 1379.78 1283.9 1380.18 1277.89C1380.32 1276.87 1380.59 1275.84 1381.26 1275.08L1409.38 1240.44C1411.13 1238.14 1414.5 1237.76 1416.92 1239.55C1419.21 1241.21 1419.74 1244.53 1417.86 1246.71L1390.81 1280.06C1387.99 1314.31 1334.98 1880.47 902.926 1967.5C887.722 1970.44 873.997 1972.74 860.811 1974.27C836.188 1977.47 810.892 1979 784.789 1979Z" fill="#000200"/>
<path d="M1228.41 1171.05C1227.47 1171.05 1226.39 1170.79 1225.45 1170.28C1222.89 1168.75 1222.22 1165.55 1223.83 1163.25C1242.54 1135.78 1337.94 999.158 1378.84 1011.43C1386.51 1013.73 1391.49 1017.94 1393.24 1023.7C1398.21 1039.54 1378.44 1062.67 1357.58 1087.21C1346.41 1100.25 1335.92 1112.52 1330.53 1122.36C1329.19 1124.79 1325.83 1125.81 1323.27 1124.53C1320.58 1123.25 1319.64 1120.06 1320.98 1117.63C1326.9 1106.89 1337.8 1094.24 1349.24 1080.82C1365.79 1061.4 1386.37 1037.37 1383.01 1026.76C1382.74 1025.87 1381.8 1023.18 1375.61 1021.27C1349.91 1013.73 1274.43 1107.66 1232.98 1168.88C1231.91 1170.15 1230.16 1171.05 1228.41 1171.05Z" fill="#000200"/>
<path d="M1280.62 1172.2C1279.54 1172.2 1278.46 1171.94 1277.52 1171.18C1275.1 1169.52 1274.56 1166.32 1276.31 1164.02C1298.92 1134.37 1316.54 1113.28 1338.07 1111.62C1352.06 1110.6 1366.19 1117.63 1383.95 1134.37C1386.11 1136.41 1386.11 1139.61 1383.95 1141.65C1381.8 1143.7 1378.44 1143.7 1376.28 1141.65C1361.21 1127.34 1349.37 1121.08 1338.88 1121.85C1323.4 1123 1308.6 1138.97 1285.06 1170.03C1283.85 1171.43 1282.23 1172.2 1280.62 1172.2Z" fill="#000200"/>
<path d="M1323.13 1192.14C1322.06 1191.37 1321.39 1190.35 1321.12 1189.2C1320.71 1187.79 1320.98 1186.26 1321.92 1184.98C1344.39 1155.58 1362.29 1132.96 1383.28 1134.5C1398.35 1135.65 1412.21 1149.45 1427.28 1177.82C1428.35 1179.99 1427.95 1182.68 1425.93 1184.21C1423.11 1186.26 1419.21 1185.36 1417.73 1182.55C1404.81 1157.89 1393.24 1145.49 1382.47 1144.72C1367.81 1143.57 1350.45 1165.04 1330.67 1190.99C1329.86 1192.01 1328.65 1192.77 1327.44 1193.03C1325.96 1193.29 1324.35 1193.03 1323.13 1192.14Z" fill="#000200"/>
<path d="M1399.56 1302.81C1395.39 1302.81 1390.95 1301.92 1386.64 1300.25C1383.95 1299.23 1382.61 1296.17 1383.68 1293.61C1384.76 1291.05 1387.99 1289.78 1390.68 1290.8C1399.16 1294.12 1406.69 1292.84 1413.69 1287.09C1429.7 1274.06 1438.98 1238.53 1432.93 1214.12C1427.41 1191.75 1420.82 1186.13 1416.38 1185.23C1402.66 1182.68 1376.28 1217.06 1363.77 1233.67C1362.02 1235.97 1358.66 1236.48 1356.23 1234.82C1353.81 1233.16 1353.27 1229.96 1355.02 1227.66C1382.2 1192.01 1401.18 1171.94 1418.53 1175.14C1429.83 1177.31 1437.77 1188.81 1443.42 1211.69C1449.75 1237.12 1441.94 1277.51 1420.82 1294.76C1414.23 1300.13 1407.1 1302.81 1399.56 1302.81Z" fill="#000200"/>
<path d="M1212.8 1185.11C1211.32 1185.11 1209.98 1184.6 1208.9 1183.57C1206.88 1181.53 1206.88 1178.33 1209.03 1176.29L1224.64 1162.23C1226.79 1160.31 1230.16 1160.44 1232.31 1162.36C1234.33 1164.4 1234.33 1167.6 1232.18 1169.64L1216.57 1183.7C1215.36 1184.6 1214.15 1185.11 1212.8 1185.11Z" fill="#000200"/>
<path d="M766.086 1709.09C694.773 1709.09 630.86 1685.32 587.13 1656.3C586.996 1656.18 586.861 1656.18 586.861 1656.05C586.727 1655.92 586.592 1655.92 586.458 1655.79C583.498 1653.88 580.537 1651.7 577.846 1649.79L571.792 1645.31C566.409 1641.1 561.969 1637.26 557.798 1633.56C555.78 1631.77 553.761 1629.85 551.878 1627.93C549.859 1626.02 547.976 1623.97 546.226 1622.05C542.19 1617.84 538.422 1613.36 534.52 1608.25C533.444 1606.59 532.502 1605.31 531.56 1604.03C527.927 1598.79 524.967 1594.07 522.411 1589.47C521.469 1587.68 520.527 1585.89 519.72 1584.1C519.047 1582.95 518.509 1581.54 517.836 1580.14L517.298 1578.99C517.163 1578.6 517.028 1578.09 516.894 1577.58L515.952 1569.15C498.191 1414.25 415.71 1250.41 356.642 1212.84C346.685 1206.58 338.208 1204.28 331.211 1206.19C328.385 1206.96 325.425 1205.43 324.618 1202.74C323.811 1200.06 325.425 1197.25 328.251 1196.48C338.477 1193.67 350.048 1196.35 362.696 1204.4C423.649 1243.26 508.686 1410.55 526.716 1568.12L527.793 1576.43C528.331 1577.58 528.735 1578.73 529.407 1579.88C530.215 1581.67 531.022 1583.33 531.964 1584.86C534.251 1589.21 537.077 1593.68 540.441 1598.41C541.383 1599.69 542.459 1601.1 543.401 1602.63C546.899 1607.23 550.532 1611.45 554.3 1615.28C556.049 1617.07 557.798 1618.99 559.547 1620.78C561.431 1622.57 563.315 1624.35 565.333 1626.14C569.235 1629.85 573.675 1633.43 578.654 1637.39L584.574 1641.86C587.131 1643.78 589.956 1645.7 592.782 1647.61C593.185 1647.87 593.589 1648.13 593.858 1648.38C656.425 1689.53 761.242 1719.69 868.75 1681.1C949.75 1651.96 1057.66 1572.47 1112.42 1358.79C1145.39 1229.96 1172.97 1150.98 1224.64 1102.55C1243.34 1084.91 1263.8 1077.88 1274.16 1085.55C1277.52 1088.11 1284.38 1095.77 1273.89 1113.03C1272.41 1115.46 1269.04 1116.22 1266.49 1114.82C1263.93 1113.41 1262.99 1110.22 1264.6 1107.79C1269.31 1099.99 1269.58 1095.01 1267.7 1093.6C1264.2 1091.05 1249.94 1093.22 1232.31 1109.83C1182.53 1156.74 1155.48 1234.31 1122.92 1361.34C1067.08 1579.37 955.94 1660.78 872.652 1690.81C836.322 1703.59 800.397 1709.09 766.086 1709.09Z" fill="#000200"/>
<path d="M1363.37 1403.39C1278.06 1426.14 1186.16 1404.79 1121.71 1347.16C1121.04 1346.52 1120.23 1346.13 1119.56 1345.88C1118.34 1348.95 1117.13 1352.14 1115.92 1355.21C1115.92 1355.34 1115.92 1355.59 1115.92 1355.72C1183.06 1414.76 1278.19 1436.62 1366.33 1413.1C1372.78 1411.44 1369.96 1401.6 1363.37 1403.39Z" fill="#000200"/>
<defs>
<linearGradient id="paint0_linear_4_65" x1="1228.34" y1="42.8315" x2="1228.34" y2="361.053" gradientUnits="userSpaceOnUse">
<stop stop-color="#0451E5"/>
<stop offset="1" stop-color="#2072FF"/>
</linearGradient>
<linearGradient id="paint1_linear_4_65" x1="708.699" y1="1377.57" x2="708.699" y2="1417.19" gradientUnits="userSpaceOnUse">
<stop stop-color="#0451E5"/>
<stop offset="1" stop-color="#2072FF"/>
</linearGradient>
<linearGradient id="paint2_linear_4_65" x1="1241.06" y1="776.195" x2="1241.06" y2="814.696" gradientUnits="userSpaceOnUse">
<stop stop-color="#0451E5"/>
<stop offset="1" stop-color="#2072FF"/>
</linearGradient>
<linearGradient id="paint3_linear_4_65" x1="1234.46" y1="886.27" x2="1234.46" y2="902.455" gradientUnits="userSpaceOnUse">
<stop stop-color="#0451E5"/>
<stop offset="1" stop-color="#2072FF"/>
</linearGradient>
<linearGradient id="paint4_linear_4_65" x1="304.435" y1="886.311" x2="304.435" y2="929.763" gradientUnits="userSpaceOnUse">
<stop stop-color="#0451E5"/>
<stop offset="1" stop-color="#2072FF"/>
</linearGradient>
<linearGradient id="paint5_linear_4_65" x1="218.927" y1="819.633" x2="218.927" y2="858.984" gradientUnits="userSpaceOnUse">
<stop stop-color="#0451E5"/>
<stop offset="1" stop-color="#2072FF"/>
</linearGradient>
<linearGradient id="paint6_linear_4_65" x1="1280.62" y1="988.872" x2="1580.24" y2="1049.2" gradientUnits="userSpaceOnUse">
<stop stop-color="#FF6105"/>
<stop offset="1" stop-color="#FF2327"/>
</linearGradient>
<linearGradient id="paint7_linear_4_65" x1="1550.13" y1="478.092" x2="1550.13" y2="621.637" gradientUnits="userSpaceOnUse">
<stop stop-color="#0451E5"/>
<stop offset="1" stop-color="#2072FF"/>
</linearGradient>
<linearGradient id="paint8_linear_4_65" x1="1543.87" y1="477.928" x2="1543.87" y2="620.359" gradientUnits="userSpaceOnUse">
<stop stop-color="#0451E5"/>
<stop offset="1" stop-color="#2072FF"/>
</linearGradient>
<linearGradient id="paint9_linear_4_65" x1="1566.54" y1="1514.06" x2="1566.54" y2="1739.5" gradientUnits="userSpaceOnUse">
<stop stop-color="#0451E5"/>
<stop offset="1" stop-color="#2072FF"/>
</linearGradient>
<linearGradient id="paint10_linear_4_65" x1="484.708" y1="844.388" x2="1023.79" y2="1052.62" gradientUnits="userSpaceOnUse">
<stop stop-color="#FF6105"/>
<stop offset="1" stop-color="#FF2327"/>
</linearGradient>
<linearGradient id="paint11_linear_4_65" x1="989.569" y1="789.188" x2="989.569" y2="826.685" gradientUnits="userSpaceOnUse">
<stop stop-color="#0451E5"/>
<stop offset="1" stop-color="#2072FF"/>
</linearGradient>
</defs>
</svg>
