<svg width="1000" height="1000" viewBox="0 0 1000 1000" fill="none" xmlns="http://www.w3.org/2000/svg">
<path d="M500 1000C776.142 1000 1000 776.142 1000 500C1000 223.858 776.142 0 500 0C223.858 0 0 223.858 0 500C0 776.142 223.858 1000 500 1000Z" fill="url(#paint0_linear_7_21)"/>
<path d="M500 1000C776.142 1000 1000 776.142 1000 500C1000 223.858 776.142 0 500 0C223.858 0 0 223.858 0 500C0 776.142 223.858 1000 500 1000Z" fill="url(#paint1_linear_7_21)"/>
<path fill-rule="evenodd" clip-rule="evenodd" d="M224.976 619.102C159.675 553.8 159.675 447.926 224.976 382.626L382.626 224.976C447.926 159.675 553.8 159.675 619.1 224.976C649.45 255.324 665.694 294.438 667.834 334.168C707.563 336.306 746.675 352.55 777.023 382.9C842.325 448.2 842.325 554.074 777.023 619.374L619.374 777.023C554.074 842.325 448.2 842.325 382.9 777.023C352.55 746.676 336.306 707.564 334.166 667.834C294.436 665.694 255.324 649.45 224.976 619.102ZM477.23 445.672H653.258C663.794 444.628 674.572 446.578 684.211 451.518C702.507 460.66 715.071 479.568 715.071 501.41C715.071 519.702 706.26 535.936 692.649 546.1L540.55 698.2C518.782 719.966 483.492 719.966 461.724 698.2C439.958 676.432 439.958 641.142 461.724 619.374L523.95 557.148H343.486C321.644 557.148 302.736 544.584 293.596 526.288C282.852 505.334 286.254 478.998 303.8 461.45L461.45 303.8C483.218 282.034 518.508 282.034 540.276 303.8C562.042 325.568 562.042 360.86 540.276 382.626L477.23 445.672Z" fill="white"/>
<defs>
<linearGradient id="paint0_linear_7_21" x1="500" y1="0" x2="500" y2="1000" gradientUnits="userSpaceOnUse">
<stop stop-color="#0451E5"/>
<stop offset="1" stop-color="#2072FF"/>
</linearGradient>
<linearGradient id="paint1_linear_7_21" x1="500" y1="0" x2="500" y2="1000" gradientUnits="userSpaceOnUse">
<stop stop-color="#0451E5"/>
<stop offset="1" stop-color="#2072FF"/>
</linearGradient>
</defs>
</svg>
