<svg width="2000" height="2000" viewBox="0 0 2000 2000" fill="none" xmlns="http://www.w3.org/2000/svg">
<path d="M1954.94 1321.49C1947.08 1333.22 1939.34 1344.95 1931.48 1356.68C1928.43 1361.14 1935.7 1365.36 1938.75 1360.91C1946.61 1349.17 1954.36 1337.44 1962.22 1325.71C1965.15 1321.25 1957.88 1317.03 1954.94 1321.49Z" fill="#0451E5"/>
<path d="M1671.02 150L934.83 376.893L1236.36 1167.29L1909 873.892L1671.02 150Z" fill="url(#paint0_linear_18_59)"/>
<path d="M335.032 1849.54C146.331 1827.08 42.1491 1746.64 113.674 1509.43C114.479 1506.81 115.284 1504.05 116.088 1501.58C270.752 1614.95 320.428 1780.25 335.032 1849.54Z" fill="url(#paint1_linear_18_59)"/>
<path d="M1465.4 1802.27H1533.13L1528.42 1584.02L1465.4 1593.39V1802.27Z" fill="url(#paint2_linear_18_59)"/>
<path d="M1556.69 1802.27L1548.3 1526.49L1623.51 1512.15V1802.27H1556.69Z" fill="url(#paint3_linear_18_59)"/>
<path d="M1648.91 1568.93V1802.27H1709.39L1702.38 1557.8L1648.91 1568.93Z" fill="url(#paint4_linear_18_59)"/>
<path d="M176.23 1236.62C162.891 1213.54 149.438 1190.46 136.099 1167.38C131.614 1159.69 127.474 1178.77 131.959 1186.46C145.298 1209.54 158.752 1232.62 172.091 1255.7C176.575 1263.09 180.715 1244.32 176.23 1236.62Z" fill="url(#paint5_linear_18_59)"/>
<path d="M885.615 536.11L837.318 587.741L909.074 608.21L885.615 536.11Z" fill="url(#paint6_linear_18_59)"/>
<path d="M1359.26 1543.55C1352.59 1537.8 1345.92 1532.05 1339.14 1526.3C1335.11 1522.85 1329.36 1528.71 1333.39 1532.05C1340.06 1537.8 1346.73 1543.55 1353.51 1549.3C1357.42 1552.75 1363.28 1547 1359.26 1543.55Z" fill="#000200"/>
<path d="M1250.81 1044.18C1249.2 1044.18 1247.59 1043.15 1247.02 1041.54L996.449 403.912C995.989 402.877 996.104 401.612 996.564 400.577C997.024 399.542 997.944 398.737 999.094 398.393L1630.51 205.783C1632.58 205.093 1634.88 206.243 1635.57 208.427L1839.57 822.939C1840.26 824.894 1839.34 827.079 1837.38 827.998L1637.99 919.761C1635.92 920.681 1633.5 919.761 1632.58 917.806C1631.66 915.737 1632.58 913.322 1634.54 912.402L1830.6 822.249L1629.02 214.867L1005.65 405.062L1254.6 1038.55C1255.41 1040.62 1254.37 1043.03 1252.31 1043.84C1251.73 1044.07 1251.27 1044.18 1250.81 1044.18Z" fill="white"/>
<path d="M1503.24 813.424C1501.74 813.424 1500.25 812.619 1499.56 811.124L1470.81 752.708H1419.64C1418.26 752.708 1416.99 752.018 1416.19 750.868L1384.22 701.422L1327.64 719.936C1325.57 720.626 1323.27 719.476 1322.47 717.406L1286.94 620.008L1231.85 632.772C1230.13 633.232 1228.29 632.427 1227.37 630.817L1184.82 556.993L1146.3 564.122C1144.46 564.467 1142.51 563.432 1141.7 561.592L1101.91 461.78C1101.45 460.63 1101.57 459.48 1102.03 458.445C1102.6 457.41 1103.52 456.605 1104.67 456.375L1355.47 393.59C1357.43 393.13 1359.38 394.05 1360.19 395.89L1393.99 473.969L1442.98 456.49C1444.01 456.145 1445.16 456.145 1446.08 456.605C1447.12 457.065 1447.81 457.985 1448.15 459.02L1477.36 543.884L1528.76 525.6C1530.83 524.91 1533.02 525.83 1533.94 527.9L1568.55 610.119L1620.53 590.34C1622.6 589.535 1624.9 590.57 1625.7 592.525L1657.78 664.51L1705.51 646.341C1707.46 645.536 1709.76 646.456 1710.68 648.411L1736.9 705.677C1737.36 706.712 1737.36 707.862 1737.01 708.896C1736.67 709.931 1735.86 710.736 1734.83 711.196L1504.96 813.079C1504.39 813.309 1503.81 813.424 1503.24 813.424ZM1421.94 744.429H1473.34C1474.95 744.429 1476.33 745.349 1477.02 746.729L1505.08 803.879L1728.04 705.217L1705.16 655.195L1657.32 673.364C1655.25 674.169 1652.95 673.134 1652.15 671.179L1620.07 599.195L1567.98 618.973C1565.91 619.778 1563.61 618.743 1562.69 616.673L1528.07 534.455L1476.44 552.853C1475.41 553.198 1474.26 553.198 1473.34 552.738C1472.3 552.278 1471.61 551.358 1471.27 550.323L1442.06 465.46L1393.42 482.823C1391.35 483.513 1389.16 482.593 1388.24 480.639L1354.21 402.214L1111.34 463.045L1148.14 555.383L1186.2 548.253C1187.93 547.909 1189.65 548.713 1190.46 550.208L1232.89 623.918L1288.55 611.039C1290.5 610.579 1292.57 611.729 1293.38 613.684L1328.79 710.736L1384.56 692.568C1386.29 691.993 1388.24 692.683 1389.28 694.177L1421.94 744.429Z" fill="white"/>
<path d="M1187.12 556.531C1185.4 556.531 1183.9 555.496 1183.21 553.772C1182.41 551.587 1183.56 549.287 1185.74 548.482L1443.32 456.374C1445.51 455.57 1447.81 456.719 1448.61 458.904C1449.41 461.089 1448.26 463.389 1446.08 464.194L1188.5 556.301C1188.04 556.416 1187.58 556.531 1187.12 556.531Z" fill="white"/>
<path d="M1289.69 619.319C1287.96 619.319 1286.47 618.284 1285.78 616.559C1284.97 614.374 1286.12 612.074 1288.31 611.269L1529.1 525.372C1531.29 524.567 1533.59 525.716 1534.39 527.901C1535.2 530.086 1534.05 532.386 1531.86 533.191L1291.07 619.089C1290.61 619.204 1290.15 619.319 1289.69 619.319Z" fill="white"/>
<path d="M1386.05 700.622C1384.44 700.622 1382.95 699.701 1382.26 698.206C1381.34 696.136 1382.26 693.722 1384.44 692.802L1620.75 590.344C1622.82 589.424 1625.23 590.345 1626.15 592.53C1627.07 594.6 1626.15 597.014 1623.97 597.934L1387.66 700.392C1387.09 700.507 1386.51 700.622 1386.05 700.622Z" fill="white"/>
<path d="M1473.45 752.709C1471.84 752.709 1470.34 751.789 1469.65 750.179C1468.73 748.11 1469.77 745.695 1471.84 744.775L1705.74 646.228C1707.81 645.308 1710.22 646.343 1711.14 648.413C1712.06 650.483 1711.03 652.898 1708.96 653.818L1475.06 752.364C1474.48 752.594 1474.02 752.709 1473.45 752.709Z" fill="white"/>
<path d="M1274.26 894.953C1272.77 894.953 1271.27 894.148 1270.58 892.653L1065.33 476.73C1064.87 475.695 1064.75 474.545 1065.21 473.395C1065.67 472.36 1066.48 471.44 1067.51 471.095L1104.31 456.491C1106.38 455.687 1108.79 456.721 1109.6 458.791C1110.4 460.861 1109.37 463.276 1107.3 464.081L1074.64 477.075L1276.33 885.754L1501.83 805.49C1503.9 804.685 1506.31 805.835 1507.12 808.02C1507.92 810.205 1506.77 812.504 1504.59 813.309L1275.64 894.723C1275.18 894.838 1274.72 894.953 1274.26 894.953Z" fill="white"/>
<path d="M837.317 1147.97C836.742 1147.97 836.052 1147.86 835.477 1147.51C833.407 1146.48 832.602 1144.07 833.637 1142L1010.03 796.217C1011.07 794.147 1013.48 793.342 1015.55 794.377C1017.62 795.412 1018.43 797.827 1017.39 799.897L840.996 1145.67C840.191 1147.05 838.811 1147.97 837.317 1147.97Z" fill="url(#paint7_linear_18_59)"/>
<path d="M996.008 1237.21C995.433 1237.21 994.743 1237.1 994.168 1236.75C992.098 1235.72 991.293 1233.3 992.328 1231.23L1171.02 870.158C1172.06 868.088 1174.47 867.283 1176.54 868.318C1178.61 869.353 1179.42 871.768 1178.38 873.838L999.688 1234.91C998.998 1236.41 997.503 1237.21 996.008 1237.21Z" fill="url(#paint8_linear_18_59)"/>
<path d="M1142.16 942.142C1141.59 942.142 1141.01 942.027 1140.44 941.682L979.908 864.641C977.838 863.606 977.033 861.192 977.953 859.122C978.873 857.052 981.403 856.247 983.473 857.167L1144 934.208C1146.07 935.243 1146.88 937.658 1145.96 939.728C1145.15 941.223 1143.66 942.142 1142.16 942.142Z" fill="url(#paint9_linear_18_59)"/>
<path d="M1099.62 1027.35C1099.04 1027.35 1098.47 1027.23 1097.89 1026.89L937.364 949.847C935.294 948.812 934.489 946.397 935.409 944.328C936.329 942.258 938.859 941.453 940.929 942.373L1101.46 1019.41C1103.52 1020.45 1104.33 1022.86 1103.41 1024.93C1102.6 1026.54 1101.11 1027.35 1099.62 1027.35Z" fill="url(#paint10_linear_18_59)"/>
<path d="M1053.83 1115.55C1053.26 1115.55 1052.68 1115.43 1052.11 1115.09L891.577 1038.05C889.507 1037.01 888.702 1034.6 889.622 1032.53C890.542 1030.46 893.072 1029.65 895.142 1030.57L1055.67 1107.62C1057.74 1108.65 1058.55 1111.07 1057.63 1113.14C1056.82 1114.63 1055.33 1115.55 1053.83 1115.55Z" fill="url(#paint11_linear_18_59)"/>
<path d="M1018.65 1186.5C1018.08 1186.5 1017.5 1186.38 1016.93 1186.04L856.396 1108.99C854.326 1107.96 853.521 1105.55 854.441 1103.48C855.476 1101.41 857.891 1100.6 859.96 1101.52L1020.49 1178.56C1022.56 1179.6 1023.36 1182.01 1022.44 1184.08C1021.64 1185.58 1020.14 1186.5 1018.65 1186.5Z" fill="url(#paint12_linear_18_59)"/>
<path d="M537.888 744.36C437.041 780.582 404.268 820.254 430.371 895.687C451.875 958.012 463.259 970.891 463.259 970.891L468.203 970.316C481.082 963.877 488.672 962.727 501.206 958.472C502.241 954.447 502.011 962.957 503.046 958.932C507.645 946.628 479.472 891.548 483.267 861.075C486.487 834.972 506.381 817.839 528.229 805.765C560.426 787.826 597.339 779.777 630.571 763.793C637.471 760.459 648.625 753.559 660.699 747.58C636.206 729.066 598.374 722.627 537.888 744.36Z" fill="#000200"/>
<path d="M693.218 950.307C691.493 950.307 689.998 949.272 689.308 947.547C688.503 945.362 689.653 943.062 691.838 942.257C699.772 939.382 705.637 934.898 707.361 930.183C708.396 927.538 708.051 924.778 706.442 921.903C702.877 915.464 686.548 917.074 679.189 918.799C677.119 919.259 675.05 918.109 674.36 916.154L660.561 877.631C659.756 875.446 660.906 873.148 663.091 872.343C665.161 871.538 667.575 872.686 668.38 874.871L681.029 910.059C689.078 908.679 707.476 906.724 713.686 917.879C716.446 922.823 717.021 928.113 715.181 933.058C712.536 940.187 705.292 946.168 694.713 949.963C694.138 950.193 693.678 950.307 693.218 950.307Z" fill="#000200"/>
<path d="M678.499 863.148L681.488 871.542C685.398 882.35 702.186 876.371 698.276 865.448L695.287 857.055C691.492 846.362 674.589 852.34 678.499 863.148Z" fill="#000200"/>
<path d="M577.306 899.481L580.296 907.876C584.206 918.686 600.994 912.706 597.085 901.781L594.095 893.387C590.3 882.692 573.397 888.672 577.306 899.481Z" fill="#000200"/>
<path d="M576.971 856.824C569.842 858.664 563.057 860.963 556.388 864.067C551.213 866.597 556.043 874.071 561.218 871.541C567.082 868.667 573.407 866.942 579.731 865.217C585.251 863.953 582.491 855.444 576.971 856.824Z" fill="#000200"/>
<path d="M686.338 817.952C680.818 818.067 675.414 819.101 669.895 818.871C664.26 818.526 662.65 827.379 668.4 827.609C674.724 827.954 680.818 826.919 687.143 826.804C692.892 826.689 692.087 817.837 686.338 817.952Z" fill="#000200"/>
<path d="M607.223 1203.4C601.244 1203.4 595.149 1202.6 588.94 1201.11C553.293 1192.25 506.951 1153.61 493.497 1073.58C493.382 1072.77 493.497 1071.97 493.842 1071.16L513.621 1028.16C472.799 1035.75 447.961 1023.44 443.706 1011.83C441.637 1006.19 440.257 997.34 445.201 987.681C448.536 981.012 454.401 974.917 462.68 969.398L438.877 903.278C411.164 826.12 442.212 774.374 536.619 740.451C620.332 710.324 673.343 728.147 698.411 794.727C703.701 808.756 708.875 822.21 713.82 835.204C761.656 960.544 790.519 1036.21 754.987 1078.18C737.278 1099.11 710.6 1109.8 689.097 1118.31L659.199 1176.84C645.975 1194.32 627.692 1203.4 607.223 1203.4ZM501.777 1073.46C514.771 1148.67 557.777 1185.01 590.895 1193.17C615.388 1199.27 637.696 1191.68 652.3 1172.59L682.427 1113.37C682.887 1112.45 683.692 1111.76 684.612 1111.41L685.992 1110.84C707.725 1102.21 732.333 1092.32 748.777 1072.89C781.09 1034.6 752.917 960.658 706.115 838.193C701.171 825.2 695.996 811.746 690.707 797.717C667.479 736.197 617.918 719.983 539.264 748.271C448.881 780.698 420.363 827.729 446.466 900.633L469.694 965.258C477.514 961.118 486.828 957.324 497.867 953.989C500.052 953.299 502.352 954.564 502.927 956.749C503.617 958.934 502.352 961.233 500.167 961.808C474.754 969.513 458.31 979.747 452.331 991.476C449.456 997.226 449.111 1003.09 451.296 1009.18C453.826 1016.2 477.054 1028.73 519.6 1018.61C521.095 1018.27 522.705 1018.73 523.74 1019.99C524.775 1021.26 525.005 1022.87 524.315 1024.36L501.777 1073.46Z" fill="#000200"/>
<path d="M659.985 704.802C652.855 700.317 631.697 690.888 612.724 699.512C573.512 717.221 570.522 726.995 546.489 738.954C535.22 744.589 518.776 750.453 518.546 765.402C518.546 767.127 518.776 768.737 519.121 770.231C513.487 777.361 509.117 785.755 505.437 793.69C504.977 794.61 504.977 795.414 505.092 796.219C504.402 797.024 503.597 797.944 502.907 798.749C499.458 797.599 495.203 801.279 497.618 805.189C516.246 834.971 559.253 823.817 572.362 795.759C598.12 791.965 622.843 782.88 644.921 768.047C662.515 756.088 690.572 724.005 659.985 704.802Z" fill="#000200"/>
<path d="M731.283 961.92C725.534 964.91 719.784 968.016 714.035 971.006C708.975 973.651 713.575 981.357 718.634 978.597C724.384 975.606 730.133 972.501 735.883 969.511C741.057 966.866 736.343 959.275 731.283 961.92Z" fill="#000200"/>
<path d="M689.889 1113.71C689.084 1111.64 686.669 1110.6 684.599 1111.41C662.981 1120.03 636.993 1115.78 636.763 1115.66C635.268 1115.43 633.658 1116.01 632.738 1117.27C631.818 1118.54 631.703 1120.15 633.888 1124.63L655.506 1167.76C656.886 1162.81 661.026 1158.21 665.856 1156.83L683.335 1120.49C684.714 1120.03 686.209 1119.57 687.589 1119C689.774 1118.19 690.694 1115.78 689.889 1113.71Z" fill="#000200"/>
<path d="M400.805 1523.31C399.77 1523.31 398.62 1522.85 397.93 1522.04C396.665 1520.66 367.228 1486.51 439.671 1323.34C440.591 1321.27 443.006 1320.35 445.076 1321.27C447.145 1322.19 448.065 1324.6 447.145 1326.67C377.922 1482.6 403.795 1516.18 404.025 1516.52C405.405 1518.25 405.29 1520.78 403.68 1522.27C402.76 1522.96 401.725 1523.31 400.805 1523.31Z" fill="#000200"/>
<path d="M576.733 1573.55C574.663 1573.55 572.823 1571.94 572.708 1569.87C569.144 1533.08 511.188 1534.69 510.613 1534.8C508.658 1534.92 507.163 1533.77 506.588 1532.16C503.024 1522.61 497.274 1516.06 488.765 1512.38C462.662 1500.88 415.4 1517.09 372.738 1534.57C370.669 1535.38 368.254 1534.46 367.334 1532.27C366.529 1530.2 367.449 1527.79 369.634 1526.87C414.02 1508.82 463.237 1492.03 492.099 1504.79C501.759 1509.05 508.773 1516.41 513.258 1526.52C526.252 1526.64 577.078 1529.51 580.873 1569.07C581.103 1571.37 579.493 1573.32 577.193 1573.55C576.963 1573.55 576.848 1573.55 576.733 1573.55Z" fill="#000200"/>
<path d="M566.964 1779.28C566.044 1779.28 565.009 1778.93 564.319 1778.24C503.949 1726.27 530.857 1622.08 573.519 1566.88C574.439 1565.73 575.934 1565.16 577.313 1565.39C578.003 1565.5 594.102 1567.8 605.027 1570.68C606.291 1571.02 607.326 1571.94 607.786 1573.09C608.246 1574.36 608.131 1575.74 607.441 1576.77C532.237 1694.99 598.242 1769.16 601.117 1772.26C602.612 1773.99 602.497 1776.52 600.887 1778.01C599.277 1779.51 596.632 1779.39 595.137 1777.78C594.447 1776.98 523.727 1698.09 597.552 1577.12C590.423 1575.51 582.488 1574.24 578.578 1573.67C538.791 1626.8 513.838 1723.85 569.724 1771.92C571.449 1773.41 571.679 1775.94 570.184 1777.67C569.264 1778.82 568.114 1779.28 566.964 1779.28Z" fill="#000200"/>
<path d="M865.708 1690.4C859.269 1690.4 852.254 1690.28 844.665 1689.82C842.365 1689.71 840.64 1687.75 840.755 1685.57C840.87 1683.27 842.71 1681.43 845.01 1681.66C899.516 1684.42 921.594 1675.91 926.884 1673.49C927.459 1670.85 928.149 1664.98 924.584 1660.38C919.524 1653.83 907.565 1650.95 889.742 1652.33C858.809 1654.63 836.501 1647.16 830.176 1632.44C826.036 1622.89 829.601 1611.85 839.95 1602.42C853.289 1590.12 858.924 1591.73 866.628 1600.01C870.883 1604.61 876.173 1610.36 889.742 1611.05C901.931 1611.74 905.151 1609.55 905.381 1608.86C906.07 1606.68 899.516 1595.64 862.259 1574.71C836.846 1560.45 801.083 1565.4 755.662 1571.72C714.38 1577.47 662.979 1584.6 603.758 1578.85C601.458 1578.62 599.849 1576.67 600.078 1574.37C600.308 1572.07 602.263 1570.46 604.563 1570.69C662.864 1576.32 713.805 1569.19 754.627 1563.56C801.543 1557.12 838.57 1551.94 866.398 1567.47C917.8 1596.33 914.465 1607.37 913.43 1611.05C910.67 1620.36 894.686 1619.44 889.512 1619.1C872.608 1618.06 865.593 1610.47 860.879 1605.41C856.394 1600.58 855.474 1599.55 845.815 1608.29C838.111 1615.42 835.236 1622.78 837.996 1628.99C841.675 1637.38 857.314 1646.35 889.512 1643.94C910.44 1642.44 924.584 1646.24 931.483 1655.32C938.958 1665.21 934.703 1677.06 934.588 1677.52C934.243 1678.32 933.783 1679.01 932.978 1679.59C931.829 1680.16 915.73 1690.4 865.708 1690.4Z" fill="#000200"/>
<path d="M847.076 1725.12C845.007 1725.12 843.167 1723.51 843.052 1721.32C842.822 1719.02 844.547 1717.07 846.846 1716.95C888.588 1713.5 914.46 1709.71 920.325 1678.2C920.785 1676.02 922.855 1674.52 925.154 1674.87C927.339 1675.33 928.834 1677.4 928.489 1679.7C921.245 1718.91 885.483 1721.9 847.651 1725.12C847.306 1725.12 847.191 1725.12 847.076 1725.12Z" fill="#000200"/>
<path d="M833.047 1756.05C830.977 1756.05 829.252 1754.55 829.022 1752.48C828.677 1750.18 830.287 1748.23 832.587 1747.88C841.212 1746.73 848.917 1746.27 855.817 1745.93C881.691 1744.43 893.536 1743.74 898.711 1709.36C899.056 1707.17 901.126 1705.56 903.425 1705.91C905.61 1706.25 907.22 1708.32 906.875 1710.62C900.781 1751.68 883.071 1752.71 856.392 1754.21C849.722 1754.55 842.132 1755.01 833.852 1756.16C833.392 1756.05 833.277 1756.05 833.047 1756.05Z" fill="#000200"/>
<path d="M533.854 1779.39C471.529 1779.39 421.278 1777.32 378.156 1772.95C257.531 1760.99 185.662 1730.52 151.969 1677.05C122.647 1630.48 122.992 1567.23 153.234 1483.52L154.269 1480.65C154.729 1479.38 155.189 1478.12 155.649 1476.85C258.451 1194.66 363.668 1068.74 496.482 1068.74C496.827 1068.74 497.057 1068.74 497.402 1068.74C499.702 1068.74 501.542 1070.58 501.427 1072.88C501.427 1075.18 499.587 1076.91 497.287 1076.91C497.172 1076.91 496.712 1076.91 496.367 1076.91C367.577 1076.91 264.775 1201.22 163.238 1479.73C162.778 1480.99 162.319 1482.14 161.859 1483.41L160.824 1486.28C131.501 1567.35 130.811 1628.29 158.754 1672.57C190.951 1723.62 260.866 1752.95 378.731 1764.67C432.317 1770.08 497.172 1772.03 582.955 1770.77C598.594 1770.54 612.278 1769.5 629.756 1768.12C651.375 1766.51 678.168 1764.44 719.449 1763.29C731.523 1762.95 743.827 1762.72 756.016 1762.49C812.247 1761.45 875.837 1760.42 881.471 1742.94C882.161 1740.76 884.461 1739.61 886.646 1740.3C888.831 1740.99 889.981 1743.29 889.291 1745.47C881.931 1768.58 823.631 1769.5 756.246 1770.77C744.057 1771 731.753 1771.23 719.794 1771.57C678.743 1772.84 651.95 1774.79 630.446 1776.4C612.853 1777.67 599.054 1778.7 583.185 1779.05C566.052 1779.28 549.608 1779.39 533.854 1779.39Z" fill="#000200"/>
<path d="M493.823 1546.77C492.558 1546.77 491.293 1546.19 490.488 1545.04C489.223 1543.2 489.568 1540.67 491.408 1539.29L508.081 1527.33C509.921 1525.95 512.451 1526.41 513.831 1528.25C515.096 1530.09 514.751 1532.62 512.911 1534L496.237 1545.96C495.432 1546.54 494.628 1546.77 493.823 1546.77Z" fill="#000200"/>
<path d="M1044.42 1269.98C1043.61 1269.98 1042.81 1269.75 1042 1269.18C986.923 1229.5 808.112 1114.97 711.519 1108.42C709.22 1108.3 707.495 1106.35 707.725 1104.05C707.84 1101.75 709.91 1100.14 712.094 1100.25C829.385 1108.19 1044.65 1261.01 1046.83 1262.51C1048.67 1263.77 1049.13 1266.42 1047.75 1268.26C1046.95 1269.41 1045.68 1269.98 1044.42 1269.98Z" fill="#000200"/>
<path d="M1061.66 1496.06C982.087 1496.06 895.383 1472.37 821.789 1402.11C820.179 1400.5 820.064 1397.97 821.674 1396.36C823.284 1394.75 825.814 1394.63 827.423 1396.24C980.247 1541.94 1191.37 1482.72 1269.68 1431.2C1312.8 1402.8 1372.71 1324.03 1420.89 1260.78C1446.19 1227.55 1468.04 1198.92 1481.15 1186.04C1486.78 1180.52 1492.19 1174.88 1497.36 1169.48C1516.68 1149.24 1533.24 1131.88 1551.52 1133.83C1562.79 1135.1 1573.03 1143.72 1583.03 1160.28C1600.74 1189.72 1616.38 1191.33 1620.75 1190.98C1624.77 1190.75 1627.99 1188.91 1629.37 1186.04C1630.64 1183.16 1630.06 1179.71 1627.53 1176.49C1613.16 1157.75 1599.7 1114.86 1612.93 1086.45C1621.78 1067.48 1646.51 1075.3 1677.9 1085.19C1698.02 1091.51 1720.9 1098.76 1743.44 1100.25C1762.07 1101.52 1769.55 1097.72 1770.24 1095.77C1770.47 1095.19 1769.66 1093.47 1766.67 1091.4C1761.38 1087.72 1750.92 1084.27 1739.88 1080.59C1729.3 1077.14 1718.26 1073.58 1709.52 1068.98C1643.29 1034.82 1505.3 993.197 1416.64 1026.66C1324.99 1061.27 1216.09 1175.57 1214.94 1176.72C1213.68 1177.99 1211.84 1178.33 1210.23 1177.64C1190.34 1168.44 1172.28 1167.41 1156.3 1174.54C1123.53 1189.26 1110.07 1233.76 1109.96 1234.22C1109.5 1235.83 1108 1237.09 1106.28 1237.09C1105.82 1237.09 1057.64 1240.43 1044.53 1281.37C1043.84 1283.55 1041.54 1284.7 1039.35 1284.01C1037.17 1283.32 1036.02 1281.02 1036.71 1278.84C1049.59 1238.7 1091.56 1230.66 1102.94 1229.16C1106.51 1218.81 1121.34 1181.32 1152.96 1167.06C1170.44 1159.13 1189.99 1159.82 1211.03 1169.02C1226.56 1153.04 1327.29 1051.61 1413.76 1018.95C1504.84 984.572 1645.82 1026.89 1713.32 1061.73C1721.48 1065.99 1732.17 1069.44 1742.52 1072.77C1754.25 1076.57 1765.18 1080.25 1771.5 1084.61C1779.78 1090.48 1778.86 1096.23 1778.06 1098.41C1775.3 1106.12 1762.88 1109.68 1742.98 1108.42C1719.29 1106.92 1696.07 1099.45 1675.48 1093.01C1645.01 1083.35 1625.92 1078.06 1620.4 1089.9C1609.02 1114.4 1620.63 1153.84 1634.09 1171.43C1638.34 1177.07 1639.38 1183.74 1636.85 1189.37C1634.2 1195.12 1628.45 1198.69 1621.32 1199.15C1614.19 1199.49 1595.68 1196.96 1576.13 1164.42C1567.62 1150.16 1559.23 1142.8 1550.83 1141.88C1536.69 1140.27 1521.28 1156.37 1503.57 1175.11C1498.28 1180.63 1492.88 1186.38 1487.13 1191.9C1474.36 1204.32 1452.75 1232.73 1427.68 1265.73C1379.15 1329.55 1318.78 1408.89 1274.51 1437.98C1231.85 1465.93 1151.24 1496.06 1061.66 1496.06Z" fill="#000200"/>
<path d="M1411.24 1284.36C1410.78 1284.36 1410.44 1284.25 1409.98 1284.13C1408.71 1283.67 1278.42 1241.12 1270.26 1115.44C1270.14 1113.14 1271.87 1111.18 1274.05 1111.07C1276.24 1110.95 1278.31 1112.68 1278.42 1114.86C1286.24 1235.03 1411.24 1275.85 1412.51 1276.31C1414.69 1277 1415.84 1279.3 1415.15 1281.49C1414.58 1283.21 1412.97 1284.36 1411.24 1284.36Z" fill="#000200"/>
<path d="M1396.06 1304.02C1395.83 1304.02 1395.6 1304.02 1395.37 1304.02C1394.11 1303.79 1270.37 1282.06 1252.78 1131.19C1252.55 1128.89 1254.16 1126.94 1256.35 1126.59C1258.65 1126.36 1260.6 1127.97 1260.95 1130.16C1277.85 1275.04 1395.6 1295.74 1396.75 1295.86C1398.94 1296.2 1400.55 1298.27 1400.2 1300.57C1399.74 1302.64 1398.02 1304.02 1396.06 1304.02Z" fill="#000200"/>
<path d="M1613.04 1134.75C1611.78 1134.75 1610.51 1134.18 1609.71 1133.03C1608.33 1131.19 1608.79 1128.66 1610.63 1127.28C1610.63 1127.28 1617.3 1122.22 1618.1 1114.4C1618.68 1108.99 1616.26 1103.24 1611.09 1097.38C1609.59 1095.65 1609.71 1093.12 1611.43 1091.63C1613.16 1090.13 1615.69 1090.25 1617.18 1091.97C1624.08 1099.68 1627.18 1107.5 1626.26 1115.32C1625 1126.82 1615.8 1133.6 1615.46 1133.83C1614.65 1134.52 1613.85 1134.75 1613.04 1134.75Z" fill="#000200"/>
<path d="M1668.93 1215.36C1667.89 1215.36 1666.86 1215.13 1665.82 1214.78C1655.94 1211.22 1654.33 1192.13 1658.01 1175C1663.41 1149.58 1655.25 1114.63 1636.16 1081.62C1635.01 1079.67 1635.7 1077.14 1637.65 1075.99C1639.61 1074.84 1642.14 1075.53 1643.29 1077.48C1663.3 1112.21 1671.8 1149.35 1666.05 1176.72C1662.26 1194.43 1665.82 1206.04 1668.58 1207.08C1669.85 1207.54 1675.02 1205.24 1682.96 1189.72C1698.6 1159.13 1682.27 1101.05 1676.63 1093.47C1675.48 1093.01 1674.45 1091.86 1674.22 1090.48C1673.76 1088.29 1675.25 1086.11 1677.44 1085.65C1678.82 1085.3 1680.89 1085.65 1682.96 1088.29C1689.97 1097.6 1707.68 1159.24 1690.2 1193.4C1682.84 1208 1675.71 1215.36 1668.93 1215.36Z" fill="#000200"/>
<path d="M1622.36 1164.08C1621.21 1164.08 1620.06 1163.62 1619.26 1162.58C1617.76 1160.86 1617.99 1158.33 1619.72 1156.84C1632.13 1146.26 1651.91 1125.56 1651.91 1115.21C1651.91 1112.91 1653.75 1111.07 1656.05 1111.07C1658.35 1111.07 1660.19 1112.91 1660.19 1115.21C1660.19 1132.69 1628.69 1160.05 1625.12 1163.04C1624.2 1163.73 1623.28 1164.08 1622.36 1164.08Z" fill="#000200"/>
<path d="M864.114 1575.17C862.275 1575.17 860.55 1573.91 860.09 1571.95L810.644 1356.11C810.184 1354.04 811.334 1351.97 813.289 1351.28C815.244 1350.59 817.428 1351.51 818.348 1353.46C834.677 1389.11 903.786 1450.29 904.476 1450.86C906.201 1452.36 906.316 1455 904.821 1456.61C903.326 1458.34 900.681 1458.45 899.072 1456.96C896.657 1454.89 850.201 1413.72 824.213 1378.42L868.254 1570C868.714 1572.18 867.334 1574.37 865.149 1574.94C864.804 1575.06 864.459 1575.17 864.114 1575.17Z" fill="#000200"/>
<path d="M819.035 1365.54L823.635 1397.63C823.635 1397.63 892.63 1449.49 893.32 1449.49C893.895 1449.6 819.035 1365.54 819.035 1365.54Z" fill="#000200"/>
<path d="M1105.94 1269.98C1103.64 1269.98 1101.8 1268.14 1101.8 1265.84V1233.18C1101.8 1230.88 1103.64 1229.04 1105.94 1229.04C1108.24 1229.04 1110.08 1230.88 1110.08 1233.18V1265.84C1109.96 1268.14 1108.12 1269.98 1105.94 1269.98Z" fill="#000200"/>
<path d="M1079.49 1822.63C1077.31 1822.63 1075.47 1820.77 1075.36 1818.42C1075.24 1815.94 1076.96 1813.96 1079.26 1813.83L1259.92 1804.17L1252.79 1675.62C1252.67 1674.38 1253.13 1673.26 1253.94 1672.27C1254.74 1671.4 1255.78 1670.91 1256.93 1670.91H1392.04V1497.27C1392.04 1494.79 1393.88 1492.81 1396.18 1492.81H1574.99L1568.09 1321.65C1567.98 1319.3 1569.59 1317.32 1571.66 1317.07L1728.16 1296.26V1170.8C1728.16 1169.56 1728.62 1168.45 1729.42 1167.58C1730.23 1166.71 1731.26 1166.34 1732.41 1166.34L1863.04 1173.03L1854.42 1023.54C1854.31 1021.07 1856.03 1018.96 1858.22 1018.84C1860.51 1018.84 1862.47 1020.57 1862.58 1022.93L1871.44 1177.37C1871.55 1178.6 1871.09 1179.84 1870.29 1180.71C1869.48 1181.58 1868.33 1182.07 1867.18 1182.07L1736.21 1175.38V1300.35C1736.21 1302.58 1734.71 1304.44 1732.64 1304.68L1576.26 1325.37L1583.16 1497.02C1583.16 1498.26 1582.81 1499.38 1582.01 1500.24C1581.2 1501.11 1580.17 1501.61 1579.02 1501.61H1399.98V1675.24C1399.98 1677.72 1398.14 1679.7 1395.84 1679.7H1260.95L1268.08 1808.01C1268.2 1809.25 1267.74 1810.36 1267.05 1811.23C1266.36 1812.1 1265.32 1812.59 1264.17 1812.72L1079.38 1822.63C1079.61 1822.63 1079.49 1822.63 1079.49 1822.63Z" fill="#000200"/>
<path d="M1899.49 1084.62H1812.21C1810.49 1084.62 1808.99 1082.44 1808.42 1079.29C1807.84 1075.9 1808.19 1072.27 1809.45 1069.85L1855.68 977.568C1856.48 975.872 1857.52 975.146 1858.67 975.146C1859.82 975.146 1860.74 976.114 1861.54 977.81L1902.48 1070.09C1903.63 1072.51 1903.86 1076.38 1903.28 1079.53C1902.59 1082.68 1901.1 1084.62 1899.49 1084.62ZM1822.56 1067.42H1889.94L1858.32 995.975L1822.56 1067.42Z" fill="#000200"/>
<path d="M1091.33 1569.56C1090.53 1568.52 1089.49 1567.93 1088.34 1567.93H939.085C937.935 1567.93 936.9 1568.52 936.095 1569.56C935.29 1570.6 934.945 1572.08 934.945 1573.57L947.365 1817.72C947.48 1820.54 949.319 1822.62 951.504 1822.62H1079.49C1081.68 1822.62 1083.52 1820.4 1083.63 1817.57L1092.48 1573.42C1092.48 1572.08 1092.02 1570.6 1091.33 1569.56ZM1065.92 1738.57C1065.92 1741.54 1064.08 1743.91 1061.78 1743.91C1059.48 1743.91 1057.64 1741.54 1057.64 1738.57V1640.1C1057.64 1637.13 1059.48 1634.76 1061.78 1634.76C1064.08 1634.76 1065.92 1637.13 1065.92 1640.1V1738.57Z" fill="#000200"/>
<path d="M941.504 1667.97H909.077C906.777 1667.97 904.938 1653.35 904.938 1635.08C904.938 1616.81 906.777 1602.19 909.077 1602.19H941.504C943.803 1602.19 945.643 1616.81 945.643 1635.08C945.643 1653.35 943.803 1667.97 941.504 1667.97Z" fill="#000200"/>
<path d="M860.547 1708.44C858.937 1708.44 857.442 1706.34 856.867 1702.93C856.522 1701.1 848.128 1655.77 869.402 1608.61C871.012 1604.94 873.657 1605.2 875.152 1608.87C876.761 1612.54 876.646 1618.56 875.037 1621.97C858.017 1659.7 863.997 1694.03 864.342 1695.34C865.262 1700.05 864.227 1705.55 862.157 1707.65C861.582 1708.17 861.007 1708.44 860.547 1708.44Z" fill="#000200"/>
<path d="M901.715 1776.94C899.415 1776.94 897.575 1762.41 897.575 1744.25C897.575 1726.08 899.415 1711.55 901.715 1711.55C940.929 1710.64 948.288 1711.55 948.633 1711.55C950.933 1711.55 952.658 1726.99 952.658 1745.15C952.658 1763.32 950.818 1777.85 948.403 1776.94C948.288 1776.94 940.699 1775.12 901.715 1776.94Z" fill="#000200"/>
<defs>
<linearGradient id="paint0_linear_18_59" x1="1285" y1="989" x2="1577" y2="285" gradientUnits="userSpaceOnUse">
<stop stop-color="#2072FF"/>
<stop offset="1" stop-color="#0451E5"/>
</linearGradient>
<linearGradient id="paint1_linear_18_59" x1="91" y1="1634.71" x2="341.687" y2="1675.99" gradientUnits="userSpaceOnUse">
<stop stop-color="#FF6105"/>
<stop offset="1" stop-color="#FF2327"/>
</linearGradient>
<linearGradient id="paint2_linear_18_59" x1="1499.26" y1="1584.02" x2="1499.26" y2="1802.27" gradientUnits="userSpaceOnUse">
<stop stop-color="#0451E5"/>
<stop offset="1" stop-color="#2072FF"/>
</linearGradient>
<linearGradient id="paint3_linear_18_59" x1="1585.9" y1="1512.15" x2="1585.9" y2="1802.27" gradientUnits="userSpaceOnUse">
<stop stop-color="#0451E5"/>
<stop offset="1" stop-color="#2072FF"/>
</linearGradient>
<linearGradient id="paint4_linear_18_59" x1="1679.15" y1="1557.8" x2="1679.15" y2="1802.27" gradientUnits="userSpaceOnUse">
<stop stop-color="#0451E5"/>
<stop offset="1" stop-color="#2072FF"/>
</linearGradient>
<linearGradient id="paint5_linear_18_59" x1="130.027" y1="1200.71" x2="180.057" y2="1206.87" gradientUnits="userSpaceOnUse">
<stop stop-color="#FF6105"/>
<stop offset="1" stop-color="#FF2327"/>
</linearGradient>
<linearGradient id="paint6_linear_18_59" x1="873.196" y1="536.11" x2="873.196" y2="608.21" gradientUnits="userSpaceOnUse">
<stop stop-color="#0451E5"/>
<stop offset="1" stop-color="#2072FF"/>
</linearGradient>
<linearGradient id="paint7_linear_18_59" x1="833.187" y1="929.389" x2="1025.14" y2="952.895" gradientUnits="userSpaceOnUse">
<stop stop-color="#FF6105"/>
<stop offset="1" stop-color="#FF2327"/>
</linearGradient>
<linearGradient id="paint8_linear_18_59" x1="991.878" y1="1009.18" x2="1186.39" y2="1032.3" gradientUnits="userSpaceOnUse">
<stop stop-color="#FF6105"/>
<stop offset="1" stop-color="#FF2327"/>
</linearGradient>
<linearGradient id="paint9_linear_18_59" x1="977.576" y1="889.447" x2="1124.07" y2="957.45" gradientUnits="userSpaceOnUse">
<stop stop-color="#FF6105"/>
<stop offset="1" stop-color="#FF2327"/>
</linearGradient>
<linearGradient id="paint10_linear_18_59" x1="935.032" y1="974.653" x2="1081.52" y2="1042.65" gradientUnits="userSpaceOnUse">
<stop stop-color="#FF6105"/>
<stop offset="1" stop-color="#FF2327"/>
</linearGradient>
<linearGradient id="paint11_linear_18_59" x1="889.245" y1="1062.85" x2="1035.74" y2="1130.86" gradientUnits="userSpaceOnUse">
<stop stop-color="#FF6105"/>
<stop offset="1" stop-color="#FF2327"/>
</linearGradient>
<linearGradient id="paint12_linear_18_59" x1="854.063" y1="1133.8" x2="1000.56" y2="1201.8" gradientUnits="userSpaceOnUse">
<stop stop-color="#FF6105"/>
<stop offset="1" stop-color="#FF2327"/>
</linearGradient>
</defs>
</svg>
